<svg xmlns="http://www.w3.org/2000/svg" width="554.22467" height="454.45651" viewBox="0 0 554.22467 454.45651" xmlns:xlink="http://www.w3.org/1999/xlink"><g><rect x="481.85422" y="338.87527" width="6.31" height="18.73999" fill="#f2f2f2"/><path d="M520.15729,353.29101h-70.29144c-5.22589,0-9.46228-4.23642-9.46228-9.46231h0c0-5.22589,4.23639-9.46231,9.46228-9.46231h70.29144c5.22589,0,9.46228,4.23642,9.46228,9.46231h0c0,5.22589-4.23639,9.46231-9.46228,9.46231Z" fill="#f2f2f2"/><path d="M525.56427,353.29101h0c4.23047,0,7.65997-3.42947,7.65997-7.65994v-91.01839c0-4.23048-3.4295-7.65994-7.65997-7.65994h0c-4.23047,0-7.65997,3.42947-7.65997,7.65996-23.26508,17.80426-13.80908,53.23856,0,91.01837,0,4.23047,3.4295,7.65997,7.65997,7.65997v-.00003Z" fill="#f2f2f2"/><path d="M516.17419,313.28524c-1.04004,4.65997-3,8.34003-5.46002,11.23999-5.01001,5.92999-12.10999,8.62-17.70996,9.84003-5.03003,1.09998-8.85004,1.01001-8.85004,1.01001l-23.64996,1.94995-18.69,1.54004-18.78003,1.54999c1.07001,4.5,2.09003,9.66998,3.06,15.20001,.10999,.65997,.22998,1.32996,.34998,2h-38.13995l-.64001-2-3.91998-12.15002-7.95001-17.37c-1.45001-2.83002-2.17999-5.91998-2.17999-9.02997,0-2.07001,.32996-4.13,.97998-6.13,.01001-.03003,.01001-.06,.02002-.09003,1.52997-4.62,5.31-8.15997,9.98999-9.57001l5.65002-1.70996c16.01996-3.74005,38.46997-9.57001,55.58997-14.09003,14.29999-3.78003,24.87-6.65997,24.87-6.65997l.03003-.20001,2.95996-20.23999,29.51001-2.59003,9.59003-.84998s-.21002,1-.13,4.58997c0,.22003,0,.45001,.01001,.67999,.01996,.70001,.04999,1.5,.08997,2.39001,.01001,.29999,.03003,.60999,.04999,.92999,.03003,.62,.07001,1.28003,.12,1.98999,0,.05005,0,.10004,.01001,.15002,.05005,.89001,.12,1.85999,.21002,2.90002,.02002,.42999,.06,.87,.09998,1.31995,.19,2.27002,.42999,4.87006,.74005,7.83002,.01996,.29999,.04999,.60004,.08997,.90002,.03998,.46997,.09003,.94,.14001,1.41998,.09998,.84003,.19,1.70001,.28998,2.59998,.01001,.09003,.02002,.17004,.03003,.26001,.08997,.79004,.19,1.60004,.27997,2.44,.10999,.91003,.22003,1.84003,.34003,2.79004,.07001,.63995,.14996,1.29999,.23999,1.97998,.03998,.32001,.08002,.65002,.12,.97998,.04999,.35004,.09003,.71002,.14001,1.07001,.08002,.64001,.15997,1.29999,.25,1.97003,.19,1.48999,.39996,3.02997,.60999,4.63,.77002,5.66998,.54999,10.47998-.35999,14.52997Z" fill="#2f2e41"/><path d="M516.17419,313.28524l-7.73004,3.34003-41.08997,17.73999-6.84998,2.95996-16.82001,7.26001c.47998,2.53003,.98999,5.03003,1.53998,7.48999,.26001,1.19,.52002,2.37,.79999,3.54004,.16003,.66998,.31,1.32996,.48004,2h-34.04004l-.26001-2-.98999-7.83002c-1.96997-1.76001-3.13-5.13-3.83002-8.71002-.69995-3.56995-.94995-7.38-1.12-10.01996,0-.03003,0-.07001-.00995-.10004-.28003-4.88,9.25-8.12,13.06-11.15997l4.67999-1.54999c9.66998-6.71002,24.03998-16.87,37.94995-26.73999,5.27002-3.74005,10.48004-7.44,15.33002-10.89001,15.08002-10.73999,26.82001-19.13,26.82001-19.13l-.88-3.70001,9.59003-.84998s-.21002,1-.13,4.58997c0,.22003,0,.45001,.01001,.67999,.01996,.71002,.04999,1.5,.08997,2.39001,.01001,.29999,.03003,.60999,.04999,.92999,.03003,.62,.07001,1.28003,.12,1.98999,0,.05005,0,.10004,.01001,.15002,.05005,.89001,.12,1.85999,.21002,2.90002,.02002,.42999,.06,.87,.09998,1.31995,.17999,2.27002,.42004,4.86005,.74005,7.83002,.01996,.29999,.04999,.60004,.08997,.90002,.03998,.46997,.09003,.94,.14001,1.41998,.09998,.84003,.19,1.71002,.28998,2.59998,.01001,.09003,.02002,.17004,.03003,.26001,.08997,.79004,.19,1.60004,.27997,2.44,.10999,.91003,.22003,1.84003,.34003,2.79004,.08002,.64996,.15997,1.31,.23999,1.97998,.03998,.32001,.08002,.65002,.12,.97998,.04999,.35004,.09003,.71002,.14001,1.07001,.08002,.64001,.15997,1.29999,.25,1.97003,.19,1.48999,.39996,3.02997,.60999,4.63,.77002,5.66998,.54999,10.47998-.35999,14.52997Z" fill="#2f2e41"/><path d="M522.3285,265.20811c1.57001,6.71002,.94,11.31,.32001,17.87-.23004,2.42004,.56,5.90002-1.79004,7.53003-2.01001,1.37-74.32001,.71997-74.98999-4.88-.76001-6.33002,.72003-12.96997,3.81-18.67999,5.59003-10.34003,8.79004-23,10.42999-31.98999,3.47003-18.89001-4.34998-29.15002-1.42999-47.98999,.5-3.21002,.60004-6.25,.48004-9.16003-.40002-10.10999-3.52002-18.69-2.53003-27.39996,.40997-3.58002,1.51001-7.18005,3.78003-10.92004,.66998-1.10999,1.43994-2.22998,2.32996-3.35999,5.16003-6.58002,6.51001-11.53998,15.47003-11.52997,1.37,0,2.82996-.09003,4.31-.16003,2.37-.13,4.78998-.21997,6.92999,.16003,5.14001,.90997,4,4.13995,7.32001,7.67999l1.27997,1.27997c3.20001,2.52002,5.97003,4.48999,8.77002,7.53003,5.62,6.09998,12.28998,12.95996,15.59998,20.57996,2.24005,5.17004,.88,13.07001,.82001,18.71002-.07001,7.25-2.31,13.34003-4.17999,20.25-1.63,6-2.06,12.29999-3.16998,18.42999-1.42999,7.92999-2.72998,15.75-3.39001,23.73999-.51001,6.27002,8.33002-4.09998,8.34998,2.17999,.02002,6.51001,0,13.83002,1.48004,20.13Z" fill="#3f3d56"/><g><path d="M397.07141,144.43174l22.26801,3.98663-.50257,13.0385-23.39313-5.05261c-.63761,.35744-1.33697,.62957-2.08813,.79376-4.08544,.89296-8.12129-1.69507-9.01422-5.78052-.89296-4.08544,1.69508-8.12127,5.78055-9.01424,2.60549-.56948,5.18677,.28094,6.94956,2.02848h-.00006Z" fill="#ffb6b6"/><path d="M486.25849,175.03813c-.97998,2-2.5,3.72998-4.45001,4.98999-2.88,1.85999-6.26001,2.37-9.39001,1.69-.38-.08002-1.66998-.44-3.64996-1.01996-.34003-.10004-.70001-.20001-1.08002-.31006-2.25-.64996-5.17999-1.50995-8.52997-2.47998-3.32001-.96997-7.08002-2.06-10.97003-3.17999l-.02002,.01001c-1.17999-.35999-2.39996-.71002-3.60999-1.06h-.02002c-9.04999-2.57001-18.51996-5.19-25.41998-6.87-.32001-.09003-1.97998,1.5-2.28998,1.41998-.48004-.12-.57001-1.95001-1.02002-2.06-.96997-.23999-2.23999,1.27002-3.03998,1.07001-2.91003-.71002-4.07001-6.90002-4.07001-6.90002l.13-1.03998,1.45996-12.5,.02002-.22003,8.22998-2.58997,2.74005,2.64996,3.79999-1.57996,3.53998,2.64996,7.22998,.72003,3.12006,.32001,.20996,.01001,17.45001,1.75,5.14001,.51996c-.41003-2.07996-.73004-4.14001-.96002-6.16998-.06-.57001-.12-1.13-.15997-1.69l-.01001-.01001c-.10999-1.20001-.17999-2.38-.22998-3.57001,.66998-1.10999,1.43994-2.22998,2.32996-3.35999,5.16003-6.58002,6.51001-11.53998,15.47003-11.52997,1.37,0,2.82996-.09003,4.31-.16003l2.31,20.46002,2.53998,22.5,.08002,.72998c.26001,2.40002-.16998,4.75-1.19,6.81Z" fill="#3f3d56"/></g><path d="M443.01468,137.94363c-1.14001-.82001-2.60004-.96997-3.89001-.39996l-38.85999,17.13c-3.53998,1.56-7.53998,1.83997-11.26001,.78998l-.57004-.15996c1.61841-14.37717-2.51111-29.84946-10.62-46.08002-1.04999-.14001-2.09995,.14-2.94998,.79998-1,.78003-1.56,1.96002-1.51996,3.23999l1.21997,45.06001,.41,14.96004c-8.86249,10.61673-12.0675,20.43903,.75995,28.01001,.04004,1.40997,.81003,2.66997,2.05008,3.34998,1.23999,.69,2.70996,.66998,3.92999-.04999l.78998-.47003,10.66998,14.95001c.71002-.27997,1.45001-.41998,2.20001-.41998,1.03003,0,2.06,.26001,2.97998,.78998l19.41003,11.17004,13.21997,7.60999c1.17999,.67999,2.61005,.70996,3.82001,.08002,1.21002-.64001,1.98999-1.83002,2.10999-3.19l.37006-4.5,1.22998-14.80005,2.02002-24.41998,.95996-11.65002,.15002-1.73999,3.01996-36.51001c.12006-1.40997-.5-2.73999-1.64996-3.54999v-.00003Z" fill="#f2f2f2"/><path d="M446.01468,142.94363c-1.14001-.82001-2.60006-.96998-3.89004-.39997-14.05731,10.82278-27.65094,19.49805-38.85999,17.13-3.53998,1.56-7.53995,1.83998-11.25998,.78999l-.57004-.15996c1.61841-14.37717-2.51111-29.84946-10.62-46.08002-1.04999-.14001-2.09995,.14-2.94998,.79998-1,.78003-1.56,1.96002-1.51996,3.23999l1.21997,45.06001,.41,14.96004c-8.86249,10.61673-12.0675,20.43903,.75995,28.01001,.04004,1.40997,.81003,2.66997,2.05008,3.34998,1.23999,.69,2.70996,.66998,3.92999-.04999l.78998-.47003,10.66998,14.95001c.71002-.27997,1.45001-.41998,2.20001-.41998,1.03003,0,2.06,.26001,2.97998,.78998l19.41003,11.17004,13.21997,7.60999c1.17999,.67999,2.61005,.70996,3.82001,.08002,1.21002-.64001,1.98999-1.83002,2.10999-3.19l.37006-4.5,1.22998-14.80005,2.02002-24.41998,.95996-11.65002,.15002-1.73999,3.01996-36.51001c.12006-1.40997-.5-2.73999-1.64996-3.54999v-.00003Z" fill="#e6e6e6"/><rect x="408.76547" y="166.82579" width="30.69281" height="1.80193" transform="translate(-27.62364 104.97193) rotate(-13.66881)" fill="#fff"/><rect x="408.76547" y="180.34337" width="30.69281" height="1.80193" transform="translate(-30.81797 105.35477) rotate(-13.66881)" fill="#fff"/><rect x="423.21095" y="180.3167" width="1.80194" height="30.69281" transform="translate(219.5529 615.55664) rotate(-88.79224)" fill="#fff"/><rect x="423.21092" y="193.83429" width="1.80194" height="30.69281" transform="translate(190.67122 620.43842) rotate(-86.67308)" fill="#fff"/><rect x="421.40854" y="208.25304" width="1.80194" height="30.69281" transform="translate(134.60901 605.1364) rotate(-80.88143)" fill="#fff"/><path d="M315.59061,235.61526h231.09433c1.9873,0,3.59833,4.56352,3.59833,10.19292v22.61418c0,5.62939-1.61102,10.1929-3.59833,10.1929h-197.09436c-1.9873,0-3.59833-4.56351-3.59833-10.1929l-34-22.61418c0-5.62939,1.61102-10.19292,3.59833-10.19292h.00003Z" fill="#f2f2f2"/><path d="M481.56473,91.20262c-.16003-.28003-.33002-.54999-.51001-.81-.17004-.27002-.36005-.53003-.54999-.78003-.09003-.13-.18005-.25-.28003-.35999-.90002-1.15002-1.90002-2.08002-2.91998-2.64001-.07001-.03998-.14001-.07996-.21002-.10999-.15997-.08997-.32001-.15997-.48999-.21997-.31-.12-.62-.21002-.94-.25-.15002-.02002-.29999-.03003-.45001-.03003-.10999,0-.21997,.01001-.33002,.02002-.06,.01001-.12994,.01996-.19995,.02997-.08002,.01001-.17004,.03003-.25,.04999-.09003,.02002-.17999,.05005-.26001,.08002-.08002,.03003-.16998,.06-.25,.10004-.09003,.03998-.17999,.07996-.26001,.13-.09003,.04999-.16998,.09998-.25,.14996-.09003,.06-.16998,.12-.25,.17999,3.06,1.73004,6.06,3.57001,8.97998,5.5-.17999-.35999-.37-.70001-.57996-1.03998v.00002Z" fill="#3f3d56"/><path d="M481.56473,91.20262c-.16003-.28003-.33002-.54999-.51001-.81-.17004-.27002-.36005-.53003-.54999-.78003-.09003-.13-.18005-.25-.28003-.35999-.90002-1.15002-1.90002-2.08002-2.91998-2.64001-.07001-.03998-.14001-.07996-.21002-.10999-.15997-.08997-.32001-.15997-.48999-.21997-.31-.12-.62-.21002-.94-.25-.15002-.02002-.29999-.03003-.45001-.03003-.10999,0-.21997,.01001-.33002,.02002-.06,.01001-.12994,.01996-.19995,.02997-.08002,.01001-.17004,.03003-.25,.04999-.09003,.02002-.17999,.05005-.26001,.08002-.08002,.03003-.16998,.06-.25,.10004-.09003,.03998-.17999,.07996-.26001,.13-.09003,.04999-.16998,.09998-.25,.14996-.09003,.06-.16998,.12-.25,.17999,3.06,1.73004,6.06,3.57001,8.97998,5.5-.17999-.35999-.37-.70001-.57996-1.03998v.00002Z" fill="#3f3d56"/><path d="M531.53473,64.61257H207.7247v2h188.82001c19.16998,0,37.52002,3.46002,54.47998,9.80005h.01001c2.33002,.87,4.62,1.78998,6.89001,2.76996,5.23999,2.23999,10.32001,4.77002,15.23999,7.56,3.06,1.73004,6.06,3.57001,8.97998,5.5,6.23999,4.10999,12.16003,8.66003,17.72003,13.60999l.01001,.01001c.25,.21002,.48999,.42004,.72998,.65002,31.68997,28.48997,51.62003,69.81,51.62003,115.77997v112.63c0,11.17999-8.85999,20.28003-19,9.75-.22998-.23999-.46002-.47998-.69-.73999h-193.81003v13.67999h192.80997c12.51001,0,22.69-10.17999,22.69-22.69V87.30258c0-12.51001-10.17999-22.69-22.69-22.69h.00006Z" fill="#3f3d56"/><path d="M481.56473,91.20262c-.16003-.28003-.33002-.54999-.51001-.81-.17004-.27002-.36005-.53003-.54999-.78003-.09003-.13-.18005-.25-.28003-.35999-.90002-1.15002-1.90002-2.08002-2.91998-2.64001-.07001-.03998-.14001-.07996-.21002-.10999-.15997-.08997-.32001-.15997-.48999-.21997-.31-.12-.62-.21002-.94-.25-.15002-.02002-.29999-.03003-.45001-.03003-.10999,0-.21997,.01001-.33002,.02002-.06,.01001-.12994,.01996-.19995,.02997-.08002,.01001-.17004,.03003-.25,.04999-.09003,.02002-.17999,.05005-.26001,.08002-.08002,.03003-.16998,.06-.25,.10004-.09003,.03998-.17999,.07996-.26001,.13-.09003,.04999-.16998,.09998-.25,.14996-.09003,.06-.16998,.12-.25,.17999,3.06,1.73004,6.06,3.57001,8.97998,5.5-.17999-.35999-.37-.70001-.57996-1.03998v.00002Z" fill="#3f3d56"/><path d="M481.56473,91.20262c-.16003-.28003-.33002-.54999-.51001-.81-.17004-.27002-.36005-.53003-.54999-.78003-.09003-.13-.18005-.25-.28003-.35999-.90002-1.15002-1.90002-2.08002-2.91998-2.64001-.07001-.03998-.14001-.07996-.21002-.10999-.15997-.08997-.32001-.15997-.48999-.21997-.31-.12-.62-.21002-.94-.25-.15002-.02002-.29999-.03003-.45001-.03003-.10999,0-.21997,.01001-.33002,.02002-.06,.01001-.12994,.01996-.19995,.02997-.08002,.01001-.17004,.03003-.25,.04999-.09003,.02002-.17999,.05005-.26001,.08002-.08002,.03003-.16998,.06-.25,.10004-.09003,.03998-.17999,.07996-.26001,.13-.09003,.04999-.16998,.09998-.25,.14996-.09003,.06-.16998,.12-.25,.17999,3.06,1.73004,6.06,3.57001,8.97998,5.5-.17999-.35999-.37-.70001-.57996-1.03998v.00002Z" fill="#3f3d56"/><path d="M481.56473,91.20262c-.16003-.28003-.33002-.54999-.51001-.81-.17004-.27002-.36005-.53003-.54999-.78003-.09003-.13-.18005-.25-.28003-.35999-.90002-1.15002-1.90002-2.08002-2.91998-2.64001-.07001-.03998-.14001-.07996-.21002-.10999-.15997-.08997-.32001-.15997-.48999-.21997-.31-.12-.62-.21002-.94-.25-.15002-.02002-.29999-.03003-.45001-.03003-.10999,0-.21997,.01001-.33002,.02002-.06,.01001-.12994,.01996-.19995,.02997-.08002,.01001-.17004,.03003-.25,.04999-.09003,.02002-.17999,.05005-.26001,.08002-.08002,.03003-.16998,.06-.25,.10004-.09003,.03998-.17999,.07996-.26001,.13-.09003,.04999-.16998,.09998-.25,.14996-.09003,.06-.16998,.12-.25,.17999,3.06,1.73004,6.06,3.57001,8.97998,5.5-.17999-.35999-.37-.70001-.57996-1.03998v.00002Z" fill="#3f3d56"/><path d="M474.27054,119.8589c.58435,.07023,1.16687,.12295,1.74646,.14939,1.8031,.09888,3.58459-.00392,5.30133-.29502,5.21655-.83606,9.95557-3.3068,13.61237-6.93007,3.86597-3.8232,6.51172-8.92612,7.22693-14.73544,1.67548-13.71253-8.08887-26.2037-21.80139-27.87921-13.51575-1.66119-25.8363,7.79207-27.80298,21.18982-.03094,.2074-.06281,.40608-.08502,.61255-1.67456,13.72131,8.0802,26.20464,21.80237,27.88799h-.00006Z" fill="#ffb6b6"/><path d="M446.91452,90.44049c3.55206,1.7566,9.35608-3.76584,11.57898-.5885,.36102-.68664,.75989-1.3507,1.15381-1.9787,.35663-.56192,.86652-1.76144,1.45673-1.96687-.74683,1.80181-.58209,4.24206,.19293,6.33278,3.50397,1.30921,8.09052-1.58882,11.3335-5.0167,5.09229-5.3749,13.40723,8.40795,11.44116,15.54083,2.50214-3.05542,7.93182-1.33214,9.77161,2.16143,1.83893,3.48484-1.26831,6.27701-1.93286,10.16414l5.01611-.63703c3.16473-3.08232,2.94342-8.27624,5.54968-11.84867,4.35297-5.97863,6.03961-12.07879,2.76721-18.249-2.90271-5.45573-3.17401-12.51661-8.49927-15.662,2.32672-1.13758-5.94757,.6396-3.73743-3.06766,2.21991-3.69948-9.61267-4.14851-10.38446-2.16653-3.38123-4.04663-6.79163-6.71465-10.95081-3.47215-4.0849,3.1901-3.66217,6.54327-8.45972,6.24278-2.25116-.13948-2.00391,4.05781-3.34222,5.88775-1.33051,1.82016-6.50244,2.98864-6.75415,2.79386-1.36609-1.06878-6.01361,8.0296-6.01361,8.0296,0,0-3.76843,5.72057-.18726,7.50063h.00006Z" fill="#2f2e41"/><g><path d="M384.14468,3.50259h-51.48999c-4.54999,0-8.25,3.71002-8.25,8.26001V63.2526c0,.46002,.03998,.91998,.10999,1.35999,.12,.70001,.32001,1.37,.60004,2,1.28998,2.88,4.19,4.89001,7.53998,4.89001h51.48999c3.35004,0,6.25-2.01001,7.54004-4.89001,.28998-.63,.48999-1.29999,.59998-2,.08002-.44,.12-.89996,.12-1.35999V11.76261c0-4.54999-3.71002-8.26001-8.26001-8.26001Zm6.45001,63.10999c-1.21002,2.33002-3.64001,3.92004-6.45001,3.92004h-51.48999c-2.81,0-5.23999-1.59003-6.45001-3.92004-.32996-.62-.57001-1.28998-.69995-2-.09003-.44-.13-.89996-.13-1.35999V11.76261c0-.10999,0-.21002,.01996-.31v-.01001c.16003-3.88,3.35004-6.96997,7.26001-6.96997h25.96002c9.54999,0,18.14996,4.08997,24.14996,10.60999,.03003,.03998,.06,.07001,.09003,.09998l.04999,.04999c4.08002,4.48004,6.92999,10.12,8.02002,16.35004,.03998,.23999,.08997,.46997,.12,.70996,.01001,.05005,.01001,.10004,.02002,.14001,.23999,1.59003,.35999,3.21002,.35999,4.85999v25.96002c0,.46002-.04004,.91998-.13,1.35999-.13,.71002-.37,1.38-.70001,2v-.00002Z" fill="#e6e6e6"/><path d="M391.48935,37.50746c0-18.27513-16.37006-34.26115-34.42465-37.09117-22.85321-3.58218-43.86392,16.55812-40.84048,37.19899,2.64862,18.08221,33.68567,44.30873,42.17508,28.12509,9.71429-18.51863,33.09006-9.95778,33.09006-28.23291Z" fill="#6c63ff"/><g><path d="M365.25467,23.01365h-16.62c-.41998,0-.76001,.34003-.76001,.76001s.34003,.76001,.76001,.76001h16.62c.41998,0,.76001-.34003,.76001-.76001s-.34003-.76001-.76001-.76001Z" fill="#fff"/><path d="M365.25467,39.22367h-16.62c-.41998,0-.76001,.33997-.76001,.75,0,.41998,.34003,.76996,.76001,.76996h16.62c.41998,0,.76001-.34998,.76001-.76996,0-.41003-.34003-.75-.76001-.75Z" fill="#fff"/><path d="M374.17465,31.12363h-34.45996c-.42004,0-.76001,.34003-.76001,.76001,0,.42004,.33997,.76001,.76001,.76001h34.45996c.42004,0,.76001-.33997,.76001-.76001,0-.41998-.33997-.76001-.76001-.76001Z" fill="#fff"/></g></g><g><path d="M436.75754,179.17947l20.3606,9.85919-4.00934,12.41693-21.15558-11.18968c-.71051,.17172-1.4574,.24461-2.22498,.19958-4.17468-.24496-7.36041-3.82785-7.11548-8.00256,.245-4.17471,3.82782-7.36043,8.00256-7.11546,2.66241,.15623,4.9176,1.67293,6.14221,3.83202v-.00002Z" fill="#ffb6b6"/><path d="M523.58466,166.95364v-.01001c-1.92004-3.01001-5.03003-5.23999-8.79999-5.95001l-2.84003-.53998c-7,13.06-13.46997,26.40002-14.67999,42.58002l-29.67999-11.65002-1.34003-.51996-2.69-3.51001-4.08997,.48999-.72003-1.23999v-.01001l-1.20001-2.03003-8.62,.27002-.07996,.19-.01001,.01001-4.20001,10.21997-.01001,.01001-.57001,1.40002-.39996,.96997s-.25,2.76001,.35999,5.06v.02002c.29999,1.15002,.82001,2.17999,1.69,2.66998,.71997,.40002,2.34998-.70996,3.21997-.21997,.40002,.22998-.01001,2.02997,.42004,2.26996,.27997,.16003,2.29999-.91998,2.58997-.75995,2.29999,1.28998,4.90002,2.81,7.66998,4.44995,1.41003,.84003,2.86005,1.70001,4.34003,2.60004,15.41998,9.26996,33.75,20.92999,35.27002,21.72998,.10999,.06,.21997,.10999,.32996,.16003,2.76001,1.37,6.02002,1.70996,9.17004,.75,.65997-.20001,1.28998-.45001,1.88-.75,1.08997-.53003,2.07996-1.22003,2.94-2.03003,1.97998-1.82001,3.32996-4.27997,3.79999-7.04999l8.17999-50.22003c.54999-3.38-.22003-6.67999-1.92999-9.35999Z" fill="#3f3d56"/></g><path d="M369.96469,213.47264c-.94-3.82001-3.75-6.65002-7.02997-7.51001-1.31-.36005-2.70001-.40002-4.08002-.06-1.47998,.35999-2.81,1.10999-3.88,2.17999-2.72998-1.28003-6.53003-1.47003-10.75-1.47003h-7c-8.28003,0-15,7-15,15-2.15997,7.04004,.51001,11.87,5.41998,14,2.67004,1.16003,6,1.52002,9.58002,1h7c2.42999,.46002,4.75,.06,6.82001-1,3.64996-1.85999,6.52002-5.76001,7.78998-10.54999,.91003,.32001,1.85999,.5,2.83002,.5,.64001,0,1.28998-.08002,1.92999-.22998,2.35999-.58002,4.32001-2.15002,5.52002-4.41003,1.17999-2.22998,1.47998-4.87,.84998-7.44995Zm-7.62,5.50995c-.69,1.31-1.70001,2.31-2.91998,2.92004-.04004,.39996-.10004,.79999-.16003,1.19,.45001,.17999,.24005,.16998-.13995,.07996-.66003-.15997-1.83002-.58997-1-.78998,.44995-.10999,.88995-.27002,1.29999-.47998,.21997-2.02002,.17999-4.14001-.20001-6.29004,0-3.06-.91998-5.07996-2.48999-6.41998,.75-.65002,1.62-1.10999,2.58997-1.34998,.49005-.12,.98004-.17999,1.46002-.17999,.60999,0,1.19,.03998,1.72998,.13995,2.33002,.41003,3.97003,1.78003,4.71002,4.81,.51001,2.10004-3.92999,4.58002-4.88,6.37Z" fill="#f2f2f2"/></g><path d="M240,232.28907c0-8-6.71997-15-15-15h-7c-3.97998,0-7.59003,.17004-10.27002,1.26001-.16998,.07001-.32001,.14001-.47998,.21002-1.08002-1.07001-2.40002-1.82001-3.88-2.17999-2.66998-.65002-5.39001,.09998-7.51001,1.82001-1.70001,1.37-3.01996,3.35999-3.59998,5.75-.63,2.57996-.33002,5.21997,.84998,7.44995,.60999,1.15002,1.41003,2.11005,2.37,2.86005,.92004,.72998,1.98999,1.25995,3.15002,1.54999,.64001,.14996,1.28998,.22998,1.92999,.22998,.97003,0,1.91998-.17999,2.83002-.5,.82996,3.15002,2.35999,5.91003,4.33997,7.96002,2.75,2.84998,6.37,4.32996,10.27002,3.58997h7c10.17999,1.47003,18.33002-4.13995,15-15Zm-37-6c-.38,2.15002-.41998,4.27002-.20001,6.29004,.41003,.20996,.85004,.37,1.29999,.47998,1.31,.32001-2.35999,1.19-1.13995,.71002-.06-.39001-.12-.79004-.16003-1.19-.83997-.42004-1.57001-1.02002-2.16998-1.78003-.28003-.34998-.53003-.72998-.75-1.14001-.95001-1.78998-5.39001-4.26996-4.88-6.37,.51001-2.07001,1.44-3.37,2.71997-4.10999,0-.01001,.01001-.01001,.01001-.01001,1.02002-.58997,2.26001-.82996,3.70001-.82996,.48999,0,.97998,.06,1.47003,.17999,.96997,.23999,1.83997,.69995,2.58997,1.34998-1.57001,1.34003-2.48999,3.35999-2.48999,6.41998Z" fill="#f2f2f2"/><path d="M20.98366,323.95651H252.07802c1.9873,0,3.59834,4.56351,3.59834,10.19293l-30,22.61417c0,5.62939-1.61104,10.1929-3.59834,10.1929H20.98366c-1.98731,0-3.59834-4.56351-3.59834-10.1929v-22.61417c0-5.62939,1.61103-10.19293,3.59834-10.19293Z" fill="#f2f2f2"/><g><path d="M116.51002,222.74943l4.07168,27.08382-15.1473,4.48462-3.28598-28.78786c-.65739-.59242-1.24092-1.28882-1.72077-2.0865-2.60982-4.33849-1.20845-9.97122,3.13003-12.58105s9.97123-1.20845,12.58105,3.13004c1.6644,2.76685,1.69111,6.05713,.3713,8.75694Z" fill="#ffb6b6"/><path d="M124.90947,261.1365c1.08002,12.22998-6.18994,6.88-11.90997,18.82001-2.16998,4.52997-8.60999,3.85999-11,8-3.64001,6.29999-.28998,34.58997-6.75,38.07001-6.48999,3.5-9.53998-6.62-14.66998-11.83002-5.02002-5.09998-10.90002-3.09998-15.19-8.78998-4.32001-5.71002-9.21002-10.80005-13.53003-16.48004-.08997-.10999-.16998-.22998-.25-.33997-1.97998-15.58002-8.42999-33.92999-5.72998-42.21002,3.57001-1.29999,7.41998-2.16998,10.42999-2.14001,5.53998,.07001,3.20001,3.09003,7.96002,5.47003,4,2,8.94,12.45996,12.79999,14.78998,2.75,1.65002,9.53998,14.76001,13.08997,13.63,5.81-1.84998,11.53003-28.59998,10.17004-33.5-1.15002-4.09003-6.89001-9.21002-7.04999-13.33002-.01001-.14996-.01001-.31,0-.45996,5.76996,2.07001,16.48999-3.21002,22.39996-1.30005,4.22003,1.37006,9.20001,6.52002,9.48999,10.91003,.29999,4.5-.65997,16.17999-.26001,20.69Z" fill="#6c63ff"/></g><path d="M192.91998,215.03486c-1.04999-1.20996-2.62-1.76996-4.20001-1.48999l-46.39001,8.28998c-4.19,.76001-8.56,.02002-12.26996-2.06995l-6.88-3.87-12.88-7.25-2.5-1.40002-10.48004-5.90002-3.28998-1.84998c-1.26001-.71002-2.75-.78003-4.07001-.17999-1.32001,.58997-2.25,1.75-2.54999,3.15997l-3.25,15.18999-.23999,1.09003-1.83002,8.57001-4.58002,21.34998-.71997,3.39001-.32001,1.46997-2.34003,10.95001-.44,2.02002-6.20996,29.01001-.54004,2.50995c-.29999,1.41003,.06006,2.83002,1,3.89001,.10004,.13,.22003,.25,.35004,.37,1.19,1.10004,2.82001,1.47003,4.35999,1l1.29999-.39996,9.79004-2.97003,22.42999-6.79999,4.79999-1.46002,5.90002-1.78998c.62-.19,1.25-.28003,1.88-.28003,1.64996,0,3.26996,.62006,4.48999,1.79004l28.99999,27.58002,1.27997,1.21997c1.12,1.07001,2.69,1.47998,4.19,1.09998,1.29004-.31995,2.34003-1.15997,2.91998-2.31995,.11005-.20001,.20001-.41003,.27002-.63l8.10999-24.40002,1.39001-4.17999,4.52002-13.59998,.35999-1.08002c19.83469,12.66833,16.61954-27.32861,18.51001-55.66003,.51001-1.51996,.17999-3.15996-.87-4.36998Z" fill="#f2f2f2"/><path d="M186.91998,220.03486c-1.04999-1.20996-2.62-1.76996-4.20001-1.48999l-46.39001,8.28998c-4.19,.76001-8.56,.02002-12.26996-2.06995l-6.88-3.87-12.88-7.25-2.5-1.40002-10.48004-5.90002-3.28998-1.84998c-1.26001-.71002-2.75-.78003-4.07001-.17999-1.32001,.58997-2.25,1.75-2.54999,3.15997l-3.25,15.18999-.23999,1.09003-1.83002,8.57001-4.58002,21.34998-.71997,3.39001-.32001,1.46997-2.34003,10.95001-.44,2.02002-6.20996,29.01001-.54004,2.50995c-.29999,1.41003,.06006,2.83002,1,3.89001,.10004,.13,.22003,.25,.35004,.37,1.19,1.10004,2.82001,1.47003,4.35999,1l1.29999-.39996,9.79004-2.97003,22.42999-6.79999,4.79999-1.46002,5.90002-1.78998c.62-.19,1.25-.28003,1.88-.28003,1.64996,0,3.26996,.62006,4.48999,1.79004l28.99999,27.58002,1.27997,1.21997c1.12,1.07001,2.69,1.47998,4.19,1.09998,1.29004-.31995,2.34003-1.15997,2.91998-2.31995,.11005-.20001,.20001-.41003,.27002-.63l8.10999-24.40002,1.39001-4.17999,4.52002-13.59998,.35999-1.08002c19.83469,12.66833,16.61954-27.32861,18.51001-55.66003,.51001-1.51996,.17999-3.15996-.87-4.36998Z" fill="#e6e6e6"/><polygon points="55.99315 307.66726 56.94294 347.87518 113.93053 346.30587 102.41429 301.80361 55.99315 307.66726" fill="#ffb6b6"/><path d="M123.51952,445.95651c.69-3.26001-1.53003-.62-3.03003-2l-.12-.12c-1.63-1.81-3.67999-2.62-3.65002-4.87,.03003-2.25-3.88995-.24005-6.08997-2.44-.47003-.47003-1.81-1.38-3.64001-2.52002-5.69-3.53998-16.06-9.32001-19.16998-11.04999-.58002-.32001-.91003-.5-.91003-.5,0,0-.00995,.16998-.03998,.5-.16998,2.08997-.87,10.56-1.71997,21-.05005,.65997-.10004,1.32996-.16003,2H48.14952c.03998-.67999,.06-1.35004,.06995-2,.06006-3.12-.19995-6.03003-.91998-8.46002-1.29999-4.37-2.45996-8.52997-3.37-12.53998-3.33002-14.60999-3.28998-27.27002,5.97003-41.06,1.70996-2.54004,2.03998-10.63,2.03998-10.63,0,0,3.15002,3.12,3.96002,3.89996-.20001-.20996-.60004-.60999-1.26001-1.26996-3.73999-3.73999-3.62-4.87-1.70001-6.94,.34003-.35999,.72998-.75,1.16998-1.19,2.92999-2.92999,0,0-1.46997-1.72003-1.46002-1.72998,2.20001-6.34998,2.20001-6.34998l-1.39001-6.96002-.81-4.03998,4.25-.73999,11.38-1.98999,42.83997-7.48004,.81,2.07001,7.26001,18.47003c1.78998,1.02997,3.66003,5.07996,5.34003,9.92999,3.13995,9.04999,5.59998,20.85999,5.59998,20.85999l47.34003,56.14001,.45996,.54999c.40002,.46997,.77002,.96002,1.12,1.45001h-55.51995Z" fill="#2f2e41"/><rect x="53.9995" y="427.95651" width="7" height="18" fill="#e6e6e6"/><path d="M18.49949,422.95651H96.4995c5.79899,0,10.49999,4.70102,10.49999,10.5h0c0,5.79898-4.701,10.5-10.49999,10.5H18.49949c-5.79898,0-10.49999-4.70102-10.49999-10.5h0c0-5.79898,4.70101-10.5,10.49999-10.5Z" fill="#f2f2f2"/><path d="M12.49951,443.95651h-.00002c-4.69442,0-8.49999-3.80557-8.49999-8.5v-101.00003c0-4.69443,3.80558-8.49997,8.49999-8.49997h.00002c4.69442,0,8.49999,3.80557,8.49999,8.5,25.81647,19.75674,15.3235,59.07706,0,100.99997,0,4.6944-3.80558,8.5-8.49999,8.5v.00003Z" fill="#f2f2f2"/><path d="M114.9995,332.95651c-1.64816,12.08649-13.19,1.44-24.79999-.57001-10.79999-1.85999-23.64001,16.97998-35.20001,18.57001-7.46997,1.02997-1.58002-5.17004,1-32,.33002-3.45001-3.88-26.32001-4.39001-30.37-1.97998-15.58002-8.42999-33.92999-5.72998-42.21002,.46002-1.44,1.20001-2.57001,2.28998-3.33002,5.13-3.58997,7.42004-6.47998,10.87-11.63995,2.92004-4.38,5.04004-7.76001,10.48004-8.11005,5.13-.32996,10.94,.79004,15.88995,1.87,5.41003,1.19-.72998,.77008,.59003,3.79004,.63995,1.48004,1.73999,6.94,3,9h0c3.82467-1.0979,7.93879,.13202,10.53507,3.14745,3.02046,3.50807,5.74142,6.72955,7.61495,11.73257,2.81995,7.47997-4.29004,20.78999-1.15002,28.12001,2.83002,6.62-4.09003,20.72998-1,26,3.91998,6.70996,13,4,10,26v-.00003Z" fill="#6c63ff"/><rect x="153.92144" y="221.01284" width="1.99953" height="34.05876" transform="translate(-100.79745 361.62479) rotate(-82.7367)" fill="#fff"/><rect x="152.07795" y="230.84137" width="1.99953" height="34.05879" transform="translate(-112.15754 368.38203) rotate(-82.7367)" fill="#fff"/><rect x="151.07795" y="238.84141" width="1.99953" height="34.05879" transform="translate(-120.96696 374.37865) rotate(-82.7367)" fill="#fff"/><circle cx="86.15271" cy="203.44964" r="20.81642" fill="#ffb6b6"/><g><path d="M186.03701,224.31288l-22.57383,10.24834,4.05524,13.71229,23.48092-11.6844c.77372,.20745,1.59,.30756,2.43214,.27905,4.58029-.15498,8.1677-3.99374,8.01271-8.57398-.15499-4.58028-3.99374-8.1677-8.574-8.0127-2.92104,.09886-5.43294,1.69925-6.83316,4.03138l-.00003,.00002Z" fill="#ffb6b6"/><path d="M166.66371,231.8855l-8.70103,4.30584-15.5487,3.05075-21.07883,8.65409-3.19692,1.30785-14.75236-2.80204-10.21459-1.9525-3.36644-.63914-12.25333-2.3362-2.43656-.15249c-.66692-.19024-1.38692-.3716-2.17712-.53348-2.35349-.49615-5.17253-.87198-8.06176-1.01751-.86988-.04292-1.75161-.06694-2.6262-.06006-7.47571,.01896-14.64622,1.78482-14.82235,7.11827-.13743,4.36073,.73204,8.52829,2.40611,12.28661,.25489,.57081,.52163,1.12271,.81059,1.67272,3.54277,6.74155,9.76247,11.91866,17.32858,14.02395,1.64999,.45704,3.3588,.76095,5.11791,.91699l.36506-.03542,1.36764-.12045,2.24516-.19934,4.12008-.37176,32.34695-2.90416,3.86639-.34579,3.58531-.32639,.08205-.03838c4.57751-1.96349,17.21444-7.38396,29.96993-12.99404,11.69068-5.14727,16.62329-5.78094,20.10275-7.14412,.69081-.26953,1.32139-.56085,1.94107-.92755,.55476-.33878,10.70337-7.26281,10.75889-7.40213,.18359-.4285-.01898-1.33592-.47939-2.53113-1.30633-3.44387-4.65934-9.16477-6.3517-11.97449l-.77133-1.26309-9.57582,4.73457h-.00001Z" fill="#6c63ff"/></g><path d="M22.69,152.95382c-12.53134,0-22.69,10.15866-22.69,22.69v247.62c0,4.78003,1.48999,9.23004,4.03003,12.89001,2.31995,3.35999,5.52997,6.06,9.27997,7.76001h.03003c2.85999,1.31,6.00995,2.03998,9.34998,2.03998H193.62v-13.67999H23.69c-3.17999,11.67999-5.28998,11.34003-7.26001,10.71002-2.35999-.73999-4.53998-1.90002-6.44-3.40002-.02002,0-.02002-.01001-.02002-.01996-2.53998-1.96002-4.57996-4.49005-5.96997-7.42004-1.28003-2.69-2-5.70001-2-8.88v-163.64206c0-57.80649,46.86142-104.66791,104.66791-104.66791h196.95209v-2H22.69v-.00003Z" fill="#3f3d56"/><path d="M109.88995,192.29489c-.01001,2.14001-.01996,6.35004-1.87,7.41003l-.47998-.23004c-.32001-.20001-.72003-.51001-1.15002-.85999-1.32001-1.08002-3-2.57001-4.14996-2.77002-.06-1.79999-.01001-3.59998,.16998-5.38995,.04999-.43005,.09998-.86005,.15997-1.29004-.16998,.29004-.32996,.58002-.48999,.88-.95001,1.78003-1.72998,3.66003-2.29999,5.59003-1.90002,.01996-4.44-.23999-5.46997,1.34998-1.49005,2.31,.63995,7.22998-2.99005,9.35999-.76996,.45001-1.79999,.78003-3.16998,.92999,1.44,.23004,3.27002,.93005,4.19,2.77002,1.90002,3.79999,3.52002,8.2,2.66003,12.25002-.13,.60004-.31006,1.19-.55005,1.77002-1.45996,3.51996-4.83997,5.77997-7.32001,8.67999-.04999,.04999-.08997,.09998-.12994,.15002-1.91003,2.27997-2.55005,4.14996-2.35004,5.91998,.35999,3.25,3.53003,6.14996,6.79999,10.51001,1.21002,1.62-2.39996,10.02998-1.37,11.76997,1.04999,1.73999,1.60999,3.94,.78003,5.80005-.89001,1.97998-2.89001,2.85999-5.10999,3.19995-6.34003-4.34998-11.79004-9.88995-14.24005-16.41998-2.12-5.64001-2.00995-12,1.69-18.97998-3.54999,6.13995-4.88995,13.51996-3.72998,20.51996,.03003,.25,.07001,.49005,.12,.73004,.17999,.94,.47998,1.78998,.88,2.58997,1.78998,3.57001,5.51001,5.92999,8.25,9.22003-1.15002,1.15997-3.03003,2.92999-4.85999,4.56-1.56,1.39996-3.10004,2.67999-4.10999,3.39001-.68005-.63-1.39001-2.18005-2.06006-4.20001-.26996-.81-.53998-1.70001-.78998-2.63-1.57001-5.63-2.84998-12.89001-3.17999-15.12-.90997,1.70996-1.16998,6.53998-1.03998,11.51001,.01996,.72998,.04999,1.45996,.07996,2.17999,.29004,6.26001-7.45996,9.33997-11.53998,4.58997-.84003-.98999-1.70001-2.09998-2.58002-3.34998-.10999-4.78003,.57001-9.58002,2.07001-14.10999,.04004-.13,.06-.19,.06-.21002-.20001,.28998-2.29999,5.51001-3.95001,9.53003-.84998,2.06-1.57996,3.79999-1.88995,4.40997,.31-1.84998,.89996-4.13,1.51996-6.35999,1.41003-5.01001,3-9.72003,2.01001-8.42004-1.01001,1.33002-1.91998,2.75-2.70001,4.23004-1.56,2.90997-2.64996,6.07996-3.19995,9.33997-.05005,.29004-.10004,.58002-.13,.88-.91003-.22998-1.79004-.54999-2.63-.96997-2.65002-1.37-4.08002-4.23999-4.23004-7.23004-.23999-4.67999,1.83002-8.91998,6.09003-8.25995,1.62,.25,2.29999-.71002,2.39001-2.28003,.21997-3.25-2.03003-9.13-3.34003-12.28998-.56-1.35004-1.14001-2.75-1.64001-4.16003,2.77002-3.52997,4.24005-8.08997,3.92004-12.57001-.95001,3.34003-2.64001,6.46002-4.91003,9.09003-.48999-2.35999-.52997-4.72003,.34003-6.97003,2.90997-7.47998,9.12-4.31,13.51001-11.02997,5.13-7.84998,3.62-11.95001,6.59998-20.84998,1.28003-3.84003,4.31-7.06,8.07001-8.58002,3.76001-1.51001,9.12-11.12,23.33002-.57001,.22998-.21002,.45996-.40997,.69995-.59003,4.03003-3.03998,8.99005-1.09998,14.30005-.40997,5.62,.72998,3.75995-.34003,6.78998,4.45001,1.14001,1.81-1.81,5.39996-1.83002,7.53996v-.00002Z" fill="#2f2e41"/><g><path d="M231.64001,122.52384c0-.00667-.00334-.01001-.01001-.01001-1.10999-1.21997-2.59003-2.09998-4.26001-2.46997h-.01001c-.57996-.13-1.16998-.20001-1.78998-.20001h-51.48999c-4.54999,0-8.26001,3.71002-8.26001,8.26v51.48999c0,4.54999,3.71002,8.25,8.26001,8.25h51.48999c4.54999,0,8.25-3.70001,8.25-8.25v-51.48999c0-2.15002-.82001-4.10999-2.17999-5.58001Zm1.20996,57.07001c0,4.02002-3.25995,7.28003-7.27997,7.28003h-51.48999c-4.02002,0-7.28003-3.26001-7.28003-7.28003v-25.96002c0-.22998,0-.44995,.01001-.67999,.03003-1.45996,.15002-2.89996,.37-4.32001,.03003-.23999,.08002-.46997,.12-.70996,1.09003-6.23004,3.94-11.87,8.02002-16.35004l.04999-.04999c6-6.58002,14.64001-10.70996,24.23999-10.70996h25.96002c4.02002,0,7.27997,3.26996,7.27997,7.28998v51.48999Z" fill="#e6e6e6"/><path d="M166.73436,153.84866c0-18.27513,16.37003-34.26115,34.42467-37.09117,22.85321-3.58218,43.86392,8.55812,40.84048,29.19899-2.64862,18.08221-33.68567,52.30873-42.17508,36.12509-9.71429-18.51863-33.09006-9.95778-33.09006-28.23291h-.00002Z" fill="#6c63ff"/><g><path d="M209.58997,139.35487h-16.62c-.41998,0-.76001,.34003-.76001,.76001s.34003,.76001,.76001,.76001h16.62c.41998,0,.76001-.34003,.76001-.76001s-.34003-.76001-.76001-.76001Z" fill="#fff"/><path d="M209.58997,155.56489h-16.62c-.41998,0-.76001,.33997-.76001,.75,0,.41998,.34003,.76996,.76001,.76996h16.62c.41998,0,.76001-.34998,.76001-.76996,0-.41003-.34003-.75-.76001-.75Z" fill="#fff"/><path d="M218.50995,147.46487h-34.45996c-.42004,0-.76001,.34003-.76001,.76001,0,.42004,.33997,.76001,.76001,.76001h34.45996c.42004,0,.76001-.33997,.76001-.76001,0-.41998-.33997-.76001-.76001-.76001Z" fill="#fff"/></g></g><g><path d="M50.88148,43.11259c-1.10303,0-2,.89697-2,2v31c0,1.10303,.89697,2,2,2s2-.89697,2-2v-31c0-1.10303-.89697-2-2-2Z" fill="#3f3d56"/><g><ellipse cx="70.48257" cy="60.78303" rx="12.46327" ry="12.20069" fill="#6c63ff"/><path d="M170.39543,56.60911H103.31047c-2.30142,0-4.17392-1.87249-4.17392-4.17392s1.8725-4.17392,4.17392-4.17392h67.08496c2.30142,0,4.17392,1.87249,4.17392,4.17392s-1.8725,4.17392-4.17392,4.17392Z" fill="#f2f2f2"/><path d="M222.74876,70.73622H103.31047c-2.30142,0-4.17392-1.87249-4.17392-4.17392s1.8725-4.17392,4.17392-4.17392h119.43829c2.30142,0,4.17392,1.87249,4.17392,4.17392s-1.8725,4.17392-4.17392,4.17392Z" fill="#f2f2f2"/></g></g><g><path d="M216.5994,419.45651c-1.10303,0-2,.89697-2,2v31c0,1.10303,.89697,2,2,2s2-.89697,2-2v-31c0-1.10303-.89697-2-2-2Z" fill="#3f3d56"/><g><ellipse cx="236.20047" cy="437.12695" rx="12.46326" ry="12.20068" fill="#6c63ff"/><path d="M336.11334,432.95303h-67.08496c-2.30142,0-4.17392-1.8725-4.17392-4.17392s1.8725-4.17392,4.17392-4.17392h67.08496c2.30142,0,4.17392,1.8725,4.17392,4.17392s-1.8725,4.17392-4.17392,4.17392Z" fill="#f2f2f2"/><path d="M388.46667,447.08013h-119.43829c-2.30142,0-4.17392-1.8725-4.17392-4.17392s1.8725-4.17392,4.17392-4.17392h119.43829c2.30142,0,4.17392,1.8725,4.17392,4.17392s-1.8725,4.17392-4.17392,4.17392Z" fill="#f2f2f2"/></g></g><g><ellipse cx="100.98979" cy="167.72674" rx="4.22831" ry="4.32254" fill="#3f3d56"/><ellipse cx="115.59666" cy="167.72674" rx="4.2283" ry="4.32254" fill="#3f3d56"/><ellipse cx="130.20354" cy="167.72674" rx="4.2283" ry="4.32254" fill="#3f3d56"/></g><g><ellipse cx="394.38034" cy="82.43512" rx="4.2283" ry="4.32254" fill="#3f3d56"/><ellipse cx="408.98721" cy="82.43512" rx="4.2283" ry="4.32254" fill="#3f3d56"/><ellipse cx="423.59409" cy="82.43512" rx="4.2283" ry="4.32254" fill="#3f3d56"/></g><path d="M266.44925,257.55261c-.16772,.57127,.43765,1.05196,.95609,.75908,3.61673-2.04334,8.03851-4.03665,11.9809-5.11272,.6312-.17229,.65158-1.05613,.03137-1.26448l-5.22519-1.75505,19.95474-25.12659-1.3588-1.0791-19.95477,25.12664-2.8941-4.69337c-.34338-.55692-1.19962-.33688-1.22449,.31693-.15524,4.08375-1.09528,8.84236-2.26575,12.82866Z" fill="#3f3d56"/><path d="M294.7872,307.00464c.54511,.23944,1.09932-.29946,.87517-.8511-1.56378-3.84845-2.97493-8.48894-3.53772-12.5366-.09011-.64805-.96408-.78136-1.25007-.19291l-2.4092,4.95768-22.36683-23.00571-1.24409,1.20955,22.36687,23.00574-5.02509,2.26979c-.59628,.2693-.48761,1.14665,.15765,1.25497,4.03032,.67649,8.62954,2.21767,12.43331,3.88857Z" fill="#3f3d56"/></svg>