<svg data-name="Layer 1" xmlns="http://www.w3.org/2000/svg" width="654.26041" height="625.36797" viewBox="0 0 654.26041 625.36797" xmlns:xlink="http://www.w3.org/1999/xlink"><path d="M402.99376,617.91758,283.28017,562.78919a17.9174,17.9174,0,0,1-8.77028-23.74249l15.42263-33.49087a17.91763,17.91763,0,0,1,23.74248-8.77028L433.38859,551.914a17.91763,17.91763,0,0,1,8.77028,23.74248L426.73625,609.1473A17.91739,17.91739,0,0,1,402.99376,617.91758Z" transform="translate(-272.8698 -137.31601)" fill="#f2f2f2"/><path d="M384.35411,596.62549l-72.77755-33.51423a10.1929,10.1929,0,0,1-4.98926-13.50669L318.808,523.0669a10.193,10.193,0,0,1,13.50669-4.98926l72.77755,33.51424a10.193,10.193,0,0,1,4.98926,13.50669L397.8608,591.63623A10.19288,10.19288,0,0,1,384.35411,596.62549Z" transform="translate(-272.8698 -137.31601)" fill="#fff"/><path d="M383.93593,597.534l-72.77758-33.51425a11.19406,11.19406,0,0,1-5.4794-14.83356L317.89941,522.649a11.19405,11.19405,0,0,1,14.83356-5.47939l72.77758,33.51425a11.19364,11.19364,0,0,1,5.47895,14.83335L398.769,592.05444A11.19363,11.19363,0,0,1,383.93593,597.534Zm-52.03953-78.5478a9.19207,9.19207,0,0,0-12.18035,4.49933L307.49559,550.0228a9.19206,9.19206,0,0,0,4.49932,12.18035l72.77758,33.51425a9.192,9.192,0,0,0,12.17992-4.49953l12.22045-26.53723a9.192,9.192,0,0,0-4.49888-12.18015Z" transform="translate(-272.8698 -137.31601)" fill="#3f3d56"/><path d="M363.31419,556.23331l-.40208-.18516a1.77069,1.77069,0,1,1,1.48129-3.21669l.40208.18516a1.77069,1.77069,0,0,1-1.48129,3.21669Z" transform="translate(-272.8698 -137.31601)" fill="#ccc"/><path d="M380.55119,574.89276l-22.11472-10.18388a1.77069,1.77069,0,1,1,1.48129-3.21669l22.11472,10.18388a1.77069,1.77069,0,1,1-1.48129,3.21669Z" transform="translate(-272.8698 -137.31601)" fill="#ccc"/><circle cx="69.64552" cy="412.75083" r="11.87196" fill="#6c63ff"/><path d="M886.70008,564.46909H441.96869A40.47562,40.47562,0,0,1,401.53856,524.039V177.74614A40.47618,40.47618,0,0,1,441.96869,137.316H886.70008a40.47617,40.47617,0,0,1,40.43012,40.43013V524.039A40.47562,40.47562,0,0,1,886.70008,564.46909Z" transform="translate(-272.8698 -137.31601)" fill="#f2f2f2"/><path d="M790.83438,495.39255h-253a23.02588,23.02588,0,0,1-23-23v-243a23.02619,23.02619,0,0,1,23-23h253a23.02619,23.02619,0,0,1,23,23v243A23.02588,23.02588,0,0,1,790.83438,495.39255Z" transform="translate(-272.8698 -137.31601)" fill="#fff"/><path d="M790.83438,495.39255h-253a23.02588,23.02588,0,0,1-23-23v-243a23.02619,23.02619,0,0,1,23-23h253a23.02619,23.02619,0,0,1,23,23v243A23.02588,23.02588,0,0,1,790.83438,495.39255Zm-253-287a21.02359,21.02359,0,0,0-21,21v243a21.0239,21.0239,0,0,0,21,21h253a21.0239,21.0239,0,0,0,21-21v-243a21.02359,21.02359,0,0,0-21-21Z" transform="translate(-272.8698 -137.31601)" fill="#3f3d56"/><path d="M661.04664,294.92933H618.55a4.05826,4.05826,0,1,1,0-8.11651h42.49665a4.05826,4.05826,0,0,1,0,8.11651Z" transform="translate(-272.8698 -137.31601)" fill="#6c63ff"/><path d="M756.04664,455.92933H713.55a4.05826,4.05826,0,1,1,0-8.11651h42.49665a4.05826,4.05826,0,0,1,0,8.11651Z" transform="translate(-272.8698 -137.31601)" fill="#6c63ff"/><path d="M756.31006,311.52769H618.55a4.05825,4.05825,0,1,1,0-8.1165H756.31006a4.05825,4.05825,0,0,1,0,8.1165Z" transform="translate(-272.8698 -137.31601)" fill="#e6e6e6"/><circle cx="310.68247" cy="160.79132" r="12.25155" fill="#6c63ff"/><circle cx="269.68247" cy="98.79132" r="12.25155" fill="#f2f2f2"/><path d="M581.8809,304.48375a1.36241,1.36241,0,0,1-1.09012-.54523l-3.34238-4.45661a1.36279,1.36279,0,1,1,2.18052-1.63526l2.18667,2.9154,5.61629-8.42434a1.36286,1.36286,0,0,1,2.27337,1.50376l-.00545.00817L583.015,303.87686a1.36356,1.36356,0,0,1-1.09613.60648Z" transform="translate(-272.8698 -137.31601)" fill="#fff"/><path d="M756.31006,355.52769H618.55a4.05825,4.05825,0,1,1,0-8.1165H756.31006a4.05825,4.05825,0,0,1,0,8.1165Z" transform="translate(-272.8698 -137.31601)" fill="#e6e6e6"/><path d="M583.55234,364.35883a13.25147,13.25147,0,1,1,13.25147-13.25147A13.26678,13.26678,0,0,1,583.55234,364.35883Zm0-24.50293a11.25147,11.25147,0,1,0,11.25147,11.25146A11.26417,11.26417,0,0,0,583.55234,339.8559Z" transform="translate(-272.8698 -137.31601)" fill="#e6e6e6"/><path d="M661.04664,400.92933H618.55a4.05826,4.05826,0,1,1,0-8.11651h42.49665a4.05826,4.05826,0,0,1,0,8.11651Z" transform="translate(-272.8698 -137.31601)" fill="#e6e6e6"/><path d="M756.31006,417.52769H618.55a4.05825,4.05825,0,1,1,0-8.1165H756.31006a4.05825,4.05825,0,0,1,0,8.1165Z" transform="translate(-272.8698 -137.31601)" fill="#e6e6e6"/><path d="M583.55234,417.35932a13.252,13.252,0,1,1,13.25147-13.252A13.26657,13.26657,0,0,1,583.55234,417.35932Zm0-24.50391a11.252,11.252,0,1,0,11.25147,11.252A11.26459,11.26459,0,0,0,583.55234,392.85541Z" transform="translate(-272.8698 -137.31601)" fill="#e6e6e6"/><path d="M548.121,235.11984h-9.01l3.4182-3.494a.84513.84513,0,1,0-1.20833-1.18192l-4.82261,4.92949a.84478.84478,0,0,0,0,1.18192l4.82261,4.9299a.84513.84513,0,0,0,1.20833-1.18192l-3.41706-3.49315H548.121a.84518.84518,0,0,0,0-1.69035Z" transform="translate(-272.8698 -137.31601)" fill="#3f3d56"/><polygon points="183.393 612.928 193.294 612.927 198.004 574.737 183.391 574.738 183.393 612.928" fill="#a0616a"/><path d="M455.91386,760.57241l30.447-.00116v-.385a11.85149,11.85149,0,0,0-11.85083-11.85065h-.00074l-5.56152-4.21924-10.37659,4.21991-2.65783.00006Z" transform="translate(-272.8698 -137.31601)" fill="#2f2e41"/><polygon points="138.393 612.928 148.294 612.927 153.004 574.737 138.391 574.738 138.393 612.928" fill="#a0616a"/><path d="M410.91386,760.57241l30.447-.00116v-.385a11.85149,11.85149,0,0,0-11.85083-11.85065h-.00074l-5.56152-4.21924-10.37659,4.21991-2.65783.00006Z" transform="translate(-272.8698 -137.31601)" fill="#2f2e41"/><path d="M480.334,505.05275s16.001,19.84589,12.89861,24.99165-8.10237,3.36339-3.10237,8.75457,7.003,5.45417,3.50151,9.42268-6.54326,90.70866-6.54326,90.70866L471.1302,729.19015l-17.56334,1.58268s-3.27664-11.0315-3.35665-15.30709-.08-.55044-.08-9.413,3.16-1.99643.08-10.4295-6.92-33.27559,0-45.35433,1.48111-1.48111,1.48111-1.48111l-5.36055-81.85747L436.1302,651.19015s0,29-5,50l-.82677,29.58268-21.55053-.82371s-5.6227-8.759-3.6227-18.759-6-15-6-20,.42124-52.82677.42124-52.82677l4.67325-99.56441s-4.09449-22.60882,4.90551-31.60882S480.334,505.05275,480.334,505.05275Z" transform="translate(-272.8698 -137.31601)" fill="#2f2e41"/><path d="M432.65,328.05835l21,1q-.24252,9.19536,10.04211,17.34841l11.438,11.78339,3,26-3,98,17,40c-22.8445,8.92758-49.54606,12.88773-87,3-4.224-4.50464,1.17311-30.76157,3.62829-50.367,0,0,5.31417-8.16786.51681-14.07187s1.8549-42.5611,1.8549-42.5611l2-41c-1.13735-13.26909-10.55544-23.259-.09118-31.4968v0A60.87675,60.87675,0,0,0,432.65,328.05835Z" transform="translate(-272.8698 -137.31601)" fill="#6c63ff"/><path d="M463.69215,346.40676l14.26849,4.28055,12.12821,29.96382L482.65,474.05835s-1.49107,5.64972,1.25447,4.82486,1.62644,6.25555,1.62644,6.25555L495.65,524.05835l-96.51984-7.8682,9.62829-41.367s-7.10242.2292-2.10845-4.76477,3.27752-1.96419-1.51984-7.8682a10.35242,10.35242,0,0,1-1.36568-11.62345l-2.14027-29.25039-3.52846-41.16537A39.55464,39.55464,0,0,1,413.039,345.69335l0,0C427.93913,336.84112,445.20818,338.84109,463.69215,346.40676Z" transform="translate(-272.8698 -137.31601)" fill="#3f3d56"/><path d="M381.56685,533.9607a7.74428,7.74428,0,0,1,1.918-10.62994,7.42842,7.42842,0,0,1,1.0646-.61245L381.949,495.82642l13.18123-6.12054-.42054,37.2237a7.72281,7.72281,0,0,1-2.737,9.02236,7.39069,7.39069,0,0,1-10.29177-1.82328Q381.62271,534.04547,381.56685,533.9607Z" transform="translate(-272.8698 -137.31601)" fill="#a0616a"/><path d="M372.1302,459.06015l10,51,1.19-.08,11.59-.83,1.22-.09-1-46c-2.66-2.71,1.85-11.99,7.77-23.19,2.19-4.13,4.57-8.53,6.86-12.95.41-.79.81-1.58,1.21-2.37a136.12261,136.12261,0,0,0,7.48-16.97l-16.57-47.02-.42-1.2s-3.53,8.42-8.15,20.61q-.52506,1.365-1.05,2.79C383.4402,406.30014,371.55019,441.56015,372.1302,459.06015Z" transform="translate(-272.8698 -137.31601)" fill="#3f3d56"/><path d="M582.16879,308.99431a7.74427,7.74427,0,0,1-9.67167,4.80967,7.42955,7.42955,0,0,1-1.127-.48817l-20.0171,18.1453-12.78095-6.9176,30.10836-21.89218a7.7228,7.7228,0,0,1,8.87137-3.19265,7.39069,7.39069,0,0,1,4.68365,9.34389Q582.20342,308.89889,582.16879,308.99431Z" transform="translate(-272.8698 -137.31601)" fill="#a0616a"/><path d="M430.241,397.30956s29.712-7.34908,57.24717-17.08137c.72721-.25338,1.44171-.513,2.15625-.77272,15.663-5.63084,30.33254-11.99481,38.07685-18.16532L562.663,322.812l-.77526-.90087-7.59728-8.7966-.79425-.92613-36.29429,28.27105c-.57987,3.66225-10.26807,5.59-22.40393,7.48117-.67982.111-1.39739.52537-2.07745.31419-11.42053-3.547-24.31909,2.31238-33.94671,6.63345Z" transform="translate(-272.8698 -137.31601)" fill="#3f3d56"/><circle cx="171.22837" cy="162.43051" r="25.11515" fill="#a0616a"/><path d="M427.57016,326.01251c4.20084-1.97317,9.10733-.77408,13.7449-.59158s10.2566-1.56579,11.24059-6.10145c.72757-3.35368-1.45931-7.02948-.08129-10.17235,1.50276-3.42736,6.01334-3.91514,9.63055-4.87479a22.20039,22.20039,0,0,0,16.031-20.78157c.2513,1.87264-2.95295,2.48771-4.00543.91856s-.32758-3.741.83291-5.232,2.72683-2.6818,3.602-4.35632.705-4.16139-1.004-4.96722a13.95558,13.95558,0,0,1-8.83916,7.271c.77734-2.36129-.32176-5.016-2.09082-6.76248a20.23824,20.23824,0,0,0-6.38733-3.76143c-5.78933-2.50959-12.549-5.00692-18.15533-2.11143a10.85646,10.85646,0,0,0-5.61227,7.59694c-10.37064.8769-21.01967,12.11083-20.42937,22.50171.63547,11.18607,1.09919,12.09112,10.41111,30.9148" transform="translate(-272.8698 -137.31601)" fill="#2f2e41"/><path d="M317.6087,762.684l.00645-.2959a34.18565,34.18565,0,0,1,12.78307-25.74391,33.16851,33.16851,0,0,1,7.126-4.29412l.24283-.10814.04143.2624c.49308,3.133,1.27392,6.33075,1.63771,7.75l2.43848-9.51513.27094-.07826a6.48339,6.48339,0,0,1,6.92088,2.2112,6.59447,6.59447,0,0,1,.6842,7.35761c-.56839,1.059-1.12708,2.16389-1.66758,3.23236-1.85677,3.67176-3.77672,7.46854-6.5745,10.4183a20.66341,20.66341,0,0,1-16.66614,6.21714Z" transform="translate(-272.8698 -137.31601)" fill="#f2f2f2"/><path d="M557.02407,762.35171l-239.75.30733a1.19069,1.19069,0,0,1,0-2.38137l239.75-.30733a1.19068,1.19068,0,1,1,0,2.38137Z" transform="translate(-272.8698 -137.31601)" fill="#cacaca"/></svg>