<svg xmlns="http://www.w3.org/2000/svg"  viewBox="0 0 48 48" width="240px" height="240px"><linearGradient id="fHH1575ypYIq9ckEi_Imra" x1="31" x2="31" y1=".192" y2="34.099" gradientUnits="userSpaceOnUse"><stop offset="0" stop-color="#199ae0"/><stop offset="1" stop-color="#0782d8"/></linearGradient><path fill="url(#fHH1575ypYIq9ckEi_Imra)" d="M44.707,8.293l-8-8c-0.391-0.391-1.023-0.391-1.414,0l-8,8	c-0.286,0.286-0.372,0.716-0.217,1.09C27.231,9.756,27.596,10,28,10h3v14H17v10h22c1.105,0,2-0.895,2-2V10h3	c0.404,0,0.769-0.244,0.924-0.617C45.079,9.009,44.993,8.579,44.707,8.293z"/><path fill="#3cf" d="M31,24V14H9c-1.105,0-2,0.895-2,2v22H4c-0.404,0-0.769,0.244-0.924,0.617	c-0.155,0.374-0.069,0.804,0.217,1.09l8,8c0.391,0.391,1.023,0.391,1.414,0l8-8c0.286-0.286,0.372-0.716,0.217-1.09	C20.769,38.244,20.404,38,20,38h-3V24H31z"/></svg>