<?xml version="1.0" encoding="UTF-8"?>
<svg xmlns="http://www.w3.org/2000/svg" xmlns:xlink="http://www.w3.org/1999/xlink" viewBox="0 0 240 240" width="240px" height="240px">
<defs>
<linearGradient id="linear0" gradientUnits="userSpaceOnUse" x1="111.083328" y1="0.688" x2="111.083328" y2="122.18808" gradientTransform="matrix(1.395349,0,0,1.395349,0,0)">
<stop offset="0" style="stop-color:rgb(58.431375%,64.705884%,65.098041%);stop-opacity:1;"/>
<stop offset="1" style="stop-color:rgb(40.000001%,40.000001%,40.000001%);stop-opacity:1;"/>
</linearGradient>
</defs>
<g id="surface57133141">
<path style=" stroke:none;fill-rule:nonzero;fill:url(#linear0);" d="M 223.535156 41.464844 L 183.535156 1.464844 C 181.578125 -0.488281 178.421875 -0.488281 176.464844 1.464844 L 136.464844 41.464844 C 135.035156 42.894531 134.605469 45.046875 135.378906 46.914062 C 136.15625 48.78125 137.980469 50 140 50 L 155 50 L 155 120 L 85 120 L 85 170 L 195 170 C 200.523438 170 205 165.523438 205 160 L 205 50 L 220 50 C 222.019531 50 223.84375 48.78125 224.621094 46.914062 C 225.394531 45.046875 224.964844 42.894531 223.535156 41.464844 Z M 223.535156 41.464844 "/>
<path style=" stroke:none;fill-rule:nonzero;fill:rgb(80.000001%,80.000001%,80.000001%);fill-opacity:1;" d="M 155 120 L 155 70 L 45 70 C 39.476562 70 35 74.476562 35 80 L 35 190 L 20 190 C 17.980469 190 16.15625 191.21875 15.378906 193.085938 C 14.605469 194.953125 15.035156 197.105469 16.464844 198.535156 L 56.464844 238.535156 C 58.421875 240.488281 61.578125 240.488281 63.535156 238.535156 L 103.535156 198.535156 C 104.964844 197.105469 105.394531 194.953125 104.621094 193.085938 C 103.84375 191.21875 102.019531 190 100 190 L 85 190 L 85 120 Z M 155 120 "/>
</g>
</svg>
