<?xml version="1.0" encoding="UTF-8" standalone="no"?>
<svg
   viewBox="0 0 48 48"
   width="240px"
   height="240px"
   version="1.1"
   id="svg11"
   sodipodi:docname="icons8-change(2).svg"
   inkscape:version="1.1.1 (3bf5ae0d25, 2021-09-20)"
   xmlns:inkscape="http://www.inkscape.org/namespaces/inkscape"
   xmlns:sodipodi="http://sodipodi.sourceforge.net/DTD/sodipodi-0.dtd"
   xmlns="http://www.w3.org/2000/svg"
   xmlns:svg="http://www.w3.org/2000/svg">
  <defs
     id="defs15">
    <linearGradient
       id="FR_9NzDz28iTOUpGSsOFAa"
       x1="10.043"
       x2="38.306999"
       y1="10.241"
       y2="38.504002"
       gradientUnits="userSpaceOnUse"
       gradientTransform="matrix(0.52816781,0,0,0.52816781,23.516297,22.565635)">
      <stop
         offset="0"
         stop-color="#21ad64"
         id="stop2-3" />
      <stop
         offset="1"
         stop-color="#088242"
         id="stop4-6" />
    </linearGradient>
  </defs>
  <sodipodi:namedview
     id="namedview13"
     pagecolor="#ffffff"
     bordercolor="#666666"
     borderopacity="1.0"
     inkscape:pageshadow="2"
     inkscape:pageopacity="0.0"
     inkscape:pagecheckerboard="0"
     showgrid="false"
     inkscape:zoom="2.8416667"
     inkscape:cx="120"
     inkscape:cy="120"
     inkscape:window-width="2560"
     inkscape:window-height="1382"
     inkscape:window-x="1920"
     inkscape:window-y="314"
     inkscape:window-maximized="1"
     inkscape:current-layer="svg11" />
  <linearGradient
     id="fHH1575ypYIq9ckEi_Imra"
     x1="31"
     x2="31"
     y1=".192"
     y2="34.099"
     gradientUnits="userSpaceOnUse">
    <stop
       offset="0"
       stop-color="#199ae0"
       id="stop2" />
    <stop
       offset="1"
       stop-color="#0782d8"
       id="stop4" />
  </linearGradient>
  <path
     fill="url(#fHH1575ypYIq9ckEi_Imra)"
     d="M44.707,8.293l-8-8c-0.391-0.391-1.023-0.391-1.414,0l-8,8 c-0.286,0.286-0.372,0.716-0.217,1.09C27.231,9.756,27.596,10,28,10h3v14H17v10h22c1.105,0,2-0.895,2-2V10h3 c0.404,0,0.769-0.244,0.924-0.617C45.079,9.009,44.993,8.579,44.707,8.293z"
     id="path7" />
  <path
     fill="#3cf"
     d="M31,24V14H9c-1.105,0-2,0.895-2,2v22H4c-0.404,0-0.769,0.244-0.924,0.617 c-0.155,0.374-0.069,0.804,0.217,1.09l8,8c0.391,0.391,1.023,0.391,1.414,0l8-8c0.286-0.286,0.372-0.716,0.217-1.09 C20.769,38.244,20.404,38,20,38h-3V24H31z"
     id="path9" />
  <path
     fill="url(#FR_9NzDz28iTOUpGSsOFAa)"
     d="m 37.414505,25.267213 0.379752,0.438379 0.501232,-0.291549 c 0.851406,-0.494893 1.943657,-0.119894 2.31179,0.793308 l 0.216549,0.537675 0.568308,-0.112499 c 0.966019,-0.191725 1.877109,0.517604 1.928869,1.501052 l 0.03011,0.578872 0.574646,0.07817 c 0.976055,0.13257 1.607215,1.099117 1.336793,2.046122 l -0.159507,0.557217 0.518133,0.260387 c 0.879928,0.442077 1.163554,1.561792 0.599999,2.369361 l -0.33169,0.475351 0.405633,0.414612 c 0.688731,0.704047 0.593133,1.854925 -0.20176,2.435381 l -0.467957,0.342253 0.248767,0.523414 c 0.423063,0.889435 -0.0412,1.946827 -0.981864,2.238376 l -0.554048,0.171654 0.06549,0.576231 c 0.111444,0.978695 -0.670773,1.827989 -1.655278,1.797883 l -0.5794,-0.01743 -0.125176,0.566196 c -0.212323,0.961793 -1.22799,1.511088 -2.149643,1.163025 l -0.542428,-0.204929 -0.302112,0.494893 c -0.513379,0.840315 -1.652109,1.030456 -2.410558,0.402464 l -0.44683,-0.370245 -0.446301,0.369717 c -0.758449,0.627992 -1.897179,0.438379 -2.410558,-0.402464 l -0.302112,-0.494893 -0.542429,0.204929 c -0.921124,0.348063 -1.936791,-0.20176 -2.149643,-1.163025 l -0.125175,-0.566196 -0.579401,0.01743 c -0.984504,0.03011 -1.766193,-0.819716 -1.655277,-1.797883 l 0.06549,-0.576231 -0.554048,-0.171655 c -0.940667,-0.29102 -1.404398,-1.34894 -0.981864,-2.238375 l 0.248767,-0.523414 -0.467956,-0.342253 C 25.496397,36.76754 25.401327,35.616662 26.090058,34.913142 L 26.49569,34.498531 26.164001,34.02318 c -0.563554,-0.80757 -0.279928,-1.927286 0.6,-2.369362 l 0.518132,-0.260387 -0.159506,-0.556689 c -0.27095,-0.947005 0.360738,-1.913552 1.336792,-2.046122 l 0.574647,-0.07817 0.03011,-0.578872 c 0.05123,-0.983448 0.962849,-1.692777 1.928868,-1.501052 l 0.568837,0.113027 0.216549,-0.537674 c 0.368129,-0.913201 1.46038,-1.288201 2.311786,-0.793307 l 0.501232,0.291548 0.379752,-0.438379 c 0.643837,-0.745245 1.798412,-0.745245 2.443305,-5.28e-4 z"
     id="path7-7"
     style="fill:url(#FR_9NzDz28iTOUpGSsOFAa);stroke-width:0.528168" />
  <path
     d="m 40.508512,31.107164 -5.372523,5.372523 -2.731684,-2.731684 c -0.412499,-0.412499 -1.08116,-0.412499 -1.493659,0 l -0.746829,0.74683 c -0.412499,0.412499 -0.412499,1.081159 0,1.493658 l 4.225342,4.225343 c 0.412499,0.412499 1.08116,0.412499 1.493659,0 L 42.749,33.347652 c 0.412499,-0.412499 0.412499,-1.081159 0,-1.493658 l -0.74683,-0.74683 c -0.412499,-0.412499 -1.081159,-0.412499 -1.493658,0 z"
     opacity="0.05"
     id="path9-5"
     style="stroke-width:0.528168" />
  <path
     d="M 34.575603,40.02739 30.35026,35.802048 c -0.309506,-0.309506 -0.309506,-0.811266 0,-1.120244 l 0.746829,-0.746829 c 0.309507,-0.309507 0.811266,-0.309507 1.120244,0 l 2.918656,2.918127 5.558966,-5.558966 c 0.309506,-0.309507 0.811266,-0.309507 1.120244,0 l 0.746829,0.746829 c 0.309506,0.309506 0.309506,0.811266 0,1.120244 l -6.866181,6.866181 c -0.308979,0.308979 -0.810738,0.308979 -1.120244,0 z"
     opacity="0.07"
     id="path11"
     style="stroke-width:0.528168" />
  <path
     fill="#fcff63"
     d="m 34.762574,39.840419 -4.225342,-4.225343 c -0.206514,-0.206513 -0.206514,-0.540843 0,-0.746829 l 0.746829,-0.746829 c 0.206513,-0.206514 0.540844,-0.206514 0.746829,0 l 3.105099,3.105098 5.745937,-5.745937 c 0.206514,-0.206514 0.540844,-0.206514 0.74683,0 l 0.746829,0.746829 c 0.206513,0.206514 0.206513,0.540844 0,0.746829 l -6.866182,6.866182 c -0.205985,0.206514 -0.540844,0.206514 -0.746829,0 z"
     id="path13"
     style="stroke-width:0.528168" />
</svg>
