<?xml version="1.0" encoding="UTF-8"?>
<svg xmlns="http://www.w3.org/2000/svg" xmlns:xlink="http://www.w3.org/1999/xlink" viewBox="0 0 240 240" width="240px" height="240px">
<defs>
<linearGradient id="linear0" gradientUnits="userSpaceOnUse" x1="111.083328" y1="0.688" x2="111.083328" y2="122.18808" gradientTransform="matrix(1.395349,0,0,1.395349,0,0)">
<stop offset="0" style="stop-color:rgb(9.803922%,60.392159%,87.843138%);stop-opacity:1;"/>
<stop offset="1" style="stop-color:rgb(2.745098%,50.980395%,84.705883%);stop-opacity:1;"/>
</linearGradient>
<linearGradient id="linear1" gradientUnits="userSpaceOnUse" x1="106.454277" y1="100.64344" x2="157.129059" y2="151.318237" gradientTransform="matrix(1.395349,0,0,1.395349,0,0)">
<stop offset="0" style="stop-color:rgb(65.882355%,30.980393%,81.176472%);stop-opacity:1;"/>
<stop offset="1" style="stop-color:rgb(46.27451%,8.235294%,70.980394%);stop-opacity:1;"/>
</linearGradient>
</defs>
<g id="surface37841275">
<path style=" stroke:none;fill-rule:nonzero;fill:url(#linear0);" d="M 223.535156 41.464844 L 183.535156 1.464844 C 181.578125 -0.488281 178.421875 -0.488281 176.464844 1.464844 L 136.464844 41.464844 C 135.035156 42.894531 134.605469 45.046875 135.378906 46.914062 C 136.15625 48.78125 137.980469 50 140 50 L 155 50 L 155 120 L 85 120 L 85 170 L 195 170 C 200.523438 170 205 165.523438 205 160 L 205 50 L 220 50 C 222.019531 50 223.84375 48.78125 224.621094 46.914062 C 225.394531 45.046875 224.964844 42.894531 223.535156 41.464844 Z M 223.535156 41.464844 "/>
<path style=" stroke:none;fill-rule:nonzero;fill:rgb(20%,80.000001%,100%);fill-opacity:1;" d="M 155 120 L 155 70 L 45 70 C 39.476562 70 35 74.476562 35 80 L 35 190 L 20 190 C 17.980469 190 16.15625 191.21875 15.378906 193.085938 C 14.605469 194.953125 15.035156 197.105469 16.464844 198.535156 L 56.464844 238.535156 C 58.421875 240.488281 61.578125 240.488281 63.535156 238.535156 L 103.535156 198.535156 C 104.964844 197.105469 105.394531 194.953125 104.621094 193.085938 C 103.84375 191.21875 102.019531 190 100 190 L 85 190 L 85 120 Z M 155 120 "/>
<path style=" stroke:none;fill-rule:nonzero;fill:url(#linear1);" d="M 233.894531 175.789062 C 233.894531 203.398438 211.503906 225.789062 183.894531 225.789062 C 156.285156 225.789062 133.894531 203.398438 133.894531 175.789062 C 133.894531 148.175781 156.28125 125.789062 183.894531 125.789062 C 211.511719 125.789062 233.894531 148.171875 233.894531 175.789062 Z M 233.894531 175.789062 "/>
<path style=" stroke:none;fill-rule:nonzero;fill:rgb(100%,100%,100%);fill-opacity:1;" d="M 183.894531 153.847656 L 183.894531 165.789062 L 163.894531 165.789062 C 161.136719 165.789062 158.894531 168.027344 158.894531 170.789062 L 158.894531 180.789062 C 158.894531 183.546875 161.136719 185.789062 163.894531 185.789062 L 183.894531 185.789062 L 183.894531 197.726562 C 183.894531 199.882812 186.441406 201.027344 188.054688 199.597656 L 211.945312 178.40625 C 213.515625 177.011719 213.515625 174.5625 211.945312 173.171875 L 188.054688 151.980469 C 186.441406 150.546875 183.894531 151.691406 183.894531 153.847656 Z M 183.894531 153.847656 "/>
</g>
</svg>
