<svg xmlns="http://www.w3.org/2000/svg"  viewBox="0 0 48 48" width="240px" height="240px"><linearGradient id="3teSTP118OpAn_tuH~zXqa" x1="26.763" x2="26.763" y1="38.698" y2="41.778" gradientTransform="rotate(45.001 26 25)" gradientUnits="userSpaceOnUse"><stop offset=".051" stop-color="#c1c6c9"/><stop offset=".206" stop-color="#c9cdcf"/><stop offset=".388" stop-color="#d8dadc"/><stop offset=".534" stop-color="#e1e2e4"/><stop offset=".859" stop-color="#e4e4e6"/></linearGradient><path fill="url(#3teSTP118OpAn_tuH~zXqa)" d="M16.868,45.11l-8.132-8.132c-1.172-1.172-1.172-3.071,0-4.243l12.021-12.021l1.414,1.414 L10.151,34.149c-0.391,0.391-0.391,1.024,0,1.414l8.132,8.132c0.195,0.195,0.195,0.512,0,0.707l-0.707,0.707 C17.38,45.305,17.064,45.305,16.868,45.11z"/><linearGradient id="3teSTP118OpAn_tuH~zXqb" x1="20.263" x2="20.263" y1="19.166" y2="31.678" gradientTransform="rotate(45.001 26 25)" gradientUnits="userSpaceOnUse"><stop offset="0" stop-color="#899198"/><stop offset="1" stop-color="#787e85"/></linearGradient><path fill="url(#3teSTP118OpAn_tuH~zXqb)" d="M18.636,10.108l-4.973,4.973c-0.432,0.432-0.643,1.038-0.572,1.645l0.819,7.04l5.21,5.21 l7.04,0.819c0.607,0.071,1.213-0.14,1.645-0.572l4.973-4.973L18.636,10.108z"/><linearGradient id="3teSTP118OpAn_tuH~zXqc" x1="20.263" x2="20.263" y1="39.719" y2="32.732" gradientTransform="rotate(45.001 26 25)" gradientUnits="userSpaceOnUse"><stop offset="0" stop-color="#737b80"/><stop offset="1" stop-color="#575c61"/></linearGradient><path fill="url(#3teSTP118OpAn_tuH~zXqc)" d="M13.463,31.805l-2.382-2.382c-0.781-0.781-0.781-2.047,0-2.828l2.828-2.828l5.21,5.21 l-2.828,2.828C15.51,32.586,14.244,32.586,13.463,31.805z"/><linearGradient id="3teSTP118OpAn_tuH~zXqd" x1="14.763" x2="14.763" y1="13.219" y2="15.678" gradientTransform="rotate(45.001 26 25)" gradientUnits="userSpaceOnUse"><stop offset="0" stop-color="#eba600"/><stop offset="1" stop-color="#c28200"/></linearGradient><path fill="url(#3teSTP118OpAn_tuH~zXqd)" d="M24.293,11.522l-0.707-0.707c-0.391-0.391-0.391-1.024,0-1.414l6.364-6.364 c0.391-0.391,1.024-0.391,1.414,0l0.707,0.707c0.391,0.391,0.391,1.024,0,1.414l-6.364,6.364 C25.317,11.913,24.683,11.913,24.293,11.522z"/><linearGradient id="3teSTP118OpAn_tuH~zXqe" x1="25.763" x2="25.763" y1="13.219" y2="15.678" gradientTransform="rotate(45.001 26 25)" gradientUnits="userSpaceOnUse"><stop offset="0" stop-color="#eba600"/><stop offset="1" stop-color="#c28200"/></linearGradient><path fill="url(#3teSTP118OpAn_tuH~zXqe)" d="M32.071,19.3l-0.707-0.707c-0.391-0.391-0.391-1.024,0-1.414l6.364-6.364 c0.391-0.391,1.024-0.391,1.414,0l0.707,0.707c0.391,0.391,0.391,1.024,0,1.414L33.485,19.3 C33.095,19.691,32.462,19.691,32.071,19.3z"/><path fill="#ccc" d="M32.778,24.25L18.636,10.108l2.121-2.121c0.391-0.391,1.024-0.391,1.414,0l12.728,12.728 c0.391,0.391,0.391,1.024,0,1.414L32.778,24.25z"/></svg>