<svg xmlns="http://www.w3.org/2000/svg"  viewBox="0 0 48 48" width="500px" height="500px"><linearGradient id="pt4CkO_jh7peTyLO1Gp1ka" x1="16.86" x2="29.576" y1="-427.533" y2="-467.546" gradientTransform="matrix(1 0 0 -1 0 -426)" gradientUnits="userSpaceOnUse"><stop offset="0" stop-color="#c77740"/><stop offset="1" stop-color="#b0622b"/></linearGradient><path fill="url(#pt4CkO_jh7peTyLO1Gp1ka)" d="M38,4H26c0,1.105-0.895,2-2,2s-2-0.895-2-2H10C8.895,4,8,4.895,8,6v36c0,1.105,0.895,2,2,2h28	c1.105,0,2-0.895,2-2V6C40,4.895,39.105,4,38,4z"/><linearGradient id="pt4CkO_jh7peTyLO1Gp1kb" x1="24" x2="24" y1="-462.966" y2="-466.893" gradientTransform="matrix(1 0 0 -1 0 -426)" gradientUnits="userSpaceOnUse"><stop offset=".442" stop-color="#878786"/><stop offset=".594" stop-color="#9f9f9e"/><stop offset=".859" stop-color="#c3c3c3"/><stop offset="1" stop-color="#d1d1d1"/></linearGradient><path fill="url(#pt4CkO_jh7peTyLO1Gp1kb)" d="M37,42H11c-0.552,0-1-0.448-1-1v-9h28v9C38,41.552,37.552,42,37,42z"/><path fill="#f3f3f3" d="M37,40H11c-0.552,0-1-0.448-1-1V7c0-0.552,0.448-1,1-1h26c0.552,0,1,0.448,1,1v32	C38,39.552,37.552,40,37,40z"/><linearGradient id="pt4CkO_jh7peTyLO1Gp1kc" x1="-42.93" x2="-41.046" y1="860.928" y2="853.091" gradientTransform="matrix(-1 0 0 1 -18 -851)" gradientUnits="userSpaceOnUse"><stop offset="0" stop-color="#c3cdd9"/><stop offset="1" stop-color="#9fa7b0"/></linearGradient><path fill="url(#pt4CkO_jh7peTyLO1Gp1kc)" d="M31,8V4h-4.184C26.403,2.837,25.304,2,24,2s-2.403,0.837-2.816,2H17v4c0,0.552,0.448,1,1,1h12	C30.552,9,31,8.552,31,8z M24,4c0.552,0,1,0.448,1,1s-0.448,1-1,1s-1-0.448-1-1S23.448,4,24,4z"/><path fill="#21a366" d="M21.49,31.771l-6.261-6.261c-0.306-0.306-0.306-0.801,0-1.107l1.107-1.107	c0.306-0.306,0.801-0.306,1.107,0l4.601,4.601l8.514-8.514c0.306-0.306,0.801-0.306,1.107,0l1.107,1.107	c0.306,0.306,0.306,0.801,0,1.107L22.597,31.771C22.291,32.076,21.796,32.076,21.49,31.771z"/></svg>