<?xml version="1.0" encoding="UTF-8" standalone="no"?>
<svg
   viewBox="0 0 48 48"
   width="240px"
   height="240px"
   version="1.1"
   id="svg16"
   sodipodi:docname="icons8-globe-fibre.svg"
   inkscape:version="1.1.1 (3bf5ae0d25, 2021-09-20)"
   xmlns:inkscape="http://www.inkscape.org/namespaces/inkscape"
   xmlns:sodipodi="http://sodipodi.sourceforge.net/DTD/sodipodi-0.dtd"
   xmlns="http://www.w3.org/2000/svg"
   xmlns:svg="http://www.w3.org/2000/svg">
  <defs
     id="defs20">
    <linearGradient
       id="gdLL2FB7VtbBMLliRKBSLb"
       x1="29.028"
       x2="32.015999"
       y1="42.352001"
       y2="30.365"
       gradientTransform="matrix(0.40350215,0,0,-0.45710877,27.208522,59.376218)"
       gradientUnits="userSpaceOnUse">
      <stop
         offset="0"
         stop-color="#2aa4f4"
         id="stop15" />
      <stop
         offset="1"
         stop-color="#007ad9"
         id="stop17" />
    </linearGradient>
    <linearGradient
       id="gdLL2FB7VtbBMLliRKBSLa"
       x1="33.27"
       x2="44.384998"
       y1="37.389999"
       y2="37.389999"
       gradientTransform="matrix(0.40350215,0,0,-0.45710877,27.621359,59.457029)"
       gradientUnits="userSpaceOnUse">
      <stop
         offset=".128"
         stop-color="#c9cdcf"
         id="stop2-3" />
      <stop
         offset=".141"
         stop-color="#cbced0"
         id="stop4-6" />
      <stop
         offset=".331"
         stop-color="#e1e2e4"
         id="stop6" />
      <stop
         offset=".859"
         stop-color="#e4e4e6"
         id="stop8" />
    </linearGradient>
    <linearGradient
       id="linear0"
       gradientUnits="userSpaceOnUse"
       x1="96.513496"
       y1="32.522331"
       x2="107.52508"
       y2="76.694077"
       gradientTransform="scale(1.395349)">
      <stop
         offset="0"
         style="stop-color:rgb(90.588236%,42.745098%,23.529412%);stop-opacity:1;"
         id="stop748" />
      <stop
         offset="1"
         style="stop-color:rgb(71.372551%,20%,15.294118%);stop-opacity:1;"
         id="stop750" />
    </linearGradient>
    <linearGradient
       id="linear1"
       gradientUnits="userSpaceOnUse"
       x1="143.95325"
       y1="67.796669"
       x2="129.91733"
       y2="47.00975"
       gradientTransform="scale(4.999995)">
      <stop
         offset="0"
         style="stop-color:rgb(41.176471%,3.529412%,3.529412%);stop-opacity:1;"
         id="stop753" />
      <stop
         offset="1"
         style="stop-color:rgb(71.372551%,20%,15.294118%);stop-opacity:1;"
         id="stop755" />
    </linearGradient>
    <linearGradient
       id="linear2"
       gradientUnits="userSpaceOnUse"
       x1="121.83333"
       y1="43"
       x2="132.58333"
       y2="43"
       gradientTransform="scale(4.999995)">
      <stop
         offset="0"
         style="stop-color:rgb(82.352942%,80.392158%,80.392158%);stop-opacity:1;"
         id="stop758" />
      <stop
         offset="1"
         style="stop-color:rgb(100%,100%,100%);stop-opacity:1;"
         id="stop760" />
    </linearGradient>
    <linearGradient
       id="linear0-6"
       gradientUnits="userSpaceOnUse"
       x1="119.2175"
       y1="37.625"
       x2="150.28453"
       y2="37.396008"
       gradientTransform="matrix(0.13504871,0,0,0.13504871,22.367593,18.30681)">
      <stop
         offset="0.128"
         style="stop-color:rgb(78.823531%,80.392158%,81.176472%);stop-opacity:1;"
         id="stop1052" />
      <stop
         offset="0.141"
         style="stop-color:rgb(79.607844%,80.784315%,81.568629%);stop-opacity:1;"
         id="stop1054" />
      <stop
         offset="0.331"
         style="stop-color:rgb(88.235295%,88.627452%,89.411765%);stop-opacity:1;"
         id="stop1056" />
      <stop
         offset="0.859"
         style="stop-color:rgb(88.235295%,88.235295%,88.235295%);stop-opacity:1;"
         id="stop1058" />
    </linearGradient>
    <linearGradient
       id="linear1-2"
       gradientUnits="userSpaceOnUse"
       x1="104.017"
       y1="19.8445"
       x2="114.724"
       y2="62.79792"
       gradientTransform="matrix(0.13504871,0,0,0.13504871,22.367593,18.30681)">
      <stop
         offset="0"
         style="stop-color:rgb(94.509804%,76.862746%,5.882353%);stop-opacity:1;"
         id="stop1061" />
      <stop
         offset="1"
         style="stop-color:rgb(88.235295%,64.313728%,3.137255%);stop-opacity:1;"
         id="stop1063" />
    </linearGradient>
    <linearGradient
       id="linear0-62"
       gradientUnits="userSpaceOnUse"
       x1="96.513496"
       y1="32.522331"
       x2="107.52508"
       y2="76.694077"
       gradientTransform="scale(1.395349)">
      <stop
         offset="0"
         style="stop-color:rgb(90.588236%,42.745098%,23.529412%);stop-opacity:1;"
         id="stop748-6" />
      <stop
         offset="1"
         style="stop-color:rgb(71.372551%,20%,15.294118%);stop-opacity:1;"
         id="stop750-1" />
    </linearGradient>
    <linearGradient
       id="linear1-8"
       gradientUnits="userSpaceOnUse"
       x1="143.95325"
       y1="67.796669"
       x2="129.91733"
       y2="47.00975"
       gradientTransform="scale(4.999995)">
      <stop
         offset="0"
         style="stop-color:rgb(41.176471%,3.529412%,3.529412%);stop-opacity:1;"
         id="stop753-7" />
      <stop
         offset="1"
         style="stop-color:rgb(71.372551%,20%,15.294118%);stop-opacity:1;"
         id="stop755-9" />
    </linearGradient>
    <linearGradient
       id="linear2-2"
       gradientUnits="userSpaceOnUse"
       x1="121.83333"
       y1="43"
       x2="132.58333"
       y2="43"
       gradientTransform="scale(4.999995)">
      <stop
         offset="0"
         style="stop-color:rgb(82.352942%,80.392158%,80.392158%);stop-opacity:1;"
         id="stop758-0" />
      <stop
         offset="1"
         style="stop-color:rgb(100%,100%,100%);stop-opacity:1;"
         id="stop760-2" />
    </linearGradient>
  </defs>
  <sodipodi:namedview
     id="namedview18"
     pagecolor="#ffffff"
     bordercolor="#666666"
     borderopacity="1.0"
     inkscape:pageshadow="2"
     inkscape:pageopacity="0.0"
     inkscape:pagecheckerboard="0"
     showgrid="false"
     inkscape:zoom="2.8416667"
     inkscape:cx="76.891496"
     inkscape:cy="147.09677"
     inkscape:window-width="2560"
     inkscape:window-height="1382"
     inkscape:window-x="1920"
     inkscape:window-y="314"
     inkscape:window-maximized="1"
     inkscape:current-layer="surface58844133" />
  <linearGradient
     id="NOym_MWXn_NqLuEERx94Ya"
     x1="9.858"
     x2="38.387"
     y1="9.858"
     y2="38.387"
     gradientUnits="userSpaceOnUse"
     gradientTransform="matrix(0.89251916,0,0,0.89251916,0.02992325,-1.4708132)">
    <stop
       offset="0"
       stop-color="#00bffe"
       id="stop2" />
    <stop
       offset="1"
       stop-color="#1d55c4"
       id="stop4" />
  </linearGradient>
  <linearGradient
     id="NOym_MWXn_NqLuEERx94Yb"
     x1="10.205"
     x2="38.625"
     y1="9.68"
     y2="38.1"
     gradientUnits="userSpaceOnUse"
     gradientTransform="matrix(0.89251916,0,0,0.89251916,0.02992325,-1.4708132)">
    <stop
       offset="0"
       stop-color="#84e1fe"
       id="stop9" />
    <stop
       offset="1"
       stop-color="#167cf7"
       id="stop11" />
  </linearGradient>
  <g
     inkscape:groupmode="layer"
     id="layer9"
     inkscape:label="Layer 4">
    <g
       id="surface58844133"
       transform="matrix(0.09067475,0,0,-0.09067475,25.736323,48.2465)">
      <path
         style="fill:#e6613a;fill-opacity:1;fill-rule:nonzero;stroke:none"
         d="M 175,210 H 40 c -5.519531,0 -10,-4.48047 -10,-10 0,-5.51953 4.480469,-10 10,-10 h 135 c 13.78516,0 25,-11.21484 25,-25 0,-13.78516 -11.21484,-25 -25,-25 H 65 C 40.191406,140 20,119.81641 20,95 20,70.183594 40.191406,50 65,50 h 30 c 5.51953,0 10,4.480469 10,10 0,5.519531 -4.48047,10 -10,10 H 65 c -13.785156,0 -25,11.214844 -25,25 0,13.78516 11.214844,25 25,25 h 110 c 24.80859,0 45,20.18359 45,45 0,24.81641 -20.19141,45 -45,45 z m 0,0"
         id="path765" />
      <path
         style="fill:url(#linear0-62);fill-rule:nonzero;stroke:none"
         d="M 177.85937,34.878906 C 177.48437,34.910156 177.125,35 176.75,35 h -58.46875 c -5.30469,0 -10.39453,2.109375 -14.14453,5.859375 L 95,50 v 20 l 9.13672,9.140625 c 3.75,3.75 8.83984,5.859375 14.14453,5.859375 h 59.57812 z m 0,0"
         id="path767" />
      <path
         style="fill:url(#linear1-8);fill-rule:nonzero;stroke:none"
         d="m 195,60 c 0,13.808594 -7.83594,25 -17.5,25 -9.66406,0 -17.5,-11.191406 -17.5,-25 0,-13.808594 7.83594,-25 17.5,-25 9.66406,0 17.5,11.191406 17.5,25 z m 0,0"
         id="path769" />
      <path
         style="fill:#ffffff;fill-rule:nonzero;stroke:none"
         d="m 185,60 c 0,5.523438 -3.35938,10 -7.5,10 -4.14063,0 -7.5,-4.476562 -7.5,-10 0,-5.523438 3.35937,-10 7.5,-10 4.14062,0 7.5,4.476562 7.5,10 z m 0,0"
         id="path771" />
    </g>
  </g>
  <g
     inkscape:groupmode="layer"
     id="layer2"
     inkscape:label="Layer 2">
    <path
       fill="url(#NOym_MWXn_NqLuEERx94Ya)"
       d="m 39.300768,19.949647 c 0,9.857875 -7.99251,17.850384 -17.850385,17.850384 C 11.592509,37.800031 3.6,29.807522 3.6,19.949647 3.6,10.091773 11.592509,2.099263 21.450383,2.099263 c 9.857875,0 17.850385,7.99251 17.850385,17.850384 z"
       id="path7"
       style="fill:url(#NOym_MWXn_NqLuEERx94Ya);stroke-width:0.892519" />
  </g>
  <g
     inkscape:groupmode="layer"
     id="layer5"
     inkscape:label="Layer 3">
    <path
       fill="url(#NOym_MWXn_NqLuEERx94Yb)"
       d="m 21.245104,29.328239 c 0.205279,0.60959 0,1.424461 -0.204387,1.834127 -0.200816,0.610483 -0.405203,1.425352 -0.81487,1.830557 -0.405203,0.409666 -0.814869,0.614945 -1.220074,0.818439 -0.610482,0.405205 -1.019257,1.220074 -1.629739,1.834128 0,0.200816 -0.814871,1.237031 -1.019257,1.237031 -0.07587,0.04017 -0.148158,0.07676 -0.221345,0.11335 -1.203116,-0.374858 -2.34554,-0.881809 -3.424596,-1.489614 -0.0071,-0.02142 -0.01518,-0.04194 -0.02321,-0.06426 0,-0.204386 -0.200816,-1.42803 -0.200816,-1.629739 -0.204388,-0.613161 -0.409667,-1.428032 -0.613161,-2.038514 -0.405204,-1.019257 -1.220074,-2.038514 -1.220074,-3.258588 0,-1.02015 0.200817,-2.034944 -0.409666,-2.853384 C 9.429043,24.642514 7.7993027,24.642514 6.9844327,24.03203 5.7598965,23.21716 4.5398227,21.997086 3.9293396,20.77255 3.783859,20.53157 3.6856819,20.307548 3.6053551,20.087096 3.6062476,20.039792 3.6,19.996058 3.6,19.949647 3.6,15.169314 5.4903556,10.837027 8.5516965,7.6328828 10.226063,6.2789306 13.491791,5.6559521 15.474075,6.2539406 c 0.610484,0.2008162 2.806973,1.5146043 2.806973,2.1250878 0,0.2043872 0,0.2043872 -0.204386,0.4096664 -0.200818,0.2043872 -0.406097,0.2043872 -0.610484,0.2043872 -0.610484,0 -2.533862,-0.4435824 -2.739141,-0.6488616 -1.224536,-0.4087744 -3.055093,2.2402226 -3.258588,3.0550926 -0.204386,0.613161 -0.204386,2.038514 0.814871,2.242901 0.610482,0 3.404067,-2.370531 3.813734,-2.574918 1.629739,-0.200816 2.889084,1.195976 3.298751,2.624899 0.610482,1.62974 -2.833749,3.205037 -4.058285,3.614703 -0.405204,0.204386 -0.60959,-0.204387 -1.019257,0 -1.015687,0.405204 -1.616352,1.315573 -1.737735,2.533861 -0.102635,1.03086 -0.204386,2.035837 -0.405204,3.055094 -0.204387,0 -0.622978,-0.0027 -0.622978,-0.207064 v -0.405205 c 0,-0.614945 -0.204387,-1.428923 -0.81487,-1.633309 -0.204387,-0.199924 -0.49267,0.121382 -0.697057,0.121382 -0.610484,0 -1.2200743,-0.61316 -1.8305574,-0.204387 -0.4096663,0.405204 -0.81487,1.019257 -0.81487,1.62974 0,0.20528 0,0.409667 0.2008168,0.610484 0.4096663,0.204386 0.8148701,-0.200817 1.2245363,0 0.4052038,0 0.4052038,0.409666 0.4052038,0.61316 0.4096667,0.610483 0.8148705,1.425354 1.4280305,1.62974 h 4.073458 c 0.610483,0.204387 1.62974,0.405204 2.038513,0.814871 0.199925,0.405203 0.199925,0.814869 0.405204,1.220073 1.019258,1.019256 2.239331,1.019256 3.462975,1.428031 0.406988,0.204387 0.612268,0.405203 0.611375,0.81487 z M 32.628294,6.0441984 c -0.09014,0.02678 -0.180289,0.050875 -0.268648,0.08925 -0.610484,0.2043861 -2.20363,3.1461297 -2.611511,3.7557202 -0.204388,0.2043874 -0.405204,0.6104834 -0.204388,0.8148694 0,0.204388 0.204388,0.204388 0.409667,0.204388 0.405204,0.204387 0.46054,0.289176 0.869314,0.489993 0.204387,0 0.405204,0.204387 0.204387,0.409666 0,0 0,0.204387 -0.204387,0.204387 -1.019257,1.019256 -2.038514,1.834127 -3.055093,2.849814 -0.20528,0.206172 -0.341835,0.615838 -0.341835,0.815763 0,0.204386 0.136555,0.204386 0.136555,0.409666 0,0.205279 -0.204386,0.204386 -0.409667,0.405203 -0.405203,0.204388 -0.814869,0.409667 -1.019257,0.613161 -0.200816,0.405203 0,1.019257 -0.200816,1.425353 -0.205279,1.019257 -0.81844,1.834127 -1.224537,2.853384 -0.409665,0.610483 -0.774705,1.220074 -1.184372,1.834127 0,0.81487 -0.204387,1.425353 0.204386,2.034944 1.019257,1.42803 3.059556,0.06159 4.484909,0.671174 0.405205,0.204387 0.754179,0.241873 1.019257,0.610483 0.506059,0.702413 0.567643,2.18221 0.772922,2.796262 0.200817,0.814871 0.405204,1.629741 0.814871,2.444611 0.202601,1.010331 0.60245,2.01977 0.808621,2.826608 4.63396,-3.225565 7.672096,-8.581572 7.672096,-14.65338 0,-5.623763 -2.607049,-10.6334739 -6.672474,-13.9054487 z M 25.563112,6.8804892 C 26.170026,6.4904578 26.576122,5.7130731 26.779616,5.1302586 26.978647,4.7393353 27.589131,3.9628436 27.386529,3.3800281 27.228553,3.0765719 26.585939,2.8944977 26.116474,2.7365226 24.625967,2.3339962 23.067629,2.099263 21.450383,2.099263 c -0.410558,0 -0.813084,0.03392 -1.216503,0.061585 -0.34005,0.1178131 -0.632796,0.3177373 -0.743468,0.6372585 -0.203494,0.9719539 0.606912,0.7764917 1.415535,0.9719539 0,0 0.203494,1.5547683 0.203494,1.7502305 0.203494,0.9719528 -0.406096,1.5547684 -0.406096,2.5240442 0,0.5854925 0,1.5574453 0.406096,1.9456917 h 0.203494 c 0.203496,0 0.402527,-0.1954622 0.809516,-0.3864614 0.606913,-0.3909233 1.216503,-0.9719528 1.822524,-1.3628761 0.60602,-0.3873534 1.212041,-0.9728459 1.618137,-1.3602001 z"
       id="path14"
       style="fill:url(#NOym_MWXn_NqLuEERx94Yb);stroke-width:0.892519" />
  </g>
</svg>
