<svg xmlns="http://www.w3.org/2000/svg"  viewBox="0 0 48 48" width="240px" height="240px"><linearGradient id="_65ftEPE7S9EubFUczgsqa" x1="30" x2="30" y1="1.977" y2="15.977" gradientUnits="userSpaceOnUse"><stop offset="0" stop-color="#f0f0f0"/><stop offset="1" stop-color="#bbc1c4"/></linearGradient><path fill="url(#_65ftEPE7S9EubFUczgsqa)" d="M38.5,3c-0.325,0-0.624,0.106-0.87,0.282C37.289,3.108,36.909,3,36.5,3 c-0.25,0-0.487,0.048-0.714,0.116C35.459,2.457,34.786,2,34,2c-0.51,0-0.971,0.197-1.324,0.512C32.197,2.189,31.621,2,31,2 c-0.921,0-1.735,0.424-2.285,1.078C28.001,2.414,27.051,2,26,2c-1.876,0-3.438,1.296-3.871,3.039C21.923,5.015,21.713,5,21.5,5 C18.462,5,16,7.462,16,10.5c0,3.038,2.462,5.5,5.5,5.5c1.929,0,3.623-0.995,4.605-2.498C26.671,13.81,27.31,14,28,14 c1.498,0,2.789-0.834,3.474-2.053C31.648,11.97,31.82,12,32,12c2.209,0,4-1.791,4-4c0-0.018-0.005-0.034-0.005-0.051 C36.158,7.982,36.327,8,36.5,8c1.236,0,2.256-0.9,2.458-2.079C39.561,5.727,40,5.168,40,4.5C40,3.672,39.328,3,38.5,3z M43,5 c-0.552,0-1,0.448-1,1c0,0.552,0.448,1,1,1s1-0.448,1-1C44,5.448,43.552,5,43,5z"/><path fill="#50e6ff" d="M36,14H12v-3c0-0.552,0.448-1,1-1h22c0.552,0,1,0.448,1,1V14z"/><path fill="#35c1f1" d="M36,14H12c0,16-6,26-6,27c0,0.552,0.448,1,1,1h34c0.552,0,1-0.448,1-1C42,40,36,30,36,14z"/><linearGradient id="_65ftEPE7S9EubFUczgsqb" x1="19" x2="29" y1="28" y2="28" gradientUnits="userSpaceOnUse"><stop offset="0" stop-color="#3079d6"/><stop offset="1" stop-color="#297cd2"/></linearGradient><polygon fill="url(#_65ftEPE7S9EubFUczgsqb)" points="24,37 24,30 19,30 24,19 24,26 29,26"/></svg>