<svg xmlns="http://www.w3.org/2000/svg"  viewBox="0 0 48 48" width="240px" height="240px"><path fill="#50e6ff" d="M10.228,15.885L7.32,12.977C5.226,16.138,4,19.924,4,24c0,3.668,0.993,7.103,2.719,10.058	c0.293,0.502,0.994,0.573,1.405,0.161l1.64-1.64c0.275-0.275,0.326-0.693,0.142-1.035C8.697,29.295,8,26.732,8,24	C8,21.034,8.821,18.267,10.228,15.885z"/><path fill="#199be2" d="M40,24c0,2.966-0.821,5.733-2.228,8.115l2.908,2.908C42.774,31.862,44,28.075,44,24	c0-3.668-0.993-7.103-2.719-10.058c-0.293-0.502-0.994-0.572-1.405-0.161l-1.64,1.64c-0.275,0.275-0.326,0.693-0.142,1.035	C39.303,18.705,40,21.268,40,24z"/><path fill="#35c1f1" d="M15.421,9.764c0.275,0.275,0.693,0.326,1.035,0.142C18.705,8.697,21.268,8,24,8	c2.966,0,5.733,0.821,8.115,2.228l2.909-2.909C31.862,5.226,28.076,4,24,4c-3.65,0-7.068,0.983-10.013,2.693	c-0.521,0.303-0.631,1.006-0.205,1.432L15.421,9.764z"/><path fill="#0078d4" d="M32.579,38.236c-0.275-0.275-0.693-0.326-1.035-0.142C29.295,39.303,26.732,40,24,40	c-2.966,0-5.733-0.821-8.115-2.228l-2.908,2.908C16.138,42.774,19.925,44,24,44c3.668,0,7.103-0.993,10.058-2.719	c0.502-0.293,0.573-0.994,0.161-1.405L32.579,38.236z"/><path fill="#35c1f1" d="M35.934,12.075L31.1,11.909c-0.342-0.012-0.512-0.421-0.277-0.671l4.657-4.975	c0.242-0.259,0.676-0.097,0.69,0.257l0.201,5.117C36.38,11.882,36.179,12.083,35.934,12.075z"/><path fill="#0078d4" d="M12.066,35.925l4.834,0.166c0.342,0.012,0.512,0.421,0.277,0.671l-4.657,4.975	c-0.242,0.259-0.676,0.097-0.69-0.257l-0.201-5.117C11.62,36.118,11.821,35.917,12.066,35.925z"/><path fill="#199be2" d="M35.925,35.934l0.166-4.834c0.012-0.342,0.421-0.512,0.671-0.277l4.975,4.657	c0.259,0.242,0.097,0.676-0.257,0.69l-5.117,0.201C36.118,36.38,35.917,36.179,35.925,35.934z"/><path fill="#50e6ff" d="M12.075,12.066L11.909,16.9c-0.012,0.342-0.421,0.512-0.671,0.277L6.262,12.52	c-0.259-0.242-0.097-0.676,0.257-0.69l5.117-0.201C11.882,11.62,12.083,11.821,12.075,12.066z"/><path fill="#50e6ff" d="M33,22h-7v-7c0-0.552-0.448-1-1-1h-2c-0.552,0-1,0.448-1,1v7h-7c-0.552,0-1,0.448-1,1v2	c0,0.552,0.448,1,1,1h7v7c0,0.552,0.448,1,1,1h2c0.552,0,1-0.448,1-1v-7h7c0.552,0,1-0.448,1-1v-2C34,22.448,33.552,22,33,22z"/></svg>