<?xml version="1.0" encoding="UTF-8"?>
<svg xmlns="http://www.w3.org/2000/svg" xmlns:xlink="http://www.w3.org/1999/xlink" viewBox="0 0 240 240" width="240px" height="240px">
<defs>
<linearGradient id="linear0" gradientUnits="userSpaceOnUse" x1="28.66667" y1="127.208328" x2="143.333328" y2="127.208328" gradientTransform="matrix(1.395349,0,0,1.395349,0,0)">
<stop offset="0" style="stop-color:rgb(6.666667%,25.098041%,54.11765%);stop-opacity:1;"/>
<stop offset="1" style="stop-color:rgb(6.27451%,24.705882%,56.078434%);stop-opacity:1;"/>
</linearGradient>
<linearGradient id="linear1" gradientUnits="userSpaceOnUse" x1="28.66667" y1="91.375" x2="143.333328" y2="91.375" gradientTransform="matrix(1.395349,0,0,1.395349,0,0)">
<stop offset="0" style="stop-color:rgb(11.372549%,34.901962%,70.19608%);stop-opacity:1;"/>
<stop offset="1" style="stop-color:rgb(9.803922%,35.686275%,73.725492%);stop-opacity:1;"/>
</linearGradient>
<linearGradient id="linear2" gradientUnits="userSpaceOnUse" x1="28.66667" y1="53.75" x2="143.333328" y2="53.75" gradientTransform="matrix(1.395349,0,0,1.395349,0,0)">
<stop offset="0" style="stop-color:rgb(18.82353%,47.450981%,83.92157%);stop-opacity:1;"/>
<stop offset="1" style="stop-color:rgb(16.078432%,48.627451%,82.352942%);stop-opacity:1;"/>
</linearGradient>
<linearGradient id="linear3" gradientUnits="userSpaceOnUse" x1="28.66667" y1="28.66667" x2="143.333328" y2="28.66667" gradientTransform="matrix(4.999995,0,0,4.999995,0,0)">
<stop offset="0" style="stop-color:rgb(25.882354%,63.921571%,94.901961%);stop-opacity:1;"/>
<stop offset="1" style="stop-color:rgb(25.882354%,64.313728%,92.156863%);stop-opacity:1;"/>
</linearGradient>
<linearGradient id="linear4" gradientUnits="userSpaceOnUse" x1="116.33709" y1="109.40847" x2="160.888" y2="153.959396" gradientTransform="matrix(1.395349,0,0,1.395349,0,0)">
<stop offset="0" style="stop-color:rgb(99.607843%,81.960785%,0%);stop-opacity:1;"/>
<stop offset="1" style="stop-color:rgb(89.019608%,37.64706%,0.392157%);stop-opacity:1;"/>
</linearGradient>
</defs>
<g id="surface42609239">
<path style=" stroke:none;fill-rule:nonzero;fill:url(#linear0);" d="M 200 140 L 40 140 C 40 140 40 191.355469 40 195 C 40 206.046875 75.816406 215 120 215 C 164.183594 215 200 206.046875 200 195 C 200 191.355469 200 140 200 140 Z M 200 140 "/>
<path style=" stroke:none;fill-rule:nonzero;fill:url(#linear1);" d="M 200 90 L 40 90 C 40 90 40 141.355469 40 145 C 40 156.046875 75.816406 165 120 165 C 164.183594 165 200 156.046875 200 145 C 200 141.355469 200 90 200 90 Z M 200 90 "/>
<path style=" stroke:none;fill-rule:nonzero;fill:url(#linear2);" d="M 200 40 L 40 40 C 40 40 40 88.78125 40 92.5 C 40 102.164062 75.816406 110 120 110 C 164.183594 110 200 102.164062 200 92.5 C 200 88.78125 200 40 200 40 Z M 200 40 "/>
<path style=" stroke:none;fill-rule:nonzero;fill:url(#linear3);" d="M 200 40 C 200 48.285156 164.183594 55 120 55 C 75.816406 55 40 48.285156 40 40 C 40 31.714844 75.816406 25 120 25 C 164.183594 25 200 31.714844 200 40 Z M 200 40 "/>
<path style=" stroke:none;fill-rule:nonzero;fill:url(#linear4);" d="M 165.246094 222.378906 C 157.488281 222.378906 149.726562 219.425781 143.820312 213.511719 C 132.0625 201.734375 132.722656 181.839844 144.484375 170.074219 L 184.8125 129.75 C 188.972656 125.585938 194.429688 122.792969 200.300781 122.425781 C 207.046875 122.007812 213.460938 124.441406 218.195312 129.171875 C 222.925781 133.902344 225.359375 140.320312 224.941406 147.066406 C 224.574219 152.9375 221.773438 158.394531 217.617188 162.554688 L 177.929688 202.246094 C 175.132812 205.039062 171.507812 206.980469 167.570312 207.328125 C 162.71875 207.75 158.089844 206.054688 154.703125 202.664062 C 151.3125 199.28125 149.617188 194.648438 150.042969 189.796875 C 150.386719 185.859375 152.328125 182.230469 155.125 179.441406 L 184.300781 150.261719 C 184.785156 149.777344 185.582031 149.777344 186.066406 150.261719 L 189.601562 153.796875 C 190.085938 154.285156 190.085938 155.078125 189.601562 155.5625 L 160.226562 184.941406 C 158.929688 186.238281 157.945312 187.851562 157.621094 189.652344 C 157.097656 192.542969 158 195.359375 160 197.363281 C 163.253906 200.621094 168.933594 200.625 172.199219 197.363281 L 212.882812 156.679688 C 215.84375 153.707031 217.476562 149.769531 217.476562 145.578125 C 217.476562 141.386719 215.847656 137.441406 212.882812 134.480469 C 209.917969 131.519531 205.976562 129.882812 201.785156 129.882812 C 197.59375 129.882812 193.652344 131.511719 190.6875 134.480469 L 149.140625 176.019531 C 140.265625 184.894531 140.265625 199.34375 149.140625 208.222656 C 158.023438 217.097656 172.46875 217.09375 181.34375 208.222656 L 221.792969 167.773438 C 222.28125 167.285156 223.074219 167.285156 223.566406 167.773438 L 227.101562 171.308594 C 227.585938 171.792969 227.585938 172.589844 227.101562 173.074219 L 186.652344 213.523438 C 180.753906 219.429688 172.996094 222.378906 165.246094 222.378906 Z M 165.246094 222.378906 "/>
</g>
</svg>
