<?xml version="1.0" encoding="UTF-8" standalone="no"?>
<svg
   viewBox="0 0 48 48"
   width="240px"
   height="240px"
   version="1.1"
   id="svg1633"
   sodipodi:docname="icons8-hypervisor.svg"
   inkscape:version="1.3.2 (091e20ef0f, 2023-11-25, custom)"
   inkscape:export-filename="icons8-hypervisor.png"
   inkscape:export-xdpi="96"
   inkscape:export-ydpi="96"
   xmlns:inkscape="http://www.inkscape.org/namespaces/inkscape"
   xmlns:sodipodi="http://sodipodi.sourceforge.net/DTD/sodipodi-0.dtd"
   xmlns="http://www.w3.org/2000/svg"
   xmlns:svg="http://www.w3.org/2000/svg">
  <defs
     id="defs1637" />
  <sodipodi:namedview
     id="namedview1635"
     pagecolor="#ffffff"
     bordercolor="#666666"
     borderopacity="1.0"
     inkscape:pageshadow="2"
     inkscape:pageopacity="0.0"
     inkscape:pagecheckerboard="0"
     showgrid="false"
     inkscape:zoom="2.8416667"
     inkscape:cx="124.04692"
     inkscape:cy="133.54839"
     inkscape:window-width="2560"
     inkscape:window-height="1379"
     inkscape:window-x="1200"
     inkscape:window-y="264"
     inkscape:window-maximized="1"
     inkscape:current-layer="svg1633"
     inkscape:showpageshadow="2"
     inkscape:deskcolor="#d1d1d1" />
  <linearGradient
     id="H5zWGZDzzYRltSZyl6Krha"
     x1="10.517"
     x2="36.546"
     y1="5.342"
     y2="41.361"
     gradientUnits="userSpaceOnUse"
     gradientTransform="matrix(0.79016159,0,0,0.79016159,4.2796009,2.6739179)">
    <stop
       offset="0"
       stop-color="#2aa4f4"
       id="stop1590" />
    <stop
       offset="1"
       stop-color="#007ad9"
       id="stop1592" />
  </linearGradient>
  <path
     fill="url(#H5zWGZDzzYRltSZyl6Krha)"
     d="M 32.725418,5.8345643 H 13.76154 c -0.873128,0 -1.580323,0.7071946 -1.580323,1.5803232 V 35.860705 c 0,0.873128 0.707195,1.580323 1.580323,1.580323 h 18.963878 c 0.873129,0 1.580324,-0.707195 1.580324,-1.580323 V 7.4148875 c 0,-0.8731286 -0.707195,-1.5803232 -1.580324,-1.5803232 z"
     id="path1595"
     style="fill:url(#H5zWGZDzzYRltSZyl6Krha);stroke-width:0.790162" />
  <radialGradient
     id="H5zWGZDzzYRltSZyl6Krhb"
     cx="24"
     cy="37"
     r="3"
     gradientUnits="userSpaceOnUse"
     gradientTransform="matrix(0.79016159,0,0,0.79016159,4.2796009,2.6739179)">
    <stop
       offset=".582"
       stop-opacity=".2"
       id="stop1597" />
    <stop
       offset="1"
       stop-opacity="0"
       id="stop1599" />
  </radialGradient>
  <circle
     cx="23.243479"
     cy="31.909897"
     r="2.3704848"
     fill="url(#H5zWGZDzzYRltSZyl6Krhb)"
     id="circle1602"
     style="fill:url(#H5zWGZDzzYRltSZyl6Krhb);stroke-width:0.790162" />
  <circle
     cx="23.243479"
     cy="31.909897"
     r="1.5803232"
     fill="#ffffff"
     id="circle1604"
     style="stroke-width:0.790162" />
  <linearGradient
     id="H5zWGZDzzYRltSZyl6Krhc"
     x1="14"
     x2="34"
     y1="11"
     y2="11"
     gradientUnits="userSpaceOnUse"
     gradientTransform="matrix(0.79016159,0,0,0.79016159,4.2796009,2.6739179)">
    <stop
       offset="0"
       stop-color="#1d59b3"
       id="stop1606" />
    <stop
       offset="1"
       stop-color="#195bbc"
       id="stop1608" />
  </linearGradient>
  <path
     fill="url(#H5zWGZDzzYRltSZyl6Krhc)"
     d="m 30.750014,13.73618 h -15.01307 c -0.218084,0 -0.395081,-0.176996 -0.395081,-0.395081 V 9.3902915 c 0,-0.2180846 0.176997,-0.3950808 0.395081,-0.3950808 h 15.01307 c 0.218085,0 0.395081,0.1769962 0.395081,0.3950808 v 3.9508075 c 0,0.218085 -0.176996,0.395081 -0.395081,0.395081 z"
     id="path1611"
     style="fill:url(#H5zWGZDzzYRltSZyl6Krhc);stroke-width:0.790162" />
  <circle
     cx="28.774611"
     cy="11.365695"
     r="0.79016161"
     fill="#50e6ff"
     id="circle1613"
     style="stroke-width:0.790162" />
  <linearGradient
     id="H5zWGZDzzYRltSZyl6Krhd"
     x1="14"
     x2="34"
     y1="19"
     y2="19"
     gradientUnits="userSpaceOnUse"
     gradientTransform="matrix(0.79016159,0,0,0.79016159,4.2796009,2.6739179)">
    <stop
       offset="0"
       stop-color="#1d59b3"
       id="stop1615" />
    <stop
       offset="1"
       stop-color="#195bbc"
       id="stop1617" />
  </linearGradient>
  <path
     fill="url(#H5zWGZDzzYRltSZyl6Krhd)"
     d="m 30.750014,20.057473 h -15.01307 c -0.218084,0 -0.395081,-0.176997 -0.395081,-0.395081 v -3.950808 c 0,-0.218085 0.176997,-0.395081 0.395081,-0.395081 h 15.01307 c 0.218085,0 0.395081,0.176996 0.395081,0.395081 v 3.950808 c 0,0.218084 -0.176996,0.395081 -0.395081,0.395081 z"
     id="path1620"
     style="fill:url(#H5zWGZDzzYRltSZyl6Krhd);stroke-width:0.790162" />
  <circle
     cx="28.774611"
     cy="17.686989"
     r="0.79016161"
     fill="#50e6ff"
     id="circle1622"
     style="stroke-width:0.790162" />
  <linearGradient
     id="H5zWGZDzzYRltSZyl6Krhe"
     x1="14"
     x2="34"
     y1="27"
     y2="27"
     gradientUnits="userSpaceOnUse"
     gradientTransform="matrix(0.79016159,0,0,0.79016159,4.2796009,2.6739179)">
    <stop
       offset="0"
       stop-color="#1d59b3"
       id="stop1624" />
    <stop
       offset="1"
       stop-color="#195bbc"
       id="stop1626" />
  </linearGradient>
  <path
     fill="url(#H5zWGZDzzYRltSZyl6Krhe)"
     d="m 30.750014,26.378765 h -15.01307 c -0.218084,0 -0.395081,-0.176996 -0.395081,-0.39508 v -3.950808 c 0,-0.218085 0.176997,-0.395081 0.395081,-0.395081 h 15.01307 c 0.218085,0 0.395081,0.176996 0.395081,0.395081 v 3.950808 c 0,0.218084 -0.176996,0.39508 -0.395081,0.39508 z"
     id="path1629"
     style="fill:url(#H5zWGZDzzYRltSZyl6Krhe);stroke-width:0.790162" />
  <circle
     cx="28.774611"
     cy="24.008282"
     r="0.79016161"
     fill="#50e6ff"
     id="circle1631"
     style="stroke-width:0.790162" />
  <path
     id="path2"
     style="display:inline;opacity:1;stroke:#ffffff;stroke-width:1.2428;stroke-dasharray:none;stroke-opacity:1"
     sodipodi:type="inkscape:offset"
     inkscape:radius="0.46688884"
     inkscape:original="M 31.25 30.457031 C 29.385785 30.457031 28.135207 31.910164 27.710938 32.726562 L 25.503906 37.40625 L 22.455078 31.091797 C 22.120804 30.497176 21.368751 30.283484 20.777344 30.611328 C 20.179509 30.942386 19.965816 31.695135 20.296875 32.292969 L 24.410156 40.521484 C 24.62872 40.910399 25.037605 41.151083 25.484375 41.154297 C 25.915072 41.157497 26.339461 40.920856 26.564453 40.535156 L 29.875 33.90625 C 29.8814 33.89665 30.42396 32.925781 31.25 32.925781 C 32.249605 32.925781 32.455448 33.742316 32.484375 34.160156 L 32.484375 39.919922 C 32.484375 40.173841 32.561578 40.41205 32.693359 40.611328 C 32.738359 40.675618 32.789104 40.737072 32.84375 40.794922 C 33.014101 40.962058 33.229641 41.080694 33.470703 41.128906 C 33.547843 41.144976 33.635182 41.154297 33.71875 41.154297 C 33.80232 41.154297 33.889657 41.145016 33.966797 41.128906 C 34.288213 41.064616 34.564147 40.871676 34.744141 40.611328 C 34.785931 40.543828 34.823335 40.472362 34.855469 40.398438 C 34.916539 40.253799 34.953125 40.090273 34.953125 39.919922 L 34.953125 34.160156 C 34.953125 33.478754 35.506097 32.925781 36.1875 32.925781 C 36.868903 32.925781 37.421875 33.478754 37.421875 34.160156 L 37.421875 39.919922 C 37.421875 40.601325 37.974847 41.154297 38.65625 41.154297 C 38.73982 41.154297 38.825204 41.145016 38.902344 41.128906 C 39.22376 41.064616 39.501647 40.871676 39.681641 40.611328 C 39.723431 40.543828 39.760835 40.472363 39.792969 40.398438 C 39.854039 40.253799 39.888672 40.090273 39.888672 39.919922 L 39.888672 34.160156 C 39.888672 33.478754 40.441644 32.925781 41.123047 32.925781 C 41.80445 32.925781 42.357422 33.478754 42.357422 34.160156 L 42.357422 39.919922 C 42.357422 40.601325 42.910394 41.154297 43.591797 41.154297 C 44.273199 41.154297 44.826172 40.601325 44.826172 39.919922 L 44.826172 34.160156 C 44.826172 32.119162 43.164041 30.457031 41.123047 30.457031 C 40.171655 30.457031 39.31194 30.830469 38.65625 31.421875 C 38.000561 30.830469 37.138892 30.457031 36.1875 30.457031 C 35.239322 30.457031 34.382944 30.823917 33.730469 31.412109 C 33.145503 30.856058 32.342816 30.457031 31.25 30.457031 z "
     d="m 31.25,29.990234 c -1.053418,0 -1.935085,0.414281 -2.595703,0.927735 -0.660618,0.513453 -1.110999,1.119571 -1.357422,1.59375 a 0.46693553,0.46693553 0 0 0 -0.0078,0.01563 L 25.498047,36.322266 22.875,30.888672 a 0.46693553,0.46693553 0 0 0 -0.01367,-0.02539 c -0.457445,-0.813723 -1.497106,-1.111083 -2.310547,-0.660156 -0.818977,0.453518 -1.114881,1.498781 -0.662109,2.316406 l 4.103515,8.210938 a 0.46693553,0.46693553 0 0 0 0.01172,0.01953 c 0.3001,0.534 0.864174,0.866688 1.476563,0.871094 0.603978,0.0045 1.174462,-0.316936 1.486328,-0.851563 a 0.46693553,0.46693553 0 0 0 0.01563,-0.02539 l 3.292969,-6.59375 c 0.01185,-0.01978 0.126987,-0.221376 0.3125,-0.410157 0.192539,-0.195931 0.432005,-0.347656 0.662109,-0.347656 0.372675,0 0.493422,0.110505 0.599609,0.261719 0.105027,0.149561 0.156535,0.379487 0.167969,0.533203 v 5.732422 c 0,0.348556 0.107182,0.677133 0.287109,0.949219 a 0.46693553,0.46693553 0 0 0 0.0059,0.0098 c 0.0594,0.08487 0.12445,0.163378 0.193359,0.236328 a 0.46693553,0.46693553 0 0 0 0.01367,0.01367 c 0.232045,0.227666 0.528316,0.39043 0.861328,0.457031 0.109568,0.02257 0.222889,0.03516 0.339844,0.03516 0.116809,0 0.229974,-0.01247 0.339844,-0.03516 0.447187,-0.08945 0.824747,-0.353792 1.070312,-0.708984 a 0.46693553,0.46693553 0 0 0 0.01172,-0.01953 c 0.0538,-0.08689 0.101496,-0.178928 0.142578,-0.273438 a 0.46693553,0.46693553 0 0 0 0.002,-0.0039 c 0.08413,-0.199252 0.134766,-0.422957 0.134766,-0.660156 v -5.759766 c 0,-0.428808 0.338769,-0.767578 0.767578,-0.767578 0.428809,0 0.767578,0.33877 0.767578,0.767578 v 5.759766 c 0,0.933995 0.767177,1.701172 1.701172,1.701172 0.116801,0 0.229529,-0.01278 0.337891,-0.03516 0.44683,-0.08938 0.825801,-0.352492 1.072265,-0.708984 a 0.46693553,0.46693553 0 0 0 0.01172,-0.01953 c 0.05379,-0.08689 0.101495,-0.178924 0.142578,-0.273438 a 0.46693553,0.46693553 0 0 0 0.002,-0.0039 c 0.08552,-0.202538 0.132813,-0.426525 0.132813,-0.660156 v -5.759766 c 0,-0.428808 0.338769,-0.767578 0.767578,-0.767578 0.428809,0 0.767578,0.33877 0.767578,0.767578 v 5.759766 c 0,0.933995 0.767177,1.701172 1.701172,1.701172 0.933994,0 1.701172,-0.767177 1.701172,-1.701172 v -5.759766 c 0,-2.294473 -1.875449,-4.169922 -4.169922,-4.169922 -0.94064,0 -1.773968,0.363019 -2.466797,0.888672 -0.69342,-0.525948 -1.527963,-0.888672 -2.46875,-0.888672 -0.934161,0 -1.763146,0.356408 -2.453125,0.876953 C 33.099281,30.367815 32.295803,29.990234 31.25,29.990234 Z"
     transform="matrix(1.0166132,0,0,1.033655,-0.21261555,-0.8499926)" />
  <path
     d="m 31.602066,30.680151 c -1.895751,0 -3.167212,1.477378 -3.598659,2.307587 l -2.245485,4.758989 -3.098572,-6.422674 c -0.339928,-0.60468 -1.104764,-0.820402 -1.706176,-0.487012 -0.607948,0.336658 -0.82694,1.101497 -0.490281,1.709444 l 4.183727,8.367453 c 0.222261,0.395494 0.637364,0.640634 1.091692,0.643902 0.437983,0.0033 0.86943,-0.238603 1.098228,-0.630827 l 3.366593,-6.739722 c 0.0065,-0.0098 0.558919,-0.996904 1.398933,-0.996904 1.016515,0 1.225701,0.830209 1.255118,1.255117 v 5.857219 c 0,0.258214 0.07845,0.500085 0.212455,0.702735 0.04576,0.06538 0.09805,0.127478 0.153622,0.186307 0.173232,0.169963 0.392224,0.2909 0.637364,0.339927 0.07845,0.01634 0.166696,0.02614 0.251678,0.02614 0.08498,0 0.173233,-0.0098 0.251677,-0.02614 0.326854,-0.06538 0.607947,-0.261482 0.790986,-0.526234 0.0425,-0.06864 0.08172,-0.140547 0.114397,-0.215723 0.0621,-0.147085 0.09805,-0.31378 0.09805,-0.487012 v -5.857219 c 0,-0.692928 0.562188,-1.255117 1.255118,-1.255117 0.692929,0 1.255117,0.562189 1.255117,1.255117 v 5.857219 c 0,0.692929 0.562189,1.255117 1.255119,1.255117 0.08498,0 0.173233,-0.0098 0.251678,-0.02614 0.326853,-0.06538 0.607946,-0.261483 0.790985,-0.526235 0.0425,-0.06864 0.08172,-0.140547 0.114397,-0.215723 0.0621,-0.147085 0.09805,-0.31378 0.09805,-0.487012 v -5.857218 c 0,-0.692929 0.562188,-1.255118 1.255118,-1.255118 0.69293,0 1.255118,0.562189 1.255118,1.255118 v 5.857218 c 0,0.692929 0.562189,1.255118 1.255119,1.255118 0.692929,0 1.255118,-0.562189 1.255118,-1.255118 v -5.857218 c 0,-2.075521 -1.689834,-3.765354 -3.765355,-3.765354 -0.967486,0 -1.843454,0.37915 -2.510236,0.98056 -0.666781,-0.60141 -1.542749,-0.98056 -2.510236,-0.98056 -0.964217,0 -1.833649,0.372613 -2.497162,0.970755 -0.594862,-0.565457 -1.411997,-0.970755 -2.523299,-0.970755 z"
     id="path1-3"
     style="display:inline;stroke-width:0.836719;stroke-dasharray:none" />
</svg>
