<svg xmlns="http://www.w3.org/2000/svg"  viewBox="0 0 48 48" width="240px" height="240px"><defs><radialGradient id="NpYLE95qjYAAjxO98dKFHa" cx="29.984" cy="74.773" r="8.537" data-name="Безымянный градиент 82" gradientTransform="matrix(1 0 0 -1 0 108)" gradientUnits="userSpaceOnUse"><stop offset=".655" stop-color="#871233"/><stop offset=".718" stop-color="#8e1336"/><stop offset=".812" stop-color="#a3163e"/><stop offset=".9" stop-color="#bc1948"/></radialGradient><linearGradient id="NpYLE95qjYAAjxO98dKFHb" x1="27.459" x2="32.523" y1="77.419" y2="68.616" data-name="Безымянный градиент 187" gradientTransform="matrix(1 0 0 -1 0 108)" gradientUnits="userSpaceOnUse"><stop offset="0" stop-color="#ffda1c"/><stop offset="1" stop-color="#feb705"/></linearGradient></defs><path fill="#50e6ff" d="M39,7V41a2.00591,2.00591,0,0,1-2,2H11a2.00591,2.00591,0,0,1-2-2V7a1.99946,1.99946,0,0,1,2-2H37A1.99946,1.99946,0,0,1,39,7Z"/><path fill="url(#NpYLE95qjYAAjxO98dKFHa)" d="M32.9903,37.25H27.01165l-.00018,8.4507a.29881.29881,0,0,0,.45258.25619L30,44.5l2.53752,1.45692a.29875.29875,0,0,0,.45258-.25619Z"/><path d="M36,35a1.53555,1.53555,0,0,0-.75-1.33l-.09-.05.05-.09a1.55411,1.55411,0,0,0-1.33-2.31h-.1v-.1a1.56708,1.56708,0,0,0-1.55-1.53,1.54045,1.54045,0,0,0-.76.2l-.09.05-.05-.09a1.5543,1.5543,0,0,0-2.66,0l-.05.09-.09-.05a1.5313,1.5313,0,0,0-.75-.2A1.57591,1.57591,0,0,0,26.22,31.12v.1h-.1a1.55411,1.55411,0,0,0-1.33,2.31l.05.09-.09.05a1.55425,1.55425,0,0,0,0,2.66l.09.05-.05.09a1.54945,1.54945,0,0,0,1.22,2.3V43h1V37.99a.6805.6805,0,0,0-.46-.21h-.41a.55621.55621,0,0,1-.48-.82l.2-.36a.66738.66738,0,0,0,.06-.5l-.01-.01a.64331.64331,0,0,0-.29-.41l-.35-.21a.544.544,0,0,1,0-.94l.35-.21a.64358.64358,0,0,0,.29-.41l.01-.01a.66742.66742,0,0,0-.06-.5l-.19-.36a.54833.54833,0,0,1,.47-.82h.41a.72306.72306,0,0,0,.67-.67v-.41a.54535.54535,0,0,1,.83-.47l.35.19a.57509.57509,0,0,0,.31.08,1.35231,1.35231,0,0,0,.2-.02v-.01a.64364.64364,0,0,0,.41-.29l.21-.35a.5528.5528,0,0,1,.95,0l.21.35a.62372.62372,0,0,0,.4.29.00976.00976,0,0,1,.00995.01,1.22392,1.22392,0,0,0,.19.02.57509.57509,0,0,0,.31-.08l.36-.2a.637.637,0,0,1,.27-.07.56127.56127,0,0,1,.55.55l.01.41a.66971.66971,0,0,0,.2.46.70111.70111,0,0,0,.46.21h.41a.55622.55622,0,0,1,.48.82l-.2.36a.62187.62187,0,0,0-.05.5v.01a.72468.72468,0,0,0,.29.41l.35.21a.544.544,0,0,1,0,.94l-.35.21a.64331.64331,0,0,0-.29.41l-.01.01a.66738.66738,0,0,0,.06.5l.2.36a.55621.55621,0,0,1-.48.82h-.41a.6805.6805,0,0,0-.46.21V43h1V38.77a1.54945,1.54945,0,0,0,1.22-2.3l-.05-.09.09-.05A1.53538,1.53538,0,0,0,36,35Z" opacity=".05"/><path d="M34.99,34.1l-.35-.21a.2267.2267,0,0,1-.07-.11.21322.21322,0,0,1,.01-.14l.19-.35a1.04373,1.04373,0,0,0,0-1.04,1.06847,1.06847,0,0,0-.9-.53h-.41a.16833.16833,0,0,1-.11-.06.17437.17437,0,0,1-.06-.12l-.01-.41a1.047,1.047,0,0,0-1.57-.9l-.35.2a.148.148,0,0,1-.07.01.12684.12684,0,0,1-.06-.01.21374.21374,0,0,1-.12-.07l-.21-.35a1.02843,1.02843,0,0,0-.9-.51,1.0404,1.0404,0,0,0-.9.51l-.21.35a.19775.19775,0,0,1-.1.07h-.02a.12684.12684,0,0,1-.06.01.16993.16993,0,0,1-.07-.01l-.35-.2a1.059,1.059,0,0,0-.50995-.14A1.06982,1.06982,0,0,0,26.72,31.13v.41a.159.159,0,0,1-.05.1l-.05.04v.01a.19081.19081,0,0,1-.08.03h-.41a1.05927,1.05927,0,0,0-.9,1.57l.2.35a.25505.25505,0,0,1,.01.12l-.01.02a.2267.2267,0,0,1-.07.11l-.35.21a1.04909,1.04909,0,0,0,0,1.8l.35.21a.22682.22682,0,0,1,.07.11.22088.22088,0,0,1,0,.14l-.2.35a1.05923,1.05923,0,0,0,.9,1.57h.38V43h.5V37.99a.6805.6805,0,0,0-.46-.21h-.41a.55621.55621,0,0,1-.48-.82l.2-.36a.66738.66738,0,0,0,.06-.5l-.01-.01a.64331.64331,0,0,0-.29-.41l-.35-.21a.544.544,0,0,1,0-.94l.35-.21a.64358.64358,0,0,0,.29-.41l.01-.01a.66742.66742,0,0,0-.06-.5l-.19-.36a.54833.54833,0,0,1,.47-.82h.41a.72306.72306,0,0,0,.67-.67v-.41a.54535.54535,0,0,1,.83-.47l.35.19a.57509.57509,0,0,0,.31.08,1.35231,1.35231,0,0,0,.2-.02v-.01a.64364.64364,0,0,0,.41-.29l.21-.35a.5528.5528,0,0,1,.95,0l.21.35a.62372.62372,0,0,0,.4.29.00976.00976,0,0,1,.00995.01,1.22392,1.22392,0,0,0,.19.02.57509.57509,0,0,0,.31-.08l.36-.2a.637.637,0,0,1,.27-.07.56127.56127,0,0,1,.55.55l.01.41a.66971.66971,0,0,0,.2.46.70111.70111,0,0,0,.46.21h.41a.55622.55622,0,0,1,.48.82l-.2.36a.62187.62187,0,0,0-.05.5v.01a.72468.72468,0,0,0,.29.41l.35.21a.544.544,0,0,1,0,.94l-.35.21a.64331.64331,0,0,0-.29.41l-.01.01a.66738.66738,0,0,0,.06.5l.2.36a.55621.55621,0,0,1-.48.82h-.41a.6805.6805,0,0,0-.46.21V43h.5V38.28h.38a1.05923,1.05923,0,0,0,.9-1.57l-.2-.35a.19091.19091,0,0,1,0-.13.2134.2134,0,0,1,.07-.12l.35-.21a1.02833,1.02833,0,0,0,.51-.9A1.0404,1.0404,0,0,0,34.99,34.1Z" opacity=".07"/><rect width="12" height="2" x="14" y="12" fill="#057093" rx="1"/><rect width="16" height="2" x="14" y="17" fill="#057093" rx="1"/><rect width="20" height="2" x="14" y="22" fill="#057093" rx="1"/><rect width="6" height="2" x="28" y="12" fill="#057093" rx="1"/><rect width="8" height="2" x="14" y="27" fill="#057093" rx="1"/><path fill="url(#NpYLE95qjYAAjxO98dKFHb)" d="M34.734,34.52672l-.34952-.21a.66833.66833,0,0,1-.29507-.404l-.0025-.00945a.66657.66657,0,0,1,.05251-.50206l.1981-.35647a.55248.55248,0,0,0-.47372-.82075l-.41149-.00723a.66769.66769,0,0,1-.459-.20365l-.00389-.00389a.66611.66611,0,0,1-.20394-.45928l-.00695-.41149a.55258.55258,0,0,0-.82075-.47372l-.35647.1981a.66685.66685,0,0,1-.50206.05252l-.00945-.0025a.6684.6684,0,0,1-.404-.29507l-.21005-.34953a.55273.55273,0,0,0-.94773,0l-.20894.34814a.67565.67565,0,0,1-.407.29757l-.00555.00139a.66958.66958,0,0,1-.50623-.05307l-.35509-.197a.55249.55249,0,0,0-.82075.47372l-.0075.41093a.66875.66875,0,0,1-.20366.459l-.00389.00389a.66691.66691,0,0,1-.459.20366l-.41149.00694a.55247.55247,0,0,0-.47372.82075l.1981.35647a.66687.66687,0,0,1,.05251.50207l-.00306.00944a.66948.66948,0,0,1-.29506.404l-.34953.21005a.55272.55272,0,0,0,0,.94772l.34953.21005a.6684.6684,0,0,1,.29506.404l.00251.00944a.66661.66661,0,0,1-.05252.50207l-.1981.35647a.55249.55249,0,0,0,.47372.82075l.41149.00694a.66776.66776,0,0,1,.459.20366l.00389.00389a.667.667,0,0,1,.20366.459l.00694.41149a.55258.55258,0,0,0,.82075.47372l.35647-.1981a.66687.66687,0,0,1,.50207-.05251l.00944.0025a.66838.66838,0,0,1,.404.29507l.21005.34952a.55272.55272,0,0,0,.94772,0l.21005-.34952a.66838.66838,0,0,1,.404-.29507l.00945-.0025a.66657.66657,0,0,1,.50206.05251l.35648.1981a.55249.55249,0,0,0,.82075-.47372l.00694-.41149a.66778.66778,0,0,1,.20366-.459l.00389-.00389a.66689.66689,0,0,1,.459-.20365l.41149-.007a.55258.55258,0,0,0,.47372-.82075l-.1981-.35647a.66688.66688,0,0,1-.05252-.50207l.0025-.00944a.66845.66845,0,0,1,.29507-.404l.34953-.21005A.55136.55136,0,0,0,34.734,34.52672Z"/></svg>