<svg xmlns="http://www.w3.org/2000/svg"  viewBox="0 0 48 48" width="240px" height="240px"><rect width="28" height="12" x="10" y="31" fill="#038387"/><path fill="#1a9ba1" d="M14,11.824h20V8.312c0-0.883-0.579-1.662-1.425-1.916l-7.425-2.228c-0.75-0.225-1.549-0.225-2.299,0	l-7.425,2.228C14.579,6.65,14,7.429,14,8.312V11.824z"/><path fill="#1a9ba1" d="M10,12v19h28V12L24,8L10,12z"/><rect width="4" height="4" x="14" y="35" fill="#026063"/><rect width="4" height="4" x="30" y="35" fill="#026063"/><rect width="6" height="8" x="21" y="35" fill="#026063"/><rect width="4" height="4" x="14" y="23" fill="#027175"/><rect width="4" height="4" x="22" y="23" fill="#027175"/><rect width="4" height="4" x="30" y="23" fill="#027175"/><rect width="4" height="4" x="14" y="15" fill="#027175"/><rect width="4" height="4" x="22" y="15" fill="#027175"/><rect width="4" height="4" x="30" y="15" fill="#027175"/><path fill="#37c6d0" d="M38,13c-0.091,0-0.184-0.013-0.275-0.038L24,9.04l-13.725,3.922	c-0.531,0.146-1.085-0.156-1.236-0.688c-0.152-0.53,0.156-1.084,0.687-1.236l14-4c0.18-0.051,0.37-0.051,0.55,0l14,4	c0.531,0.152,0.838,0.706,0.687,1.236C38.836,12.714,38.436,13,38,13z"/></svg>