<svg xmlns="http://www.w3.org/2000/svg"  viewBox="0 0 48 48" width="240px" height="240px"><linearGradient id="g1836rkoZ71TUlKj~T~uia" x1="52.532" x2="37.34" y1="24" y2="24" gradientTransform="rotate(-90 24 24)" gradientUnits="userSpaceOnUse"><stop offset="0" stop-color="#f9f9f9"/><stop offset=".966" stop-color="#c4c9cd"/><stop offset="1" stop-color="#c2c8cc"/></linearGradient><path fill="url(#g1836rkoZ71TUlKj~T~uia)" d="M22,11V6c0-0.552,0.448-1,1-1h2c0.552,0,1,0.448,1,1v5H22z"/><linearGradient id="g1836rkoZ71TUlKj~T~uib" x1="59.681" x2="27.823" y1="10" y2="10" gradientTransform="rotate(-90 24 24)" gradientUnits="userSpaceOnUse"><stop offset="0" stop-color="#f9f9f9"/><stop offset=".966" stop-color="#c4c9cd"/><stop offset="1" stop-color="#c2c8cc"/></linearGradient><path fill="url(#g1836rkoZ71TUlKj~T~uib)" d="M8,20V6c0-0.552,0.448-1,1-1h2c0.552,0,1,0.448,1,1v14H8z"/><linearGradient id="g1836rkoZ71TUlKj~T~uic" x1="5" x2="25" y1="10" y2="10" gradientTransform="rotate(-90 24 24)" gradientUnits="userSpaceOnUse"><stop offset="0" stop-color="#2aa4f4"/><stop offset="1" stop-color="#007ad9"/></linearGradient><path fill="url(#g1836rkoZ71TUlKj~T~uic)" d="M8,23v19c0,0.552,0.448,1,1,1h2c0.552,0,1-0.448,1-1V23H8z"/><linearGradient id="g1836rkoZ71TUlKj~T~uid" x1="5" x2="35" y1="24" y2="24" gradientTransform="rotate(-90 24 24)" gradientUnits="userSpaceOnUse"><stop offset="0" stop-color="#2aa4f4"/><stop offset="1" stop-color="#007ad9"/></linearGradient><path fill="url(#g1836rkoZ71TUlKj~T~uid)" d="M22,13v29c0,0.552,0.448,1,1,1h2c0.552,0,1-0.448,1-1V13H22z"/><linearGradient id="g1836rkoZ71TUlKj~T~uie" x1="5" x2="18" y1="38" y2="38" gradientTransform="rotate(-90 24 24)" gradientUnits="userSpaceOnUse"><stop offset="0" stop-color="#2aa4f4"/><stop offset="1" stop-color="#007ad9"/></linearGradient><path fill="url(#g1836rkoZ71TUlKj~T~uie)" d="M36,30v12c0,0.552,0.448,1,1,1h2c0.552,0,1-0.448,1-1V30H36z"/><linearGradient id="g1836rkoZ71TUlKj~T~uif" x1="25.5" x2="25.5" y1=".787" y2="13.939" gradientTransform="rotate(-90 24 24)" gradientUnits="userSpaceOnUse"><stop offset="0" stop-color="#a3ffff"/><stop offset=".223" stop-color="#9dfbff"/><stop offset=".53" stop-color="#8bf1ff"/><stop offset=".885" stop-color="#6ee0ff"/><stop offset="1" stop-color="#63daff"/></linearGradient><path fill="url(#g1836rkoZ71TUlKj~T~uif)" d="M14,20.5v4c0,0.276-0.224,0.5-0.5,0.5h-7C6.224,25,6,24.776,6,24.5v-4	C6,20.224,6.224,20,6.5,20h7C13.776,20,14,20.224,14,20.5z"/><linearGradient id="g1836rkoZ71TUlKj~T~uig" x1="34.5" x2="34.5" y1="18.404" y2="27.724" gradientTransform="rotate(-90 24 24)" gradientUnits="userSpaceOnUse"><stop offset="0" stop-color="#a3ffff"/><stop offset=".223" stop-color="#9dfbff"/><stop offset=".53" stop-color="#8bf1ff"/><stop offset=".885" stop-color="#6ee0ff"/><stop offset="1" stop-color="#63daff"/></linearGradient><path fill="url(#g1836rkoZ71TUlKj~T~uig)" d="M28,11.5v4c0,0.276-0.224,0.5-0.5,0.5h-7c-0.276,0-0.5-0.224-0.5-0.5v-4	c0-0.276,0.224-0.5,0.5-0.5h7C27.776,11,28,11.224,28,11.5z"/><linearGradient id="g1836rkoZ71TUlKj~T~uih" x1="18.5" x2="18.5" y1="28.787" y2="41.939" gradientTransform="rotate(-90 24 24)" gradientUnits="userSpaceOnUse"><stop offset="0" stop-color="#a3ffff"/><stop offset=".223" stop-color="#9dfbff"/><stop offset=".53" stop-color="#8bf1ff"/><stop offset=".885" stop-color="#6ee0ff"/><stop offset="1" stop-color="#63daff"/></linearGradient><path fill="url(#g1836rkoZ71TUlKj~T~uih)" d="M42,27.5v4c0,0.276-0.224,0.5-0.5,0.5h-7c-0.276,0-0.5-0.224-0.5-0.5v-4	c0-0.276,0.224-0.5,0.5-0.5h7C41.776,27,42,27.224,42,27.5z"/><linearGradient id="g1836rkoZ71TUlKj~T~uii" x1="66.638" x2="21.441" y1="38" y2="38" gradientTransform="rotate(-90 24 24)" gradientUnits="userSpaceOnUse"><stop offset="0" stop-color="#f9f9f9"/><stop offset=".966" stop-color="#c4c9cd"/><stop offset="1" stop-color="#c2c8cc"/></linearGradient><path fill="url(#g1836rkoZ71TUlKj~T~uii)" d="M36,27V6c0-0.552,0.448-1,1-1h2c0.552,0,1,0.448,1,1v21H36z"/></svg>