<svg xmlns="http://www.w3.org/2000/svg"  viewBox="0 0 48 48" width="240px" height="240px"><path fill="#5d6267" d="M7,7h26c1.1,0,2,0.9,2,2v19c0,1.1-0.9,2-2,2H7c-1.1,0-2-0.9-2-2V9C5,7.9,5.9,7,7,7z"/><radialGradient id="SVGID_1_" cx="23.383" cy="32.362" r="32.043" gradientUnits="userSpaceOnUse"><stop offset=".236" stop-color="#23d9d6"/><stop offset=".944" stop-color="#1860fb"/></radialGradient><path fill="url(#SVGID_1_)" d="M7,9h26v18H7V9z"/><path d="M15,17c-1.7,0-3,1.3-3,3v10h21c1.1,0,2-0.9,2-2V17H15z" opacity=".05"/><path d="M15,17.5c-1.4,0-2.5,1.1-2.5,2.5v10H33c1.1,0,2-0.9,2-2V17.5H15z" opacity=".07"/><linearGradient id="SVGID_2_" x1="13" x2="43" y1="29.5" y2="29.5" gradientUnits="userSpaceOnUse"><stop offset="0" stop-color="#cdd2d6"/><stop offset=".512" stop-color="#b2b9bf"/><stop offset="1" stop-color="#9ca5ad"/></linearGradient><path fill="url(#SVGID_2_)" d="M15,18h26c1.1,0,2,0.9,2,2v19c0,1.1-0.9,2-2,2H15c-1.1,0-2-0.9-2-2V20C13,18.9,13.9,18,15,18z"/><radialGradient id="SVGID_3_" cx="39.553" cy="48.532" r="35.215" gradientUnits="userSpaceOnUse"><stop offset=".236" stop-color="#23d9d6"/><stop offset=".944" stop-color="#1860fb"/></radialGradient><path fill="url(#SVGID_3_)" d="M15,20h26v18H15V20z"/></svg>