<svg xmlns="http://www.w3.org/2000/svg"  viewBox="0 0 48 48" width="240px" height="240px"><linearGradient id="~~5wIUIlf3RHOqmGEMkVta" x1="24" x2="24" y1="13.493" y2="6.429" gradientUnits="userSpaceOnUse"><stop offset="0" stop-color="#737b80"/><stop offset="1" stop-color="#575c61"/></linearGradient><path fill="url(#~~5wIUIlf3RHOqmGEMkVta)" d="M39.497,6.273C39.197,5.505,38.457,5,37.633,5H10.367C9.543,5,8.803,5.505,8.503,6.273	l-2.239,5.741L24,13l17.736-0.985L39.497,6.273z"/><linearGradient id="~~5wIUIlf3RHOqmGEMkVtb" x1="24" x2="24" y1="11.034" y2="21.011" gradientTransform="matrix(-1 0 0 1 48 0)" gradientUnits="userSpaceOnUse"><stop offset="0" stop-color="#899198"/><stop offset="1" stop-color="#787e85"/></linearGradient><path fill="url(#~~5wIUIlf3RHOqmGEMkVtb)" d="M8,21h32c1.1,0,2-0.9,2-2v-6c0-1.1-0.9-2-2-2H8c-1.1,0-2,0.9-2,2v6C6,20.1,6.9,21,8,21z"/><linearGradient id="~~5wIUIlf3RHOqmGEMkVtc" x1="37.418" x2="34.536" y1="17.418" y2="14.536" gradientUnits="userSpaceOnUse"><stop offset="0" stop-color="#fff"/><stop offset=".242" stop-color="#f2f2f2"/><stop offset="1" stop-color="#ccc"/></linearGradient><path fill="url(#~~5wIUIlf3RHOqmGEMkVtc)" d="M38,16c0,1.104-0.896,2-2,2s-2-0.896-2-2s0.896-2,2-2S38,14.896,38,16z"/><linearGradient id="~~5wIUIlf3RHOqmGEMkVtd" x1="35.293" x2="36.707" y1="15.293" y2="16.707" gradientUnits="userSpaceOnUse"><stop offset="0" stop-color="#21ad64"/><stop offset="1" stop-color="#088242"/></linearGradient><path fill="url(#~~5wIUIlf3RHOqmGEMkVtd)" d="M37,16c0,0.552-0.448,1-1,1s-1-0.448-1-1s0.448-1,1-1S37,15.448,37,16z"/><linearGradient id="~~5wIUIlf3RHOqmGEMkVte" x1="24" x2="24" y1="21.034" y2="31.011" gradientUnits="userSpaceOnUse"><stop offset="0" stop-color="#899198"/><stop offset="1" stop-color="#787e85"/></linearGradient><path fill="url(#~~5wIUIlf3RHOqmGEMkVte)" d="M40,31H8c-1.1,0-2-0.9-2-2v-6c0-1.1,0.9-2,2-2h32c1.1,0,2,0.9,2,2v6C42,30.1,41.1,31,40,31z"/><linearGradient id="~~5wIUIlf3RHOqmGEMkVtf" x1="24" x2="24" y1="31.034" y2="41.011" gradientUnits="userSpaceOnUse"><stop offset="0" stop-color="#899198"/><stop offset="1" stop-color="#787e85"/></linearGradient><path fill="url(#~~5wIUIlf3RHOqmGEMkVtf)" d="M40,41H8c-1.1,0-2-0.9-2-2v-6c0-1.1,0.9-2,2-2h32c1.1,0,2,0.9,2,2v6C42,40.1,41.1,41,40,41z"/><linearGradient id="~~5wIUIlf3RHOqmGEMkVtg" x1="37.418" x2="34.536" y1="27.418" y2="24.536" gradientUnits="userSpaceOnUse"><stop offset="0" stop-color="#fff"/><stop offset=".242" stop-color="#f2f2f2"/><stop offset="1" stop-color="#ccc"/></linearGradient><path fill="url(#~~5wIUIlf3RHOqmGEMkVtg)" d="M38,26c0,1.104-0.896,2-2,2s-2-0.896-2-2s0.896-2,2-2S38,24.896,38,26z"/><radialGradient id="~~5wIUIlf3RHOqmGEMkVth" cx="35.374" cy="25.323" r="1.919" gradientUnits="userSpaceOnUse"><stop offset="0" stop-color="#fee100"/><stop offset="1" stop-color="#f7a511"/></radialGradient><path fill="url(#~~5wIUIlf3RHOqmGEMkVth)" d="M37,26c0,0.552-0.448,1-1,1s-1-0.448-1-1s0.448-1,1-1S37,25.448,37,26z"/><linearGradient id="~~5wIUIlf3RHOqmGEMkVti" x1="37.418" x2="34.536" y1="37.418" y2="34.536" gradientUnits="userSpaceOnUse"><stop offset="0" stop-color="#fff"/><stop offset=".242" stop-color="#f2f2f2"/><stop offset="1" stop-color="#ccc"/></linearGradient><path fill="url(#~~5wIUIlf3RHOqmGEMkVti)" d="M38,36c0,1.104-0.896,2-2,2s-2-0.896-2-2s0.896-2,2-2S38,34.896,38,36z"/><linearGradient id="~~5wIUIlf3RHOqmGEMkVtj" x1="35.293" x2="36.707" y1="35.293" y2="36.707" gradientUnits="userSpaceOnUse"><stop offset="0" stop-color="#21ad64"/><stop offset="1" stop-color="#088242"/></linearGradient><path fill="url(#~~5wIUIlf3RHOqmGEMkVtj)" d="M37,36c0,0.552-0.448,1-1,1s-1-0.448-1-1s0.448-1,1-1S37,35.448,37,36z"/><path fill="#737b80" d="M10.5,15h19c0.276,0,0.5,0.224,0.5,0.5v1c0,0.276-0.224,0.5-0.5,0.5h-19c-0.276,0-0.5-0.224-0.5-0.5	v-1C10,15.224,10.224,15,10.5,15z"/><path fill="#737b80" d="M10.5,25h19c0.276,0,0.5,0.224,0.5,0.5v1c0,0.276-0.224,0.5-0.5,0.5h-19c-0.276,0-0.5-0.224-0.5-0.5	v-1C10,25.224,10.224,25,10.5,25z"/><path fill="#737b80" d="M10.5,35h19c0.276,0,0.5,0.224,0.5,0.5v1c0,0.276-0.224,0.5-0.5,0.5h-19c-0.276,0-0.5-0.224-0.5-0.5	v-1C10,35.224,10.224,35,10.5,35z"/></svg>