<svg xmlns="http://www.w3.org/2000/svg"  viewBox="0 0 48 48" width="48px" height="48px"><path fill="#d35230" d="M41,6v36c0,1.105-0.895,2-2,2h-5V4h5C40.105,4,41,4.895,41,6z"/><linearGradient id="dtB3~Rmk9s1reNExHNnKMa" x1="461.857" x2="461.857" y1="413.305" y2="410.163" gradientTransform="matrix(0 -1 -1 0 448.277 485.857)" gradientUnits="userSpaceOnUse"><stop offset=".441" stop-color="#999998"/><stop offset=".653" stop-color="#c1c1c0"/><stop offset=".88" stop-color="#e5e5e5"/><stop offset="1" stop-color="#f3f3f3"/></linearGradient><path fill="url(#dtB3~Rmk9s1reNExHNnKMa)" d="M39,6v36c0,1.105-0.895,2-2,2h-6V4h6C38.105,4,39,4.895,39,6z"/><linearGradient id="dtB3~Rmk9s1reNExHNnKMb" x1="3.638" x2="15.691" y1="-26.572" y2="-59.405" gradientTransform="matrix(1 0 0 -1 0 -18)" gradientUnits="userSpaceOnUse"><stop offset="0" stop-color="#ca4e2a"/><stop offset="1" stop-color="#b63016"/></linearGradient><path fill="url(#dtB3~Rmk9s1reNExHNnKMb)" d="M7,6v36c0,1.105,0.895,2,2,2h2V4H9C7.895,4,7,4.895,7,6z"/><path fill="#ed6c47" d="M35,4H11v40h24c1.105,0,2-0.895,2-2V6C37,4.895,36.105,4,35,4z"/><path d="M25.892,31.233c-0.494-0.449-1.126-0.677-1.879-0.677c-0.744,0-1.376,0.224-1.878,0.665	c-0.524,0.458-0.79,1.053-0.79,1.767c0,0.684,0.259,1.271,0.771,1.75c0.502,0.468,1.14,0.705,1.896,0.705	c0.762,0,1.398-0.231,1.89-0.688c0.5-0.467,0.753-1.061,0.753-1.768C26.655,32.287,26.398,31.697,25.892,31.233z" opacity=".07"/><path d="M21.392,28.312l-0.406-13.521c-0.015-0.476,0.159-0.924,0.489-1.265	c0.33-0.34,0.774-0.527,1.25-0.527h2.525c0.468,0,0.923,0.193,1.25,0.529c0.326,0.336,0.504,0.797,0.489,1.265v0.001l-0.43,13.521	C26.529,29.261,25.766,30,24.821,30h-1.69C22.185,30,21.421,29.259,21.392,28.312z M26.228,30.864	c-0.588-0.536-1.334-0.808-2.216-0.808c-0.869,0-1.612,0.266-2.207,0.788c-0.628,0.55-0.96,1.291-0.96,2.144	c0,0.815,0.322,1.547,0.931,2.115c0.598,0.558,1.351,0.84,2.237,0.84c0.893,0,1.643-0.276,2.23-0.822	c0.597-0.557,0.913-1.294,0.913-2.133C27.155,32.152,26.835,31.419,26.228,30.864z" opacity=".05"/><path d="M23.131,29.5h1.69c0.673,0,1.218-0.527,1.239-1.2l0.43-13.521c0.011-0.338-0.113-0.658-0.349-0.901	c-0.235-0.243-0.552-0.377-0.89-0.377h-2.525c-0.339,0-0.656,0.134-0.891,0.376c-0.235,0.242-0.359,0.562-0.349,0.9l0.406,13.521	C21.913,28.972,22.457,29.5,23.131,29.5z" opacity=".07"/><path fill="#fff" d="M24.012,34.944c-0.628,0-1.146-0.19-1.555-0.571s-0.613-0.842-0.613-1.384 c0-0.565,0.206-1.029,0.619-1.39c0.412-0.361,0.928-0.541,1.549-0.541c0.628,0,1.143,0.183,1.543,0.547 c0.401,0.366,0.601,0.826,0.601,1.384c0,0.565-0.198,1.032-0.595,1.401C25.164,34.758,24.648,34.944,24.012,34.944z M25.99,14.763 L25.56,28.284C25.548,28.683,25.22,29,24.821,29h-1.69c-0.4,0-0.727-0.318-0.739-0.717l-0.406-13.52 C21.973,14.343,22.306,14,22.725,14h2.525C25.668,14,26.003,14.346,25.99,14.763z"/></svg>