<svg xmlns="http://www.w3.org/2000/svg"  viewBox="0 0 48 48" width="240px" height="240px"><circle cx="39.5" cy="31.5" r="2.5" fill="#c98e00"/><polygon fill="#c98e00" points="26.211,41.683 40.68,33.693 38.54,29.191 26,35"/><linearGradient id="ou7VSKRaU8uGwrrJUWnP2a" x1="3" x2="45" y1="33" y2="33" gradientUnits="userSpaceOnUse"><stop offset="0" stop-color="#ffcf54"/><stop offset=".261" stop-color="#fdcb4d"/><stop offset=".639" stop-color="#f7c13a"/><stop offset="1" stop-color="#f0b421"/></linearGradient><path fill="url(#ou7VSKRaU8uGwrrJUWnP2a)" d="M45,32.5c0-1.381-1.119-2.5-2.5-2.5c-0.34,0-0.664,0.069-0.959,0.192l-0.001-0.001 l-0.011,0.005c-0.002,0.001-0.004,0.002-0.006,0.003L29,36l-1.5-1c1.381,0,2.5-1.119,2.5-2.5c0-0.93-0.514-1.732-1.267-2.163 l0.004-0.016l-13.651-6.866l-0.025,0C14.431,23.169,13.737,23,13,23c-0.718,0-1.397,0.157-2.015,0.43l-0.022,0L3,27v13l8.09-3.718 l15.911,6.508l0.001,0C27.309,42.924,27.645,43,28,43c0.435,0,0.838-0.121,1.195-0.317l0.017-0.001l14.469-7.989l-0.001-0.002 C44.462,34.269,45,33.452,45,32.5z"/><circle cx="27.5" cy="32.5" r="1.5" fill="#ffde87"/><linearGradient id="ou7VSKRaU8uGwrrJUWnP2b" x1="22.337" x2="24.123" y1="36.368" y2="33.288" gradientUnits="userSpaceOnUse"><stop offset="0" stop-color="#f0b421" stop-opacity="0"/><stop offset=".512" stop-color="#e9ab12" stop-opacity=".512"/><stop offset="1" stop-color="#e09f00"/></linearGradient><path fill="url(#ou7VSKRaU8uGwrrJUWnP2b)" d="M29,36l-1.489-0.998c-1.255-0.06-2.242-0.468-10.511-3.513V35l11.551,4.734	C28.551,39.734,27.733,37.451,29,36z"/><linearGradient id="ou7VSKRaU8uGwrrJUWnP2c" x1="35.807" x2="26.128" y1="18.775" y2="9.096" gradientUnits="userSpaceOnUse"><stop offset="0" stop-color="#fff"/><stop offset=".242" stop-color="#f2f2f2"/><stop offset="1" stop-color="#ccc"/></linearGradient><circle cx="31" cy="13.968" r="6.9" fill="url(#ou7VSKRaU8uGwrrJUWnP2c)"/><linearGradient id="ou7VSKRaU8uGwrrJUWnP2d" x1="27.07" x2="33.964" y1="10.038" y2="16.932" gradientUnits="userSpaceOnUse"><stop offset="0" stop-color="#0d61a9"/><stop offset=".363" stop-color="#0e5fa4"/><stop offset=".78" stop-color="#135796"/><stop offset="1" stop-color="#16528c"/></linearGradient><circle cx="31" cy="13.968" r="4.2" fill="url(#ou7VSKRaU8uGwrrJUWnP2d)"/><g><linearGradient id="ou7VSKRaU8uGwrrJUWnP2e" x1="19.796" x2="39.449" y1="2.774" y2="22.428" gradientUnits="userSpaceOnUse"><stop offset="0" stop-color="#889097"/><stop offset=".331" stop-color="#848c94"/><stop offset=".669" stop-color="#78828b"/><stop offset="1" stop-color="#64717c"/></linearGradient><path fill="url(#ou7VSKRaU8uGwrrJUWnP2e)" d="M42.644,11.114c-1.433-0.018-2.821-0.764-3.59-2.096c-0.74-1.282-0.725-2.79-0.097-4.016 c-1.275-1.132-2.785-2.003-4.458-2.513C33.746,3.621,32.461,4.368,31,4.368s-2.746-0.747-3.499-1.878 c-1.673,0.509-3.183,1.38-4.458,2.513c0.627,1.226,0.643,2.734-0.097,4.016c-0.769,1.331-2.157,2.078-3.59,2.096 C19.132,12.03,19,12.983,19,13.968c0,0.77,0.08,1.521,0.218,2.251c1.482-0.031,2.934,0.725,3.728,2.099 c0.821,1.422,0.712,3.122-0.132,4.407c1.249,1.168,2.744,2.074,4.404,2.625c0.678-1.408,2.114-2.382,3.782-2.382 c1.668,0,3.104,0.974,3.782,2.382c1.66-0.552,3.155-1.457,4.404-2.625c-0.844-1.285-0.953-2.985-0.132-4.407 c0.793-1.374,2.246-2.129,3.728-2.099C42.92,15.489,43,14.738,43,13.968C43,12.983,42.868,12.03,42.644,11.114z M31,20.268 c-3.479,0-6.3-2.821-6.3-6.3c0-3.479,2.821-6.3,6.3-6.3s6.3,2.821,6.3,6.3C37.3,17.447,34.479,20.268,31,20.268z"/></g></svg>