<svg xmlns="http://www.w3.org/2000/svg"  viewBox="0 0 48 48" width="240px" height="240px"><defs><linearGradient id="bdYKZv6idQg3AKm9xsfJga" x1="16.274" x2="34.797" y1="2.774" y2="53.664" data-name="Безымянный градиент 143" gradientTransform="rotate(-180 24 24)" gradientUnits="userSpaceOnUse"><stop offset="0" stop-color="#889097"/><stop offset="1" stop-color="#4c5963"/></linearGradient><linearGradient id="bdYKZv6idQg3AKm9xsfJgb" x1="16.251" x2="34.829" y1="2.71" y2="53.752" data-name="Безымянный градиент 147" gradientTransform="rotate(-180 24 24)" gradientUnits="userSpaceOnUse"><stop offset="0" stop-color="#dfe9f2"/><stop offset=".391" stop-color="#d6e0e9"/><stop offset="1" stop-color="#bfc8d1"/></linearGradient></defs><rect width="36" height="36" x="6" y="6" fill="url(#bdYKZv6idQg3AKm9xsfJga)" rx="2" transform="rotate(180 24 24)"/><rect width="32" height="32" x="8" y="8" fill="url(#bdYKZv6idQg3AKm9xsfJgb)" rx="1" transform="rotate(180 24 24)"/><rect width="3" height="8" x="16" y="14" fill="#64717c"/><rect width="3" height="8" x="29" y="14" fill="#64717c"/><path fill="#64717c" d="M24,29h0a3,3,0,0,1,3,3v3a0,0,0,0,1,0,0H21a0,0,0,0,1,0,0V32a3,3,0,0,1,3-3Z"/><circle cx="33" cy="18" r="2" fill="#64717c"/><circle cx="15" cy="18" r="2" fill="#64717c"/></svg>