<svg xmlns="http://www.w3.org/2000/svg"  viewBox="0 0 48 48" width="240px" height="240px"><linearGradient id="UWcLkPH_s2sZoDNodiSWKa" x1="23.128" x2="24.915" y1="10.022" y2="40.711" gradientUnits="userSpaceOnUse"><stop offset="0" stop-color="#33bef0"/><stop offset="1" stop-color="#0a85d9"/></linearGradient><path fill="url(#UWcLkPH_s2sZoDNodiSWKa)" d="M42,10H6c-1.105,0-2,0.895-2,2v26c0,1.105,0.895,2,2,2h36c1.105,0,2-0.895,2-2V12	C44,10.895,43.105,10,42,10z M28,14h-8c-0.552,0-1-0.448-1-1c0-0.552,0.448-1,1-1h8c0.552,0,1,0.448,1,1C29,13.552,28.552,14,28,14z"/><linearGradient id="UWcLkPH_s2sZoDNodiSWKb" x1="28" x2="40" y1="22" y2="22" gradientUnits="userSpaceOnUse"><stop offset="0" stop-color="#0370c8"/><stop offset=".484" stop-color="#036fc5"/><stop offset=".775" stop-color="#036abd"/><stop offset="1" stop-color="#0362b0"/></linearGradient><path fill="url(#UWcLkPH_s2sZoDNodiSWKb)" d="M28.5,21h11c0.276,0,0.5,0.224,0.5,0.5v1c0,0.276-0.224,0.5-0.5,0.5h-11	c-0.276,0-0.5-0.224-0.5-0.5v-1C28,21.224,28.224,21,28.5,21z"/><linearGradient id="UWcLkPH_s2sZoDNodiSWKc" x1="28" x2="40" y1="26" y2="26" gradientUnits="userSpaceOnUse"><stop offset="0" stop-color="#0370c8"/><stop offset=".484" stop-color="#036fc5"/><stop offset=".775" stop-color="#036abd"/><stop offset="1" stop-color="#0362b0"/></linearGradient><path fill="url(#UWcLkPH_s2sZoDNodiSWKc)" d="M28.5,25h11c0.276,0,0.5,0.224,0.5,0.5v1c0,0.276-0.224,0.5-0.5,0.5h-11	c-0.276,0-0.5-0.224-0.5-0.5v-1C28,25.224,28.224,25,28.5,25z"/><linearGradient id="UWcLkPH_s2sZoDNodiSWKd" x1="28" x2="36" y1="30" y2="30" gradientUnits="userSpaceOnUse"><stop offset="0" stop-color="#0370c8"/><stop offset=".484" stop-color="#036fc5"/><stop offset=".775" stop-color="#036abd"/><stop offset="1" stop-color="#0362b0"/></linearGradient><path fill="url(#UWcLkPH_s2sZoDNodiSWKd)" d="M28.5,29h7c0.276,0,0.5,0.224,0.5,0.5v1c0,0.276-0.224,0.5-0.5,0.5h-7	c-0.276,0-0.5-0.224-0.5-0.5v-1C28,29.224,28.224,29,28.5,29z"/><linearGradient id="UWcLkPH_s2sZoDNodiSWKe" x1="16.406" x2="17.15" y1="28.018" y2="35.085" gradientUnits="userSpaceOnUse"><stop offset="0" stop-color="#0370c8"/><stop offset=".484" stop-color="#036fc5"/><stop offset=".775" stop-color="#036abd"/><stop offset="1" stop-color="#0362b0"/></linearGradient><path fill="url(#UWcLkPH_s2sZoDNodiSWKe)" d="M17,28.286c-4.418,0-8,2.46-8,5.143V34c0,0.552,0.448,1,1,1h14c0.552,0,1-0.448,1-1v-0.571	C25,30.746,21.418,28.286,17,28.286z"/><path fill="#d6a121" d="M19,29.4c0,0.759-1.132,1.6-2,1.6s-2-0.841-2-1.6c0-1.055,0-2.814,0-2.814h4	C19,26.586,19,28.345,19,29.4z"/><linearGradient id="UWcLkPH_s2sZoDNodiSWKf" x1="20.94" x2="21.97" y1="23.75" y2="23.75" gradientUnits="userSpaceOnUse"><stop offset="0" stop-color="#c48f0c"/><stop offset=".251" stop-color="#d19b16"/><stop offset=".619" stop-color="#dca51f"/><stop offset="1" stop-color="#e0a922"/></linearGradient><path fill="url(#UWcLkPH_s2sZoDNodiSWKf)" d="M21.208,22.5h-0.264V25h0.352c0.257,0,0.477-0.195,0.52-0.462l0.172-1.064	C22.071,22.964,21.698,22.5,21.208,22.5z"/><linearGradient id="UWcLkPH_s2sZoDNodiSWKg" x1="13.072" x2="12.027" y1="23.75" y2="23.75" gradientUnits="userSpaceOnUse"><stop offset="0" stop-color="#c48f0c"/><stop offset=".251" stop-color="#d19b16"/><stop offset=".619" stop-color="#dca51f"/><stop offset="1" stop-color="#e0a922"/></linearGradient><path fill="url(#UWcLkPH_s2sZoDNodiSWKg)" d="M12.792,22.5h0.264V25h-0.352c-0.257,0-0.477-0.195-0.52-0.462l-0.172-1.064	C11.929,22.964,12.302,22.5,12.792,22.5z"/><radialGradient id="UWcLkPH_s2sZoDNodiSWKh" cx="63.274" cy="59.032" r="6.112" gradientTransform="translate(-32.586 -23.228) scale(.7837)" gradientUnits="userSpaceOnUse"><stop offset="0" stop-color="#ffcf54"/><stop offset=".261" stop-color="#fdcb4d"/><stop offset=".639" stop-color="#f7c13a"/><stop offset="1" stop-color="#f0b421"/></radialGradient><path fill="url(#UWcLkPH_s2sZoDNodiSWKh)" d="M17,17.567c-1.974,0-4,0.3-4,4.567c0,0.342,0,2.612,0,2.977c0,1.523,2.4,3.39,4,3.39	s4-1.867,4-3.39c0-0.365,0-2.635,0-2.977C21,17.867,18.974,17.567,17,17.567z"/><radialGradient id="UWcLkPH_s2sZoDNodiSWKi" cx="11.209" cy="42.748" r="15.002" gradientTransform="translate(2.84 -21.07) scale(.8816)" gradientUnits="userSpaceOnUse"><stop offset="0" stop-color="#c26715"/><stop offset=".508" stop-color="#b85515"/><stop offset="1" stop-color="#ad3f16"/></radialGradient><path fill="url(#UWcLkPH_s2sZoDNodiSWKi)" d="M17,16c-2.177,0-2.5,0.818-2.5,0.818C13.615,16.949,12,17.499,12,20c0,0.827,0.407,2.89,1,4	c0.273-3.273,0.624-5,1.5-5c0.633,0,1.136-1,2.5-1c1.151,0,1.437,1,2.5,1c1.5,0,1.5,4.484,1.5,5c0.644-1.153,1-3.278,1-4	C22,17.477,20.105,16,17,16z"/><radialGradient id="UWcLkPH_s2sZoDNodiSWKj" cx="14.244" cy="43.958" r="19.272" gradientTransform="matrix(.8431 0 0 .8816 4.07 -21.07)" gradientUnits="userSpaceOnUse"><stop offset="0" stop-color="#c26715"/><stop offset=".508" stop-color="#b85515"/><stop offset="1" stop-color="#ad3f16"/></radialGradient><path fill="url(#UWcLkPH_s2sZoDNodiSWKj)" d="M16,16c-1.996,0-2,2-2,2c-0.024,0.676,0.469,1,3,1c1.528,0,4-0.454,4-3	C21,16,19.464,16,16,16z"/><linearGradient id="UWcLkPH_s2sZoDNodiSWKk" x1="23.799" x2="24.208" y1="4.96" y2="13.191" gradientUnits="userSpaceOnUse"><stop offset="0" stop-color="#c3cdd9"/><stop offset="1" stop-color="#9fa7b0"/></linearGradient><path fill="url(#UWcLkPH_s2sZoDNodiSWKk)" d="M26,13h-4c-0.552,0-1-0.448-1-1V6c0-0.552,0.448-1,1-1h4c0.552,0,1,0.448,1,1v6	C27,12.552,26.552,13,26,13z"/></svg>