<svg xmlns="http://www.w3.org/2000/svg"  viewBox="0 0 48 48" width="240px" height="240px"><linearGradient id="Z56F1~yKsfGug4~gZAdSJa" x1="9.45" x2="21.232" y1="5.721" y2="30.678" gradientUnits="userSpaceOnUse"><stop offset="0" stop-color="#0176d0"/><stop offset="1" stop-color="#16538c"/></linearGradient><path fill="url(#Z56F1~yKsfGug4~gZAdSJa)" d="M15.944,3.087C10.13,3.737,5.316,8.22,4.238,13.97c-0.562,2.997-0.094,5.832,1.061,8.279	c-0.013,0.03-0.029,0.054-0.04,0.088l-2.41,6.758c-0.232,0.651,0.416,1.269,1.055,1.006l5.975-2.46	c2.539,1.74,5.699,2.64,9.084,2.283c6.126-0.647,11.137-5.525,11.922-11.635C32.012,9.509,24.698,2.108,15.944,3.087z"/><path fill="#fff" d="M15.587,19.633c-0.062-0.16-0.194-0.637-0.194-1.108c0-2.682,2.762-2.785,2.762-4.775 c0-1.253-1.238-1.33-1.459-1.33c-1.406,0-2.503,0.804-2.965,1.21v-2.78c0.474-0.283,1.559-0.85,3.288-0.85 c4.004,0,4.055,2.752,4.055,3.343c0,3.177-3.279,3.413-3.279,5.449c0,0.425,0.154,0.736,0.222,0.84H15.587z M16.934,24 c-0.762,0-1.568-0.476-1.568-1.399s0.837-1.383,1.568-1.383s1.543,0.41,1.543,1.383S17.696,24,16.934,24z"/><linearGradient id="Z56F1~yKsfGug4~gZAdSJb" x1="22.088" x2="39.164" y1="17.035" y2="45.833" gradientUnits="userSpaceOnUse"><stop offset="0" stop-color="#33bef0"/><stop offset="1" stop-color="#22a5e2"/></linearGradient><path fill="url(#Z56F1~yKsfGug4~gZAdSJb)" d="M44.723,43.452l-2.471-7.044c1.171-2.158,1.811-4.646,1.744-7.289	C43.797,21.371,37.283,15.017,29.533,15c-8.616-0.019-15.486,7.477-14.424,16.3c0.771,6.41,5.877,11.626,12.267,12.547	c3.409,0.491,6.617-0.225,9.3-1.757l6.69,2.665C44.189,45.083,45.016,44.289,44.723,43.452z"/><path d="M30,25h-2v-1.793c0-0.609-0.364-1.153-0.927-1.386c-0.564-0.237-1.205-0.105-1.634,0.325L21,26.586	c-0.78,0.779-0.78,2.049,0,2.828l4.439,4.439c0.288,0.288,0.669,0.44,1.059,0.44c0.193,0,0.388-0.038,0.575-0.115	C27.636,33.946,28,33.402,28,32.793V31h2c0.551,0,1,0.448,1,1v4c0,1.103,0.897,2,2,2h2c1.103,0,2-0.897,2-2v-4	C37,28.141,33.86,25,30,25z" opacity=".05"/><path d="M30,25.5h-2.5v-2.293c0-0.406-0.243-0.769-0.618-0.924c-0.376-0.156-0.803-0.069-1.089,0.217	l-4.439,4.439c-0.585,0.585-0.585,1.536,0,2.121l4.439,4.439h0c0.192,0.192,0.446,0.294,0.706,0.294	c0.129,0,0.259-0.025,0.383-0.077c0.375-0.155,0.618-0.518,0.618-0.924V30.5H30c0.827,0,1.5,0.673,1.5,1.5v4	c0,0.827,0.673,1.5,1.5,1.5h2c0.827,0,1.5-0.673,1.5-1.5v-4C36.5,28.416,33.584,25.5,30,25.5z" opacity=".07"/><path fill="#fff" d="M26,26v4h4c1.105,0,2,0.895,2,2v4c0,0.552,0.448,1,1,1h2c0.552,0,1-0.448,1-1v-4c0-3.314-2.686-6-6-6	H26z"/><path fill="#fff" d="M26.146,33.146l-4.439-4.439c-0.391-0.391-0.391-1.024,0-1.414l4.439-4.439	C26.461,22.539,27,22.762,27,23.207v9.586C27,33.238,26.461,33.461,26.146,33.146z"/></svg>