<?xml version="1.0" encoding="UTF-8"?>
<svg xmlns="http://www.w3.org/2000/svg" xmlns:xlink="http://www.w3.org/1999/xlink" viewBox="0 0 240 240" width="240px" height="240px">
<defs>
<linearGradient id="linear0" gradientUnits="userSpaceOnUse" x1="111.083328" y1="0.688" x2="111.083328" y2="122.18808" gradientTransform="matrix(1.395349,0,0,1.395349,0,0)">
<stop offset="0" style="stop-color:rgb(9.803922%,60.392159%,87.843138%);stop-opacity:1;"/>
<stop offset="1" style="stop-color:rgb(2.745098%,50.980395%,84.705883%);stop-opacity:1;"/>
</linearGradient>
<linearGradient id="linear1" gradientUnits="userSpaceOnUse" x1="106.45356" y1="100.643089" x2="157.129776" y2="151.318588" gradientTransform="matrix(4.999995,0,0,4.999995,0,0)">
<stop offset="0" style="stop-color:rgb(12.941177%,67.843139%,39.215687%);stop-opacity:1;"/>
<stop offset="1" style="stop-color:rgb(3.137255%,50.980395%,25.882354%);stop-opacity:1;"/>
</linearGradient>
</defs>
<g id="surface37834655">
<path style=" stroke:none;fill-rule:nonzero;fill:url(#linear0);" d="M 223.535156 41.464844 L 183.535156 1.464844 C 181.578125 -0.488281 178.421875 -0.488281 176.464844 1.464844 L 136.464844 41.464844 C 135.035156 42.894531 134.605469 45.046875 135.378906 46.914062 C 136.15625 48.78125 137.980469 50 140 50 L 155 50 L 155 120 L 85 120 L 85 170 L 195 170 C 200.523438 170 205 165.523438 205 160 L 205 50 L 220 50 C 222.019531 50 223.84375 48.78125 224.621094 46.914062 C 225.394531 45.046875 224.964844 42.894531 223.535156 41.464844 Z M 223.535156 41.464844 "/>
<path style=" stroke:none;fill-rule:nonzero;fill:rgb(20%,80.000001%,100%);fill-opacity:1;" d="M 155 120 L 155 70 L 45 70 C 39.476562 70 35 74.476562 35 80 L 35 190 L 20 190 C 17.980469 190 16.15625 191.21875 15.378906 193.085938 C 14.605469 194.953125 15.035156 197.105469 16.464844 198.535156 L 56.464844 238.535156 C 58.421875 240.488281 61.578125 240.488281 63.535156 238.535156 L 103.535156 198.535156 C 104.964844 197.105469 105.394531 194.953125 104.621094 193.085938 C 103.84375 191.21875 102.019531 190 100 190 L 85 190 L 85 120 Z M 155 120 "/>
<path style=" stroke:none;fill-rule:nonzero;fill:url(#linear1);" d="M 233.894531 175.785156 C 233.894531 203.402344 211.507812 225.785156 183.894531 225.785156 C 156.28125 225.785156 133.894531 203.402344 133.894531 175.785156 C 133.894531 148.171875 156.28125 125.785156 183.894531 125.785156 C 211.507812 125.785156 233.894531 148.171875 233.894531 175.785156 Z M 233.894531 175.785156 "/>
<path style=" stroke:none;fill-rule:nonzero;fill:rgb(100%,100%,100%);fill-opacity:1;" d="M 177.125 197.558594 L 157.125 177.558594 C 156.148438 176.582031 156.148438 174.996094 157.125 174.023438 L 160.660156 170.488281 C 161.636719 169.511719 163.21875 169.511719 164.195312 170.488281 L 178.894531 185.183594 L 206.089844 157.988281 C 207.066406 157.011719 208.648438 157.011719 209.625 157.988281 L 213.160156 161.523438 C 214.136719 162.496094 214.136719 164.082031 213.160156 165.058594 L 180.660156 197.558594 C 179.683594 198.53125 178.101562 198.53125 177.125 197.558594 Z M 177.125 197.558594 "/>
</g>
</svg>
