<svg xmlns="http://www.w3.org/2000/svg"  viewBox="0 0 48 48" width="240px" height="240px"><path fill="#184f85" d="M26,32H6v3c0,1.105,0.895,2,2,2h16c1.105,0,2-0.895,2-2V32z"/><rect width="20" height="4" x="6" y="28" fill="#0078d4"/><rect width="20" height="10" x="6" y="18" fill="#1b9de2"/><rect width="20" height="8" x="6" y="10" fill="#35c1f1"/><path fill="#50e6ff" d="M26,10H6V7c0-1.105,0.895-2,2-2h16c1.105,0,2,0.895,2,2V10z"/><circle cx="12" cy="7.5" r=".75" fill="#0c63ad"/><path fill="#0c63ad" d="M19.5,6.75c-0.194,0-4.806,0-5,0c-0.414,0-0.75,0.336-0.75,0.75s0.336,0.75,0.75,0.75 c0.194,0,4.806,0,5,0c0.414,0,0.75-0.336,0.75-0.75S19.914,6.75,19.5,6.75z"/><path d="M26,37V12h-3c-1.105,0-2,0.895-2,2v23H26z" opacity=".07"/><path d="M26,37V11h-3c-1.657,0-3,1.343-3,3v23H26z" opacity=".05"/><g><path fill="#184f85" d="M42,40H22v3c0,1.105,0.895,2,2,2h16c1.105,0,2-0.895,2-2V40z"/><rect width="20" height="4" x="22" y="36" fill="#0078d4"/><rect width="20" height="10" x="22" y="26" fill="#1b9de2"/><rect width="20" height="8" x="22" y="18" fill="#35c1f1"/><path fill="#50e6ff" d="M42,18H22v-3c0-1.105,0.895-2,2-2h16c1.105,0,2,0.895,2,2V18z"/><circle cx="28" cy="15.5" r=".75" fill="#0c63ad"/><path fill="#0c63ad" d="M35.5,14.75c-0.194,0-4.806,0-5,0c-0.414,0-0.75,0.336-0.75,0.75s0.336,0.75,0.75,0.75 c0.194,0,4.806,0,5,0c0.414,0,0.75-0.336,0.75-0.75S35.914,14.75,35.5,14.75z"/></g></svg>