<svg xmlns="http://www.w3.org/2000/svg"  viewBox="0 0 48 48" width="240px" height="240px"><path fill="#35c1f1" d="M40,43H22V7h18c1.105,0,2,0.895,2,2v32C42,42.105,41.105,43,40,43z"/><path fill="#199be2" d="M14.447,3.224C14.306,3.153,14.153,3.118,14,3.118v36c0.153,0,0.306,0.035,0.447,0.106L22,43V7	L14.447,3.224z"/><path fill="#50e6ff" d="M13.553,3.224L7.106,6.447C6.428,6.786,6,7.479,6,8.236v33.146c0,0.743,0.782,1.227,1.447,0.894	l6.106-3.053c0.141-0.07,0.294-0.106,0.447-0.106v-36C13.847,3.118,13.694,3.153,13.553,3.224z"/><path d="M42,9c0-1.105-0.895-2-2-2H24c-0.642,1.54-1,3.228-1,5c0,3.522,1.407,6.712,3.682,9.054	c0.013,0.013,8.297,8.305,8.297,8.305c0.564,0.564,1.479,0.564,2.043,0c0,0,2.668-2.67,4.979-4.983V9z" opacity=".05"/><path d="M42,9c0-1.105-0.895-2-2-2H24.551c-0.671,1.532-1.051,3.22-1.051,5c0,3.387,1.364,6.443,3.54,8.705	c0.012,0.013,7.978,7.985,7.978,7.985c0.542,0.542,1.422,0.542,1.964,0c0,0,2.752-2.754,5.018-5.022V9z" opacity=".07"/><linearGradient id="zHxuFN8BcjJfs3DS7jcPDa" x1="27.516" x2="44.484" y1="3.514" y2="20.482" gradientUnits="userSpaceOnUse"><stop offset="0" stop-color="#d43a02"/><stop offset="1" stop-color="#b9360c"/></linearGradient><path fill="url(#zHxuFN8BcjJfs3DS7jcPDa)" d="M44.601,20.357C46.702,18.196,48,15.251,48,12c0-6.627-5.373-12-12-12S24,5.373,24,12	c0,3.251,1.298,6.196,3.399,8.357c0.012,0.012,7.659,7.666,7.659,7.666c0.521,0.521,1.365,0.521,1.886,0	C36.943,28.023,44.59,20.369,44.601,20.357z"/><radialGradient id="zHxuFN8BcjJfs3DS7jcPDb" cx="35.143" cy="12.857" r="6" gradientTransform="translate(3.2) scale(.9333)" gradientUnits="userSpaceOnUse"><stop offset=".177"/><stop offset="1" stop-opacity="0"/></radialGradient><circle cx="36" cy="12" r="5.6" fill="url(#zHxuFN8BcjJfs3DS7jcPDb)"/><circle cx="36" cy="12" r="4.8" fill="#f9f9f9"/></svg>