<svg xmlns="http://www.w3.org/2000/svg"  viewBox="0 0 48 48" width="240px" height="240px"><radialGradient id="kMYpY04mz2P2Ir82W-WmNa" cx="16.085" cy="10.234" r="36.479" gradientUnits="userSpaceOnUse"><stop offset="0" stop-color="#fafafb"/><stop offset="1" stop-color="#c8cdd1"/></radialGradient><path fill="url(#kMYpY04mz2P2Ir82W-WmNa)" d="M35,44H13c-0.552,0-1-0.448-1-1V3c0-0.552,0.448-1,1-1h22c0.552,0,1,0.448,1,1v40	C36,43.552,35.552,44,35,44z"/><linearGradient id="kMYpY04mz2P2Ir82W-WmNb" x1="10.615" x2="36.53" y1="-.605" y2="45.097" gradientUnits="userSpaceOnUse"><stop offset="0" stop-color="#75daff"/><stop offset="1" stop-color="#1ea2e4"/></linearGradient><rect width="18" height="36" x="15" y="5" fill="url(#kMYpY04mz2P2Ir82W-WmNb)"/><linearGradient id="kMYpY04mz2P2Ir82W-WmNc" x1="13.563" x2="13.563" y1="18.489" y2="28.198" gradientUnits="userSpaceOnUse"><stop offset="0" stop-color="#a1aab3"/><stop offset="1" stop-color="#8f979e"/></linearGradient><path fill="url(#kMYpY04mz2P2Ir82W-WmNc)" d="M13.563,26.875L13.563,26.875c-0.311,0-0.563-0.252-0.563-0.563v-6.625	c0-0.311,0.252-0.563,0.562-0.563h0c0.311,0,0.562,0.252,0.562,0.563v6.625C14.125,26.623,13.873,26.875,13.563,26.875z"/><linearGradient id="kMYpY04mz2P2Ir82W-WmNd" x1="16.5" x2="16.5" y1="45.957" y2="44.063" gradientUnits="userSpaceOnUse"><stop offset="0" stop-color="#a1aab3"/><stop offset="1" stop-color="#8f979e"/></linearGradient><path fill="url(#kMYpY04mz2P2Ir82W-WmNd)" d="M17,46h-1c-0.552,0-1-0.448-1-1v-1h3v1C18,45.552,17.552,46,17,46z"/><linearGradient id="kMYpY04mz2P2Ir82W-WmNe" x1="31.5" x2="31.5" y1="45.957" y2="44.063" gradientUnits="userSpaceOnUse"><stop offset="0" stop-color="#a1aab3"/><stop offset="1" stop-color="#8f979e"/></linearGradient><path fill="url(#kMYpY04mz2P2Ir82W-WmNe)" d="M32,46h-1c-0.552,0-1-0.448-1-1v-1h3v1C33,45.552,32.552,46,32,46z"/></svg>