<svg xmlns="http://www.w3.org/2000/svg"  viewBox="0 0 48 48" width="240px" height="240px"><linearGradient id="0F~k4I2WuKmT_yCUhK6Xfa" x1="14.13" x2="17.927" y1="28.551" y2="41.615" gradientUnits="userSpaceOnUse"><stop offset="0" stop-color="#0d61a9"/><stop offset="1" stop-color="#16528c"/></linearGradient><path fill="url(#0F~k4I2WuKmT_yCUhK6Xfa)" d="M17,29c-7.732,0-14,4.556-14,9.25v1C3,40.216,3.784,41,4.75,41h24.5	c0.966,0,1.75-0.784,1.75-1.75v-1c0-4.009-4.226-9.042-10.376-10.098C19.572,27.972,18.129,29,17,29z"/><path fill="#d6a121" d="M21,30.8c0,1.518-1.6,3.2-4,3.2s-4-1.682-4-3.2c0-2.11,0-5.628,0-5.628h8C21,25.172,21,28.69,21,30.8	z"/><linearGradient id="0F~k4I2WuKmT_yCUhK6Xfb" x1="24.134" x2="25.706" y1="21" y2="21" gradientUnits="userSpaceOnUse"><stop offset="0" stop-color="#c48f0c"/><stop offset=".251" stop-color="#d19b16"/><stop offset=".619" stop-color="#dca51f"/><stop offset="1" stop-color="#e0a922"/></linearGradient><path fill="url(#0F~k4I2WuKmT_yCUhK6Xfb)" d="M24.643,19h-1.132v4h1.282c0.441,0,0.818-0.312,0.892-0.74l0.295-1.703	C26.121,19.743,25.483,19,24.643,19z"/><linearGradient id="0F~k4I2WuKmT_yCUhK6Xfc" x1="39.644" x2="41.217" y1="21" y2="21" gradientTransform="matrix(-1 0 0 1 49.51 0)" gradientUnits="userSpaceOnUse"><stop offset="0" stop-color="#c48f0c"/><stop offset=".251" stop-color="#d19b16"/><stop offset=".619" stop-color="#dca51f"/><stop offset="1" stop-color="#e0a922"/></linearGradient><path fill="url(#0F~k4I2WuKmT_yCUhK6Xfc)" d="M9.357,19h1.132v4H9.207c-0.441,0-0.818-0.312-0.892-0.74L8.02,20.557	C7.879,19.743,8.517,19,9.357,19z"/><radialGradient id="0F~k4I2WuKmT_yCUhK6Xfd" cx="-47.847" cy="47.075" r="9.508" gradientTransform="translate(59.184 -21.07) scale(.8816)" gradientUnits="userSpaceOnUse"><stop offset="0" stop-color="#ffcf54"/><stop offset=".261" stop-color="#fdcb4d"/><stop offset=".639" stop-color="#f7c13a"/><stop offset="1" stop-color="#f0b421"/></radialGradient><path fill="url(#0F~k4I2WuKmT_yCUhK6Xfd)" d="M17,10.867c-3.454,0-7,0.525-7,7.992c0,0.598,0,4.571,0,5.209C10,26.733,14.2,30,17,30	s7-3.267,7-5.932c0-0.638,0-4.612,0-5.209C24,11.392,20.454,10.867,17,10.867z"/><radialGradient id="0F~k4I2WuKmT_yCUhK6Xfe" cx="-56.094" cy="35.247" r="25.074" gradientTransform="translate(59.184 -21.07) scale(.8816)" gradientUnits="userSpaceOnUse"><stop offset="0" stop-color="#c26715"/><stop offset=".508" stop-color="#b85515"/><stop offset="1" stop-color="#ad3f16"/></radialGradient><path fill="url(#0F~k4I2WuKmT_yCUhK6Xfe)" d="M17,9c-3.342,0-4,1-4,1c-2,0-4.5,2.029-4.5,6c0,1.447,0.5,3,1.5,6c0.477-5.727,1.467-9,3-9	c1.108,0,1.614,1,4,1c2.015,0,2-1,4-1c2.625,0,3,8.097,3,9c1-3,1.5-4.736,1.5-6C25.5,11.996,22.433,9,17,9z"/><radialGradient id="0F~k4I2WuKmT_yCUhK6Xff" cx="-74.451" cy="36.317" r="27.989" gradientTransform="matrix(.8431 0 0 .8816 78.734 -21.07)" gradientUnits="userSpaceOnUse"><stop offset="0" stop-color="#c26715"/><stop offset=".508" stop-color="#b85515"/><stop offset="1" stop-color="#ad3f16"/></radialGradient><path fill="url(#0F~k4I2WuKmT_yCUhK6Xff)" d="M17.066,8C13.423,8,13,10,13,10c-0.037,1.014,0,2,0,2s0.625,1.25,4.422,1.25	C19.714,13.25,23,11.82,23,8C23,8,22.262,8,17.066,8z"/><radialGradient id="0F~k4I2WuKmT_yCUhK6Xfg" cx="30.789" cy="21.449" r="11.736" gradientUnits="userSpaceOnUse"><stop offset=".376" stop-color="#261103"/><stop offset=".68" stop-color="#431d06"/><stop offset="1" stop-color="#662c09"/></radialGradient><path fill="url(#0F~k4I2WuKmT_yCUhK6Xfg)" d="M31,10.83c-8.814,0-11,14.232-11,14.232c0,2.534,1.177,4.754,3.641,5.342	c2.11,0.504,4.766,0.971,7.359,0.971s5.248-0.467,7.359-0.971C40.823,29.816,42,27.595,42,25.062C42,25.062,39.814,10.83,31,10.83z"/><linearGradient id="0F~k4I2WuKmT_yCUhK6Xfh" x1="28.113" x2="31.911" y1="28.556" y2="41.62" gradientUnits="userSpaceOnUse"><stop offset="0" stop-color="#33bef0"/><stop offset="1" stop-color="#0a85d9"/></linearGradient><path fill="url(#0F~k4I2WuKmT_yCUhK6Xfh)" d="M31,29c-7.732,0-14,4.556-14,9.25v1c0,0.966,0.784,1.75,1.75,1.75h24.5	c0.966,0,1.75-0.784,1.75-1.75v-1C45,33.556,38.732,29,31,29z"/><path fill="#d6a121" d="M35,32.8c0,1.518-1.6,3.2-4,3.2s-4-1.682-4-3.2c0-2.11,0-5.628,0-5.628h8C35,27.172,35,30.69,35,32.8	z"/><radialGradient id="0F~k4I2WuKmT_yCUhK6Xfi" cx="171.042" cy="14.963" r="9.381" gradientTransform="matrix(-.9136 0 0 .9667 187.256 6.067)" gradientUnits="userSpaceOnUse"><stop offset="0" stop-color="#ffcf54"/><stop offset=".261" stop-color="#fdcb4d"/><stop offset=".639" stop-color="#f7c13a"/><stop offset="1" stop-color="#f0b421"/></radialGradient><path fill="url(#0F~k4I2WuKmT_yCUhK6Xfi)" d="M31,10.062c3.454,0,7,0.606,7,8.507c0,0.632,0,5.019,0,5.695C38,27.085,33.713,31,31,31	s-7-3.915-7-6.736c0-0.675,0-5.062,0-5.695C24,10.875,27.546,10.062,31,10.062z"/><radialGradient id="0F~k4I2WuKmT_yCUhK6Xfj" cx="24.979" cy="7.42" r="28.154" gradientUnits="userSpaceOnUse"><stop offset="0" stop-color="#c26715"/><stop offset=".508" stop-color="#b85515"/><stop offset="1" stop-color="#ad3f16"/></radialGradient><path fill="url(#0F~k4I2WuKmT_yCUhK6Xfj)" d="M31,7c-4.54,0-5,3-5,3c-1.846,0.272-6,0.207-6,15c0,3.533,1.613,4.625,2.731,5.088	C19.662,18.544,28.379,19.906,27,12c3.54,10.336,15.558,3.338,12.269,18.088C40.985,29.362,42,27.186,42,25C42,12.92,37.474,7,31,7z"/></svg>