<?xml version="1.0" encoding="UTF-8" standalone="no"?>
<svg
   viewBox="0 0 48 48"
   width="240px"
   height="240px"
   version="1.1"
   id="svg30"
   sodipodi:docname="icons8-database-custom.svg"
   inkscape:version="1.1.1 (3bf5ae0d25, 2021-09-20)"
   xmlns:inkscape="http://www.inkscape.org/namespaces/inkscape"
   xmlns:sodipodi="http://sodipodi.sourceforge.net/DTD/sodipodi-0.dtd"
   xmlns="http://www.w3.org/2000/svg"
   xmlns:svg="http://www.w3.org/2000/svg">
  <defs
     id="defs34">
    <linearGradient
       id="aft_UDmLNVxsaRjydVUutb"
       x1="27.35"
       x2="42.650002"
       y1="34.679001"
       y2="34.679001"
       gradientUnits="userSpaceOnUse"
       gradientTransform="matrix(0.3921982,0,0,0.3921982,26.651246,26.195996)">
      <stop
         offset="0"
         stop-color="#c965eb"
         id="stop11-3" />
      <stop
         offset="1"
         stop-color="#c767e5"
         id="stop13" />
    </linearGradient>
    <linearGradient
       id="aft_UDmLNVxsaRjydVUuta"
       x1="28"
       x2="42"
       y1="13"
       y2="13"
       gradientUnits="userSpaceOnUse"
       gradientTransform="matrix(0.3921982,0,0,0.3921982,26.651246,26.195996)">
      <stop
         offset="0"
         stop-color="#42a3f2"
         id="stop4-6" />
      <stop
         offset="1"
         stop-color="#42a4eb"
         id="stop6" />
    </linearGradient>
  </defs>
  <sodipodi:namedview
     id="namedview32"
     pagecolor="#ffffff"
     bordercolor="#666666"
     borderopacity="1.0"
     inkscape:pageshadow="2"
     inkscape:pageopacity="0.0"
     inkscape:pagecheckerboard="0"
     showgrid="false"
     inkscape:zoom="2.8416667"
     inkscape:cx="120"
     inkscape:cy="120"
     inkscape:window-width="2560"
     inkscape:window-height="1382"
     inkscape:window-x="1920"
     inkscape:window-y="314"
     inkscape:window-maximized="1"
     inkscape:current-layer="svg30" />
  <linearGradient
     id="LkaBH78Qy0LlLxZFYVKUda"
     x1="8"
     x2="40"
     y1="35.5"
     y2="35.5"
     gradientUnits="userSpaceOnUse"
     gradientTransform="matrix(0.91030302,0,0,0.91030302,1.9175758,0.4484849)">
    <stop
       offset="0"
       stop-color="#11408a"
       id="stop2" />
    <stop
       offset="1"
       stop-color="#103f8f"
       id="stop4" />
  </linearGradient>
  <path
     fill="url(#LkaBH78Qy0LlLxZFYVKUda)"
     d="M 38.329697,25.936969 H 9.2 c 0,0 0,9.349723 0,10.013334 0,2.010859 6.520501,3.641212 14.564848,3.641212 8.044348,0 14.564849,-1.630353 14.564849,-3.641212 0,-0.663611 0,-10.013334 0,-10.013334 z"
     id="path7"
     style="fill:url(#LkaBH78Qy0LlLxZFYVKUda);stroke-width:0.910303" />
  <linearGradient
     id="LkaBH78Qy0LlLxZFYVKUdb"
     x1="8"
     x2="40"
     y1="25.5"
     y2="25.5"
     gradientUnits="userSpaceOnUse"
     gradientTransform="matrix(0.91030302,0,0,0.91030302,1.9175758,0.4484849)">
    <stop
       offset="0"
       stop-color="#1d59b3"
       id="stop9" />
    <stop
       offset="1"
       stop-color="#195bbc"
       id="stop11" />
  </linearGradient>
  <path
     fill="url(#LkaBH78Qy0LlLxZFYVKUdb)"
     d="M 38.329697,16.833939 H 9.2 c 0,0 0,9.349723 0,10.013333 0,2.01086 6.520501,3.641213 14.564848,3.641213 8.044348,0 14.564849,-1.630353 14.564849,-3.641213 0,-0.66361 0,-10.013333 0,-10.013333 z"
     id="path14"
     style="fill:url(#LkaBH78Qy0LlLxZFYVKUdb);stroke-width:0.910303" />
  <linearGradient
     id="LkaBH78Qy0LlLxZFYVKUdc"
     x1="8"
     x2="40"
     y1="15"
     y2="15"
     gradientUnits="userSpaceOnUse"
     gradientTransform="matrix(0.91030302,0,0,0.91030302,1.9175758,0.4484849)">
    <stop
       offset="0"
       stop-color="#3079d6"
       id="stop16" />
    <stop
       offset="1"
       stop-color="#297cd2"
       id="stop18" />
  </linearGradient>
  <path
     fill="url(#LkaBH78Qy0LlLxZFYVKUdc)"
     d="M 38.329697,7.7309091 H 9.2 c 0,0 0,8.8809159 0,9.5581819 0,1.759616 6.520501,3.18606 14.564848,3.18606 8.044348,0 14.564849,-1.426444 14.564849,-3.18606 0,-0.677266 0,-9.5581819 0,-9.5581819 z"
     id="path21"
     style="fill:url(#LkaBH78Qy0LlLxZFYVKUdc);stroke-width:0.910303" />
  <linearGradient
     id="LkaBH78Qy0LlLxZFYVKUdd"
     x1="8"
     x2="40"
     y1="8"
     y2="8"
     gradientUnits="userSpaceOnUse"
     gradientTransform="matrix(0.91030302,0,0,0.91030302,1.9175758,0.4484849)">
    <stop
       offset="0"
       stop-color="#42a3f2"
       id="stop23" />
    <stop
       offset="1"
       stop-color="#42a4eb"
       id="stop25" />
  </linearGradient>
  <ellipse
     cx="23.764847"
     cy="7.7309089"
     fill="url(#LkaBH78Qy0LlLxZFYVKUdd)"
     rx="14.564848"
     ry="2.7309091"
     id="ellipse28"
     style="fill:url(#LkaBH78Qy0LlLxZFYVKUdd);stroke-width:0.910303" />
  <circle
     cx="31.749821"
     cy="31.294573"
     r="2.7453873"
     fill="#33c481"
     id="circle2"
     style="stroke-width:0.392198" />
  <path
     fill="url(#aft_UDmLNVxsaRjydVUuta)"
     d="M 42.391337,34.03996 H 38.36503 c -0.404356,0 -0.732234,-0.327877 -0.732234,-0.732234 V 29.28142 c 0,-0.404357 0.327878,-0.732234 0.732234,-0.732234 h 4.026699 c 0.403964,0 0.731842,0.327877 0.731842,0.732234 v 4.026699 c 0,0.403964 -0.327878,0.731841 -0.732234,0.731841 z"
     id="path9"
     style="fill:url(#aft_UDmLNVxsaRjydVUuta);stroke-width:0.392198" />
  <path
     fill="url(#aft_UDmLNVxsaRjydVUutb)"
     d="m 40.164043,36.995566 -2.635964,1.915104 c -0.127464,0.09256 -0.181195,0.257282 -0.132171,0.407102 l 1.006773,3.098758 c 0.04863,0.150212 0.188647,0.251791 0.346311,0.251791 h 3.258383 c 0.157663,0 0.297678,-0.101579 0.346311,-0.251791 l 1.006773,-3.098758 c 0.04863,-0.150212 -0.0047,-0.314543 -0.132171,-0.407102 l -2.635964,-1.915104 c -0.127857,-0.09295 -0.300424,-0.09295 -0.428281,0 z"
     id="path16"
     style="fill:url(#aft_UDmLNVxsaRjydVUutb);stroke-width:0.392198" />
  <path
     fill="#ed6c47"
     d="m 31.245848,37.43875 -2.6995,4.685592 c -0.13923,0.241986 0.0353,0.543979 0.314543,0.543979 h 5.399 c 0.279246,0 0.453774,-0.301993 0.314151,-0.543979 l -2.6995,-4.685592 c -0.139623,-0.241986 -0.489071,-0.241986 -0.628694,0 z"
     id="path18"
     style="stroke-width:0.392198" />
</svg>
