<svg xmlns="http://www.w3.org/2000/svg"  viewBox="0 0 48 48" width="240px" height="240px"><path fill="#FFCC80" d="M18.1,43.499c0,0-4.112,0.18-8.771-4.48c-4.66-4.659-4.481-8.772-4.481-8.772L30.592,4.501c0,0,4.111-0.181,8.771,4.48c4.66,4.66,4.481,8.772,4.481,8.772L18.1,43.499z"/><path fill="#FFA726" d="M25.193 31.949c-.763.76-1.997.76-2.758-.001l-5.727-5.728c-.762-.763-.762-1.996-.001-2.759l7.588-7.588c.761-.759 1.996-.76 2.757.003l5.688 5.688c.762.762.801 2.033.039 2.795L25.193 31.949zM13.4 27.929A1.5 1.5 0 1 0 13.4 30.929 1.5 1.5 0 1 0 13.4 27.929zM18.917 33.446A1.5 1.5 0 1 0 18.917 36.446 1.5 1.5 0 1 0 18.917 33.446zM14.46 36.007c-.585.586-1.538.587-2.12.001-.587-.586-.586-1.539 0-2.121.583-.586 1.535-.586 2.121 0C15.047 34.469 15.047 35.421 14.46 36.007zM35.468 16.895A1.5 1.5 0 1 0 35.468 19.895 1.5 1.5 0 1 0 35.468 16.895zM29.951 11.377A1.5 1.5 0 1 0 29.951 14.377 1.5 1.5 0 1 0 29.951 11.377zM35.469 11.377A1.5 1.5 0 1 0 35.469 14.377 1.5 1.5 0 1 0 35.469 11.377z"/></svg>