<svg xmlns="http://www.w3.org/2000/svg"  viewBox="0 0 48 48" width="240px" height="240px"><linearGradient id="SVGID_1_" x1="13.069" x2="31.926" y1="380.002" y2="352.725" gradientTransform="matrix(1 0 0 -1 0 390)" gradientUnits="userSpaceOnUse"><stop offset="0" stop-color="#7dd8f3"/><stop offset="1" stop-color="#45b0d0"/></linearGradient><path fill="url(#SVGID_1_)" d="M4,38V13h40v25c0,1.1-0.9,2-2,2H6C4.9,40,4,39.1,4,38z"/><path fill="#0f94bf" d="M38.5,22h-23c-0.3,0-0.5-0.2-0.5-0.5v-1c0-0.3,0.2-0.5,0.5-0.5h23c0.3,0,0.5,0.2,0.5,0.5v1	C39,21.8,38.8,22,38.5,22z"/><path fill="#0f94bf" d="M38.5,27h-23c-0.3,0-0.5-0.2-0.5-0.5v-1c0-0.3,0.2-0.5,0.5-0.5h23c0.3,0,0.5,0.2,0.5,0.5v1	C39,26.8,38.8,27,38.5,27z"/><path fill="#0f94bf" d="M38.5,32h-23c-0.3,0-0.5-0.2-0.5-0.5v-1c0-0.3,0.2-0.5,0.5-0.5h23c0.3,0,0.5,0.2,0.5,0.5v1	C39,31.8,38.8,32,38.5,32z"/><linearGradient id="SVGID_2_" x1="4.808" x2="42.75" y1="383.219" y2="375.505" gradientTransform="matrix(1 0 0 -1 0 390)" gradientUnits="userSpaceOnUse"><stop offset="0" stop-color="#0077d2"/><stop offset="1" stop-color="#0b59a2"/></linearGradient><path fill="url(#SVGID_2_)" d="M44,10v3H4v-3c0-1.1,0.9-2,2-2h36C43.1,8,44,8.9,44,10z"/><path fill="#0f94bf" d="M9.5,22h1c0.3,0,0.5-0.2,0.5-0.5v-1c0-0.3-0.2-0.5-0.5-0.5h-1C9.2,20,9,20.2,9,20.5v1C9,21.8,9.2,22,9.5,22z"/><path fill="#0f94bf" d="M9.5,27h1c0.3,0,0.5-0.2,0.5-0.5v-1c0-0.3-0.2-0.5-0.5-0.5h-1C9.2,25,9,25.2,9,25.5v1C9,26.8,9.2,27,9.5,27z"/><path fill="#0f94bf" d="M9.5,32h1c0.3,0,0.5-0.2,0.5-0.5v-1c0-0.3-0.2-0.5-0.5-0.5h-1C9.2,30,9,30.2,9,30.5v1C9,31.8,9.2,32,9.5,32z"/><radialGradient id="SVGID_3_" cx="37.809" cy="38.362" r="12.43" gradientUnits="userSpaceOnUse"><stop offset="0"/><stop offset=".979" stop-opacity="0"/></radialGradient><path fill="url(#SVGID_3_)" d="M38,26c-6.6,0-12,5.4-12,12c0,0.7,0.1,1.3,0.2,2H42c1.1,0,2-0.9,2-2V27.6C42.2,26.6,40.2,26,38,26z"/><linearGradient id="SVGID_4_" x1="30.929" x2="45.071" y1="359.071" y2="344.929" gradientTransform="matrix(1 0 0 -1 0 390)" gradientUnits="userSpaceOnUse"><stop offset="0" stop-color="#889097"/><stop offset="1" stop-color="#64717c"/></linearGradient><circle cx="38" cy="38" r="10" fill="url(#SVGID_4_)"/><radialGradient id="SVGID_5_" cx="38" cy="352" r="9.25" gradientTransform="matrix(1 0 0 -1 0 390)" gradientUnits="userSpaceOnUse"><stop offset="0"/><stop offset=".978" stop-opacity=".022"/><stop offset="1" stop-opacity="0"/></radialGradient><circle cx="38" cy="38" r="9.3" fill="url(#SVGID_5_)" opacity=".15"/><radialGradient id="SVGID_6_" cx="37.945" cy="360.303" r="18.942" gradientTransform="matrix(1 0 0 -1 0 390)" gradientUnits="userSpaceOnUse"><stop offset="0" stop-color="#fafafb"/><stop offset="1" stop-color="#c8cdd1"/></radialGradient><circle cx="38" cy="38" r="8.5" fill="url(#SVGID_6_)"/><path fill="#6eebff" d="M38,38v-8.5c-2.3,0-4.5,1-6,2.5L38,38z"/><linearGradient id="SVGID_7_" x1="37.016" x2="38.984" y1="359.5" y2="359.5" gradientTransform="matrix(1 0 0 -1 0 390)" gradientUnits="userSpaceOnUse"><stop offset="0" stop-color="#1d59b3"/><stop offset="1" stop-color="#195bbc"/></linearGradient><path fill="url(#SVGID_7_)" d="M37,29.6l1,1.9l1-1.9c-0.3,0-0.7-0.1-1-0.1S37.3,29.5,37,29.6z"/><linearGradient id="SVGID_8_" x1="12.499" x2="17.095" y1="640.555" y2="635.959" gradientTransform="scale(1 -1) rotate(-45.065 -787.027 276.005)" gradientUnits="userSpaceOnUse"><stop offset="0" stop-color="#889097"/><stop offset="1" stop-color="#444d54"/></linearGradient><path fill="url(#SVGID_8_)" d="M38.7,38.7c-0.4,0.4-1,0.4-1.4,0c-0.4-0.4-4.8-6.2-4.8-6.2s5.8,4.4,6.2,4.8C39.1,37.7,39.1,38.3,38.7,38.7z"/></svg>