<svg xmlns="http://www.w3.org/2000/svg"  viewBox="0 0 48 48" width="240px" height="240px"><linearGradient id="0jH9cDW~2qTOyIc73ndwOa" x1="24" x2="24" y1="47.42" y2="36.42" gradientUnits="userSpaceOnUse"><stop offset="0" stop-color="#3079d6"/><stop offset="1" stop-color="#297cd2"/></linearGradient><path fill="url(#0jH9cDW~2qTOyIc73ndwOa)" d="M7,41h1.764c0.758,0,1.45-0.428,1.789-1.106L11,39h26l0.447,0.894	C37.786,40.572,38.479,41,39.236,41H41c1.105,0,2-0.895,2-2v-3H5v3C5,40.105,5.895,41,7,41z"/><path fill="#038387" d="M7,41h1.764c0.758,0,1.45-0.428,1.789-1.106L11,39h26l0.447,0.894C37.786,40.572,38.479,41,39.236,41	H41c1.105,0,2-0.895,2-2v-3H5v3C5,40.105,5.895,41,7,41z"/><path fill="#1a9ba1" d="M41.882,28.435L38,23l-4-11H14l-4,11l-3.882,5.435C5.391,29.453,5,30.672,5,31.923V36h38v-4.077	C43,30.672,42.609,29.453,41.882,28.435z"/><path fill="#37c6d0" d="M44.457,17.071c0,0-2.104-2.496-4.803-3.401c-2.699-0.905-6.378-1.76-6.73-0.165	c1.066,0.149,1.442,1.14,1.43,1.819c-0.008,0.474-0.055,2.244-0.082,3.264c-0.012,0.44,0.265,0.833,0.683,0.972l6.163,2.061	c0.465,0.156,0.974-0.049,1.202-0.483L44.457,17.071z"/><path fill="#37c6d0" d="M3.543,17.071c0,0,2.104-2.496,4.803-3.401c2.699-0.905,6.378-1.76,6.73-0.165	c-1.066,0.149-1.442,1.14-1.43,1.819c0.008,0.474,0.055,2.244,0.082,3.264c0.012,0.44-0.265,0.833-0.683,0.972l-6.163,2.061	c-0.465,0.156-0.974-0.049-1.202-0.483L3.543,17.071z"/><path fill="#37c6d0" d="M24,12.712c7.289,0,14.203,1.572,20.457,4.359l0.479-1.798c0.235-0.88-0.197-1.815-1.034-2.175	C37.797,10.466,31.071,9,24,9s-13.797,1.465-19.903,4.098c-0.836,0.361-1.268,1.295-1.034,2.175l0.479,1.798	C9.797,14.284,16.711,12.712,24,12.712z"/><path fill="#cad2d9" d="M16.5,19h3c0.276,0,0.5,0.224,0.5,0.5v2c0,0.276-0.224,0.5-0.5,0.5h-3c-0.276,0-0.5-0.224-0.5-0.5v-2	C16,19.224,16.224,19,16.5,19z M22.5,19h3c0.276,0,0.5,0.224,0.5,0.5v2c0,0.276-0.224,0.5-0.5,0.5h-3c-0.276,0-0.5-0.224-0.5-0.5v-2	C22,19.224,22.224,19,22.5,19z M28.5,19h3c0.276,0,0.5,0.224,0.5,0.5v2c0,0.276-0.224,0.5-0.5,0.5h-3c-0.276,0-0.5-0.224-0.5-0.5v-2	C28,19.224,28.224,19,28.5,19z M16.5,24h3c0.276,0,0.5,0.224,0.5,0.5v2c0,0.276-0.224,0.5-0.5,0.5h-3c-0.276,0-0.5-0.224-0.5-0.5v-2	C16,24.224,16.224,24,16.5,24z M22.5,24h3c0.276,0,0.5,0.224,0.5,0.5v2c0,0.276-0.224,0.5-0.5,0.5h-3c-0.276,0-0.5-0.224-0.5-0.5v-2	C22,24.224,22.224,24,22.5,24z M28.5,24h3c0.276,0,0.5,0.224,0.5,0.5v2c0,0.276-0.224,0.5-0.5,0.5h-3c-0.276,0-0.5-0.224-0.5-0.5v-2	C28,24.224,28.224,24,28.5,24z M16.5,29h3c0.276,0,0.5,0.224,0.5,0.5v2c0,0.276-0.224,0.5-0.5,0.5h-3c-0.276,0-0.5-0.224-0.5-0.5v-2	C16,29.224,16.224,29,16.5,29z M22.5,29h3c0.276,0,0.5,0.224,0.5,0.5v2c0,0.276-0.224,0.5-0.5,0.5h-3c-0.276,0-0.5-0.224-0.5-0.5v-2	C22,29.224,22.224,29,22.5,29z M28.5,29h3c0.276,0,0.5,0.224,0.5,0.5v2c0,0.276-0.224,0.5-0.5,0.5h-3c-0.276,0-0.5-0.224-0.5-0.5v-2	C28,29.224,28.224,29,28.5,29z"/></svg>