<svg xmlns="http://www.w3.org/2000/svg"  viewBox="0 0 48 48" width="240px" height="240px"><path fill="#0078d4" d="M4,33v10h40V33c0-1.105-0.895-2-2-2H6C4.895,31,4,31.895,4,33z"/><path fill="#199be2" d="M13,9h22V7c0-1.104-0.896-2-2-2H15c-1.104,0-2,0.896-2,2V9z"/><path fill="#199be2" d="M6,11v20h36V11H6z"/><rect width="4" height="4" x="10" y="35" fill="#005094"/><rect width="4" height="4" x="34" y="35" fill="#005094"/><rect width="12" height="8" x="18" y="35" fill="#005094"/><rect width="4" height="4" x="10" y="23" fill="#0d62ab"/><rect width="4" height="4" x="18" y="23" fill="#0d62ab"/><rect width="4" height="4" x="26" y="23" fill="#0d62ab"/><rect width="4" height="4" x="34" y="23" fill="#0d62ab"/><rect width="4" height="4" x="10" y="15" fill="#0d62ab"/><rect width="4" height="4" x="18" y="15" fill="#0d62ab"/><rect width="4" height="4" x="26" y="15" fill="#0d62ab"/><rect width="4" height="4" x="34" y="15" fill="#0d62ab"/><path fill="#35c1f1" d="M42,11H6c-0.553,0-1-0.447-1-1s0.447-1,1-1h36c0.553,0,1,0.447,1,1S42.553,11,42,11z"/></svg>