<svg xmlns="http://www.w3.org/2000/svg"  viewBox="0 0 48 48" width="240px" height="240px"><linearGradient id="dB1YoPmHlojlRjsWcdBvea" x1="26.439" x2="30.43" y1="8.512" y2="40.442" gradientUnits="userSpaceOnUse"><stop offset="0" stop-color="#0d61a9"/><stop offset="1" stop-color="#16528c"/></linearGradient><path fill="url(#dB1YoPmHlojlRjsWcdBvea)" d="M42,39c0,1.104-0.896,2-2,2H17c-1.104,0-2-0.896-2-2V11c0-1.104,0.896-2,2-2h23	c1.104,0,2,0.896,2,2V39z"/><path fill="#cad2d9" d="M22.5,21h3c0.276,0,0.5,0.224,0.5,0.5v3c0,0.276-0.224,0.5-0.5,0.5h-3c-0.276,0-0.5-0.224-0.5-0.5v-3	C22,21.224,22.224,21,22.5,21z M28.5,21h3c0.276,0,0.5,0.224,0.5,0.5v3c0,0.276-0.224,0.5-0.5,0.5h-3c-0.276,0-0.5-0.224-0.5-0.5v-3	C28,21.224,28.224,21,28.5,21z M34.5,21h3c0.276,0,0.5,0.224,0.5,0.5v3c0,0.276-0.224,0.5-0.5,0.5h-3c-0.276,0-0.5-0.224-0.5-0.5v-3	C34,21.224,34.224,21,34.5,21z M22.5,27h3c0.276,0,0.5,0.224,0.5,0.5v3c0,0.276-0.224,0.5-0.5,0.5h-3c-0.276,0-0.5-0.224-0.5-0.5v-3	C22,27.224,22.224,27,22.5,27z M28.5,27h3c0.276,0,0.5,0.224,0.5,0.5v3c0,0.276-0.224,0.5-0.5,0.5h-3c-0.276,0-0.5-0.224-0.5-0.5v-3	C28,27.224,28.224,27,28.5,27z M34.5,27h3c0.276,0,0.5,0.224,0.5,0.5v3c0,0.276-0.224,0.5-0.5,0.5h-3c-0.276,0-0.5-0.224-0.5-0.5v-3	C34,27.224,34.224,27,34.5,27z M22.5,33h3c0.276,0,0.5,0.224,0.5,0.5v3c0,0.276-0.224,0.5-0.5,0.5h-3c-0.276,0-0.5-0.224-0.5-0.5v-3	C22,33.224,22.224,33,22.5,33z M28.5,33h3c0.276,0,0.5,0.224,0.5,0.5v3c0,0.276-0.224,0.5-0.5,0.5h-3c-0.276,0-0.5-0.224-0.5-0.5v-3	C28,33.224,28.224,33,28.5,33z M34.5,33h3c0.276,0,0.5,0.224,0.5,0.5v3c0,0.276-0.224,0.5-0.5,0.5h-3c-0.276,0-0.5-0.224-0.5-0.5v-3	C34,33.224,34.224,33,34.5,33z"/><linearGradient id="dB1YoPmHlojlRjsWcdBveb" x1="9.294" x2="14.683" y1="6.079" y2="43.797" gradientUnits="userSpaceOnUse"><stop offset="0" stop-color="#199ae0"/><stop offset="1" stop-color="#0782d8"/></linearGradient><path fill="url(#dB1YoPmHlojlRjsWcdBveb)" d="M12,6C6,6,6,8,6,9s0,31,0,32s-0.069,3,6,3s6-2,6-3s0-31,0-32S18,6,12,6z"/><linearGradient id="dB1YoPmHlojlRjsWcdBvec" x1="23.944" x2="37.362" y1="12.195" y2="18.41" gradientUnits="userSpaceOnUse"><stop offset="0" stop-color="#4fe5ff"/><stop offset="1" stop-color="#2eb7ed"/></linearGradient><path fill="url(#dB1YoPmHlojlRjsWcdBvec)" d="M37,17H23c-0.552,0-1-0.448-1-1v-2c0-0.552,0.448-1,1-1h14c0.552,0,1,0.448,1,1v2	C38,16.552,37.552,17,37,17z"/></svg>