<svg xmlns="http://www.w3.org/2000/svg"  viewBox="0 0 48 48" width="240px" height="240px"><linearGradient id="yOIoQFQSxgltO8Uv2xJFsa" x1="24" x2="24" y1="30.083" y2="42.5" gradientUnits="userSpaceOnUse"><stop offset="0" stop-color="#c3cdd9"/><stop offset="1" stop-color="#9fa7b0"/></linearGradient><path fill="url(#yOIoQFQSxgltO8Uv2xJFsa)" d="M42,30H6v10c0,1.105,0.895,2,2,2h32c1.105,0,2-0.895,2-2V30z"/><linearGradient id="yOIoQFQSxgltO8Uv2xJFsb" x1="24" x2="24" y1="6" y2="31.799" gradientUnits="userSpaceOnUse"><stop offset="0" stop-color="#737b80"/><stop offset="1" stop-color="#575c61"/></linearGradient><path fill="url(#yOIoQFQSxgltO8Uv2xJFsb)" d="M10.764,6h26.471c1.008,0,1.859,0.75,1.984,1.751l2.767,22.02C42.124,30.958,41.195,32,40,32	H8c-1.195,0-2.124-1.042-1.987-2.229L8.78,7.751C8.906,6.75,9.756,6,10.764,6z"/><path d="M35,35c1.105,0,2,0.895,2,2s-0.895,2-2,2s-2-0.895-2-2S33.895,35,35,35 M35,34c-1.654,0-3,1.346-3,3s1.346,3,3,3 s3-1.346,3-3S36.654,34,35,34L35,34z" opacity=".05"/><path d="M35,35c1.105,0,2,0.895,2,2s-0.895,2-2,2s-2-0.895-2-2S33.895,35,35,35 M35,34.5c-1.379,0-2.5,1.121-2.5,2.5 s1.121,2.5,2.5,2.5s2.5-1.121,2.5-2.5S36.379,34.5,35,34.5L35,34.5z" opacity=".07"/><linearGradient id="yOIoQFQSxgltO8Uv2xJFsc" x1="35" x2="35" y1="34.667" y2="39.007" gradientUnits="userSpaceOnUse"><stop offset="0" stop-color="#75ff8a"/><stop offset="1" stop-color="#1ee446"/></linearGradient><circle cx="35" cy="37" r="2" fill="url(#yOIoQFQSxgltO8Uv2xJFsc)"/><path d="M24,10c6.627,0,12,3.582,12,8s-5.373,8-12,8s-12-3.582-12-8S17.373,10,24,10 M24,20c2.209,0,4-0.895,4-2 c0-1.105-1.791-2-4-2s-4,0.895-4,2C20,19.105,21.791,20,24,20 M24,9c-7.168,0-13,4.037-13,9s5.832,9,13,9s13-4.037,13-9 S31.168,9,24,9L24,9z M24,19c-1.936,0-3-0.751-3-1s1.064-1,3-1s3,0.751,3,1S25.936,19,24,19L24,19z" opacity=".05"/><path d="M24,10c6.627,0,12,3.582,12,8s-5.373,8-12,8s-12-3.582-12-8S17.373,10,24,10 M24,20c2.209,0,4-0.895,4-2 c0-1.105-1.791-2-4-2s-4,0.895-4,2C20,19.105,21.791,20,24,20 M24,9.5c-6.893,0-12.5,3.813-12.5,8.5s5.607,8.5,12.5,8.5 s12.5-3.813,12.5-8.5S30.893,9.5,24,9.5L24,9.5z M24,19.5c-2.003,0-3.5-0.792-3.5-1.5s1.497-1.5,3.5-1.5s3.5,0.792,3.5,1.5 S26.003,19.5,24,19.5L24,19.5z" opacity=".07"/><linearGradient id="yOIoQFQSxgltO8Uv2xJFsd" x1="24" x2="24" y1="8.75" y2="29.408" gradientUnits="userSpaceOnUse"><stop offset="0" stop-color="#75daff"/><stop offset="1" stop-color="#1ea2e4"/></linearGradient><path fill="url(#yOIoQFQSxgltO8Uv2xJFsd)" d="M24,10c-6.627,0-12,3.582-12,8s5.373,8,12,8s12-3.582,12-8S30.627,10,24,10z M24,20 c-2.209,0-4-0.895-4-2c0-1.105,1.791-2,4-2s4,0.895,4,2C28,19.105,26.209,20,24,20z"/><path d="M31.83,31.56L26.6,22.5C26.06,21.56,25.08,21,24,21s-2.06,0.56-2.6,1.5l-5.23,9.06L15.91,32h1.16	l5.2-9c0.38-0.67,1.06-1,1.73-1s1.35,0.33,1.73,1l5.2,9h1.16L31.83,31.56z" opacity=".05"/><path d="M31.4,31.81l-5.23-9.06C25.71,21.97,24.9,21.5,24,21.5s-1.71,0.47-2.17,1.25l-5.23,9.06L16.49,32	h0.58l5.2-9c0.38-0.67,1.06-1,1.73-1s1.35,0.33,1.73,1l5.2,9h0.58L31.4,31.81z" opacity=".07"/><linearGradient id="yOIoQFQSxgltO8Uv2xJFse" x1="24" x2="24" y1="22.938" y2="31.81" gradientUnits="userSpaceOnUse"><stop offset="0" stop-color="#899198"/><stop offset="1" stop-color="#787e85"/></linearGradient><path fill="url(#yOIoQFQSxgltO8Uv2xJFse)" d="M22.268,22.938L17.036,32h13.928l-5.232-9.062C24.962,21.604,23.038,21.604,22.268,22.938z"/></svg>