<svg xmlns="http://www.w3.org/2000/svg"  viewBox="0 0 48 48" width="240px" height="240px"><linearGradient id="FrtLUyL4z5UE9nPYA_GzQa" x1="11.235" x2="42.721" y1="41.297" y2="-1.639" gradientTransform="matrix(1 0 0 -1 0 47.89)" gradientUnits="userSpaceOnUse"><stop offset="0" stop-color="#21ad64"/><stop offset="1" stop-color="#088242"/></linearGradient><path fill="url(#FrtLUyL4z5UE9nPYA_GzQa)" d="M38,42H10c-2.2,0-4-1.8-4-4V10c0-2.2,1.8-4,4-4h28c2.2,0,4,1.8,4,4v28C42,40.2,40.2,42,38,42z"/><path d="M14.93,26c-0.419,0-0.815-0.162-1.117-0.455L9.632,21.49	C9.225,21.093,9,20.564,9,20s0.225-1.093,0.632-1.489l4.181-4.057C14.115,14.161,14.512,14,14.93,14c0.885,0,1.604,0.71,1.604,1.583	V17h4.716c0.965,0,1.75,0.775,1.75,1.728v2.545C23,22.225,22.215,23,21.25,23h-4.716v1.417c0,0.449-0.183,0.862-0.515,1.164	C15.721,25.851,15.334,26,14.93,26z" opacity=".05"/><path d="M14.93,25.5c-0.287,0-0.561-0.111-0.769-0.313L9.98,21.131	C9.671,20.83,9.5,20.428,9.5,20s0.171-0.83,0.48-1.13l4.181-4.057c0.208-0.202,0.481-0.313,0.769-0.313	c0.609,0,1.104,0.486,1.104,1.083V17.5h5.216c0.689,0,1.25,0.551,1.25,1.228v2.545c0,0.677-0.561,1.228-1.25,1.228h-5.216v1.917	c0,0.307-0.125,0.589-0.351,0.794C15.478,25.397,15.21,25.5,14.93,25.5L14.93,25.5z" opacity=".07"/><path fill="#fff" d="M15.534,24.417V22h5.716c0.414,0,0.75-0.326,0.75-0.728v-2.544C22,18.326,21.664,18,21.25,18h-5.716	v-2.417c0-0.519-0.646-0.778-1.024-0.412l-4.18,4.056c-0.439,0.426-0.439,1.118,0,1.544l4.18,4.056	C14.888,25.195,15.534,24.935,15.534,24.417z"/><path d="M14.93,39c-0.419,0-0.815-0.162-1.117-0.455L9.632,34.49	C9.225,34.093,9,33.564,9,33s0.225-1.093,0.632-1.489l4.181-4.057C14.115,27.161,14.512,27,14.93,27c0.885,0,1.604,0.71,1.604,1.583	V30h4.716c0.965,0,1.75,0.775,1.75,1.728v2.545C23,35.225,22.215,36,21.25,36h-4.716v1.417c0,0.449-0.183,0.862-0.515,1.164	C15.721,38.851,15.334,39,14.93,39z" opacity=".05"/><path d="M14.93,38.5c-0.287,0-0.561-0.111-0.769-0.313L9.98,34.131	C9.671,33.83,9.5,33.428,9.5,33s0.171-0.83,0.48-1.13l4.181-4.057c0.208-0.202,0.481-0.313,0.769-0.313	c0.609,0,1.104,0.486,1.104,1.083V30.5h5.216c0.689,0,1.25,0.551,1.25,1.228v2.545c0,0.677-0.561,1.228-1.25,1.228h-5.216v1.917	c0,0.307-0.125,0.589-0.351,0.794C15.478,38.397,15.21,38.5,14.93,38.5L14.93,38.5z" opacity=".07"/><path fill="#fff" d="M15.534,37.417V35h5.716c0.414,0,0.75-0.326,0.75-0.728v-2.544C22,31.326,21.664,31,21.25,31h-5.716	v-2.417c0-0.519-0.646-0.778-1.024-0.412l-4.18,4.056c-0.439,0.426-0.439,1.118,0,1.544l4.18,4.056	C14.888,38.195,15.534,37.935,15.534,37.417z"/><path d="M33.07,34c-0.885,0-1.604-0.71-1.604-1.583V31H26.75	C25.785,31,25,30.225,25,29.272v-2.545C25,25.775,25.785,25,26.75,25h4.716v-1.417c0-0.873,0.72-1.583,1.604-1.583	c0.419,0,0.815,0.162,1.117,0.455l4.181,4.055C38.775,26.907,39,27.436,39,28s-0.225,1.093-0.632,1.489l-4.181,4.057	C33.885,33.839,33.488,34,33.07,34z" opacity=".05"/><path d="M33.07,33.5c-0.609,0-1.104-0.486-1.104-1.083V30.5H26.75	c-0.689,0-1.25-0.551-1.25-1.228v-2.545c0-0.677,0.561-1.228,1.25-1.228h5.216v-1.917c0-0.598,0.495-1.083,1.104-1.083	c0.287,0,0.561,0.111,0.769,0.313l4.181,4.056c0.31,0.301,0.48,0.703,0.48,1.131s-0.171,0.83-0.48,1.13l-4.181,4.057	C33.631,33.389,33.357,33.5,33.07,33.5L33.07,33.5z" opacity=".07"/><path fill="#fff" d="M32.466,23.583V26H26.75C26.336,26,26,26.326,26,26.728v2.544C26,29.674,26.336,30,26.75,30h5.716	v2.417c0,0.519,0.646,0.778,1.024,0.412l4.18-4.056c0.439-0.426,0.439-1.118,0-1.544l-4.18-4.056	C33.112,22.805,32.466,23.065,32.466,23.583z"/><path d="M33.07,21c-0.885,0-1.604-0.71-1.604-1.583V18H26.75	C25.785,18,25,17.225,25,16.272v-2.545C25,12.775,25.785,12,26.75,12h4.716v-1.417C31.466,9.71,32.186,9,33.07,9	c0.419,0,0.815,0.162,1.117,0.455l4.181,4.055C38.775,13.907,39,14.436,39,15s-0.225,1.093-0.632,1.489l-4.181,4.057	C33.885,20.839,33.488,21,33.07,21z" opacity=".05"/><path d="M33.07,20.5c-0.609,0-1.104-0.486-1.104-1.083V17.5H26.75	c-0.689,0-1.25-0.551-1.25-1.228v-2.545c0-0.677,0.561-1.228,1.25-1.228h5.216v-1.917c0-0.598,0.495-1.083,1.104-1.083	c0.287,0,0.561,0.111,0.769,0.313l4.181,4.056c0.31,0.301,0.48,0.703,0.48,1.131s-0.171,0.83-0.48,1.13l-4.181,4.057	C33.631,20.389,33.357,20.5,33.07,20.5L33.07,20.5z" opacity=".07"/><path fill="#fff" d="M32.466,10.583V13H26.75C26.336,13,26,13.326,26,13.728v2.544C26,16.674,26.336,17,26.75,17h5.716	v2.417c0,0.519,0.646,0.778,1.024,0.412l4.18-4.056c0.439-0.426,0.439-1.118,0-1.544l-4.18-4.056	C33.112,9.805,32.466,10.065,32.466,10.583z"/></svg>