<?xml version="1.0" encoding="UTF-8" standalone="no"?>
<svg
   viewBox="0 0 48 48"
   width="240px"
   height="240px"
   version="1.1"
   id="svg1633"
   sodipodi:docname="icons8-hypervisor.svg"
   inkscape:version="1.1.1 (3bf5ae0d25, 2021-09-20)"
   xmlns:inkscape="http://www.inkscape.org/namespaces/inkscape"
   xmlns:sodipodi="http://sodipodi.sourceforge.net/DTD/sodipodi-0.dtd"
   xmlns="http://www.w3.org/2000/svg"
   xmlns:svg="http://www.w3.org/2000/svg">
  <defs
     id="defs1637" />
  <sodipodi:namedview
     id="namedview1635"
     pagecolor="#ffffff"
     bordercolor="#666666"
     borderopacity="1.0"
     inkscape:pageshadow="2"
     inkscape:pageopacity="0.0"
     inkscape:pagecheckerboard="0"
     showgrid="false"
     inkscape:zoom="2.8416667"
     inkscape:cx="124.22287"
     inkscape:cy="161.52493"
     inkscape:window-width="2560"
     inkscape:window-height="1382"
     inkscape:window-x="1920"
     inkscape:window-y="314"
     inkscape:window-maximized="1"
     inkscape:current-layer="svg1633" />
  <linearGradient
     id="H5zWGZDzzYRltSZyl6Krha"
     x1="10.517"
     x2="36.546"
     y1="5.342"
     y2="41.361"
     gradientUnits="userSpaceOnUse"
     gradientTransform="matrix(0.79016159,0,0,0.79016159,4.2796009,2.6739179)">
    <stop
       offset="0"
       stop-color="#2aa4f4"
       id="stop1590" />
    <stop
       offset="1"
       stop-color="#007ad9"
       id="stop1592" />
  </linearGradient>
  <path
     fill="url(#H5zWGZDzzYRltSZyl6Krha)"
     d="M 32.725418,5.8345643 H 13.76154 c -0.873128,0 -1.580323,0.7071946 -1.580323,1.5803232 V 35.860705 c 0,0.873128 0.707195,1.580323 1.580323,1.580323 h 18.963878 c 0.873129,0 1.580324,-0.707195 1.580324,-1.580323 V 7.4148875 c 0,-0.8731286 -0.707195,-1.5803232 -1.580324,-1.5803232 z"
     id="path1595"
     style="fill:url(#H5zWGZDzzYRltSZyl6Krha);stroke-width:0.790162" />
  <radialGradient
     id="H5zWGZDzzYRltSZyl6Krhb"
     cx="24"
     cy="37"
     r="3"
     gradientUnits="userSpaceOnUse"
     gradientTransform="matrix(0.79016159,0,0,0.79016159,4.2796009,2.6739179)">
    <stop
       offset=".582"
       stop-opacity=".2"
       id="stop1597" />
    <stop
       offset="1"
       stop-opacity="0"
       id="stop1599" />
  </radialGradient>
  <circle
     cx="23.243479"
     cy="31.909897"
     r="2.3704848"
     fill="url(#H5zWGZDzzYRltSZyl6Krhb)"
     id="circle1602"
     style="fill:url(#H5zWGZDzzYRltSZyl6Krhb);stroke-width:0.790162" />
  <circle
     cx="23.243479"
     cy="31.909897"
     r="1.5803232"
     fill="#ffffff"
     id="circle1604"
     style="stroke-width:0.790162" />
  <linearGradient
     id="H5zWGZDzzYRltSZyl6Krhc"
     x1="14"
     x2="34"
     y1="11"
     y2="11"
     gradientUnits="userSpaceOnUse"
     gradientTransform="matrix(0.79016159,0,0,0.79016159,4.2796009,2.6739179)">
    <stop
       offset="0"
       stop-color="#1d59b3"
       id="stop1606" />
    <stop
       offset="1"
       stop-color="#195bbc"
       id="stop1608" />
  </linearGradient>
  <path
     fill="url(#H5zWGZDzzYRltSZyl6Krhc)"
     d="m 30.750014,13.73618 h -15.01307 c -0.218084,0 -0.395081,-0.176996 -0.395081,-0.395081 V 9.3902915 c 0,-0.2180846 0.176997,-0.3950808 0.395081,-0.3950808 h 15.01307 c 0.218085,0 0.395081,0.1769962 0.395081,0.3950808 v 3.9508075 c 0,0.218085 -0.176996,0.395081 -0.395081,0.395081 z"
     id="path1611"
     style="fill:url(#H5zWGZDzzYRltSZyl6Krhc);stroke-width:0.790162" />
  <circle
     cx="28.774611"
     cy="11.365695"
     r="0.79016161"
     fill="#50e6ff"
     id="circle1613"
     style="stroke-width:0.790162" />
  <linearGradient
     id="H5zWGZDzzYRltSZyl6Krhd"
     x1="14"
     x2="34"
     y1="19"
     y2="19"
     gradientUnits="userSpaceOnUse"
     gradientTransform="matrix(0.79016159,0,0,0.79016159,4.2796009,2.6739179)">
    <stop
       offset="0"
       stop-color="#1d59b3"
       id="stop1615" />
    <stop
       offset="1"
       stop-color="#195bbc"
       id="stop1617" />
  </linearGradient>
  <path
     fill="url(#H5zWGZDzzYRltSZyl6Krhd)"
     d="m 30.750014,20.057473 h -15.01307 c -0.218084,0 -0.395081,-0.176997 -0.395081,-0.395081 v -3.950808 c 0,-0.218085 0.176997,-0.395081 0.395081,-0.395081 h 15.01307 c 0.218085,0 0.395081,0.176996 0.395081,0.395081 v 3.950808 c 0,0.218084 -0.176996,0.395081 -0.395081,0.395081 z"
     id="path1620"
     style="fill:url(#H5zWGZDzzYRltSZyl6Krhd);stroke-width:0.790162" />
  <circle
     cx="28.774611"
     cy="17.686989"
     r="0.79016161"
     fill="#50e6ff"
     id="circle1622"
     style="stroke-width:0.790162" />
  <linearGradient
     id="H5zWGZDzzYRltSZyl6Krhe"
     x1="14"
     x2="34"
     y1="27"
     y2="27"
     gradientUnits="userSpaceOnUse"
     gradientTransform="matrix(0.79016159,0,0,0.79016159,4.2796009,2.6739179)">
    <stop
       offset="0"
       stop-color="#1d59b3"
       id="stop1624" />
    <stop
       offset="1"
       stop-color="#195bbc"
       id="stop1626" />
  </linearGradient>
  <path
     fill="url(#H5zWGZDzzYRltSZyl6Krhe)"
     d="m 30.750014,26.378765 h -15.01307 c -0.218084,0 -0.395081,-0.176996 -0.395081,-0.39508 v -3.950808 c 0,-0.218085 0.176997,-0.395081 0.395081,-0.395081 h 15.01307 c 0.218085,0 0.395081,0.176996 0.395081,0.395081 v 3.950808 c 0,0.218084 -0.176996,0.39508 -0.395081,0.39508 z"
     id="path1629"
     style="fill:url(#H5zWGZDzzYRltSZyl6Krhe);stroke-width:0.790162" />
  <circle
     cx="28.774611"
     cy="24.008282"
     r="0.79016161"
     fill="#50e6ff"
     id="circle1631"
     style="stroke-width:0.790162" />
  <path
     style="fill:#ff8700;fill-opacity:1;fill-rule:nonzero;stroke:none;stroke-width:0.0935741"
     d="m 37.923349,43.305897 h -9.825278 c -1.033702,0 -1.871482,-0.837781 -1.871482,-1.871482 v -9.825278 c 0,-1.033701 0.83778,-1.871482 1.871482,-1.871482 h 9.825278 c 1.033701,0 1.871482,0.837781 1.871482,1.871482 v 9.825278 c 0,1.033701 -0.837781,1.871482 -1.871482,1.871482 z m -0.935741,-4.210834 v -5.146574 c 0,-0.775276 -0.628335,-1.403611 -1.403611,-1.403611 h -5.146574 c -0.775276,0 -1.403612,0.628335 -1.403612,1.403611 v 5.146574 c 0,0.775277 0.628336,1.403612 1.403612,1.403612 h 5.146574 c 0.775276,0 1.403611,-0.628335 1.403611,-1.403612 z m 0,0"
     id="path718" />
  <path
     style="fill:#23a1e3;fill-opacity:1;fill-rule:nonzero;stroke:none;stroke-width:0.0935741"
     d="m 42.134183,25.526821 h -9.825279 c -1.034066,0 -1.871481,0.837415 -1.871481,1.871482 v 2.339352 h 2.807222 c 0,-0.776738 0.626874,-1.403611 1.403611,-1.403611 h 5.146575 c 0.77674,0 1.403611,0.626873 1.403611,1.403611 v 5.146575 c 0,0.776737 -0.626871,1.403611 -1.403611,1.403611 h -5.146575 c -0.776737,0 -1.403611,-0.626874 -1.403611,-1.403611 v -2.339352 h -2.807222 v 4.678704 c 0,1.034066 0.837415,1.871481 1.871481,1.871481 h 9.825279 c 1.034068,0 1.871482,-0.837415 1.871482,-1.871481 v -9.825279 c 0,-1.034067 -0.837414,-1.871482 -1.871482,-1.871482 z m 0,0"
     id="path724" />
</svg>
