<svg xmlns="http://www.w3.org/2000/svg"  viewBox="0 0 48 48" width="240px" height="240px"><linearGradient id="08JP5E0OM0K64J6~FINDca" x1="24" x2="24" y1="34.987" y2="41.012" gradientTransform="matrix(-1 0 0 1 48 0)" gradientUnits="userSpaceOnUse"><stop offset="0" stop-color="#a1aab3"/><stop offset="1" stop-color="#8f979e"/></linearGradient><path fill="url(#08JP5E0OM0K64J6~FINDca)" d="M14,38v-3h20v3l13,0.335V40c0,0.552-0.448,1-1,1H2c-0.552,0-1-0.448-1-1v-1.419L14,38z"/><linearGradient id="08JP5E0OM0K64J6~FINDcb" x1="8.364" x2="38.396" y1="7.308" y2="32.647" gradientUnits="userSpaceOnUse"><stop offset="0" stop-color="#a1aab3"/><stop offset="1" stop-color="#8f979e"/></linearGradient><path fill="url(#08JP5E0OM0K64J6~FINDcb)" d="M42,34H6c-1.105,0-2-0.895-2-2V9c0-1.105,0.895-2,2-2h36c1.105,0,2,0.895,2,2v23	C44,33.105,43.105,34,42,34z"/><radialGradient id="08JP5E0OM0K64J6~FINDcc" cx="26.194" cy="102.182" r="83.03" gradientTransform="matrix(.8095 0 0 .7188 27.238 -16.594)" gradientUnits="userSpaceOnUse"><stop offset=".323" stop-color="#23d9d6"/><stop offset=".427" stop-color="#23d4d7"/><stop offset=".542" stop-color="#21c7dc"/><stop offset=".664" stop-color="#1fb0e2"/><stop offset=".789" stop-color="#1c91ec"/><stop offset=".917" stop-color="#1969f8"/><stop offset=".944" stop-color="#1860fb"/></radialGradient><rect width="36" height="23" x="6" y="9" fill="url(#08JP5E0OM0K64J6~FINDcc)"/><linearGradient id="08JP5E0OM0K64J6~FINDcd" x1="24" x2="24" y1="33.989" y2="39.01" gradientUnits="userSpaceOnUse"><stop offset="0" stop-color="#484b4f"/><stop offset=".028" stop-color="#565b61"/><stop offset=".066" stop-color="#626a72"/><stop offset=".114" stop-color="#6b757d"/><stop offset=".181" stop-color="#717b84"/><stop offset=".367" stop-color="#727d86"/></linearGradient><path fill="url(#08JP5E0OM0K64J6~FINDcd)" d="M46.909,38.335l-2.867-3.584C43.663,34.276,43.088,34,42.481,34H5.519	c-0.608,0-1.182,0.276-1.562,0.751l-2.867,3.584C0.876,38.603,1.067,39,1.41,39h14.966c0.382,0,0.73-0.217,0.898-0.56l0.431-0.88	c0.168-0.343,0.516-0.56,0.898-0.56h10.793c0.382,0,0.73,0.217,0.898,0.56l0.431,0.88c0.168,0.343,0.516,0.56,0.898,0.56H46.59	C46.933,39,47.124,38.603,46.909,38.335z"/></svg>