<svg xmlns="http://www.w3.org/2000/svg"  viewBox="0 0 48 48" width="240px" height="240px"><linearGradient id="ELK8HmAtoO7unK~fXUzIXa" x1="30.845" x2="14.714" y1="31.129" y2="14.998" gradientUnits="userSpaceOnUse"><stop offset="0" stop-color="#fff"/><stop offset=".242" stop-color="#f2f2f2"/><stop offset="1" stop-color="#ccc"/></linearGradient><circle cx="22.833" cy="23.117" r="11.5" fill="url(#ELK8HmAtoO7unK~fXUzIXa)"/><linearGradient id="ELK8HmAtoO7unK~fXUzIXb" x1="16.283" x2="27.773" y1="16.567" y2="28.057" gradientUnits="userSpaceOnUse"><stop offset="0" stop-color="#0d61a9"/><stop offset=".363" stop-color="#0e5fa4"/><stop offset=".78" stop-color="#135796"/><stop offset="1" stop-color="#16528c"/></linearGradient><circle cx="22.833" cy="23.117" r="7" fill="url(#ELK8HmAtoO7unK~fXUzIXb)"/><linearGradient id="ELK8HmAtoO7unK~fXUzIXc" x1="4.16" x2="36.915" y1="4.461" y2="37.217" gradientUnits="userSpaceOnUse"><stop offset="0" stop-color="#889097"/><stop offset=".331" stop-color="#848c94"/><stop offset=".669" stop-color="#78828b"/><stop offset="1" stop-color="#64717c"/></linearGradient><path fill="url(#ELK8HmAtoO7unK~fXUzIXc)" d="M42.24,18.36c-2.389-0.029-4.702-1.274-5.983-3.493c-1.233-2.136-1.208-4.649-0.162-6.693 c-2.125-1.887-4.642-3.339-7.43-4.188c-1.254,1.886-3.397,3.131-5.831,3.131s-4.577-1.244-5.831-3.131 c-2.788,0.849-5.305,2.301-7.43,4.188c1.046,2.044,1.071,4.557-0.162,6.693c-1.281,2.219-3.594,3.464-5.983,3.493 c-0.373,1.527-0.593,3.115-0.593,4.757c0,1.284,0.133,2.535,0.364,3.752c2.469-0.051,4.891,1.208,6.213,3.498 c1.368,2.37,1.187,5.204-0.22,7.345c2.082,1.947,4.573,3.456,7.34,4.375c1.13-2.347,3.524-3.971,6.303-3.971 s5.173,1.624,6.303,3.971c2.767-0.919,5.258-2.428,7.34-4.375c-1.407-2.141-1.588-4.975-0.22-7.345 c1.322-2.29,3.743-3.549,6.213-3.498c0.231-1.217,0.364-2.468,0.364-3.752C42.833,21.475,42.613,19.887,42.24,18.36z M22.833,33.617c-5.799,0-10.5-4.701-10.5-10.5c0-5.799,4.701-10.5,10.5-10.5s10.5,4.701,10.5,10.5 C33.333,28.916,28.632,33.617,22.833,33.617z"/><linearGradient id="ELK8HmAtoO7unK~fXUzIXd" x1="26.885" x2="37.509" y1="25.964" y2="41.333" gradientUnits="userSpaceOnUse"><stop offset="0" stop-color="#7dd8f3"/><stop offset="1" stop-color="#45b0d0"/></linearGradient><path fill="url(#ELK8HmAtoO7unK~fXUzIXd)" d="M22,41.5v-14h22v14c0,1.1-0.9,2-2,2H24C22.9,43.5,22,42.6,22,41.5z"/><linearGradient id="ELK8HmAtoO7unK~fXUzIXe" x1="22.465" x2="43.417" y1="23.541" y2="27.801" gradientUnits="userSpaceOnUse"><stop offset="0" stop-color="#0077d2"/><stop offset="1" stop-color="#0b59a2"/></linearGradient><path fill="url(#ELK8HmAtoO7unK~fXUzIXe)" d="M44,25.5v2H22v-2c0-1.1,0.9-2,2-2h18C43.1,23.5,44,24.4,44,25.5z"/><path fill="#195bbc" d="M27.146,40.854l-2-2c-0.195-0.195-0.195-0.512,0-0.707l0.707-0.707c0.195-0.195,0.512-0.195,0.707,0	l0.939,0.939l2.939-2.939c0.195-0.195,0.512-0.195,0.707,0l0.707,0.707c0.195,0.195,0.195,0.512,0,0.707l-4,4	C27.658,41.049,27.342,41.049,27.146,40.854z"/><path fill="#195bbc" d="M27.146,34.854l-2-2c-0.195-0.195-0.195-0.512,0-0.707l0.707-0.707c0.195-0.195,0.512-0.195,0.707,0	l0.939,0.939l2.939-2.939c0.195-0.195,0.512-0.195,0.707,0l0.707,0.707c0.195,0.195,0.195,0.512,0,0.707l-4,4	C27.658,35.049,27.342,35.049,27.146,34.854z"/></svg>