<svg xmlns="http://www.w3.org/2000/svg"  viewBox="0 0 48 48" width="240px" height="240px"><linearGradient id="E9iiSw7nsgrnfwCJ0NTHha" x1="21.57" x2="26.456" y1="6.825" y2="41.353" gradientUnits="userSpaceOnUse"><stop offset="0" stop-color="#0d61a9"/><stop offset="1" stop-color="#16528c"/></linearGradient><path fill="url(#E9iiSw7nsgrnfwCJ0NTHha)" d="M42,7H6C4.895,7,4,7.895,4,9v30c0,1.105,0.895,2,2,2h36c1.105,0,2-0.895,2-2V9	C44,7.895,43.105,7,42,7z"/><path fill="#35c1f1" d="M20.5,17h19c0.276,0,0.5,0.224,0.5,0.5v1c0,0.276-0.224,0.5-0.5,0.5h-19c-0.276,0-0.5-0.224-0.5-0.5	v-1C20,17.224,20.224,17,20.5,17z"/><path fill="#35c1f1" d="M20.5,23h19c0.276,0,0.5,0.224,0.5,0.5v1c0,0.276-0.224,0.5-0.5,0.5h-19c-0.276,0-0.5-0.224-0.5-0.5	v-1C20,23.224,20.224,23,20.5,23z"/><path fill="#0782d8" d="M9.5,23h3c0.276,0,0.5,0.224,0.5,0.5v1c0,0.276-0.224,0.5-0.5,0.5h-3C9.224,25,9,24.776,9,24.5v-1	C9,23.224,9.224,23,9.5,23z"/><path fill="#0782d8" d="M9.5,29h3c0.276,0,0.5,0.224,0.5,0.5v1c0,0.276-0.224,0.5-0.5,0.5h-3C9.224,31,9,30.776,9,30.5v-1	C9,29.224,9.224,29,9.5,29z"/><path fill="#35c1f1" d="M20.5,29h19c0.276,0,0.5,0.224,0.5,0.5v1c0,0.276-0.224,0.5-0.5,0.5h-19c-0.276,0-0.5-0.224-0.5-0.5	v-1C20,29.224,20.224,29,20.5,29z"/><path fill="#35c1f1" d="M10.293,19.707L7.146,16.56c-0.195-0.195-0.195-0.512,0-0.707l0.707-0.707	c0.195-0.195,0.512-0.195,0.707,0l2.44,2.44l5.412-5.412c0.195-0.195,0.512-0.195,0.707,0l0.707,0.707	c0.195,0.195,0.195,0.512,0,0.707l-6.119,6.119C11.317,20.097,10.683,20.097,10.293,19.707z"/></svg>