<svg xmlns="http://www.w3.org/2000/svg" xmlns:xlink="http://www.w3.org/1999/xlink" viewBox="0,0,256,256" width="48px" height="48px"><defs><linearGradient x1="24" y1="1.993" x2="24" y2="7.005" gradientUnits="userSpaceOnUse" id="color-1"><stop offset="0" stop-color="#fede00"></stop><stop offset="1" stop-color="#ffd000"></stop></linearGradient><linearGradient x1="24" y1="33.993" x2="24" y2="39.005" gradientUnits="userSpaceOnUse" id="color-2"><stop offset="0" stop-color="#fede00"></stop><stop offset="1" stop-color="#ffd000"></stop></linearGradient><linearGradient x1="24" y1="42.919" x2="24" y2="38.859" gradientUnits="userSpaceOnUse" id="color-3"><stop offset="0.486" stop-color="#fbc300"></stop><stop offset="1" stop-color="#dbaa00"></stop></linearGradient></defs><g fill="none" fill-rule="nonzero" stroke="none" stroke-width="1" stroke-linecap="butt" stroke-linejoin="miter" stroke-miterlimit="10" stroke-dasharray="" stroke-dashoffset="0" font-family="none" font-weight="none" font-size="none" text-anchor="none" style="mix-blend-mode: normal"><g transform="scale(5.33333,5.33333)"><path d="M27,7h-6v-2c0,-1.657 1.343,-3 3,-3v0c1.657,0 3,1.343 3,3z" fill="url(#color-1)"></path><path d="M39,21c0,-8.284 -6.716,-15 -15,-15c-8.284,0 -15,6.716 -15,15c0,0.39 0,13 0,13h30c0,0 0,-12.61 0,-13z" fill="#f5be00"></path><path d="M39,34h-30l-3.875,1.55c-0.68,0.272 -1.125,0.93 -1.125,1.661v0c0,0.988 0.801,1.789 1.789,1.789h36.422c0.988,0 1.789,-0.801 1.789,-1.789v0c0,-0.731 -0.445,-1.389 -1.125,-1.661z" fill="url(#color-2)"></path><path d="M28,39c0,2.209 -1.791,4 -4,4c-2.209,0 -4,-1.791 -4,-4z" fill="url(#color-3)"></path></g></g></svg>