<svg xmlns="http://www.w3.org/2000/svg"  viewBox="0 0 48 48" width="240px" height="240px"><linearGradient id="ptXxEfJsTjPufOlJHBLyia" x1="13.48" x2="31.634" y1="106.407" y2="80.147" gradientTransform="matrix(1 0 0 -1 0 118)" gradientUnits="userSpaceOnUse"><stop offset="0" stop-color="#7dd8f3"/><stop offset="1" stop-color="#45b0d0"/></linearGradient><path fill="url(#ptXxEfJsTjPufOlJHBLyia)" d="M4,38V15h40v23c0,1.1-0.9,2-2,2H6C4.9,40,4,39.1,4,38z"/><linearGradient id="ptXxEfJsTjPufOlJHBLyib" x1="4.614" x2="42.936" y1="110.259" y2="102.467" gradientTransform="matrix(1 0 0 -1 0 118)" gradientUnits="userSpaceOnUse"><stop offset="0" stop-color="#0077d2"/><stop offset="1" stop-color="#0b59a2"/></linearGradient><path fill="url(#ptXxEfJsTjPufOlJHBLyib)" d="M44,10v5H4v-5c0-1.1,0.9-2,2-2h36C43.1,8,44,8.9,44,10z"/><linearGradient id="ptXxEfJsTjPufOlJHBLyic" x1="33.751" x2="35.032" y1="107.584" y2="105.731" gradientTransform="matrix(1 0 0 -1 0 118)" gradientUnits="userSpaceOnUse"><stop offset="0" stop-color="#75daff"/><stop offset="1" stop-color="#49bef1"/></linearGradient><circle cx="34.5" cy="11.5" r="1.5" fill="url(#ptXxEfJsTjPufOlJHBLyic)"/><linearGradient id="ptXxEfJsTjPufOlJHBLyid" x1="28.751" x2="30.032" y1="107.584" y2="105.731" gradientTransform="matrix(1 0 0 -1 0 118)" gradientUnits="userSpaceOnUse"><stop offset="0" stop-color="#75daff"/><stop offset="1" stop-color="#49bef1"/></linearGradient><circle cx="29.5" cy="11.5" r="1.5" fill="url(#ptXxEfJsTjPufOlJHBLyid)"/><linearGradient id="ptXxEfJsTjPufOlJHBLyie" x1="38.751" x2="40.032" y1="107.584" y2="105.731" gradientTransform="matrix(1 0 0 -1 0 118)" gradientUnits="userSpaceOnUse"><stop offset="0" stop-color="#75daff"/><stop offset="1" stop-color="#49bef1"/></linearGradient><circle cx="39.5" cy="11.5" r="1.5" fill="url(#ptXxEfJsTjPufOlJHBLyie)"/></svg>