<svg xmlns="http://www.w3.org/2000/svg"  viewBox="0 0 48 48" width="240px" height="240px"><linearGradient id="Lssg5Ca3L5X963NYjtM0Fa" x1="24" x2="24" y1="14.784" y2="39.9" gradientUnits="userSpaceOnUse"><stop offset=".9" stop-color="#6d7882"/><stop offset=".917" stop-color="#45494d"/></linearGradient><path fill="url(#Lssg5Ca3L5X963NYjtM0Fa)" d="M42,40H6c-1.1,0-2-0.9-2-2V17c0-1.1,0.9-2,2-2h36c1.1,0,2,0.9,2,2v21C44,39.1,43.1,40,42,40z"/><path fill="#252525" d="M38.5,33h-29C8.672,33,8,32.328,8,31.5v0C8,30.672,8.672,30,9.5,30h29c0.828,0,1.5,0.672,1.5,1.5v0	C40,32.328,39.328,33,38.5,33z"/><path fill="#50e6ff" d="M35,43H13c-1.105,0-2-0.895-2-2v-9h26v9C37,42.105,36.105,43,35,43z"/><path fill="#0076d7" d="M40,15H8v-4c0-0.552,0.448-1,1-1h30c0.552,0,1,0.448,1,1V15z"/><path fill="#50e6ff" d="M13,5h22c1.105,0,2,0.895,2,2v8H11V7C11,5.895,11.895,5,13,5z"/><rect width="26" height="2" x="11" y="30" fill="#199ae0"/><circle cx="37.958" cy="22.024" r="2" fill="#eef2f3"/><linearGradient id="Lssg5Ca3L5X963NYjtM0Fb" x1="37.325" x2="38.813" y1="21.326" y2="22.814" gradientUnits="userSpaceOnUse"><stop offset="0" stop-color="#32bdef"/><stop offset="1" stop-color="#1ea2e4"/></linearGradient><circle cx="38" cy="22" r="1" fill="url(#Lssg5Ca3L5X963NYjtM0Fb)"/></svg>