<svg xmlns="http://www.w3.org/2000/svg"  viewBox="0 0 48 48" width="240px" height="240px"><linearGradient id="WWZG4nXidbdKz8SNbGF5Za" x1="6.414" x2="41.774" y1="13.662" y2="39.488" gradientUnits="userSpaceOnUse"><stop offset="0" stop-color="#28afea"/><stop offset="1" stop-color="#047ed6"/></linearGradient><path fill="url(#WWZG4nXidbdKz8SNbGF5Za)" d="M6,40V12h36v28c0,1.1-0.9,2-2,2H8C6.9,42,6,41.1,6,40z"/><linearGradient id="WWZG4nXidbdKz8SNbGF5Zb" x1="6.42" x2="41.198" y1="6.608" y2="13.68" gradientUnits="userSpaceOnUse"><stop offset="0" stop-color="#0077d2"/><stop offset="1" stop-color="#0b59a2"/></linearGradient><path fill="url(#WWZG4nXidbdKz8SNbGF5Zb)" d="M42,8v6H6V8c0-1.1,0.9-2,2-2h32C41.1,6,42,6.9,42,8z"/><path d="M35.5,12.5L35.5,12.5c-1.657,0-3-1.343-3-3V6h6v3.5C38.5,11.157,37.157,12.5,35.5,12.5z" opacity=".05"/><path d="M35.5,11.75L35.5,11.75c-1.243,0-2.25-1.007-2.25-2.25V6h4.5v3.5	C37.75,10.743,36.743,11.75,35.5,11.75z" opacity=".07"/><path d="M12.5,12.5L12.5,12.5c-1.657,0-3-1.343-3-3V6h6v3.5C15.5,11.157,14.157,12.5,12.5,12.5z" opacity=".05"/><path d="M12.5,11.75L12.5,11.75c-1.243,0-2.25-1.007-2.25-2.25V6h4.5v3.5	C14.75,10.743,13.743,11.75,12.5,11.75z" opacity=".07"/><path fill="#3ccbf4" d="M12.5,11L12.5,11c-0.828,0-1.5-0.672-1.5-1.5v-4C11,4.672,11.672,4,12.5,4h0	C13.328,4,14,4.672,14,5.5v4C14,10.328,13.328,11,12.5,11z"/><path fill="#fff" d="M38,19.5v3c0,0.276-0.224,0.5-0.5,0.5h-3c-0.276,0-0.5-0.224-0.5-0.5v-3c0-0.276,0.224-0.5,0.5-0.5h3	C37.776,19,38,19.224,38,19.5z M30,19.5v3c0,0.276-0.224,0.5-0.5,0.5h-3c-0.276,0-0.5-0.224-0.5-0.5v-3c0-0.276,0.224-0.5,0.5-0.5h3	C29.776,19,30,19.224,30,19.5z M22,19.5v3c0,0.276-0.224,0.5-0.5,0.5h-3c-0.276,0-0.5-0.224-0.5-0.5v-3c0-0.276,0.224-0.5,0.5-0.5h3	C21.776,19,22,19.224,22,19.5z"/><path fill="#fff" d="M38,26.5v3c0,0.276-0.224,0.5-0.5,0.5h-3c-0.276,0-0.5-0.224-0.5-0.5v-3c0-0.276,0.224-0.5,0.5-0.5h3	C37.776,26,38,26.224,38,26.5z M30,26.5v3c0,0.276-0.224,0.5-0.5,0.5h-3c-0.276,0-0.5-0.224-0.5-0.5v-3c0-0.276,0.224-0.5,0.5-0.5h3	C29.776,26,30,26.224,30,26.5z M22,26.5v3c0,0.276-0.224,0.5-0.5,0.5h-3c-0.276,0-0.5-0.224-0.5-0.5v-3c0-0.276,0.224-0.5,0.5-0.5h3	C21.776,26,22,26.224,22,26.5z M14,26.5v3c0,0.276-0.224,0.5-0.5,0.5h-3c-0.276,0-0.5-0.224-0.5-0.5v-3c0-0.276,0.224-0.5,0.5-0.5h3	C13.776,26,14,26.224,14,26.5z"/><path fill="#fff" d="M30,33.5v3c0,0.276-0.224,0.5-0.5,0.5h-3c-0.276,0-0.5-0.224-0.5-0.5v-3c0-0.276,0.224-0.5,0.5-0.5h3	C29.776,33,30,33.224,30,33.5z M22,33.5v3c0,0.276-0.224,0.5-0.5,0.5h-3c-0.276,0-0.5-0.224-0.5-0.5v-3c0-0.276,0.224-0.5,0.5-0.5h3	C21.776,33,22,33.224,22,33.5z M14,33.5v3c0,0.276-0.224,0.5-0.5,0.5h-3c-0.276,0-0.5-0.224-0.5-0.5v-3c0-0.276,0.224-0.5,0.5-0.5h3	C13.776,33,14,33.224,14,33.5z"/><path fill="#3ccbf4" d="M35.5,11L35.5,11c-0.828,0-1.5-0.672-1.5-1.5v-4C34,4.672,34.672,4,35.5,4l0,0	C36.328,4,37,4.672,37,5.5v4C37,10.328,36.328,11,35.5,11z"/></svg>