<svg xmlns="http://www.w3.org/2000/svg"  viewBox="0 0 48 48" width="240px" height="240px"><linearGradient id="VCUkACqDw_fqTYGLeCn6Da" x1="6.949" x2="35.445" y1="6.949" y2="35.445" gradientUnits="userSpaceOnUse"><stop offset="0" stop-color="#fede00"/><stop offset="1" stop-color="#ffd000"/></linearGradient><path fill="url(#VCUkACqDw_fqTYGLeCn6Da)" d="M29,42H8c-1.105,0-2-0.895-2-2V8c0-1.105,0.895-2,2-2h32c1.105,0,2,0.895,2,2v21L29,42z"/><linearGradient id="VCUkACqDw_fqTYGLeCn6Db" x1="29.592" x2="35.671" y1="29.592" y2="35.671" gradientUnits="userSpaceOnUse"><stop offset="0" stop-color="#4b4b4b"/><stop offset="1" stop-color="#3b3b3b"/></linearGradient><path fill="url(#VCUkACqDw_fqTYGLeCn6Db)" d="M31,29h11L29,42V31C29,29.895,29.895,29,31,29z"/><line x1="13" x2="35" y1="18" y2="18" fill="none" stroke="#e8ba13" stroke-linecap="round" stroke-linejoin="round" stroke-miterlimit="10" stroke-width="2"/><line x1="13" x2="35" y1="24" y2="24" fill="none" stroke="#e8ba13" stroke-linecap="round" stroke-linejoin="round" stroke-miterlimit="10" stroke-width="2"/><line x1="13" x2="23" y1="30" y2="30" fill="none" stroke="#e8ba13" stroke-linecap="round" stroke-linejoin="round" stroke-miterlimit="10" stroke-width="2"/></svg>