<svg xmlns="http://www.w3.org/2000/svg"  viewBox="0 0 48 48" width="48px" height="48px"><linearGradient id="dXHSUfh5hrWnbqlt~U9wLa" x1="16.293" x2="29.836" y1="5.793" y2="19.336" gradientUnits="userSpaceOnUse"><stop offset="0" stop-color="#33bef0"/><stop offset="1" stop-color="#0a85d9"/></linearGradient><path fill="url(#dXHSUfh5hrWnbqlt~U9wLa)" d="M33,6H10C8.895,6,8,6.895,8,8v1H5.369C4.864,9,4.611,9.611,4.968,9.968L8,13v1	c0,1.105,0.895,2,2,2h23c1.105,0,2-0.895,2-2V8C35,6.895,34.105,6,33,6z"/><linearGradient id="dXHSUfh5hrWnbqlt~U9wLb" x1="23.069" x2="33.24" y1="21.569" y2="31.74" gradientUnits="userSpaceOnUse"><stop offset="0" stop-color="#33bef0"/><stop offset="1" stop-color="#0a85d9"/></linearGradient><path fill="url(#dXHSUfh5hrWnbqlt~U9wLb)" d="M37,19H14c-1.105,0-2,0.895-2,2v1H9.369c-0.505,0-0.758,0.611-0.401,0.968L12,26v1	c0,1.105,0.895,2,2,2h23c1.105,0,2-0.895,2-2v-6C39,19.895,38.105,19,37,19z"/><linearGradient id="dXHSUfh5hrWnbqlt~U9wLc" x1="26.867" x2="39.133" y1="34.367" y2="46.633" gradientUnits="userSpaceOnUse"><stop offset="0" stop-color="#33bef0"/><stop offset="1" stop-color="#0a85d9"/></linearGradient><path fill="url(#dXHSUfh5hrWnbqlt~U9wLc)" d="M41,32H18c-1.105,0-2,0.895-2,2v1h-2.631c-0.505,0-0.758,0.611-0.401,0.968L16,39v1	c0,1.105,0.895,2,2,2h23c1.105,0,2-0.895,2-2v-6C43,32.895,42.105,32,41,32z"/></svg>