<?xml version="1.0" encoding="UTF-8" standalone="no"?>
<svg
   viewBox="0 0 48 48"
   width="240px"
   height="240px"
   version="1.1"
   id="svg22"
   sodipodi:docname="icons8-tape-library.svg"
   inkscape:version="1.1.1 (3bf5ae0d25, 2021-09-20)"
   xmlns:inkscape="http://www.inkscape.org/namespaces/inkscape"
   xmlns:sodipodi="http://sodipodi.sourceforge.net/DTD/sodipodi-0.dtd"
   xmlns="http://www.w3.org/2000/svg"
   xmlns:svg="http://www.w3.org/2000/svg">
  <defs
     id="defs26">
    <linearGradient
       id="eNMhM4Smcv4SRpR7OSx1Vi"
       x1="32"
       x2="32"
       y1="22.909"
       y2="28.093"
       gradientUnits="userSpaceOnUse"
       gradientTransform="matrix(0.44231735,0,0,0.44231735,23.943041,24.286184)">
      <stop
         offset="0"
         stop-color="#f9f9f9"
         id="stop76" />
      <stop
         offset=".276"
         stop-color="#eff0f1"
         id="stop78" />
      <stop
         offset=".746"
         stop-color="#d3d8da"
         id="stop80" />
      <stop
         offset="1"
         stop-color="#c2c8cc"
         id="stop82" />
    </linearGradient>
    <linearGradient
       id="eNMhM4Smcv4SRpR7OSx1Vh"
       x1="16"
       x2="16"
       y1="22.909"
       y2="28.093"
       gradientUnits="userSpaceOnUse"
       gradientTransform="matrix(0.44231735,0,0,0.44231735,23.943041,24.286184)">
      <stop
         offset="0"
         stop-color="#f9f9f9"
         id="stop65" />
      <stop
         offset=".276"
         stop-color="#eff0f1"
         id="stop67" />
      <stop
         offset=".746"
         stop-color="#d3d8da"
         id="stop69" />
      <stop
         offset="1"
         stop-color="#c2c8cc"
         id="stop71" />
    </linearGradient>
    <linearGradient
       id="eNMhM4Smcv4SRpR7OSx1Vg"
       x1="13"
       x2="13"
       y1="17.046"
       y2="34.312"
       gradientUnits="userSpaceOnUse"
       gradientTransform="matrix(0.44231735,0,0,0.44231735,23.943041,24.286184)">
      <stop
         offset="0"
         stop-color="#4c4c4c"
         id="stop58" />
      <stop
         offset="1"
         stop-color="#343434"
         id="stop60" />
    </linearGradient>
    <linearGradient
       id="eNMhM4Smcv4SRpR7OSx1Vf"
       x1="35"
       x2="35"
       y1="17.046"
       y2="34.312"
       gradientUnits="userSpaceOnUse"
       gradientTransform="matrix(0.44231735,0,0,0.44231735,23.943041,24.286184)">
      <stop
         offset="0"
         stop-color="#4c4c4c"
         id="stop51" />
      <stop
         offset="1"
         stop-color="#343434"
         id="stop53" />
    </linearGradient>
    <linearGradient
       id="eNMhM4Smcv4SRpR7OSx1Ve"
       x1="37"
       x2="37"
       y1="16.568001"
       y2="37.856998"
       gradientUnits="userSpaceOnUse"
       gradientTransform="matrix(0.44231735,0,0,0.44231735,23.943041,24.286184)">
      <stop
         offset="0"
         stop-color="#f9f9f9"
         id="stop40" />
      <stop
         offset=".276"
         stop-color="#eff0f1"
         id="stop42" />
      <stop
         offset=".746"
         stop-color="#d3d8da"
         id="stop44" />
      <stop
         offset="1"
         stop-color="#c2c8cc"
         id="stop46" />
    </linearGradient>
    <linearGradient
       id="eNMhM4Smcv4SRpR7OSx1Vd"
       x1="24"
       x2="24"
       y1="17.25"
       y2="32.129002"
       gradientUnits="userSpaceOnUse"
       gradientTransform="matrix(0.44231735,0,0,0.44231735,23.943041,24.286184)">
      <stop
         offset="0"
         stop-color="#f9f9f9"
         id="stop29" />
      <stop
         offset=".276"
         stop-color="#eff0f1"
         id="stop31" />
      <stop
         offset=".746"
         stop-color="#d3d8da"
         id="stop33" />
      <stop
         offset="1"
         stop-color="#c2c8cc"
         id="stop35" />
    </linearGradient>
    <linearGradient
       id="eNMhM4Smcv4SRpR7OSx1Vc"
       x1="24"
       x2="24"
       y1="25.568001"
       y2="33.75"
       gradientUnits="userSpaceOnUse"
       gradientTransform="matrix(0.44231735,0,0,0.44231735,23.943041,24.286184)">
      <stop
         offset="0"
         stop-color="#f44f5a"
         id="stop20" />
      <stop
         offset=".443"
         stop-color="#ee3d4a"
         id="stop22" />
      <stop
         offset="1"
         stop-color="#e52030"
         id="stop24" />
    </linearGradient>
    <linearGradient
       id="eNMhM4Smcv4SRpR7OSx1Vb"
       x1="11"
       x2="11"
       y1="16.568001"
       y2="37.856998"
       gradientUnits="userSpaceOnUse"
       gradientTransform="matrix(0.44231735,0,0,0.44231735,23.943041,24.286184)">
      <stop
         offset="0"
         stop-color="#f9f9f9"
         id="stop9" />
      <stop
         offset=".276"
         stop-color="#eff0f1"
         id="stop11" />
      <stop
         offset=".746"
         stop-color="#d3d8da"
         id="stop13" />
      <stop
         offset="1"
         stop-color="#c2c8cc"
         id="stop15-3" />
    </linearGradient>
    <linearGradient
       id="eNMhM4Smcv4SRpR7OSx1Va"
       x1="24"
       x2="24"
       y1="9.4770002"
       y2="51.084999"
       gradientUnits="userSpaceOnUse"
       gradientTransform="matrix(0.44231735,0,0,0.44231735,23.943041,24.286184)">
      <stop
         offset="0"
         stop-color="#199ae0"
         id="stop2" />
      <stop
         offset="1"
         stop-color="#0782d8"
         id="stop4" />
    </linearGradient>
  </defs>
  <sodipodi:namedview
     id="namedview24"
     pagecolor="#ffffff"
     bordercolor="#666666"
     borderopacity="1.0"
     inkscape:pageshadow="2"
     inkscape:pageopacity="0.0"
     inkscape:pagecheckerboard="0"
     showgrid="false"
     inkscape:zoom="2.8416667"
     inkscape:cx="120"
     inkscape:cy="120"
     inkscape:window-width="2560"
     inkscape:window-height="1382"
     inkscape:window-x="1920"
     inkscape:window-y="314"
     inkscape:window-maximized="1"
     inkscape:current-layer="svg22" />
  <path
     fill="#c48c00"
     d="m 8,33.317549 v 5.325977 c 0,0.48999 0.397673,0.887663 0.8876629,0.887663 h 2.6629881 c 0,-0.980868 0.794459,-1.775326 1.775326,-1.775326 h 21.303909 c 0.980867,0 1.775325,0.794458 1.775325,1.775326 H 39.0682 c 0.48999,0 0.887663,-0.397673 0.887663,-0.887663 v -5.325977 z"
     id="path2"
     style="stroke-width:0.887663" />
  <path
     fill="#edbe00"
     d="M 23.977931,35.980537 H 9.7753257 C 8.7944583,35.980537 8,35.186079 8,34.205211 V 7.5753257 C 8,6.5944583 8.7944583,5.8 9.7753257,5.8 H 23.977931 Z"
     id="path4"
     style="stroke-width:0.887663" />
  <path
     fill="#e3a600"
     d="m 23.977931,5.8 h 14.202606 c 0.980868,0 1.775326,0.7944583 1.775326,1.7753257 V 34.205211 c 0,0.980868 -0.794458,1.775326 -1.775326,1.775326 H 23.977931 Z"
     id="path6"
     style="stroke-width:0.887663" />
  <linearGradient
     id="SB~gcGdx56XVujhCkWeR2a"
     x1="27.538"
     x2="29.559"
     y1="23.538"
     y2="25.559"
     gradientUnits="userSpaceOnUse"
     gradientTransform="matrix(0.88766286,0,0,0.88766286,2.6740229,1.3616857)">
    <stop
       offset="0"
       stop-color="#4b4b4b"
       id="stop8" />
    <stop
       offset="1"
       stop-color="#3b3b3b"
       id="stop10" />
  </linearGradient>
  <circle
     cx="27.972412"
     cy="23.109425"
     r="1.3314943"
     fill="url(#SB~gcGdx56XVujhCkWeR2a)"
     id="circle13"
     style="fill:url(#SB~gcGdx56XVujhCkWeR2a);stroke-width:0.887663" />
  <linearGradient
     id="SB~gcGdx56XVujhCkWeR2b"
     x1="18.538"
     x2="20.559"
     y1="23.538"
     y2="25.559"
     gradientUnits="userSpaceOnUse"
     gradientTransform="matrix(0.88766286,0,0,0.88766286,2.6740229,1.3616857)">
    <stop
       offset="0"
       stop-color="#4b4b4b"
       id="stop15" />
    <stop
       offset="1"
       stop-color="#3b3b3b"
       id="stop17" />
  </linearGradient>
  <circle
     cx="19.983446"
     cy="23.109425"
     r="1.3314943"
     fill="url(#SB~gcGdx56XVujhCkWeR2b)"
     id="circle20"
     style="fill:url(#SB~gcGdx56XVujhCkWeR2b);stroke-width:0.887663" />
  <path
     fill="url(#eNMhM4Smcv4SRpR7OSx1Va)"
     d="M 42.918455,28.709357 H 41.967473 27.149842 26.198859 c -0.510876,0 -0.928866,0.393662 -0.928866,0.884635 v 4.865491 0.442317 0.442317 0.442318 4.865491 c 0,0.490972 0.41799,0.884634 0.928866,0.884634 h 0.950983 14.817631 0.950982 c 0.510877,0 0.928867,-0.393662 0.928867,-0.884634 V 35.786435 35.344117 34.9018 34.459483 29.593992 c 0,-0.490973 -0.41799,-0.884635 -0.928867,-0.884635 z"
     id="path7"
     style="fill:url(#eNMhM4Smcv4SRpR7OSx1Va);stroke-width:0.442317" />
  <path
     fill="url(#eNMhM4Smcv4SRpR7OSx1Vb)"
     d="m 31.020119,38.440339 h -4.423174 c -0.244159,0 -0.442317,-0.198158 -0.442317,-0.442318 v -5.307808 c 0,-0.244159 0.198158,-0.442317 0.442317,-0.442317 h 4.423174 c 0.244159,0 0.442317,0.198158 0.442317,0.442317 v 5.307808 c 0,0.24416 -0.198158,0.442318 -0.442317,0.442318 z"
     id="path18"
     style="fill:url(#eNMhM4Smcv4SRpR7OSx1Vb);stroke-width:0.442317" />
  <path
     fill="url(#eNMhM4Smcv4SRpR7OSx1Vc)"
     d="m 36.327927,38.440339 h -3.538539 c -0.244159,0 -0.442317,-0.198158 -0.442317,-0.442318 v -1.326952 h 4.423173 v 1.326952 c 0,0.24416 -0.198158,0.442318 -0.442317,0.442318 z"
     id="path27"
     style="fill:url(#eNMhM4Smcv4SRpR7OSx1Vc);stroke-width:0.442317" />
  <path
     fill="url(#eNMhM4Smcv4SRpR7OSx1Vd)"
     d="m 36.770244,36.671069 h -4.423173 v -3.980856 c 0,-0.244159 0.198158,-0.442317 0.442317,-0.442317 h 3.538539 c 0.244159,0 0.442317,0.198158 0.442317,0.442317 z"
     id="path38"
     style="fill:url(#eNMhM4Smcv4SRpR7OSx1Vd);stroke-width:0.442317" />
  <path
     fill="url(#eNMhM4Smcv4SRpR7OSx1Ve)"
     d="m 42.962687,32.690213 v 5.307808 c 0,0.24416 -0.198158,0.442318 -0.442317,0.442318 h -4.423174 c -0.244159,0 -0.442317,-0.198158 -0.442317,-0.442318 v -5.307808 c 0,-0.244159 0.198158,-0.442317 0.442317,-0.442317 h 4.423174 c 0.244159,0 0.442317,0.198158 0.442317,0.442317 z"
     id="path49"
     style="fill:url(#eNMhM4Smcv4SRpR7OSx1Ve);stroke-width:0.442317" />
  <path
     fill="url(#eNMhM4Smcv4SRpR7OSx1Vf)"
     d="m 41.193418,35.344117 c 0,1.335799 -0.73867,2.499093 -1.831194,3.096222 h -1.265028 c -0.244159,0 -0.442317,-0.198158 -0.442317,-0.442318 v -5.307808 c 0,-0.244159 0.198158,-0.442317 0.442317,-0.442317 h 1.265028 c 1.092524,0.597128 1.831194,1.760423 1.831194,3.096221 z"
     id="path56"
     style="fill:url(#eNMhM4Smcv4SRpR7OSx1Vf);stroke-width:0.442317" />
  <path
     fill="url(#eNMhM4Smcv4SRpR7OSx1Vg)"
     d="m 31.462436,32.690213 v 5.307808 c 0,0.24416 -0.198158,0.442318 -0.442317,0.442318 h -1.265028 c -1.092524,-0.597129 -1.831194,-1.760423 -1.831194,-3.096222 0,-1.335798 0.73867,-2.499093 1.831194,-3.096221 h 1.265028 c 0.244159,0 0.442317,0.198158 0.442317,0.442317 z"
     id="path63"
     style="fill:url(#eNMhM4Smcv4SRpR7OSx1Vg);stroke-width:0.442317" />
  <path
     fill="url(#eNMhM4Smcv4SRpR7OSx1Vh)"
     d="m 31.462436,34.459483 v 1.769269 c -0.486549,0 -0.884635,-0.398086 -0.884635,-0.884635 0,-0.486549 0.398086,-0.884634 0.884635,-0.884634 z"
     id="path74"
     style="fill:url(#eNMhM4Smcv4SRpR7OSx1Vh);stroke-width:0.442317" />
  <path
     fill="url(#eNMhM4Smcv4SRpR7OSx1Vi)"
     d="m 38.539514,35.344117 c 0,0.486549 -0.398086,0.884635 -0.884635,0.884635 v -1.769269 c 0.486549,0 0.884635,0.398085 0.884635,0.884634 z"
     id="path85"
     style="fill:url(#eNMhM4Smcv4SRpR7OSx1Vi);stroke-width:0.442317" />
</svg>
