<svg xmlns="http://www.w3.org/2000/svg"  viewBox="0 0 48 48" width="240px" height="240px"><linearGradient id="SVGID_1_" x1="16.454" x2="30.752" y1="2.663" y2="43.089" gradientUnits="userSpaceOnUse"><stop offset="0" stop-color="#7dd8f3"/><stop offset="1" stop-color="#45b0d0"/></linearGradient><circle cx="24" cy="24" r="20" fill="url(#SVGID_1_)"/><linearGradient id="SVGID_2_" x1="16.233" x2="31.767" y1="24.194" y2="24.194" gradientUnits="userSpaceOnUse"><stop offset="0" stop-color="#3079d6"/><stop offset="1" stop-color="#297cd2"/></linearGradient><circle cx="24" cy="24.2" r="7.8" fill="url(#SVGID_2_)"/><circle cx="24" cy="24.2" r="3.1" fill="#fff"/><linearGradient id="SVGID_3_" x1="35" x2="43" y1="-470.154" y2="-470.154" gradientTransform="matrix(1 0 0 -1 0 -426)" gradientUnits="userSpaceOnUse"><stop offset="0" stop-color="#1d59b3"/><stop offset="1" stop-color="#195bbc"/></linearGradient><path fill="url(#SVGID_3_)" d="M42.3,47.9L39,46.3l-3.3,1.6c-0.3,0.2-0.7-0.1-0.7-0.4v-7.2h8v7.2C43,47.9,42.6,48.1,42.3,47.9z"/><path d="M43.3,29.3c-0.5-0.3-1-0.6-1.6-0.6l-0.7,0l-0.6-0.4C39.9,28.1,39.5,28,39,28c-0.5,0-0.9,0.1-1.3,0.3L37,28.7	l-0.7,0c-0.9,0-1.8,0.5-2.3,1.3l-0.4,0.6L33,31c-0.8,0.5-1.3,1.3-1.3,2.3l0,0.7l-0.4,0.7c-0.5,0.8-0.5,1.8,0,2.6l0.4,0.6l0,0.7	c0,0.9,0.5,1.8,1.3,2.3l0.6,0.4l0.1,0.1C38.4,38.9,41.8,34.5,43.3,29.3z" opacity=".07"/><path d="M43.1,29.8c-0.4-0.4-0.9-0.6-1.4-0.6l-0.9,0l-0.8-0.4c-0.3-0.2-0.7-0.3-1.1-0.3c-0.4,0-0.7,0.1-1.1,0.3	l-0.8,0.4l-0.9,0c-0.8,0-1.5,0.4-1.8,1.1L34,31l-0.7,0.4c-0.6,0.4-1.1,1.1-1.1,1.8l0,0.9l-0.4,0.8c-0.4,0.7-0.4,1.5,0,2.1l0.4,0.8	l0,0.9c0,0.8,0.4,1.5,1.1,1.8L34,41l0.1,0.2C38.4,38.7,41.7,34.6,43.1,29.8z" opacity=".07"/><path fill="#d35230" d="M39.8,29.2l0.9,0.5l1,0c0.6,0,1.1,0.3,1.4,0.8l0.5,0.9l0.9,0.5c0.5,0.3,0.8,0.8,0.8,1.4l0,1l0.5,0.9	c0.3,0.5,0.3,1.1,0,1.6l-0.5,0.9l0,1c0,0.6-0.3,1.1-0.8,1.4l-0.9,0.5l-0.5,0.9c-0.3,0.5-0.8,0.8-1.4,0.8l-1,0l-0.9,0.5	c-0.5,0.3-1.1,0.3-1.6,0l-0.9-0.5l-1,0c-0.6,0-1.1-0.3-1.4-0.8l-0.5-0.9l-0.9-0.5c-0.5-0.3-0.8-0.8-0.8-1.4l0-1l-0.5-0.9	c-0.3-0.5-0.3-1.1,0-1.6l0.5-0.9l0-1c0-0.6,0.3-1.1,0.8-1.4l0.9-0.5l0.5-0.9c0.3-0.5,0.8-0.8,1.4-0.8l1,0l0.9-0.5	C38.7,28.9,39.3,28.9,39.8,29.2z"/><circle cx="39" cy="36" r="5.4" fill="#ff8f6b"/></svg>