<?xml version="1.0" encoding="UTF-8" standalone="no"?>
<svg
   viewBox="0 0 48 48"
   width="96px"
   height="96px"
   version="1.1"
   id="svg52"
   sodipodi:docname="icons8-audit-folder.svg"
   inkscape:version="1.2.2 (b0a8486541, 2022-12-01)"
   xmlns:inkscape="http://www.inkscape.org/namespaces/inkscape"
   xmlns:sodipodi="http://sodipodi.sourceforge.net/DTD/sodipodi-0.dtd"
   xmlns="http://www.w3.org/2000/svg"
   xmlns:svg="http://www.w3.org/2000/svg">
  <defs
     id="defs56">
    <linearGradient
       id="pt4CkO_jh7peTyLO1Gp1kc"
       x1="-42.93"
       x2="-41.046001"
       y1="860.92798"
       y2="853.091"
       gradientTransform="matrix(-2.178644,0,0,1.5248997,-2.9846405,-1270.9791)"
       gradientUnits="userSpaceOnUse">
      <stop
         offset="0"
         stop-color="#c3cdd9"
         id="stop313" />
      <stop
         offset="1"
         stop-color="#9fa7b0"
         id="stop315" />
    </linearGradient>
    <linearGradient
       id="pt4CkO_jh7peTyLO1Gp1kb"
       x1="24"
       x2="24"
       y1="-462.966"
       y2="-466.89301"
       gradientTransform="matrix(2.178644,0,0,-1.5248997,36.230954,-622.89675)"
       gradientUnits="userSpaceOnUse">
      <stop
         offset=".442"
         stop-color="#878786"
         id="stop300" />
      <stop
         offset=".594"
         stop-color="#9f9f9e"
         id="stop302" />
      <stop
         offset=".859"
         stop-color="#c3c3c3"
         id="stop304" />
      <stop
         offset="1"
         stop-color="#d1d1d1"
         id="stop306" />
    </linearGradient>
    <linearGradient
       id="pt4CkO_jh7peTyLO1Gp1ka"
       x1="16.860001"
       x2="29.576"
       y1="-427.53299"
       y2="-467.54599"
       gradientTransform="matrix(2.178644,0,0,-1.5248997,36.230954,-622.89675)"
       gradientUnits="userSpaceOnUse">
      <stop
         offset="0"
         stop-color="#c77740"
         id="stop293" />
      <stop
         offset="1"
         stop-color="#b0622b"
         id="stop295" />
    </linearGradient>
    <linearGradient
       id="pt4CkO_jh7peTyLO1Gp1kc-3"
       x1="-42.93"
       x2="-41.046001"
       y1="860.92798"
       y2="853.091"
       gradientTransform="matrix(-0.55015533,0,0,0.55015533,13.96335,-448.26352)"
       gradientUnits="userSpaceOnUse">
      <stop
         offset="0"
         stop-color="#c3cdd9"
         id="stop313-6" />
      <stop
         offset="1"
         stop-color="#9fa7b0"
         id="stop315-7" />
    </linearGradient>
    <linearGradient
       id="pt4CkO_jh7peTyLO1Gp1kb-5"
       x1="24"
       x2="24"
       y1="-462.966"
       y2="-466.89301"
       gradientTransform="matrix(0.55015533,0,0,-0.55015533,23.866145,-214.44748)"
       gradientUnits="userSpaceOnUse">
      <stop
         offset=".442"
         stop-color="#878786"
         id="stop300-3" />
      <stop
         offset=".594"
         stop-color="#9f9f9e"
         id="stop302-5" />
      <stop
         offset=".859"
         stop-color="#c3c3c3"
         id="stop304-6" />
      <stop
         offset="1"
         stop-color="#d1d1d1"
         id="stop306-2" />
    </linearGradient>
    <linearGradient
       id="pt4CkO_jh7peTyLO1Gp1ka-9"
       x1="16.860001"
       x2="29.576"
       y1="-427.53299"
       y2="-467.54599"
       gradientTransform="matrix(0.55015533,0,0,-0.55015533,23.866145,-214.44748)"
       gradientUnits="userSpaceOnUse">
      <stop
         offset="0"
         stop-color="#c77740"
         id="stop293-1" />
      <stop
         offset="1"
         stop-color="#b0622b"
         id="stop295-2" />
    </linearGradient>
  </defs>
  <sodipodi:namedview
     id="namedview54"
     pagecolor="#ffffff"
     bordercolor="#666666"
     borderopacity="1.0"
     inkscape:showpageshadow="2"
     inkscape:pageopacity="0.0"
     inkscape:pagecheckerboard="0"
     inkscape:deskcolor="#d1d1d1"
     showgrid="false"
     inkscape:zoom="5.050241"
     inkscape:cx="35.740869"
     inkscape:cy="41.186153"
     inkscape:window-width="1920"
     inkscape:window-height="1017"
     inkscape:window-x="1920"
     inkscape:window-y="31"
     inkscape:window-maximized="1"
     inkscape:current-layer="svg52" />
  <linearGradient
     id="WQEfvoQAcpQgQgyjQQ4Hqa"
     x1="24"
     x2="24"
     y1="6.708"
     y2="14.977"
     gradientUnits="userSpaceOnUse"
     gradientTransform="matrix(0.89395546,0,0,0.89395546,1.9768379,0.74231147)">
    <stop
       offset="0"
       stop-color="#eba600"
       id="stop38" />
    <stop
       offset="1"
       stop-color="#c28200"
       id="stop40" />
  </linearGradient>
  <path
     fill="url(#WQEfvoQAcpQgQgyjQQ4Hqa)"
     d="M 23.801867,10.051964 21.534796,7.784893 C 21.032393,7.28249 20.350306,7 19.638717,7 H 6.4466151 C 5.458795,7 4.6587045,7.8000902 4.6587045,8.787911 v 26.818665 c 0,0.987821 0.8000905,1.787911 1.7879106,1.787911 H 40.416924 c 0.987822,0 1.787911,-0.80009 1.787911,-1.787911 V 12.363734 c 0,-0.987822 -0.800089,-1.787912 -1.787911,-1.787912 H 25.065921 c -0.473796,0 -0.92882,-0.188624 -1.264054,-0.523858 z"
     id="path43"
     style="fill:url(#WQEfvoQAcpQgQgyjQQ4Hqa);stroke-width:0.893955" />
  <linearGradient
     id="WQEfvoQAcpQgQgyjQQ4Hqb"
     x1="24"
     x2="24"
     y1="10.854"
     y2="40.983"
     gradientUnits="userSpaceOnUse"
     gradientTransform="matrix(0.89395546,0,0,0.89395546,1.9768379,0.74231147)">
    <stop
       offset="0"
       stop-color="#ffd869"
       id="stop45" />
    <stop
       offset="1"
       stop-color="#fec52b"
       id="stop47" />
  </linearGradient>
  <path
     fill="url(#WQEfvoQAcpQgQgyjQQ4Hqb)"
     d="m 21.273761,13.627786 2.921447,-2.921446 c 0.08314,-0.08314 0.196671,-0.130518 0.315567,-0.130518 h 15.906149 c 0.987822,0 1.787911,0.80009 1.787911,1.787912 v 23.242842 c 0,0.987821 -0.800089,1.787911 -1.787911,1.787911 H 6.4466151 c -0.9878201,0 -1.7879106,-0.80009 -1.7879106,-1.787911 V 14.598622 c 0,-0.246732 0.200246,-0.446978 0.4469775,-0.446978 h 14.904027 c 0.473796,0 0.928819,-0.188625 1.264052,-0.523858 z"
     id="path50"
     style="fill:url(#WQEfvoQAcpQgQgyjQQ4Hqb);stroke-width:0.893955" />
  <path
     fill="url(#pt4CkO_jh7peTyLO1Gp1ka)"
     d="m 44.772052,22.119303 h -6.601867 c 0,0.607923 -0.492387,1.100312 -1.100309,1.100312 -0.607922,0 -1.100312,-0.492389 -1.100312,-1.100312 h -6.601863 c -0.607923,0 -1.100312,0.49239 -1.100312,1.100312 v 19.805591 c 0,0.607923 0.492389,1.100312 1.100312,1.100312 h 15.404351 c 0.607919,0 1.100308,-0.492389 1.100308,-1.100312 V 23.219615 c 0,-0.607922 -0.492389,-1.100312 -1.100308,-1.100312 z"
     id="path298"
     style="fill:url(#pt4CkO_jh7peTyLO1Gp1ka-9);stroke-width:0.550156" />
  <path
     fill="url(#pt4CkO_jh7peTyLO1Gp1kb)"
     d="M 44.221892,43.025206 H 29.917857 c -0.303686,0 -0.550156,-0.246467 -0.550156,-0.550155 v -4.951397 h 15.404351 v 4.951397 c 0,0.303688 -0.246471,0.550155 -0.55016,0.550155 z"
     id="path309"
     style="fill:url(#pt4CkO_jh7peTyLO1Gp1kb-5);stroke-width:0.550156" />
  <path
     fill="#f3f3f3"
     d="M 44.221892,41.924898 H 29.917857 c -0.303686,0 -0.550156,-0.24647 -0.550156,-0.550156 V 23.769771 c 0,-0.303686 0.24647,-0.550156 0.550156,-0.550156 h 14.304035 c 0.303689,0 0.55016,0.24647 0.55016,0.550156 v 17.604971 c 0,0.303686 -0.246471,0.550156 -0.55016,0.550156 z"
     id="path311"
     style="stroke-width:0.550156" />
  <path
     fill="url(#pt4CkO_jh7peTyLO1Gp1kc)"
     d="m 40.920961,24.319927 v -2.200624 h -2.301848 c -0.227214,-0.63983 -0.831835,-1.100308 -1.549237,-1.100308 -0.717405,0 -1.322023,0.460478 -1.54924,1.100308 h -2.301848 v 2.200624 c 0,0.303685 0.246471,0.550156 0.550156,0.550156 h 6.601864 c 0.303686,0 0.550153,-0.246471 0.550153,-0.550156 z m -3.851085,-2.200624 c 0.303686,0 0.550153,0.246471 0.550153,0.550156 0,0.303686 -0.246467,0.550156 -0.550153,0.550156 -0.303685,0 -0.550156,-0.24647 -0.550156,-0.550156 0,-0.303685 0.246471,-0.550156 0.550156,-0.550156 z"
     id="path318"
     style="fill:url(#pt4CkO_jh7peTyLO1Gp1kc-3);stroke-width:0.550156" />
  <path
     fill="#21a366"
     d="m 35.688984,37.397668 -3.444521,-3.444521 c -0.168348,-0.168348 -0.168348,-0.440677 0,-0.609022 l 0.609022,-0.609024 c 0.168348,-0.168345 0.440673,-0.168345 0.609021,0 l 2.531266,2.531266 4.684022,-4.684022 c 0.168349,-0.168348 0.440674,-0.168348 0.609022,0 l 0.609021,0.609021 c 0.168348,0.168348 0.168348,0.440673 0,0.609022 l -5.597831,5.59728 c -0.168349,0.167797 -0.440674,0.167797 -0.609022,0 z"
     id="path320"
     style="stroke-width:0.550156" />
</svg>
