<svg xmlns="http://www.w3.org/2000/svg"  viewBox="0 0 48 48" width="240px" height="240px"><linearGradient id="t4bE4eYoXhY7BPNBuyOpta" x1="23" x2="23" y1="41.4" y2="8.382" gradientUnits="userSpaceOnUse"><stop offset="0" stop-color="#199ae0"/><stop offset="1" stop-color="#0782d8"/></linearGradient><path fill="url(#t4bE4eYoXhY7BPNBuyOpta)" d="M36,6H10C8.895,6,8,6.895,8,8v32c0,1.105,0.895,2,2,2h26c1.105,0,2-0.895,2-2V8	C38,6.895,37.105,6,36,6z"/><linearGradient id="t4bE4eYoXhY7BPNBuyOptb" x1="20.5" x2="20.5" y1="6.145" y2="11.719" gradientUnits="userSpaceOnUse"><stop offset="0" stop-color="#66d7ff"/><stop offset="1" stop-color="#42bcf1"/></linearGradient><path fill="url(#t4bE4eYoXhY7BPNBuyOptb)" d="M34,8v3c0,0.552-0.448,1-1,1H6c-0.552,0-1-0.448-1-1V8c0-1.105,0.895-2,2-2h29	C34.895,6,34,6.895,34,8z"/><path fill="#66d7ff" d="M32.5,23h-19c-0.276,0-0.5,0.224-0.5,0.5v2c0,0.276,0.224,0.5,0.5,0.5h19c0.276,0,0.5-0.224,0.5-0.5	v-2C33,23.224,32.776,23,32.5,23z"/><path fill="#66d7ff" d="M32.5,17h-19c-0.276,0-0.5,0.224-0.5,0.5v2c0,0.276,0.224,0.5,0.5,0.5h19c0.276,0,0.5-0.224,0.5-0.5	v-2C33,17.224,32.776,17,32.5,17z"/><linearGradient id="t4bE4eYoXhY7BPNBuyOptc" x1="28" x2="28" y1="35.433" y2="45.047" gradientUnits="userSpaceOnUse"><stop offset="0" stop-color="#8c20e5"/><stop offset=".427" stop-color="#9e32eb"/><stop offset="1" stop-color="#bd4ff4"/></linearGradient><path fill="url(#t4bE4eYoXhY7BPNBuyOptc)" d="M30.223,44.915L28,43.433l-2.223,1.482C25.445,45.137,25,44.899,25,44.499v-9.066h6v9.066	C31,44.899,30.555,45.137,30.223,44.915z"/><linearGradient id="t4bE4eYoXhY7BPNBuyOptd" x1="25.458" x2="30.522" y1="29.582" y2="38.383" gradientUnits="userSpaceOnUse"><stop offset="0" stop-color="#ffda1c"/><stop offset="1" stop-color="#feb705"/></linearGradient><path fill="url(#t4bE4eYoXhY7BPNBuyOptd)" d="M32.732,33.526l-0.35-0.21c-0.149-0.09-0.25-0.237-0.295-0.404	c-0.001-0.003-0.002-0.006-0.003-0.009c-0.047-0.169-0.033-0.349,0.053-0.502l0.198-0.357c0.203-0.365-0.057-0.814-0.474-0.821	l-0.412-0.007c-0.175-0.003-0.336-0.081-0.459-0.204c-0.001-0.002-0.002-0.003-0.004-0.004c-0.124-0.123-0.201-0.285-0.204-0.459	l-0.007-0.412c-0.007-0.417-0.456-0.676-0.821-0.474L29.6,29.863c-0.154,0.085-0.333,0.099-0.502,0.053	c-0.003-0.001-0.006-0.002-0.01-0.003c-0.168-0.046-0.315-0.146-0.404-0.295l-0.21-0.35c-0.215-0.358-0.733-0.358-0.948,0	l-0.209,0.348c-0.09,0.15-0.239,0.252-0.407,0.298c-0.002,0.001-0.003,0.001-0.005,0.002c-0.171,0.047-0.352,0.033-0.506-0.053	l-0.355-0.197c-0.365-0.203-0.814,0.057-0.821,0.474l-0.008,0.411c-0.003,0.174-0.081,0.336-0.204,0.459	c-0.002,0.001-0.003,0.003-0.004,0.004c-0.123,0.124-0.285,0.201-0.459,0.204l-0.412,0.007c-0.417,0.007-0.676,0.456-0.474,0.821	l0.198,0.357c0.085,0.154,0.099,0.333,0.053,0.502c-0.001,0.003-0.002,0.007-0.003,0.009c-0.046,0.168-0.147,0.315-0.295,0.404	l-0.35,0.21c-0.358,0.215-0.358,0.733,0,0.948l0.35,0.21c0.149,0.09,0.25,0.237,0.295,0.404c0.001,0.003,0.002,0.006,0.003,0.009	c0.047,0.169,0.033,0.349-0.053,0.502l-0.198,0.357c-0.203,0.365,0.057,0.814,0.474,0.821l0.412,0.007	c0.175,0.003,0.336,0.081,0.459,0.204c0.001,0.001,0.002,0.002,0.004,0.004c0.124,0.123,0.201,0.285,0.204,0.459l0.007,0.412	c0.007,0.417,0.456,0.676,0.821,0.474l0.357-0.198c0.154-0.085,0.333-0.099,0.502-0.053c0.003,0.001,0.007,0.001,0.01,0.002	c0.168,0.046,0.315,0.146,0.404,0.295l0.21,0.35c0.215,0.358,0.733,0.358,0.948,0l0.21-0.35c0.09-0.149,0.237-0.25,0.404-0.295	c0.003-0.001,0.007-0.001,0.01-0.002c0.169-0.047,0.349-0.033,0.502,0.053l0.357,0.198c0.365,0.203,0.814-0.057,0.821-0.474	l0.007-0.412c0.003-0.175,0.081-0.336,0.204-0.459c0.002-0.001,0.003-0.002,0.004-0.004c0.123-0.124,0.285-0.201,0.459-0.204	l0.412-0.007c0.417-0.007,0.676-0.456,0.474-0.821l-0.198-0.357c-0.085-0.154-0.099-0.333-0.053-0.502	c0.001-0.003,0.001-0.006,0.002-0.009c0.046-0.168,0.146-0.315,0.295-0.404l0.35-0.21C33.09,34.259,33.09,33.741,32.732,33.526z"/></svg>