<svg xmlns="http://www.w3.org/2000/svg"  viewBox="0 0 48 48" width="240px" height="240px"><linearGradient id="fPvdG1ZNQTM4UETTntuoUa" x1="23.5" x2="23.5" y1="14.459" y2="5" gradientTransform="rotate(-90 24 23.5)" gradientUnits="userSpaceOnUse"><stop offset="0" stop-color="#42a3f2"/><stop offset="1" stop-color="#42a4eb"/></linearGradient><path fill="url(#fPvdG1ZNQTM4UETTntuoUa)" d="M5,17v14c0,0.552,0.448,1,1,1h8c0.552,0,1-0.448,1-1V17c0-0.552-0.448-1-1-1H6	C5.448,16,5,16.448,5,17z"/><linearGradient id="fPvdG1ZNQTM4UETTntuoUb" x1="23.5" x2="23.5" y1="41.459" y2="32" gradientTransform="rotate(-90 24 23.5)" gradientUnits="userSpaceOnUse"><stop offset="0" stop-color="#3079d6"/><stop offset="1" stop-color="#297cd2"/></linearGradient><path fill="url(#fPvdG1ZNQTM4UETTntuoUb)" d="M32,19v10c0,0.552,0.448,1,1,1h8c0.552,0,1-0.448,1-1V19c0-0.552-0.448-1-1-1h-8	C32.448,18,32,18.448,32,19z"/><linearGradient id="fPvdG1ZNQTM4UETTntuoUc" x1="39.5" x2="39.5" y1="41.459" y2="32" gradientTransform="rotate(-90 24 23.5)" gradientUnits="userSpaceOnUse"><stop offset="0" stop-color="#3079d6"/><stop offset="1" stop-color="#297cd2"/></linearGradient><path fill="url(#fPvdG1ZNQTM4UETTntuoUc)" d="M32,3v10c0,0.552,0.448,1,1,1h8c0.552,0,1-0.448,1-1V3c0-0.552-0.448-1-1-1h-8	C32.448,2,32,2.448,32,3z"/><linearGradient id="fPvdG1ZNQTM4UETTntuoUd" x1="7.5" x2="7.5" y1="41.459" y2="32" gradientTransform="rotate(-90 24 23.5)" gradientUnits="userSpaceOnUse"><stop offset="0" stop-color="#3079d6"/><stop offset="1" stop-color="#297cd2"/></linearGradient><path fill="url(#fPvdG1ZNQTM4UETTntuoUd)" d="M32,35v10c0,0.552,0.448,1,1,1h8c0.552,0,1-0.448,1-1V35c0-0.552-0.448-1-1-1h-8	C32.448,34,32,34.448,32,35z"/><rect width="17" height="2" x="15" y="23" fill="#64717c"/><path fill="#64717c" d="M32,7v2h-8c-0.551,0-1,0.449-1,1v28c0,0.551,0.449,1,1,1h8v2h-8c-1.654,0-3-1.346-3-3V10	c0-1.654,1.346-3,3-3H32z"/></svg>