<?xml version="1.0" encoding="UTF-8" standalone="no"?>
<svg
   viewBox="0 0 48 48"
   width="240px"
   height="240px"
   version="1.1"
   id="svg2966"
   sodipodi:docname="icons8-switch-san.svg"
   inkscape:version="1.1.1 (3bf5ae0d25, 2021-09-20)"
   xmlns:inkscape="http://www.inkscape.org/namespaces/inkscape"
   xmlns:sodipodi="http://sodipodi.sourceforge.net/DTD/sodipodi-0.dtd"
   xmlns="http://www.w3.org/2000/svg"
   xmlns:svg="http://www.w3.org/2000/svg">
  <defs
     id="defs2970">
    <linearGradient
       id="yOIoQFQSxgltO8Uv2xJFse"
       x1="24"
       x2="24"
       y1="22.938"
       y2="31.809999"
       gradientUnits="userSpaceOnUse"
       gradientTransform="matrix(0.40903308,0,0,0.40903308,24.71663,24.825672)">
      <stop
         offset="0"
         stop-color="#899198"
         id="stop3081" />
      <stop
         offset="1"
         stop-color="#787e85"
         id="stop3083" />
    </linearGradient>
    <linearGradient
       id="yOIoQFQSxgltO8Uv2xJFsd"
       x1="24"
       x2="24"
       y1="8.75"
       y2="29.408001"
       gradientUnits="userSpaceOnUse"
       gradientTransform="matrix(0.40903308,0,0,0.40903308,24.71663,24.825672)">
      <stop
         offset="0"
         stop-color="#75daff"
         id="stop3070" />
      <stop
         offset="1"
         stop-color="#1ea2e4"
         id="stop3072" />
    </linearGradient>
    <linearGradient
       id="yOIoQFQSxgltO8Uv2xJFsc"
       x1="35"
       x2="35"
       y1="34.667"
       y2="39.007"
       gradientUnits="userSpaceOnUse"
       gradientTransform="matrix(0.40903308,0,0,0.40903308,24.71663,24.825672)">
      <stop
         offset="0"
         stop-color="#75ff8a"
         id="stop3059" />
      <stop
         offset="1"
         stop-color="#1ee446"
         id="stop3061" />
    </linearGradient>
    <linearGradient
       id="yOIoQFQSxgltO8Uv2xJFsb"
       x1="24"
       x2="24"
       y1="6"
       y2="31.799"
       gradientUnits="userSpaceOnUse"
       gradientTransform="matrix(0.40903308,0,0,0.40903308,24.71663,24.825672)">
      <stop
         offset="0"
         stop-color="#737b80"
         id="stop3048" />
      <stop
         offset="1"
         stop-color="#575c61"
         id="stop3050" />
    </linearGradient>
    <linearGradient
       id="yOIoQFQSxgltO8Uv2xJFsa"
       x1="24"
       x2="24"
       y1="30.083"
       y2="42.5"
       gradientUnits="userSpaceOnUse"
       gradientTransform="matrix(0.40903308,0,0,0.40903308,24.71663,24.825672)">
      <stop
         offset="0"
         stop-color="#c3cdd9"
         id="stop3041" />
      <stop
         offset="1"
         stop-color="#9fa7b0"
         id="stop3043" />
    </linearGradient>
  </defs>
  <sodipodi:namedview
     id="namedview2968"
     pagecolor="#ffffff"
     bordercolor="#666666"
     borderopacity="1.0"
     inkscape:pageshadow="2"
     inkscape:pageopacity="0.0"
     inkscape:pagecheckerboard="0"
     showgrid="false"
     inkscape:zoom="2.8416667"
     inkscape:cx="120"
     inkscape:cy="120"
     inkscape:window-width="2560"
     inkscape:window-height="1382"
     inkscape:window-x="1920"
     inkscape:window-y="314"
     inkscape:window-maximized="1"
     inkscape:current-layer="svg2966" />
  <linearGradient
     id="FrtLUyL4z5UE9nPYA_GzQa"
     x1="11.235"
     x2="42.721"
     y1="41.297"
     y2="-1.639"
     gradientTransform="matrix(0.9155598,0,0,-0.9155598,1.7066412,44.3528)"
     gradientUnits="userSpaceOnUse">
    <stop
       offset="0"
       stop-color="#21ad64"
       id="stop2935" />
    <stop
       offset="1"
       stop-color="#088242"
       id="stop2937" />
  </linearGradient>
  <path
     fill="url(#FrtLUyL4z5UE9nPYA_GzQa)"
     d="M 36.497914,38.960153 H 10.862239 C 8.8480076,38.960153 7.2,37.312145 7.2,35.297914 V 9.6622392 C 7.2,7.6480076 8.8480076,6 10.862239,6 h 25.635675 c 2.014231,0 3.662239,1.6480076 3.662239,3.6622392 V 35.297914 c 0,2.014231 -1.648008,3.662239 -3.662239,3.662239 z"
     id="path2940"
     style="fill:url(#FrtLUyL4z5UE9nPYA_GzQa);stroke-width:0.91556" />
  <path
     d="m 15.375949,24.311196 c -0.38362,0 -0.746181,-0.148321 -1.02268,-0.41658 L 10.525313,20.182021 C 10.15268,19.818544 9.9466794,19.334213 9.9466794,18.817837 c 0,-0.516376 0.2060006,-1.000707 0.5786336,-1.363268 l 3.827956,-3.714426 c 0.276499,-0.268259 0.639976,-0.415665 1.02268,-0.415665 0.81027,0 1.468558,0.650048 1.468558,1.449332 v 1.297348 h 4.31778 c 0.883515,0 1.60223,0.709559 1.60223,1.582087 v 2.3301 c 0,0.871613 -0.718715,1.581172 -1.60223,1.581172 h -4.31778 v 1.297348 c 0,0.411086 -0.167548,0.789212 -0.471513,1.065711 -0.272837,0.247202 -0.627159,0.38362 -0.997045,0.38362 z"
     opacity="0.05"
     id="path2942"
     style="stroke-width:0.91556" />
  <path
     d="m 15.375949,23.853416 c -0.262766,0 -0.513629,-0.101627 -0.704065,-0.28657 l -3.827956,-3.713511 c -0.282908,-0.275583 -0.439469,-0.643638 -0.439469,-1.035498 0,-0.391859 0.156561,-0.759914 0.439469,-1.034582 l 3.827956,-3.714426 c 0.190436,-0.184944 0.440384,-0.286571 0.704065,-0.286571 0.557576,0 1.010778,0.444962 1.010778,0.991552 v 1.755128 h 4.77556 c 0.630821,0 1.14445,0.504473 1.14445,1.124307 v 2.3301 c 0,0.619834 -0.513629,1.124307 -1.14445,1.124307 h -4.77556 v 1.755128 c 0,0.281077 -0.114445,0.539265 -0.321361,0.726955 -0.18769,0.169378 -0.43306,0.263681 -0.689417,0.263681 z"
     opacity="0.07"
     id="path2944"
     style="stroke-width:0.91556" />
  <path
     fill="#ffffff"
     d="m 15.928947,22.861865 v -2.212908 h 5.23334 c 0.379042,0 0.68667,-0.298473 0.68667,-0.666528 v -2.329184 c 0,-0.368055 -0.307628,-0.666527 -0.68667,-0.666527 h -5.23334 V 14.77381 c 0,-0.475176 -0.591451,-0.712306 -0.937533,-0.377211 l -3.82704,3.71351 c -0.401931,0.390029 -0.401931,1.023596 0,1.413625 l 3.82704,3.71351 c 0.346082,0.336926 0.937533,0.09888 0.937533,-0.375379 z"
     id="path2946"
     style="stroke-width:0.91556" />
  <path
     d="m 15.375949,36.213473 c -0.38362,0 -0.746181,-0.14832 -1.02268,-0.416579 L 10.525313,32.084299 C 10.15268,31.720821 9.9466794,31.23649 9.9466794,30.720115 c 0,-0.516376 0.2060006,-1.000707 0.5786336,-1.363269 l 3.827956,-3.714426 c 0.276499,-0.268259 0.639976,-0.415664 1.02268,-0.415664 0.81027,0 1.468558,0.650047 1.468558,1.449331 v 1.297348 h 4.31778 c 0.883515,0 1.60223,0.709559 1.60223,1.582088 v 2.330099 c 0,0.871613 -0.718715,1.581172 -1.60223,1.581172 h -4.31778 v 1.297348 c 0,0.411087 -0.167548,0.789213 -0.471513,1.065712 -0.272837,0.247201 -0.627159,0.383619 -0.997045,0.383619 z"
     opacity="0.05"
     id="path2948"
     style="stroke-width:0.91556" />
  <path
     d="m 15.375949,35.755694 c -0.262766,0 -0.513629,-0.101628 -0.704065,-0.286571 l -3.827956,-3.71351 c -0.282908,-0.275584 -0.439469,-0.643639 -0.439469,-1.035498 0,-0.39186 0.156561,-0.759915 0.439469,-1.034583 l 3.827956,-3.714426 c 0.190436,-0.184943 0.440384,-0.28657 0.704065,-0.28657 0.557576,0 1.010778,0.444962 1.010778,0.991551 v 1.755128 h 4.77556 c 0.630821,0 1.14445,0.504474 1.14445,1.124308 v 2.330099 c 0,0.619834 -0.513629,1.124308 -1.14445,1.124308 h -4.77556 v 1.755128 c 0,0.281077 -0.114445,0.539265 -0.321361,0.726954 -0.18769,0.169379 -0.43306,0.263682 -0.689417,0.263682 z"
     opacity="0.07"
     id="path2950"
     style="stroke-width:0.91556" />
  <path
     fill="#ffffff"
     d="m 15.928947,34.764142 v -2.212908 h 5.23334 c 0.379042,0 0.68667,-0.298472 0.68667,-0.666527 v -2.329184 c 0,-0.368055 -0.307628,-0.666528 -0.68667,-0.666528 h -5.23334 v -2.212908 c 0,-0.475176 -0.591451,-0.712306 -0.937533,-0.377211 l -3.82704,3.713511 c -0.401931,0.390028 -0.401931,1.023596 0,1.413624 l 3.82704,3.713511 c 0.346082,0.336926 0.937533,0.09888 0.937533,-0.37538 z"
     id="path2952"
     style="stroke-width:0.91556" />
  <path
     d="m 31.984204,31.635674 c -0.810271,0 -1.468558,-0.650047 -1.468558,-1.449331 v -1.297348 h -4.31778 c -0.883515,0 -1.60223,-0.709559 -1.60223,-1.582087 v -2.3301 c 0,-0.871613 0.718715,-1.581172 1.60223,-1.581172 h 4.31778 v -1.297348 c 0,-0.799284 0.659203,-1.449331 1.468558,-1.449331 0.383619,0 0.746181,0.14832 1.02268,0.41658 l 3.827956,3.712595 c 0.372632,0.363477 0.578633,0.847808 0.578633,1.364184 0,0.516375 -0.206001,1.000706 -0.578633,1.363268 l -3.827956,3.714426 c -0.276499,0.268259 -0.639976,0.415664 -1.02268,0.415664 z"
     opacity="0.05"
     id="path2954"
     style="stroke-width:0.91556" />
  <path
     d="m 31.984204,31.177895 c -0.557576,0 -1.010778,-0.444963 -1.010778,-0.991552 v -1.755128 h -4.77556 c -0.630821,0 -1.14445,-0.504473 -1.14445,-1.124307 v -2.3301 c 0,-0.619834 0.513629,-1.124307 1.14445,-1.124307 h 4.77556 v -1.755129 c 0,-0.547504 0.453202,-0.991551 1.010778,-0.991551 0.262765,0 0.513629,0.101627 0.704065,0.28657 l 3.827956,3.713511 c 0.283823,0.275583 0.439469,0.643638 0.439469,1.035498 0,0.39186 -0.156561,0.759915 -0.439469,1.034583 l -3.827956,3.714426 c -0.190436,0.185858 -0.4413,0.287486 -0.704065,0.287486 z"
     opacity="0.07"
     id="path2956"
     style="stroke-width:0.91556" />
  <path
     fill="#ffffff"
     d="m 31.431206,22.098288 v 2.212908 h -5.23334 c -0.379042,0 -0.68667,0.298473 -0.68667,0.666528 v 2.329184 c 0,0.368055 0.307628,0.666527 0.68667,0.666527 h 5.23334 v 2.212908 c 0,0.475176 0.591451,0.712306 0.937533,0.377211 l 3.82704,-3.713511 c 0.401931,-0.390028 0.401931,-1.023596 0,-1.413624 l -3.82704,-3.713511 c -0.346082,-0.336926 -0.937533,-0.09888 -0.937533,0.37538 z"
     id="path2958"
     style="stroke-width:0.91556" />
  <path
     d="m 31.984204,19.733397 c -0.810271,0 -1.468558,-0.650047 -1.468558,-1.449331 v -1.297348 h -4.31778 c -0.883515,0 -1.60223,-0.709559 -1.60223,-1.582088 v -2.330099 c 0,-0.871613 0.718715,-1.581172 1.60223,-1.581172 h 4.31778 v -1.297348 c 0,-0.7992841 0.659203,-1.4493316 1.468558,-1.4493316 0.383619,0 0.746181,0.1483207 1.02268,0.4165797 l 3.827956,3.7125949 c 0.372632,0.363477 0.578633,0.847808 0.578633,1.364184 0,0.516376 -0.206001,1.000707 -0.578633,1.363269 l -3.827956,3.714426 c -0.276499,0.268259 -0.639976,0.415664 -1.02268,0.415664 z"
     opacity="0.05"
     id="path2960"
     style="stroke-width:0.91556" />
  <path
     d="m 31.984204,19.275617 c -0.557576,0 -1.010778,-0.444962 -1.010778,-0.991551 v -1.755128 h -4.77556 c -0.630821,0 -1.14445,-0.504474 -1.14445,-1.124308 v -2.330099 c 0,-0.619834 0.513629,-1.124308 1.14445,-1.124308 h 4.77556 v -1.755128 c 0,-0.5475048 0.453202,-0.9915513 1.010778,-0.9915513 0.262765,0 0.513629,0.1016272 0.704065,0.2865703 l 3.827956,3.713511 c 0.283823,0.275583 0.439469,0.643638 0.439469,1.035498 0,0.391859 -0.156561,0.759914 -0.439469,1.034582 l -3.827956,3.714426 c -0.190436,0.185859 -0.4413,0.287486 -0.704065,0.287486 z"
     opacity="0.07"
     id="path2962"
     style="stroke-width:0.91556" />
  <path
     fill="#ffffff"
     d="m 31.431206,10.196011 v 2.212908 h -5.23334 c -0.379042,0 -0.68667,0.298472 -0.68667,0.666527 v 2.329184 c 0,0.368055 0.307628,0.666528 0.68667,0.666528 h 5.23334 v 2.212908 c 0,0.475175 0.591451,0.712305 0.937533,0.37721 l 3.82704,-3.71351 c 0.401931,-0.390029 0.401931,-1.023596 0,-1.413624 l -3.82704,-3.713511 c -0.346082,-0.336926 -0.937533,-0.09888 -0.937533,0.37538 z"
     id="path2964"
     style="stroke-width:0.91556" />
  <path
     fill="url(#yOIoQFQSxgltO8Uv2xJFsa)"
     d="M 41.896016,37.096662 H 27.170827 v 4.09033 c 0,0.451981 0.366083,0.818065 0.818066,0.818065 h 13.089058 c 0.45198,0 0.818065,-0.366084 0.818065,-0.818065 z"
     id="path3046"
     style="fill:url(#yOIoQFQSxgltO8Uv2xJFsa);stroke-width:0.409032" />
  <path
     fill="url(#yOIoQFQSxgltO8Uv2xJFsb)"
     d="m 29.11946,27.279868 h 10.827513 c 0.412306,0 0.760394,0.306774 0.811523,0.716215 l 1.131794,9.00691 c 0.05645,0.485522 -0.323545,0.911733 -0.812339,0.911733 H 27.988893 c -0.488795,0 -0.868786,-0.426211 -0.81275,-0.911733 l 1.131796,-9.00691 c 0.05154,-0.409441 0.399216,-0.716215 0.811521,-0.716215 z"
     id="path3053"
     style="fill:url(#yOIoQFQSxgltO8Uv2xJFsb);stroke-width:0.409032" />
  <path
     d="m 39.032785,39.141827 c 0.451982,0 0.818067,0.366084 0.818067,0.818066 0,0.451982 -0.366085,0.818066 -0.818067,0.818066 -0.451982,0 -0.818067,-0.366084 -0.818067,-0.818066 0,-0.451982 0.366085,-0.818066 0.818067,-0.818066 m 0,-0.409034 c -0.67654,0 -1.2271,0.550559 -1.2271,1.2271 0,0.67654 0.55056,1.227099 1.2271,1.227099 0.676541,0 1.227099,-0.550559 1.227099,-1.227099 0,-0.676541 -0.550558,-1.2271 -1.227099,-1.2271 z"
     opacity="0.05"
     id="path3055"
     style="stroke-width:0.409032" />
  <path
     d="m 39.032785,39.141827 c 0.451982,0 0.818067,0.366084 0.818067,0.818066 0,0.451982 -0.366085,0.818066 -0.818067,0.818066 -0.451982,0 -0.818067,-0.366084 -0.818067,-0.818066 0,-0.451982 0.366085,-0.818066 0.818067,-0.818066 m 0,-0.204517 c -0.564056,0 -1.022583,0.458526 -1.022583,1.022583 0,0.564056 0.458527,1.022582 1.022583,1.022582 0.564056,0 1.022582,-0.458526 1.022582,-1.022582 0,-0.564057 -0.458526,-1.022583 -1.022582,-1.022583 z"
     opacity="0.07"
     id="path3057"
     style="stroke-width:0.409032" />
  <circle
     cx="39.032791"
     cy="39.959896"
     r="0.81806612"
     fill="url(#yOIoQFQSxgltO8Uv2xJFsc)"
     id="circle3064"
     style="fill:url(#yOIoQFQSxgltO8Uv2xJFsc);stroke-width:0.409032" />
  <path
     d="m 34.533422,28.916 c 2.710661,0 4.908395,1.465155 4.908395,3.272265 0,1.807106 -2.197734,3.272264 -4.908395,3.272264 -2.710663,0 -4.908397,-1.465158 -4.908397,-3.272264 0,-1.80711 2.197734,-3.272265 4.908397,-3.272265 m 0,4.090331 c 0.903552,0 1.636131,-0.366084 1.636131,-0.818066 0,-0.451982 -0.732579,-0.818067 -1.636131,-0.818067 -0.903554,0 -1.636133,0.366085 -1.636133,0.818067 0,0.451982 0.732579,0.818066 1.636133,0.818066 m 0,-4.499365 c -2.931949,0 -5.317431,1.651269 -5.317431,3.681299 0,2.03003 2.385482,3.681298 5.317431,3.681298 2.931949,0 5.31743,-1.651268 5.31743,-3.681298 0,-2.03003 -2.385481,-3.681299 -5.31743,-3.681299 z m 0,4.090331 c -0.79189,0 -1.227098,-0.307183 -1.227098,-0.409032 0,-0.10185 0.435208,-0.409032 1.227098,-0.409032 0.791887,0 1.227097,0.307182 1.227097,0.409032 0,0.10185 -0.43521,0.409032 -1.227097,0.409032 z"
     opacity="0.05"
     id="path3066"
     style="stroke-width:0.409032" />
  <path
     d="m 34.533422,28.916 c 2.710661,0 4.908395,1.465155 4.908395,3.272265 0,1.807106 -2.197734,3.272264 -4.908395,3.272264 -2.710663,0 -4.908397,-1.465158 -4.908397,-3.272264 0,-1.80711 2.197734,-3.272265 4.908397,-3.272265 m 0,4.090331 c 0.903552,0 1.636131,-0.366084 1.636131,-0.818066 0,-0.451982 -0.732579,-0.818067 -1.636131,-0.818067 -0.903554,0 -1.636133,0.366085 -1.636133,0.818067 0,0.451982 0.732579,0.818066 1.636133,0.818066 m 0,-4.294848 c -2.819464,0 -5.112915,1.559643 -5.112915,3.476782 0,1.917137 2.293451,3.476782 5.112915,3.476782 2.819464,0 5.112912,-1.559645 5.112912,-3.476782 0,-1.917139 -2.293448,-3.476782 -5.112912,-3.476782 z m 0,4.090331 c -0.819293,0 -1.431616,-0.323954 -1.431616,-0.613549 0,-0.289595 0.612323,-0.61355 1.431616,-0.61355 0.819293,0 1.431616,0.323955 1.431616,0.61355 0,0.289595 -0.612323,0.613549 -1.431616,0.613549 z"
     opacity="0.07"
     id="path3068"
     style="stroke-width:0.409032" />
  <path
     fill="url(#yOIoQFQSxgltO8Uv2xJFsd)"
     d="m 34.533422,28.916 c -2.710663,0 -4.908397,1.465155 -4.908397,3.272265 0,1.807106 2.197734,3.272264 4.908397,3.272264 2.710661,0 4.908395,-1.465158 4.908395,-3.272264 0,-1.80711 -2.197734,-3.272265 -4.908395,-3.272265 z m 0,4.090331 c -0.903554,0 -1.636133,-0.366084 -1.636133,-0.818066 0,-0.451982 0.732579,-0.818067 1.636133,-0.818067 0.903552,0 1.636131,0.366085 1.636131,0.818067 0,0.451982 -0.732579,0.818066 -1.636131,0.818066 z"
     id="path3075"
     style="fill:url(#yOIoQFQSxgltO8Uv2xJFsd);stroke-width:0.409032" />
  <path
     d="m 37.73615,37.734753 -2.139243,-3.70584 c -0.220878,-0.384493 -0.621731,-0.613548 -1.063485,-0.613548 -0.441757,0 -0.842609,0.229055 -1.063487,0.613548 l -2.139242,3.70584 -0.106341,0.179973 h 0.47448 l 2.12697,-3.681297 c 0.155431,-0.274052 0.433574,-0.409032 0.707627,-0.409032 0.274053,0 0.552194,0.134977 0.707629,0.409032 l 2.126969,3.681297 h 0.47448 z"
     opacity="0.05"
     id="path3077"
     style="stroke-width:0.409032" />
  <path
     d="m 37.560266,37.837012 -2.139243,-3.70584 c -0.188155,-0.319046 -0.519472,-0.511292 -0.887601,-0.511292 -0.368131,0 -0.699448,0.192246 -0.887602,0.511292 l -2.139243,3.70584 -0.045,0.07772 h 0.237239 l 2.126973,-3.681299 c 0.15543,-0.274052 0.433575,-0.409033 0.707626,-0.409033 0.274053,0 0.552194,0.134978 0.707628,0.409033 l 2.126972,3.681299 h 0.237238 z"
     opacity="0.07"
     id="path3079"
     style="stroke-width:0.409032" />
  <path
     fill="url(#yOIoQFQSxgltO8Uv2xJFse)"
     d="m 33.824978,34.208069 -2.140064,3.706657 h 5.697012 l -2.140061,-3.706657 c -0.314954,-0.54565 -1.101934,-0.54565 -1.416887,0 z"
     id="path3086"
     style="fill:url(#yOIoQFQSxgltO8Uv2xJFse);stroke-width:0.409032" />
</svg>
