<svg xmlns="http://www.w3.org/2000/svg"  viewBox="0 0 48 48" width="240px" height="240px"><linearGradient id="0QFZDv4V3KsiA76X3TXnga" x1="23" x2="23" y1="247.275" y2="239.492" gradientTransform="matrix(1 0 0 -1 0 254)" gradientUnits="userSpaceOnUse"><stop offset="0" stop-color="#eba600"/><stop offset="1" stop-color="#c28200"/></linearGradient><path fill="url(#0QFZDv4V3KsiA76X3TXnga)" d="M24.414,10.414l-2.536-2.536C21.316,7.316,20.553,7,19.757,7H6C4.895,7,4,7.895,4,9v6.5L6,37	c0,1.105,0.895,2,2,2h32c1.105,0,2-0.895,2-2V14c0-1.105-0.895-2-2-2l-14.172-1C25.298,11,24.789,10.789,24.414,10.414z"/><linearGradient id="0QFZDv4V3KsiA76X3TXngb" x1="24" x2="24" y1="243.146" y2="213.017" gradientTransform="matrix(1 0 0 -1 0 254)" gradientUnits="userSpaceOnUse"><stop offset="0" stop-color="#ffd869"/><stop offset="1" stop-color="#fec52b"/></linearGradient><path fill="url(#0QFZDv4V3KsiA76X3TXngb)" d="M21.586,14.414l3.268-3.268C24.947,11.053,25.074,11,25.207,11H42c1.105,0,2,0.895,2,2v26	c0,1.105-0.895,2-2,2H6c-1.105,0-2-0.895-2-2V15.5C4,15.224,4.224,15,4.5,15h15.672C20.702,15,21.211,14.789,21.586,14.414z"/><linearGradient id="0QFZDv4V3KsiA76X3TXngc" x1="35.005" x2="35.005" y1="41" y2="29.093" gradientUnits="userSpaceOnUse"><stop offset="0" stop-color="#737b80"/><stop offset="1"/></linearGradient><path fill="url(#0QFZDv4V3KsiA76X3TXngc)" d="M45,29.64V41H25.01l0.01-2c0.02-0.37,0.08-0.65,0.18-0.91l2.84-7.19	c0.45-1.15,1.55-1.9,2.79-1.9h12.33C43.85,29,44.49,29.23,45,29.64z" opacity=".05"/><linearGradient id="0QFZDv4V3KsiA76X3TXngd" x1="35.255" x2="35.255" y1="41" y2="29.589" gradientUnits="userSpaceOnUse"><stop offset="0" stop-color="#737b80"/><stop offset="1"/></linearGradient><path fill="url(#0QFZDv4V3KsiA76X3TXngd)" d="M45,30.32V41H25.51l0.01-2c0.02-0.29,0.07-0.52,0.15-0.73l2.84-7.19	c0.37-0.96,1.29-1.58,2.32-1.58h12.33C43.88,29.5,44.55,29.81,45,30.32z" opacity=".07"/><linearGradient id="0QFZDv4V3KsiA76X3TXnge" x1="37" x2="37" y1="214.938" y2="205.625" gradientTransform="matrix(1 0 0 -1 0 254)" gradientUnits="userSpaceOnUse"><stop offset="0" stop-color="#c3cdd9"/><stop offset="1" stop-color="#9fa7b0"/></linearGradient><path fill="url(#0QFZDv4V3KsiA76X3TXnge)" d="M48,39H26v7c0,1.105,0.895,2,2,2h18c1.105,0,2-0.895,2-2V39z"/><linearGradient id="0QFZDv4V3KsiA76X3TXngf" x1="36.995" x2="36.995" y1="41" y2="30.085" gradientUnits="userSpaceOnUse"><stop offset="0" stop-color="#737b80"/><stop offset="1" stop-color="#575c61"/></linearGradient><path fill="url(#0QFZDv4V3KsiA76X3TXngf)" d="M46.127,41H27.863c-1.312,0-2.212-1.322-1.73-2.543l2.837-7.191	C29.272,30.502,30.01,30,30.831,30h12.328c0.821,0,1.559,0.502,1.86,1.266l2.837,7.191C48.338,39.678,47.439,41,46.127,41z"/><radialGradient id="0QFZDv4V3KsiA76X3TXngg" cx="42.5" cy="209.5" r="2.5" gradientTransform="matrix(1 0 0 -1 0 254)" gradientUnits="userSpaceOnUse"><stop offset="0"/><stop offset="1" stop-color="#a6a6a6" stop-opacity="0"/></radialGradient><circle cx="42.5" cy="44.5" r="2.5" fill="url(#0QFZDv4V3KsiA76X3TXngg)"/><linearGradient id="0QFZDv4V3KsiA76X3TXngh" x1="42.5" x2="42.5" y1="211.25" y2="207.995" gradientTransform="matrix(1 0 0 -1 0 254)" gradientUnits="userSpaceOnUse"><stop offset="0" stop-color="#75ff8a"/><stop offset="1" stop-color="#1ee446"/></linearGradient><circle cx="42.5" cy="44.5" r="1.5" fill="url(#0QFZDv4V3KsiA76X3TXngh)"/></svg>