<svg xmlns="http://www.w3.org/2000/svg"  viewBox="0 0 48 48" width="240px" height="240px"><path fill="#edbe00" d="M46,36H32V14h10.559c0.86,0,1.625,0.551,1.897,1.368L48,26v8C48,35.105,47.105,36,46,36"/><path fill="#586169" d="M45,36c0,2.761-2.238,5-5,5s-5-2.239-5-5s2.238-5,5-5S45,33.239,45,36"/><path fill="#999" d="M42,36c0,1.105-0.895,2-2,2s-2-0.895-2-2s0.895-2,2-2S42,34.895,42,36"/><path fill="#ad8b00" d="M44,25h-7c-0.552,0-1-0.448-1-1v-7c0-0.552,0.448-1,1-1h5c0.432,0,0.813,0.275,0.949,0.684l2,6	C44.982,22.786,45,22.893,45,23v1C45,24.552,44.552,25,44,25"/><linearGradient id="bMh17CYRL99m9PlPrFbFHa" x1="7.489" x2="27.83" y1="3.881" y2="35.015" gradientUnits="userSpaceOnUse"><stop offset="0" stop-color="#bd4ff4"/><stop offset=".587" stop-color="#a235ec"/><stop offset="1" stop-color="#8c20e5"/></linearGradient><path fill="url(#bMh17CYRL99m9PlPrFbFHa)" d="M30,7H1C0.448,7,0,7.448,0,8v0c0,0.552,0.448,1,1,1h5v4H2c-0.552,0-1,0.448-1,1v0	c0,0.552,0.448,1,1,1h4v4H3c-0.552,0-1,0.448-1,1v0c0,0.552,0.448,1,1,1h3v4H4c-0.552,0-1,0.448-1,1v0c0,0.552,0.448,1,1,1h2v7	c0,1.105,0.895,2,2,2h24V9C32,7.895,31.105,7,30,7z"/><linearGradient id="bMh17CYRL99m9PlPrFbFHb" x1="9.5" x2="9.5" y1="23" y2="21" gradientUnits="userSpaceOnUse"><stop offset="0" stop-color="#7819a2"/><stop offset="1" stop-color="#771aa9"/></linearGradient><path fill="url(#bMh17CYRL99m9PlPrFbFHb)" d="M12,23H6v-2h6c0.552,0,1,0.448,1,1v0C13,22.552,12.552,23,12,23z"/><linearGradient id="bMh17CYRL99m9PlPrFbFHc" x1="7.5" x2="7.5" y1="29" y2="27" gradientUnits="userSpaceOnUse"><stop offset="0" stop-color="#7819a2"/><stop offset="1" stop-color="#771aa9"/></linearGradient><path fill="url(#bMh17CYRL99m9PlPrFbFHc)" d="M8,29H6v-2h2c0.552,0,1,0.448,1,1v0C9,28.552,8.552,29,8,29z"/><linearGradient id="bMh17CYRL99m9PlPrFbFHd" x1="12" x2="12" y1="17" y2="15" gradientUnits="userSpaceOnUse"><stop offset="0" stop-color="#7819a2"/><stop offset="1" stop-color="#771aa9"/></linearGradient><path fill="url(#bMh17CYRL99m9PlPrFbFHd)" d="M17,17H6v-2h11c0.552,0,1,0.448,1,1v0C18,16.552,17.552,17,17,17z"/><linearGradient id="bMh17CYRL99m9PlPrFbFHe" x1="14" x2="14" y1="11" y2="9" gradientUnits="userSpaceOnUse"><stop offset="0" stop-color="#7819a2"/><stop offset="1" stop-color="#771aa9"/></linearGradient><path fill="url(#bMh17CYRL99m9PlPrFbFHe)" d="M21,11H6V9h15c0.552,0,1,0.448,1,1v0C22,10.552,21.552,11,21,11z"/><path fill="#586169" d="M21,36c0,2.761-2.239,5-5,5s-5-2.239-5-5s2.239-5,5-5S21,33.239,21,36"/><path fill="#999" d="M18,36c0,1.105-0.895,2-2,2s-2-0.895-2-2s0.895-2,2-2S18,34.895,18,36"/></svg>