<svg xmlns="http://www.w3.org/2000/svg"  viewBox="0 0 48 48" width="240px" height="240px"><linearGradient id="BJ7PJpP_dxRTT6N0zfZroa" x1="18.229" x2="29.223" y1="4.978" y2="41.216" gradientUnits="userSpaceOnUse"><stop offset="0" stop-color="#0077d2"/><stop offset="1" stop-color="#0b59a2"/></linearGradient><path fill="url(#BJ7PJpP_dxRTT6N0zfZroa)" d="M40,42H8c-1.1,0-2-0.9-2-2V8c0-1.1,0.9-2,2-2h32c1.1,0,2,0.9,2,2v32C42,41.1,41.1,42,40,42z"/><path d="M38.521,20.519c-0.169-0.864-0.921-1.511-1.802-1.513c-0.934-0.002-1.603-0.173-2.262-1.316 c-0.644-1.115-0.457-1.785-0.02-2.606c0.398-0.746,0.217-1.684-0.42-2.24c-1.4-1.221-3.22-2.428-5.62-3.188 c-0.801-0.254-1.702,0.044-2.154,0.753c-0.491,0.769-0.964,1.243-2.243,1.243s-1.751-0.474-2.243-1.243 c-0.461-0.722-1.339-1.052-2.153-0.786c-1.921,0.628-4.062,1.887-5.584,3.169c-0.664,0.559-0.873,1.514-0.463,2.28 c0.442,0.826,0.633,1.497-0.014,2.617c-0.66,1.143-1.328,1.314-2.262,1.316c-0.88,0.002-1.633,0.649-1.802,1.513 C9.238,21.753,9,23.236,9,24.06c0,0.578,0.149,1.741,0.305,2.777c0.141,0.936,0.963,1.627,1.909,1.596 c0.937-0.031,1.633,0.132,2.292,1.273c0.736,1.274,0.46,2.026-0.144,2.94c-0.512,0.776-0.378,1.81,0.308,2.437 c1.564,1.427,3.688,2.533,5.576,3.224c0.899,0.329,1.928-0.042,2.347-0.903c0.475-0.978,1-1.601,2.459-1.601 c1.444,0,1.923,0.611,2.363,1.571c0.407,0.889,1.454,1.267,2.372,0.932c1.77-0.645,3.617-1.658,5.468-3.296 c0.705-0.624,0.817-1.682,0.297-2.467c-0.56-0.846-0.8-1.558-0.096-2.778c0.669-1.159,1.393-1.336,2.363-1.316 c0.933,0.019,1.733-0.673,1.873-1.596C38.85,25.813,39,24.641,39,24.06C39,23.236,38.762,21.753,38.521,20.519z" opacity=".05"/><path d="M37.56,20.673c-0.085-0.407-0.435-0.702-0.85-0.728c-1.329-0.083-2.35-0.425-3.119-1.756 c-0.74-1.281-0.55-2.315-0.02-3.485c0.165-0.364,0.085-0.8-0.214-1.066c-1.368-1.213-3.111-2.357-5.346-3.022 c-0.37-0.11-0.777,0.039-1.005,0.35c-0.751,1.026-1.539,1.684-3.006,1.684c-1.475,0-2.263-0.665-3.017-1.699 c-0.222-0.305-0.612-0.458-0.975-0.353c-1.883,0.544-3.958,1.765-5.381,3.04c-0.294,0.263-0.366,0.696-0.203,1.055 c0.534,1.174,0.727,2.211-0.015,3.496c-0.768,1.331-1.79,1.673-3.119,1.756c-0.415,0.026-0.765,0.321-0.85,0.728 C10.219,21.739,10,23.13,10,24.056c0,0.672,0.14,1.793,0.278,2.672c0.069,0.442,0.444,0.767,0.891,0.781 c1.363,0.044,2.436,0.365,3.222,1.726c0.833,1.443,0.541,2.615-0.197,3.882c-0.205,0.352-0.165,0.81,0.125,1.097 c1.444,1.426,3.49,2.515,5.324,3.149c0.43,0.149,0.903-0.026,1.125-0.423c0.715-1.281,1.59-2.137,3.259-2.137 c1.668,0,2.505,0.855,3.208,2.134c0.221,0.401,0.699,0.574,1.132,0.426c1.775-0.607,3.556-1.583,5.254-3.143 c0.316-0.29,0.377-0.773,0.161-1.144c-0.724-1.245-1.014-2.385-0.19-3.811c0.786-1.362,1.874-1.703,3.244-1.753 c0.445-0.016,0.818-0.341,0.887-0.781C37.86,25.851,38,24.729,38,24.056C38,23.13,37.781,21.739,37.56,20.673z" opacity=".07"/><linearGradient id="BJ7PJpP_dxRTT6N0zfZrob" x1="29.208" x2="18.723" y1="29.26" y2="18.774" gradientUnits="userSpaceOnUse"><stop offset="0" stop-color="#fff"/><stop offset=".242" stop-color="#f2f2f2"/><stop offset="1" stop-color="#ccc"/></linearGradient><circle cx="24" cy="24.052" r="7.475" fill="url(#BJ7PJpP_dxRTT6N0zfZrob)"/><linearGradient id="BJ7PJpP_dxRTT6N0zfZroc" x1="19.742" x2="27.211" y1="19.794" y2="27.263" gradientUnits="userSpaceOnUse"><stop offset="0" stop-color="#0d61a9"/><stop offset=".363" stop-color="#0e5fa4"/><stop offset=".78" stop-color="#135796"/><stop offset="1" stop-color="#16528c"/></linearGradient><circle cx="24" cy="24.052" r="4.55" fill="url(#BJ7PJpP_dxRTT6N0zfZroc)"/><linearGradient id="BJ7PJpP_dxRTT6N0zfZrod" x1="11.862" x2="33.153" y1="11.925" y2="33.217" gradientUnits="userSpaceOnUse"><stop offset="0" stop-color="#b1bbc4"/><stop offset=".28" stop-color="#adb7c1"/><stop offset=".566" stop-color="#a1adb8"/><stop offset=".854" stop-color="#8c9ba8"/><stop offset="1" stop-color="#7f909e"/></linearGradient><path fill="url(#BJ7PJpP_dxRTT6N0zfZrod)" d="M36.614,20.96c-1.553-0.019-3.056-0.828-3.889-2.27c-0.802-1.388-0.785-3.022-0.105-4.35 c-1.381-1.227-3.017-2.17-4.829-2.722c-0.815,1.226-2.208,2.035-3.79,2.035s-2.975-0.809-3.79-2.035 c-1.812,0.552-3.448,1.495-4.829,2.722c0.68,1.328,0.696,2.962-0.105,4.35c-0.833,1.442-2.336,2.251-3.889,2.27 C11.143,21.953,11,22.984,11,24.052c0,0.834,0.086,1.648,0.236,2.439c1.605-0.033,3.179,0.785,4.038,2.274 c0.889,1.541,0.771,3.383-0.143,4.775c1.353,1.266,2.973,2.246,4.771,2.844c0.735-1.526,2.291-2.581,4.097-2.581 s3.362,1.055,4.097,2.581c1.799-0.597,3.418-1.578,4.771-2.844c-0.914-1.392-1.032-3.234-0.143-4.775 c0.859-1.489,2.433-2.307,4.038-2.274C36.914,25.7,37,24.886,37,24.052C37,22.984,36.857,21.953,36.614,20.96z M24,30.877 c-3.769,0-6.825-3.056-6.825-6.825c0-3.769,3.056-6.825,6.825-6.825s6.825,3.056,6.825,6.825 C30.825,27.821,27.769,30.877,24,30.877z"/></svg>