<svg xmlns="http://www.w3.org/2000/svg"  viewBox="0 0 48 48" width="240px" height="240px"><linearGradient id="5W~O5nGU7nOUp6vx_KxUVa" x1="24" x2="24" y1="5.834" y2="42.755" gradientUnits="userSpaceOnUse"><stop offset="0" stop-color="#fede00"/><stop offset="1" stop-color="#ffd000"/></linearGradient><path fill="url(#5W~O5nGU7nOUp6vx_KxUVa)" d="M24,40.869V28h-9.198c-1.308,0-2.176-1.356-1.628-2.544L21.85,6.659	C22.356,5.562,24,5.923,24,7.131V20h9.198c1.308,0,2.176,1.356,1.628,2.544L26.15,41.341C25.644,42.438,24,42.077,24,40.869z"/><line x1="43" x2="40" y1="24" y2="24" fill="none" stroke="#e36001" stroke-linecap="round" stroke-linejoin="round" stroke-miterlimit="10" stroke-width="2"/><line x1="8" x2="5" y1="24" y2="24" fill="none" stroke="#e36001" stroke-linecap="round" stroke-linejoin="round" stroke-miterlimit="10" stroke-width="2"/><line x1="37.435" x2="35.314" y1="10.565" y2="12.686" fill="none" stroke="#e36001" stroke-linecap="round" stroke-linejoin="round" stroke-miterlimit="10" stroke-width="2"/><line x1="12.686" x2="10.565" y1="35.314" y2="37.435" fill="none" stroke="#e36001" stroke-linecap="round" stroke-linejoin="round" stroke-miterlimit="10" stroke-width="2"/><line x1="37.435" x2="35.314" y1="37.435" y2="35.314" fill="none" stroke="#e36001" stroke-linecap="round" stroke-linejoin="round" stroke-miterlimit="10" stroke-width="2"/><line x1="12.686" x2="10.565" y1="12.686" y2="10.565" fill="none" stroke="#e36001" stroke-linecap="round" stroke-linejoin="round" stroke-miterlimit="10" stroke-width="2"/></svg>