<svg xmlns="http://www.w3.org/2000/svg"  viewBox="0 0 48 48" width="240px" height="240px"><radialGradient id="JbJPDQpzlQgFl0pQhERgYa" cx="232.47" cy="544.051" r="86.245" gradientTransform="matrix(.8571 0 0 -1.0782 -150.815 667.5)" gradientUnits="userSpaceOnUse"><stop offset=".323" stop-color="#23d9d6"/><stop offset=".427" stop-color="#23d4d7"/><stop offset=".542" stop-color="#21c7dc"/><stop offset=".664" stop-color="#1fb0e2"/><stop offset=".789" stop-color="#1c91ec"/><stop offset=".917" stop-color="#1969f8"/><stop offset=".944" stop-color="#1860fb"/></radialGradient><path fill="url(#JbJPDQpzlQgFl0pQhERgYa)" d="M8,6h32c1.105,0,2,0.895,2,2v32c0,1.105-0.895,2-2,2H8c-1.105,0-2-0.895-2-2V8	C6,6.895,6.895,6,8,6z"/><path fill="#184f85" d="M42,40v-4H6v4c0,1.105,0.895,2,2,2h32C41.105,42,42,41.105,42,40z"/><path d="M8.5,41C7.673,41,7,40.327,7,39.5v-1C7,37.673,7.673,37,8.5,37h1	c0.827,0,1.5,0.673,1.5,1.5v1c0,0.827-0.673,1.5-1.5,1.5H8.5z" opacity=".05"/><path d="M8.5,40.5c-0.551,0-1-0.449-1-1v-1c0-0.551,0.449-1,1-1h1	c0.551,0,1,0.449,1,1v1c0,0.551-0.449,1-1,1H8.5z" opacity=".07"/><path fill="#fff" d="M9.5,40h-1C8.224,40,8,39.776,8,39.5v-1C8,38.224,8.224,38,8.5,38h1c0.276,0,0.5,0.224,0.5,0.5v1	C10,39.776,9.776,40,9.5,40z"/><path d="M10.5,15C9.673,15,9,14.327,9,13.5v-3C9,9.673,9.673,9,10.5,9h3	c0.827,0,1.5,0.673,1.5,1.5v3c0,0.827-0.673,1.5-1.5,1.5H10.5z" opacity=".05"/><path d="M10.5,14.5c-0.551,0-1-0.449-1-1v-3c0-0.551,0.449-1,1-1h3	c0.551,0,1,0.449,1,1v3c0,0.551-0.449,1-1,1H10.5z" opacity=".07"/><path fill="#fff" d="M13.5,14h-3c-0.276,0-0.5-0.224-0.5-0.5v-3c0-0.276,0.224-0.5,0.5-0.5h3c0.276,0,0.5,0.224,0.5,0.5v3	C14,13.776,13.776,14,13.5,14z"/><path d="M10.5,23C9.673,23,9,22.327,9,21.5v-3c0-0.827,0.673-1.5,1.5-1.5h3	c0.827,0,1.5,0.673,1.5,1.5v3c0,0.827-0.673,1.5-1.5,1.5H10.5z" opacity=".05"/><path d="M10.5,22.5c-0.551,0-1-0.449-1-1v-3c0-0.551,0.449-1,1-1h3	c0.551,0,1,0.449,1,1v3c0,0.551-0.449,1-1,1H10.5z" opacity=".07"/><path fill="#fff" d="M13.5,22h-3c-0.276,0-0.5-0.224-0.5-0.5v-3c0-0.276,0.224-0.5,0.5-0.5h3c0.276,0,0.5,0.224,0.5,0.5v3	C14,21.776,13.776,22,13.5,22z"/></svg>