<svg xmlns="http://www.w3.org/2000/svg"  viewBox="0 0 48 48" width="240px" height="240px"><linearGradient id="Lg5oDFfBe9GBWmpogOGYxa" x1="24" x2="24" y1="41.471" y2="35.867" gradientUnits="userSpaceOnUse"><stop offset="0" stop-color="#0d61a9"/><stop offset="1" stop-color="#16528c"/></linearGradient><rect width="34" height="5" x="7" y="34" fill="url(#Lg5oDFfBe9GBWmpogOGYxa)"/><linearGradient id="Lg5oDFfBe9GBWmpogOGYxb" x1="24" x2="24" y1="9.441" y2="41.23" gradientUnits="userSpaceOnUse"><stop offset="0" stop-color="#199ae0"/><stop offset="1" stop-color="#0782d8"/></linearGradient><path fill="url(#Lg5oDFfBe9GBWmpogOGYxb)" d="M42,10H6c-1.1,0-2,0.89-2,2v11v1v13c0,1.1,0.9,2,2,2h2.048c0.602,0,1.172-0.271,1.552-0.739	l1.449-1.784c0.76-0.935,1.9-1.478,3.104-1.478h19.692c1.204,0,2.345,0.543,3.104,1.478l1.449,1.784	C38.779,38.729,39.35,39,39.952,39H42c1.1,0,2-0.9,2-2V24v-1V12C44,10.89,43.1,10,42,10z"/><linearGradient id="Lg5oDFfBe9GBWmpogOGYxc" x1="24" x2="24" y1="19.191" y2="32.875" gradientUnits="userSpaceOnUse"><stop offset="0" stop-color="#f9f9f9"/><stop offset=".276" stop-color="#eff0f1"/><stop offset=".746" stop-color="#d3d8da"/><stop offset="1" stop-color="#c2c8cc"/></linearGradient><path fill="url(#Lg5oDFfBe9GBWmpogOGYxc)" d="M28,25c0,1.54,0.58,2.94,1.54,4H18.46c0.96-1.06,1.54-2.46,1.54-4c0-1.54-0.58-2.94-1.54-4	h11.08C28.58,22.06,28,23.46,28,25z"/><linearGradient id="Lg5oDFfBe9GBWmpogOGYxd" x1="14.5" x2="14.5" y1="19.677" y2="33.049" gradientUnits="userSpaceOnUse"><stop offset="0" stop-color="#4c4c4c"/><stop offset="1" stop-color="#343434"/></linearGradient><path fill="url(#Lg5oDFfBe9GBWmpogOGYxd)" d="M20,25c0,1.54-0.58,2.94-1.54,4H13c-2.21,0-4-1.79-4-4c0-1.1,0.45-2.1,1.17-2.83	C10.9,21.45,11.9,21,13,21h5.46C19.42,22.06,20,23.46,20,25z"/><circle cx="14" cy="25" r="2" fill="#fff"/><linearGradient id="Lg5oDFfBe9GBWmpogOGYxe" x1="33.5" x2="33.5" y1="19.677" y2="33.049" gradientUnits="userSpaceOnUse"><stop offset="0" stop-color="#4c4c4c"/><stop offset="1" stop-color="#343434"/></linearGradient><path fill="url(#Lg5oDFfBe9GBWmpogOGYxe)" d="M28,25c0,1.54,0.58,2.94,1.54,4H35c2.21,0,4-1.79,4-4c0-1.1-0.45-2.1-1.17-2.83	C37.1,21.45,36.1,21,35,21h-5.46C28.58,22.06,28,23.46,28,25z"/><circle cx="34" cy="25" r="2" fill="#fff"/><path fill="#35c1f1" d="M31.5,17h-15c-0.276,0-0.5-0.224-0.5-0.5v-3c0-0.276,0.224-0.5,0.5-0.5h15c0.276,0,0.5,0.224,0.5,0.5	v3C32,16.776,31.776,17,31.5,17z"/></svg>