<svg xmlns="http://www.w3.org/2000/svg" xmlns:xlink="http://www.w3.org/1999/xlink" viewBox="0 0 48 48" width="240px" height="240px"><defs><linearGradient id="rP5at6yUpAwoose19w14ra" x1="7" x2="11" y1="24.5" y2="24.5" data-name="Безымянный градиент 155" gradientTransform="rotate(-180 9 24.5)" gradientUnits="userSpaceOnUse"><stop offset="0" stop-color="#3079d6"/><stop offset="1" stop-color="#297cd2"/></linearGradient><linearGradient id="rP5at6yUpAwoose19w14rb" x1="37" x2="41" y1="24.5" y2="24.5" gradientTransform="rotate(-180 39 24.5)" xlink:href="#rP5at6yUpAwoose19w14ra"/><linearGradient id="rP5at6yUpAwoose19w14rc" x1="22" x2="26" y1="24.5" y2="24.5" gradientTransform="rotate(-180 24 24.5)" xlink:href="#rP5at6yUpAwoose19w14ra"/></defs><rect width="30" height="3" x="9" y="39" fill="#35c1f1" transform="rotate(180 24 40.5)"/><rect width="30" height="3" x="9" y="31" fill="#35c1f1" transform="rotate(180 24 32.5)"/><rect width="30" height="3" x="9" y="23" fill="#35c1f1" transform="rotate(180 24 24.5)"/><rect width="30" height="3" x="9" y="15" fill="#35c1f1" transform="rotate(180 24 16.5)"/><rect width="30" height="3" x="9" y="7" fill="#35c1f1" transform="rotate(180 24 8.5)"/><rect width="4" height="39" x="7" y="5" fill="url(#rP5at6yUpAwoose19w14ra)" rx=".5" transform="rotate(180 9 24.5)"/><rect width="4" height="39" x="37" y="5" fill="url(#rP5at6yUpAwoose19w14rb)" rx=".5" transform="rotate(180 39 24.5)"/><rect width="4" height="39" x="22" y="5" fill="url(#rP5at6yUpAwoose19w14rc)" rx=".5" transform="rotate(180 24 24.5)"/><rect width="3" height="1" x="10" y="8" opacity=".05" transform="rotate(-90 11.5 8.5)"/><rect width="3" height=".5" x="9.75" y="8.25" opacity=".07" transform="rotate(-90 11.25 8.5)"/><rect width="3" height="1" x="10" y="16" opacity=".05" transform="rotate(-90 11.5 16.5)"/><rect width="3" height=".5" x="9.75" y="16.25" opacity=".07" transform="rotate(-90 11.25 16.5)"/><rect width="3" height="1" x="10" y="24" opacity=".05" transform="rotate(-90 11.5 24.5)"/><rect width="3" height=".5" x="9.75" y="24.25" opacity=".07" transform="rotate(-90 11.25 24.5)"/><g><rect width="3" height="1" x="10" y="32" opacity=".05" transform="rotate(-90 11.5 32.5)"/><rect width="3" height=".5" x="9.75" y="32.25" opacity=".07" transform="rotate(-90 11.25 32.5)"/></g><g><rect width="3" height="1" x="10" y="40" opacity=".05" transform="rotate(-90 11.5 40.5)"/><rect width="3" height=".5" x="9.75" y="40.25" opacity=".07" transform="rotate(-90 11.25 40.5)"/></g><g><rect width="3" height="1" x="25" y="8" opacity=".05" transform="rotate(-90 26.5 8.5)"/><rect width="3" height=".5" x="24.75" y="8.25" opacity=".07" transform="rotate(-90 26.25 8.5)"/><rect width="3" height="1" x="25" y="16" opacity=".05" transform="rotate(-90 26.5 16.5)"/><rect width="3" height=".5" x="24.75" y="16.25" opacity=".07" transform="rotate(-90 26.25 16.5)"/><rect width="3" height="1" x="25" y="24" opacity=".05" transform="rotate(-90 26.5 24.5)"/><rect width="3" height=".5" x="24.75" y="24.25" opacity=".07" transform="rotate(-90 26.25 24.5)"/><g><rect width="3" height="1" x="25" y="32" opacity=".05" transform="rotate(-90 26.5 32.5)"/><rect width="3" height=".5" x="24.75" y="32.25" opacity=".07" transform="rotate(-90 26.25 32.5)"/></g><g><rect width="3" height="1" x="25" y="40" opacity=".05" transform="rotate(-90 26.5 40.5)"/><rect width="3" height=".5" x="24.75" y="40.25" opacity=".07" transform="rotate(-90 26.25 40.5)"/></g></g><g><rect width="3" height="1" x="35" y="8" opacity=".05" transform="rotate(-90 36.5 8.5)"/><rect width="3" height=".5" x="35.25" y="8.25" opacity=".07" transform="rotate(-90 36.75 8.5)"/><rect width="3" height="1" x="35" y="16" opacity=".05" transform="rotate(-90 36.5 16.5)"/><rect width="3" height=".5" x="35.25" y="16.25" opacity=".07" transform="rotate(-90 36.75 16.5)"/><rect width="3" height="1" x="35" y="24" opacity=".05" transform="rotate(-90 36.5 24.5)"/><rect width="3" height=".5" x="35.25" y="24.25" opacity=".07" transform="rotate(-90 36.75 24.5)"/><g><rect width="3" height="1" x="35" y="32" opacity=".05" transform="rotate(-90 36.5 32.5)"/><rect width="3" height=".5" x="35.25" y="32.25" opacity=".07" transform="rotate(-90 36.75 32.5)"/></g><g><rect width="3" height="1" x="35" y="40" opacity=".05" transform="rotate(-90 36.5 40.5)"/><rect width="3" height=".5" x="35.25" y="40.25" opacity=".07" transform="rotate(-90 36.75 40.5)"/></g></g><g><rect width="3" height="1" x="20" y="8" opacity=".05" transform="rotate(-90 21.5 8.5)"/><rect width="3" height=".5" x="20.25" y="8.25" opacity=".07" transform="rotate(-90 21.75 8.5)"/><rect width="3" height="1" x="20" y="16" opacity=".05" transform="rotate(-90 21.5 16.5)"/><rect width="3" height=".5" x="20.25" y="16.25" opacity=".07" transform="rotate(-90 21.75 16.5)"/><rect width="3" height="1" x="20" y="24" opacity=".05" transform="rotate(-90 21.5 24.5)"/><rect width="3" height=".5" x="20.25" y="24.25" opacity=".07" transform="rotate(-90 21.75 24.5)"/><g><rect width="3" height="1" x="20" y="32" opacity=".05" transform="rotate(-90 21.5 32.5)"/><rect width="3" height=".5" x="20.25" y="32.25" opacity=".07" transform="rotate(-90 21.75 32.5)"/></g><g><rect width="3" height="1" x="20" y="40" opacity=".05" transform="rotate(-90 21.5 40.5)"/><rect width="3" height=".5" x="20.25" y="40.25" opacity=".07" transform="rotate(-90 21.75 40.5)"/></g></g></svg>