<svg xmlns="http://www.w3.org/2000/svg" xmlns:xlink="http://www.w3.org/1999/xlink" viewBox="0 0 48 48" width="240px" height="240px"><defs><linearGradient id="i_MajzVJ3zEzh1JeMh4MWh" x1="4" x2="8.967" y1="30" y2="30" gradientTransform="rotate(-90 7.5 30)" xlink:href="#i_MajzVJ3zEzh1JeMh4MWa"/><linearGradient id="i_MajzVJ3zEzh1JeMh4MWa" x1="24" x2="24" y1="4.087" y2="8.067" data-name="Безымянный градиент 129" gradientUnits="userSpaceOnUse"><stop offset="0" stop-color="#ffd869"/><stop offset="1" stop-color="#fec52b"/></linearGradient><linearGradient id="i_MajzVJ3zEzh1JeMh4MWc" x1="18" x2="18" y1="4.087" y2="8.067" xlink:href="#i_MajzVJ3zEzh1JeMh4MWa"/><linearGradient id="i_MajzVJ3zEzh1JeMh4MWd" x2="24" y1="44.13" y2="39.232" xlink:href="#i_MajzVJ3zEzh1JeMh4MWa"/><linearGradient id="i_MajzVJ3zEzh1JeMh4MWe" x1="30" x2="30" y1="44.13" y2="39.232" xlink:href="#i_MajzVJ3zEzh1JeMh4MWa"/><linearGradient id="i_MajzVJ3zEzh1JeMh4MWf" x1="18" x2="18" y1="44.13" y2="39.232" xlink:href="#i_MajzVJ3zEzh1JeMh4MWa"/><linearGradient id="i_MajzVJ3zEzh1JeMh4MWg" x1="4" x2="8.967" y1="24.25" y2="24.25" gradientTransform="rotate(-90 7.5 24.25)" xlink:href="#i_MajzVJ3zEzh1JeMh4MWa"/><linearGradient id="i_MajzVJ3zEzh1JeMh4MWb" x1="30" x2="30" y1="4.087" y2="8.067" xlink:href="#i_MajzVJ3zEzh1JeMh4MWa"/><linearGradient id="i_MajzVJ3zEzh1JeMh4MWi" x1="4" x2="8.967" y1="18" y2="18" gradientTransform="rotate(-90 7.5 18)" xlink:href="#i_MajzVJ3zEzh1JeMh4MWa"/><linearGradient id="i_MajzVJ3zEzh1JeMh4MWj" x1="44.109" x2="38.842" y1="24" y2="24" gradientTransform="rotate(-90 40.5 24)" xlink:href="#i_MajzVJ3zEzh1JeMh4MWa"/><linearGradient id="i_MajzVJ3zEzh1JeMh4MWk" x1="44.109" x2="38.842" y1="30" y2="30" gradientTransform="rotate(-90 40.5 30)" xlink:href="#i_MajzVJ3zEzh1JeMh4MWa"/><linearGradient id="i_MajzVJ3zEzh1JeMh4MWl" x1="44.109" x2="38.842" y1="18" y2="18" gradientTransform="rotate(-90 40.5 18)" xlink:href="#i_MajzVJ3zEzh1JeMh4MWa"/><linearGradient id="i_MajzVJ3zEzh1JeMh4MWm" x1="14.535" x2="34.765" y1="-2.005" y2="53.577" data-name="Безымянный градиент 100" gradientUnits="userSpaceOnUse"><stop offset="0" stop-color="#21ad64"/><stop offset="1" stop-color="#088242"/></linearGradient><linearGradient id="i_MajzVJ3zEzh1JeMh4MWn" x1="24" x2="24" y1="7.087" y2="27.416" data-name="Безымянный градиент 4" gradientUnits="userSpaceOnUse"><stop offset="0" stop-color="#6d6d6d"/><stop offset=".126" stop-color="#626262"/><stop offset=".987" stop-color="#464646"/><stop offset=".998" stop-color="#454545"/></linearGradient></defs><path fill="url(#i_MajzVJ3zEzh1JeMh4MWa)" d="M24,4h0a1,1,0,0,1,1,1v6a0,0,0,0,1,0,0H23a0,0,0,0,1,0,0V5A1,1,0,0,1,24,4Z"/><path fill="url(#i_MajzVJ3zEzh1JeMh4MWb)" d="M30,4h0a1,1,0,0,1,1,1v6a0,0,0,0,1,0,0H29a0,0,0,0,1,0,0V5A1,1,0,0,1,30,4Z"/><path fill="url(#i_MajzVJ3zEzh1JeMh4MWc)" d="M18,4h0a1,1,0,0,1,1,1v6a0,0,0,0,1,0,0H17a0,0,0,0,1,0,0V5A1,1,0,0,1,18,4Z"/><path fill="url(#i_MajzVJ3zEzh1JeMh4MWd)" d="M23,37h2a0,0,0,0,1,0,0v6a1,1,0,0,1-1,1h0a1,1,0,0,1-1-1V37A0,0,0,0,1,23,37Z"/><path fill="url(#i_MajzVJ3zEzh1JeMh4MWe)" d="M29,37h2a0,0,0,0,1,0,0v6a1,1,0,0,1-1,1h0a1,1,0,0,1-1-1V37A0,0,0,0,1,29,37Z"/><path fill="url(#i_MajzVJ3zEzh1JeMh4MWf)" d="M17,37h2a0,0,0,0,1,0,0v6a1,1,0,0,1-1,1h0a1,1,0,0,1-1-1V37A0,0,0,0,1,17,37Z"/><path fill="url(#i_MajzVJ3zEzh1JeMh4MWg)" d="M6.5,20.75h2a0,0,0,0,1,0,0v6a1,1,0,0,1-1,1h0a1,1,0,0,1-1-1v-6A0,0,0,0,1,6.5,20.75Z" transform="rotate(90 7.5 24.25)"/><path fill="url(#i_MajzVJ3zEzh1JeMh4MWh)" d="M6.5,26.5h2a0,0,0,0,1,0,0v6a1,1,0,0,1-1,1h0a1,1,0,0,1-1-1v-6a0,0,0,0,1,0,0Z" transform="rotate(90 7.5 30)"/><path fill="url(#i_MajzVJ3zEzh1JeMh4MWi)" d="M6.5,14.5h2a0,0,0,0,1,0,0v6a1,1,0,0,1-1,1h0a1,1,0,0,1-1-1v-6a0,0,0,0,1,0,0Z" transform="rotate(90 7.5 18)"/><path fill="url(#i_MajzVJ3zEzh1JeMh4MWj)" d="M40.5,20.5h0a1,1,0,0,1,1,1v6a0,0,0,0,1,0,0h-2a0,0,0,0,1,0,0v-6A1,1,0,0,1,40.5,20.5Z" transform="rotate(90 40.5 24)"/><path fill="url(#i_MajzVJ3zEzh1JeMh4MWk)" d="M40.5,26.5h0a1,1,0,0,1,1,1v6a0,0,0,0,1,0,0h-2a0,0,0,0,1,0,0v-6A1,1,0,0,1,40.5,26.5Z" transform="rotate(90 40.5 30)"/><path fill="url(#i_MajzVJ3zEzh1JeMh4MWl)" d="M40.5,14.5h0a1,1,0,0,1,1,1v6a0,0,0,0,1,0,0h-2a0,0,0,0,1,0,0v-6A1,1,0,0,1,40.5,14.5Z" transform="rotate(90 40.5 18)"/><rect width="32" height="32" x="8" y="8" fill="url(#i_MajzVJ3zEzh1JeMh4MWm)" rx="2"/><path d="M31,17a2,2,0,0,1,2,2V29a2,2,0,0,1-2,2H17a2,2,0,0,1-2-2V19a2,2,0,0,1,2-2H31m0-1H17a3.00339,3.00339,0,0,0-3,3V29a3.00339,3.00339,0,0,0,3,3H31a3.00339,3.00339,0,0,0,3-3V19a3.00339,3.00339,0,0,0-3-3Z" opacity=".05"/><path d="M31,17a2,2,0,0,1,2,2V29a2,2,0,0,1-2,2H17a2,2,0,0,1-2-2V19a2,2,0,0,1,2-2H31m0-.5H17A2.50284,2.50284,0,0,0,14.5,19V29A2.50284,2.50284,0,0,0,17,31.5H31A2.50283,2.50283,0,0,0,33.5,29V19A2.50283,2.50283,0,0,0,31,16.5Z" opacity=".07"/><rect width="18" height="14" x="15" y="17" fill="url(#i_MajzVJ3zEzh1JeMh4MWn)" rx="2"/></svg>