<svg xmlns="http://www.w3.org/2000/svg"  viewBox="0 0 48 48" width="240px" height="240px"><linearGradient id="CUS1GTjxW93JoLSxxDmIFa" x1="14.066" x2="34.934" y1="43.514" y2="4.266" gradientTransform="matrix(1 0 0 -1 0 47.89)" gradientUnits="userSpaceOnUse"><stop offset="0" stop-color="#899198"/><stop offset="1" stop-color="#787e85"/></linearGradient><path fill="url(#CUS1GTjxW93JoLSxxDmIFa)" d="M41,40H8c-1.657,0-3-1.343-3-3V11c0-1.657,1.343-3,3-3h33c1.657,0,3,1.343,3,3v26	C44,38.657,42.657,40,41,40z"/><circle cx="39.5" cy="13.5" r="1.5" fill="#33c481"/><circle cx="39.5" cy="18.5" r="1.5" fill="#33c481"/><circle cx="39.5" cy="23.5" r="1.5" fill="#33c481"/><linearGradient id="CUS1GTjxW93JoLSxxDmIFb" x1="39.122" x2="40.196" y1="14.451" y2="11.437" gradientTransform="matrix(1 0 0 -1 0 47.89)" gradientUnits="userSpaceOnUse"><stop offset="0" stop-color="#32bdef"/><stop offset="1" stop-color="#1ea2e4"/></linearGradient><circle cx="39.5" cy="34.5" r="1.5" fill="url(#CUS1GTjxW93JoLSxxDmIFb)"/><linearGradient id="CUS1GTjxW93JoLSxxDmIFc" x1="34" x2="34" y1="36.89" y2="-43.611" gradientTransform="matrix(1 0 0 -1 0 47.89)" gradientUnits="userSpaceOnUse"><stop offset="0" stop-color="#737b80"/><stop offset=".473" stop-color="#686f74"/><stop offset="1" stop-color="#575c61"/></linearGradient><rect width="2" height="32" x="33" y="8" fill="url(#CUS1GTjxW93JoLSxxDmIFc)"/><path d="M9,37c-1.103,0-2-0.897-2-2V13c0-1.103,0.897-2,2-2h4c1.103,0,2,0.897,2,2	v22c0,1.103-0.897,2-2,2H9z" opacity=".05"/><path d="M9,36.5c-0.827,0-1.5-0.673-1.5-1.5V13c0-0.827,0.673-1.5,1.5-1.5h4	c0.827,0,1.5,0.673,1.5,1.5v22c0,0.827-0.673,1.5-1.5,1.5H9z" opacity=".07"/><path d="M17,37c-1.103,0-2-0.897-2-2V13c0-1.103,0.897-2,2-2h4	c1.103,0,2,0.897,2,2v22c0,1.103-0.897,2-2,2H17z" opacity=".05"/><path d="M17,36.5c-0.827,0-1.5-0.673-1.5-1.5V13c0-0.827,0.673-1.5,1.5-1.5h4	c0.827,0,1.5,0.673,1.5,1.5v22c0,0.827-0.673,1.5-1.5,1.5H17z" opacity=".07"/><path d="M25,37c-1.103,0-2-0.897-2-2V13c0-1.103,0.897-2,2-2h4	c1.103,0,2,0.897,2,2v22c0,1.103-0.897,2-2,2H25z" opacity=".05"/><path d="M25,36.5c-0.827,0-1.5-0.673-1.5-1.5V13c0-0.827,0.673-1.5,1.5-1.5h4	c0.827,0,1.5,0.673,1.5,1.5v22c0,0.827-0.673,1.5-1.5,1.5H25z" opacity=".07"/><linearGradient id="CUS1GTjxW93JoLSxxDmIFd" x1="22.52" x2="30.244" y1="46.992" y2="7.164" gradientTransform="matrix(1 0 0 -1 0 47.89)" gradientUnits="userSpaceOnUse"><stop offset="0" stop-color="#737b80"/><stop offset=".473" stop-color="#686f74"/><stop offset="1" stop-color="#575c61"/></linearGradient><path fill="url(#CUS1GTjxW93JoLSxxDmIFd)" d="M29,36h-4c-0.552,0-1-0.448-1-1V13c0-0.552,0.448-1,1-1h4c0.552,0,1,0.448,1,1v22	C30,35.552,29.552,36,29,36z"/><linearGradient id="CUS1GTjxW93JoLSxxDmIFe" x1="14.81" x2="22.533" y1="45.496" y2="5.669" gradientTransform="matrix(1 0 0 -1 0 47.89)" gradientUnits="userSpaceOnUse"><stop offset="0" stop-color="#737b80"/><stop offset=".473" stop-color="#686f74"/><stop offset="1" stop-color="#575c61"/></linearGradient><path fill="url(#CUS1GTjxW93JoLSxxDmIFe)" d="M21,36h-4c-0.552,0-1-0.448-1-1V13c0-0.552,0.448-1,1-1h4c0.552,0,1,0.448,1,1v22	C22,35.552,21.552,36,21,36z"/><linearGradient id="CUS1GTjxW93JoLSxxDmIFf" x1="7.1" x2="14.823" y1="44.001" y2="4.174" gradientTransform="matrix(1 0 0 -1 0 47.89)" gradientUnits="userSpaceOnUse"><stop offset="0" stop-color="#737b80"/><stop offset=".473" stop-color="#686f74"/><stop offset="1" stop-color="#575c61"/></linearGradient><path fill="url(#CUS1GTjxW93JoLSxxDmIFf)" d="M13,36H9c-0.552,0-1-0.448-1-1V13c0-0.552,0.448-1,1-1h4c0.552,0,1,0.448,1,1v22	C14,35.552,13.552,36,13,36z"/><circle cx="11" cy="28.5" r="1.5" fill="#575c61"/><circle cx="19" cy="28.5" r="1.5" fill="#575c61"/><circle cx="27" cy="28.5" r="1.5" fill="#575c61"/></svg>