<svg xmlns="http://www.w3.org/2000/svg"  viewBox="0 0 48 48" width="240px" height="240px"><path fill="#3d98a8" d="M45,27.9h-6.632c0-7.885-6.446-14.3-14.368-14.3S9.632,20.015,9.632,27.9H3 C3,16.376,12.421,7,24,7S45,16.376,45,27.9z"/><path fill="#266165" d="M43,33h-2.5V22H43c1.657,0,3,1.343,3,3v5C46,31.657,44.657,33,43,33z"/><path fill="#266165" d="M5,33h2.5V22H5c-1.657,0-3,1.343-3,3v5C2,31.657,3.343,33,5,33z"/><path fill="#fff176" d="M24,10c-9.941,0-18,8.059-18,18h36C42,18.059,33.941,10,24,10z"/><path fill="#263238" d="M31.1,38.9H16.9C11.432,38.9,7,34.468,7,29v0c0-5.468,4.432-9.9,9.9-9.9h14.2 c5.468,0,9.9,4.432,9.9,9.9v0C41,34.468,36.568,38.9,31.1,38.9z"/><path fill="#ffd54f" d="M31.05,40h-14.1C10.912,40,6,35.088,6,29.05V28.95C6,22.912,10.912,18,16.95,18h14.1 C37.088,18,42,22.912,42,28.95v0.101C42,35.088,37.088,40,31.05,40z M16.95,20C12.015,20,8,24.015,8,28.95v0.101 C8,33.985,12.015,38,16.95,38h14.1c4.936,0,8.95-4.015,8.95-8.95V28.95c0-4.935-4.015-8.95-8.95-8.95H16.95z"/><path fill="#b2ebf2" d="M22,29.778C22,30,20,26.972,17,27s-5,3-5,2.778C12,27.139,14.239,25,17,25S22,27.139,22,29.778z"/><path fill="#b2ebf2" d="M36,29.778C36,30,34,26.972,31,27s-5,3-5,2.778C26,27.139,28.239,25,31,25S36,27.139,36,29.778z"/></svg>