<svg xmlns="http://www.w3.org/2000/svg"  viewBox="0 0 48 48" width="480px" height="480px"><path fill="#e1f5fe" d="M38.5 14L29 14 29 4.5z"/><path fill="#c8e6c9" d="M40 45L8 45 8 3 30 3 40 13z"/><path fill="#f1f8e9" d="M38.5 14L29 14 29 4.5z"/><path fill="#a5d6a7" d="M13 8H19V10H13zM21 8H27V10H21zM13 12H19V14H13zM21 12H27V14H21zM13 34H19V36H13zM21 34H27V36H21zM13 38H19V40H13zM21 38H27V40H21zM29 34H35V36H29zM29 38H35V40H29z"/><path fill="#5e9c76" d="M8 16H40V32H8z"/><path fill="#455a64" d="M48,38H32l8,10L48,38z"/><path fill="#455a64" d="M37 29H43V43H37z"/><path fill="#fff" d="M18.801 25.602c0 1.098-.402 2-.902 2.5C17.301 28.699 16.5 29 15.5 29c-1.102 0-1.898-.398-2.5-1.102-.602-.699-.898-1.797-.898-3.098v-1.602c0-1.301.297-2.398.898-3.098C13.602 19.398 14.398 19 15.5 19s1.898.301 2.398.898c.602.602.902 1.402.902 2.602h-2c0-.699-.102-1.199-.301-1.398-.199-.301-.5-.402-1.102-.402-.5 0-.898.199-1.098.602-.199.398-.301 1-.301 1.801v1.797c0 1 .102 1.602.301 2 .199.402.598.5 1.098.5.5 0 .902-.098 1.102-.398s.301-.699.301-1.398H18.801zM24.98 26.391c0-.406-.105-.715-.313-.922s-.582-.422-1.133-.645c-.996-.379-1.715-.82-2.152-1.332-.438-.508-.656-1.105-.656-1.801 0-.836.297-1.512.895-2.02.594-.508 1.352-.762 2.266-.762.609 0 1.156.129 1.633.387.48.258.848.621 1.105 1.09s.387 1.004.387 1.602h-2.004c0-.465-.102-.82-.297-1.063-.199-.246-.484-.367-.859-.367-.348 0-.621.105-.82.313-.195.207-.293.484-.293.836 0 .273.109.523.328.742.219.223.605.449 1.164.688.969.352 1.676.781 2.113 1.293.441.512.66 1.16.66 1.949 0 .863-.273 1.543-.828 2.027-.551.488-1.301.73-2.246.73-.645 0-1.23-.129-1.758-.395s-.941-.645-1.242-1.137c-.297-.492-.445-1.07-.445-1.742H22.5c0 .574.113.992.336 1.25.223.262.586.391 1.094.391C24.629 27.504 24.98 27.133 24.98 26.391zM32.066 26.266l1.676-7.219h2.242L33.113 29H31.02l-2.852-9.953h2.23L32.066 26.266z"/></svg>