<svg xmlns="http://www.w3.org/2000/svg"  viewBox="0 0 48 48" width="240px" height="240px"><path fill="#b63016" d="M34,38H4v3c0,1.105,0.895,2,2,2h26c1.105,0,2-0.895,2-2V38z"/><rect width="30" height="4" x="4" y="34" fill="#ca4e2a"/><rect width="30" height="10" x="4" y="24" fill="#d95d3d"/><rect width="30" height="16" x="4" y="8" fill="#ed6c47"/><path fill="#ff8f6b" d="M34,8H4V5c0-1.105,0.895-2,2-2h26c1.105,0,2,0.895,2,2V8z"/><circle cx="15" cy="5.5" r=".75" fill="#b63016"/><path fill="#b63016" d="M22.5,4.75c-0.194,0-4.806,0-5,0c-0.414,0-0.75,0.336-0.75,0.75c0,0.414,0.336,0.75,0.75,0.75 c0.194,0,4.806,0,5,0c0.414,0,0.75-0.336,0.75-0.75C23.25,5.086,22.914,4.75,22.5,4.75z"/><path d="M22,43h12V11h-9c-1.657,0-3,1.343-3,3V43z" opacity=".05"/><path d="M23,43h11V12h-9c-1.105,0-2,0.895-2,2V43z" opacity=".07"/><g><path fill="#184f85" d="M44,40H24v3c0,1.105,0.895,2,2,2h16c1.105,0,2-0.895,2-2V40z"/><rect width="20" height="4" x="24" y="36" fill="#0078d4"/><rect width="20" height="10" x="24" y="26" fill="#1b9de2"/><rect width="20" height="8" x="24" y="18" fill="#35c1f1"/><path fill="#50e6ff" d="M44,18H24v-3c0-1.105,0.895-2,2-2h16c1.105,0,2,0.895,2,2V18z"/><circle cx="30" cy="15.5" r=".75" fill="#0c63ad"/><path fill="#0c63ad" d="M37.5,14.75c-0.194,0-4.806,0-5,0c-0.414,0-0.75,0.336-0.75,0.75c0,0.414,0.336,0.75,0.75,0.75 c0.194,0,4.806,0,5,0c0.414,0,0.75-0.336,0.75-0.75C38.25,15.086,37.914,14.75,37.5,14.75z"/></g></svg>