<svg xmlns="http://www.w3.org/2000/svg"  viewBox="0 0 48 48" width="240px" height="240px"><path fill="#50e6ff" d="M39,16v25c0,1.105-0.895,2-2,2H11c-1.105,0-2-0.895-2-2V7c0-1.105,0.895-2,2-2h17L39,16z"/><linearGradient id="yQG7f8VwpLJvoA2grnf3Oa" x1="28.529" x2="33.6" y1="15.472" y2="10.4" gradientUnits="userSpaceOnUse"><stop offset="0" stop-color="#3079d6"/><stop offset="1" stop-color="#297cd2"/></linearGradient><path fill="url(#yQG7f8VwpLJvoA2grnf3Oa)" d="M28,5v9c0,1.105,0.895,2,2,2h9L28,5z"/><linearGradient id="yQG7f8VwpLJvoA2grnf3Ob" x1="21.312" x2="25.587" y1="23.547" y2="35.261" gradientUnits="userSpaceOnUse"><stop offset="0" stop-color="#2aa4f4"/><stop offset="1" stop-color="#007ad9"/></linearGradient><path fill="url(#yQG7f8VwpLJvoA2grnf3Ob)" d="M29.236,26.074C28.209,24.241,26.251,23,24,23c-2.987,0-5.457,2.185-5.916,5.042	C16.349,28.25,15,29.71,15,31.5c0,1.933,1.567,3.5,3.5,3.5c0.901,0,9.253,0,10,0c2.485,0,4.5-2.015,4.5-4.5	C33,28.267,31.369,26.427,29.236,26.074z"/></svg>