<?xml version="1.0" encoding="UTF-8"?>
<svg xmlns="http://www.w3.org/2000/svg" xmlns:xlink="http://www.w3.org/1999/xlink" viewBox="0 0 240 240" width="240px" height="240px">
<defs>
<linearGradient id="linear0" gradientUnits="userSpaceOnUse" x1="111.083328" y1="0.688" x2="111.083328" y2="122.18808" gradientTransform="matrix(1.395349,0,0,1.395349,0,0)">
<stop offset="0" style="stop-color:rgb(9.803922%,60.392159%,87.843138%);stop-opacity:1;"/>
<stop offset="1" style="stop-color:rgb(2.745098%,50.980395%,84.705883%);stop-opacity:1;"/>
</linearGradient>
<linearGradient id="linear1" gradientUnits="userSpaceOnUse" x1="107.386658" y1="101.508461" x2="157.444031" y2="151.565842" gradientTransform="matrix(1.395349,0,0,1.395349,0,0)">
<stop offset="0" style="stop-color:rgb(95.686275%,30.980393%,35.294119%);stop-opacity:1;"/>
<stop offset="0.4429" style="stop-color:rgb(93.333334%,23.921569%,29.019609%);stop-opacity:1;"/>
<stop offset="1" style="stop-color:rgb(89.803922%,12.54902%,18.82353%);stop-opacity:1;"/>
</linearGradient>
</defs>
<g id="surface32289518">
<path style=" stroke:none;fill-rule:nonzero;fill:url(#linear0);" d="M 223.535156 41.464844 L 183.535156 1.464844 C 181.578125 -0.488281 178.421875 -0.488281 176.464844 1.464844 L 136.464844 41.464844 C 135.035156 42.894531 134.605469 45.046875 135.378906 46.914062 C 136.15625 48.78125 137.980469 50 140 50 L 155 50 L 155 120 L 85 120 L 85 170 L 195 170 C 200.523438 170 205 165.523438 205 160 L 205 50 L 220 50 C 222.019531 50 223.84375 48.78125 224.621094 46.914062 C 225.394531 45.046875 224.964844 42.894531 223.535156 41.464844 Z M 223.535156 41.464844 "/>
<path style=" stroke:none;fill-rule:nonzero;fill:rgb(20%,80.000001%,100%);fill-opacity:1;" d="M 155 120 L 155 70 L 45 70 C 39.476562 70 35 74.476562 35 80 L 35 190 L 20 190 C 17.980469 190 16.15625 191.21875 15.378906 193.085938 C 14.605469 194.953125 15.035156 197.105469 16.464844 198.535156 L 56.464844 238.535156 C 58.421875 240.488281 61.578125 240.488281 63.535156 238.535156 L 103.535156 198.535156 C 104.964844 197.105469 105.394531 194.953125 104.621094 193.085938 C 103.84375 191.21875 102.019531 190 100 190 L 85 190 L 85 120 Z M 155 120 "/>
<path style=" stroke:none;fill-rule:nonzero;fill:url(#linear1);" d="M 233.894531 175.789062 C 233.894531 203.289062 211.394531 225.789062 183.894531 225.789062 C 156.394531 225.789062 133.894531 203.289062 133.894531 175.789062 C 133.894531 148.289062 156.394531 125.789062 183.894531 125.789062 C 211.394531 125.789062 233.894531 147.789062 233.894531 175.789062 "/>
<path style=" stroke:none;fill-rule:nonzero;fill:rgb(100%,100%,100%);fill-opacity:1;" d="M 183.933594 204.789062 C 181.742188 204.789062 179.925781 204.121094 178.5 202.792969 C 177.070312 201.460938 176.359375 199.847656 176.359375 197.953125 C 176.359375 195.976562 177.082031 194.355469 178.519531 193.09375 C 179.960938 191.828125 181.765625 191.195312 183.933594 191.195312 C 186.128906 191.195312 187.929688 191.835938 189.332031 193.113281 C 190.730469 194.386719 191.429688 196.003906 191.429688 197.953125 C 191.429688 199.925781 190.734375 201.5625 189.351562 202.851562 C 187.964844 204.140625 186.160156 204.789062 183.933594 204.789062 Z M 190.605469 146.953125 L 189.164062 183.476562 C 189.121094 184.59375 188.207031 185.476562 187.085938 185.476562 L 180.546875 185.476562 C 179.425781 185.476562 178.503906 184.59375 178.464844 183.472656 L 177.101562 146.945312 C 177.054688 145.765625 178 144.789062 179.179688 144.789062 L 188.523438 144.789062 C 189.707031 144.789062 190.648438 145.765625 190.605469 146.953125 Z M 190.605469 146.953125 "/>
</g>
</svg>
