<svg xmlns="http://www.w3.org/2000/svg"  viewBox="0 0 48 48" width="240px" height="240px"><radialGradient id="g8bJHDH2oiVi_Ttn6zbJca" cx="23.637" cy="24.609" r="12.614" gradientTransform="matrix(.932 0 0 1.0645 6.053 -10.355)" gradientUnits="userSpaceOnUse"><stop offset="0" stop-color="#bd8af5"/><stop offset=".137" stop-color="#b88bf5"/><stop offset=".309" stop-color="#a88ff3"/><stop offset=".499" stop-color="#8f96f2"/><stop offset=".702" stop-color="#6b9eef"/><stop offset=".913" stop-color="#3eaaec"/><stop offset="1" stop-color="#29afea"/></radialGradient><path fill="url(#g8bJHDH2oiVi_Ttn6zbJca)" d="M23,19H5c-1.105,0-2-0.895-2-2V5c0-1.105,0.895-2,2-2h18c1.105,0,2,0.895,2,2v12	C25,18.105,24.105,19,23,19z"/><linearGradient id="g8bJHDH2oiVi_Ttn6zbJcb" x1="12.365" x2="12.365" y1="7.342" y2="19.203" gradientUnits="userSpaceOnUse"><stop offset="0" stop-color="#124787"/><stop offset=".923" stop-color="#173b75"/><stop offset="1" stop-color="#173a73"/></linearGradient><path fill="url(#g8bJHDH2oiVi_Ttn6zbJcb)" d="M21.73,19H5c-1.1,0-2-0.9-2-2v-4.03L8.07,7.9c0.71-0.71,1.85-0.71,2.55,0L21.73,19z"/><path fill="#436dcd" d="M24.03,19c0.636,0,1.152-0.516,1.152-1.152v-0.576l-7.073-7.073c-0.704-0.704-1.846-0.704-2.55,0	L6.758,19H24.03z"/><path fill="#50e6ff" d="M31,35H17c-1.105,0-2-0.895-2-2V15c0-1.105,0.895-2,2-2h9c1,2,5,6,7,7v13C33,34.105,32.105,35,31,35z"/><linearGradient id="g8bJHDH2oiVi_Ttn6zbJcc" x1="26.552" x2="29.559" y1="2781.448" y2="2778.441" gradientTransform="translate(0 -2762)" gradientUnits="userSpaceOnUse"><stop offset="0" stop-color="#3079d6"/><stop offset="1" stop-color="#297cd2"/></linearGradient><path fill="url(#g8bJHDH2oiVi_Ttn6zbJcc)" d="M26,13v5c0,1.105,0.895,2,2,2h5L26,13z"/><path fill="#35c1f1" d="M28.5,26h-10c-0.276,0-0.5-0.224-0.5-0.5v-1c0-0.276,0.224-0.5,0.5-0.5h10c0.276,0,0.5,0.224,0.5,0.5	v1C29,25.776,28.776,26,28.5,26z"/><path fill="#35c1f1" d="M28.5,30h-10c-0.276,0-0.5-0.224-0.5-0.5v-1c0-0.276,0.224-0.5,0.5-0.5h10c0.276,0,0.5,0.224,0.5,0.5	v1C29,29.776,28.776,30,28.5,30z"/><path fill="#21a366" d="M43,45H29c-1.105,0-2-0.895-2-2V25c0-1.105,0.895-2,2-2h9c1,2,5,6,7,7v13C45,44.105,44.105,45,43,45z"/><rect width="2" height="18" x="35" y="32" fill="#33c481" transform="rotate(90 36 41)"/><rect width="2" height="18" x="35" y="26" fill="#33c481" transform="rotate(90 36 35)"/><polygon fill="#33c481" points="27,30 27,28 42,28 45,30"/><path fill="#185c37" d="M38,23v5c0,1.105,0.895,2,2,2h5L38,23z"/><rect width="2" height="22" x="31" y="23" fill="#107c42"/><rect width="2" height="2" x="31" y="28" fill="#139551"/><rect width="2" height="2" x="31" y="34" fill="#139551"/><rect width="2" height="2" x="31" y="40" fill="#139551"/><circle cx="20.5" cy="6.5" r="1.5" fill="#fff"/></svg>