<svg
        role="img"
        aria-labelledby="loading-aria"
        viewBox="0 0 1000 300"
        preserveAspectRatio="none"
>
  <title id="loading-aria">Loading...</title>
  <rect
          x="0"
          y="0"
          width="100%"
          height="100%"
          clip-path="url(#clip-path)"
          style='fill: url("#fill");'
  ></rect>
  <defs>
    <clipPath id="clip-path">
        <rect x="0" y="0" rx="0" ry="0" width="NaN" height="NaN" /> 
        <rect x="36" y="16" rx="5" ry="5" width="326" height="15" /> 
        <circle cx="14" cy="68" r="12" /> 
        <rect x="36" y="61" rx="5" ry="5" width="326" height="15" /> 
        <circle cx="13" cy="26" r="12" /> 
        <rect x="405" y="16" rx="0" ry="0" width="163" height="146" /> 
        <circle cx="45" cy="135" r="42" /> 
        <rect x="103" y="104" rx="5" ry="5" width="156" height="15" /> 
        <rect x="104" y="146" rx="5" ry="5" width="257" height="15" /> 
        <rect x="584" y="14" rx="5" ry="5" width="326" height="15" /> 
        <rect x="922" y="14" rx="5" ry="5" width="69" height="15" /> 
        <rect x="584" y="46" rx="5" ry="5" width="326" height="15" /> 
        <rect x="922" y="46" rx="5" ry="5" width="69" height="15" /> 
        <rect x="584" y="78" rx="5" ry="5" width="326" height="15" /> 
        <rect x="922" y="78" rx="5" ry="5" width="69" height="15" /> 
        <rect x="584" y="110" rx="5" ry="5" width="326" height="15" /> 
        <rect x="922" y="110" rx="5" ry="5" width="69" height="15" /> 
        <rect x="440" y="186" rx="5" ry="5" width="326" height="15" /> 
        <circle cx="418" cy="238" r="12" /> 
        <rect x="440" y="231" rx="5" ry="5" width="326" height="15" /> 
        <circle cx="417" cy="196" r="12" /> 
        <rect x="410" y="269" rx="5" ry="5" width="352" height="27" /> 
        <rect x="805" y="176" rx="0" ry="0" width="163" height="146" /> 
        <circle cx="44" cy="250" r="42" /> 
        <rect x="102" y="219" rx="5" ry="5" width="156" height="15" /> 
        <rect x="103" y="261" rx="5" ry="5" width="257" height="15" />
    </clipPath>
    <linearGradient id="fill">
      <stop
              offset="0.599964"
              stop-color="#f3f3f3"
              stop-opacity="1"
      >
        <animate
                attributeName="offset"
                values="-2; -2; 1"
                keyTimes="0; 0.25; 1"
                dur="2s"
                repeatCount="indefinite"
        ></animate>
      </stop>
      <stop
              offset="1.59996"
              stop-color="#ecebeb"
              stop-opacity="1"
      >
        <animate
                attributeName="offset"
                values="-1; -1; 2"
                keyTimes="0; 0.25; 1"
                dur="2s"
                repeatCount="indefinite"
        ></animate>
      </stop>
      <stop
              offset="2.59996"
              stop-color="#f3f3f3"
              stop-opacity="1"
      >
        <animate
                attributeName="offset"
                values="0; 0; 3"
                keyTimes="0; 0.25; 1"
                dur="2s"
                repeatCount="indefinite"
        ></animate>
      </stop>
    </linearGradient>
  </defs>
</svg>