<?xml version="1.0" encoding="utf-8"?>
<!-- Generator: Adobe Illustrator 26.0.3, SVG Export Plug-In . SVG Version: 6.00 Build 0)  -->
<svg version="1.1" id="Calque_1" xmlns="http://www.w3.org/2000/svg" xmlns:xlink="http://www.w3.org/1999/xlink" x="0px" y="0px"
	 viewBox="0 0 184.3 42.5" style="enable-background:new 0 0 184.3 42.5;" xml:space="preserve">
<style type="text/css">
	.st0{fill:#F18700;}
	.st1{fill:#202B2F;}
</style>
<g>
	<g>
		<path class="st0" d="M2,24.5C2,21.5,4.5,19,7.6,19c3,0,5.5,2.5,5.5,5.6c0,3.1-2.5,5.6-5.5,5.6C4.5,30.1,2,27.6,2,24.5z"/>
	</g>
	<g>
		<path class="st1" d="M35.9,26.5c-1,4.6-4.9,7.5-9.5,7.5c-5.2,0-9.3-4.2-9.3-9.8c0-5.5,4.4-9.7,9.5-9.7c4.7,0,8.7,3.3,9.4,8.2h-4.7
			c-0.7-2.2-2.5-3.5-4.7-3.5c-2.7,0-4.9,2.2-4.9,5.1c0,3,2.2,5.1,4.9,5.1c2,0,3.6-1,4.5-2.8H35.9z"/>
		<path class="st1" d="M58.1,24.2c0,5.5-4.3,9.9-9.6,9.9s-9.6-4.4-9.6-9.9c0-5.4,4.3-9.7,9.6-9.7S58.1,18.7,58.1,24.2z M53.5,24.2
			c0-2.8-2.2-5-4.9-5s-4.9,2.2-4.9,5c0,2.9,2.2,5.2,4.9,5.2S53.5,27.1,53.5,24.2z"/>
		<path class="st1" d="M62,33.5V15.1h4.5v2.1c0.7-1.2,2.4-2.7,4.9-2.7c2.4,0,4.1,1.2,5.1,2.6c1.1-1.4,2.9-2.6,5.8-2.6
			c4.2,0,7.4,2.5,7.4,7.6v11.4h-4.5V22.6c0-2.4-1.3-3.8-3.5-3.8c-2.1,0-3.5,1.4-3.5,3.8v10.8h-4.5V22.6c0-2.4-1.4-3.8-3.5-3.8
			c-2.2,0-3.5,1.5-3.5,3.9v10.7H62z"/>
		<path class="st1" d="M114,24.2c0,5.7-4.2,9.8-9.1,9.8c-3.1,0-5.1-1.6-5.8-2.9v2.4h-4.5V5.1h4.5v12.2c1-1.3,3.2-2.8,6.2-2.8
			C110.1,14.6,114,18.3,114,24.2z M109.3,24.3c0-3.2-2.2-5.2-5-5.2c-2.7,0-5.1,2.1-5.1,5v0.6c0,2.8,2.4,4.9,5.1,4.9
			C107.1,29.5,109.3,27.4,109.3,24.3z"/>
		<path class="st1" d="M136.1,24.2c0,5.5-4.3,9.9-9.6,9.9s-9.6-4.4-9.6-9.9c0-5.4,4.3-9.7,9.6-9.7S136.1,18.7,136.1,24.2z
			 M131.5,24.2c0-2.8-2.2-5-4.9-5s-4.9,2.2-4.9,5c0,2.9,2.2,5.2,4.9,5.2S131.5,27.1,131.5,24.2z"/>
		<path class="st1" d="M158.3,5.1v28.4h-4.5v-2.2c-0.4,1.1-2.5,2.8-5.7,2.8c-4.9,0-9-3.9-9.1-9.6c0-5.9,4.1-9.9,9.1-9.9
			c3.5,0,5.1,1.5,5.6,2.4V5.1H158.3z M153.7,24.8v-0.7c0-2.8-2.2-4.9-5-4.9c-2.7,0-4.9,2.1-4.9,5.1c0,3.1,2.2,5.2,4.9,5.2
			C151.3,29.5,153.7,27.4,153.7,24.8z"/>
		<path class="st1" d="M181.7,24.2c0,5.5-4.3,9.9-9.6,9.9s-9.6-4.4-9.6-9.9c0-5.4,4.3-9.7,9.6-9.7S181.7,18.7,181.7,24.2z M177,24.2
			c0-2.8-2.2-5-4.9-5s-4.9,2.2-4.9,5c0,2.9,2.2,5.2,4.9,5.2S177,27.1,177,24.2z"/>
	</g>
</g>
</svg>
