<?xml version="1.0" encoding="utf-8"?>
<!-- Generator: Adobe Illustrator 26.0.3, SVG Export Plug-In . SVG Version: 6.00 Build 0)  -->
<svg version="1.1" id="Calque_1" xmlns="http://www.w3.org/2000/svg" xmlns:xlink="http://www.w3.org/1999/xlink" x="0px" y="0px"
	 viewBox="0 0 238.1 113.4" style="enable-background:new 0 0 238.1 113.4;" xml:space="preserve">
<style type="text/css">
	.st0{fill:#F08700;}
	.st1{fill:#202B2F;}
</style>
<g>
	<path class="st0" d="M228.1,70.7c4.1,0,7.4-3.3,7.4-7.4c0-4-3.5-7.4-7.4-7.4c-4.2,0-7.4,3.5-7.4,7.4
		C220.7,67.4,223.9,70.7,228.1,70.7L228.1,70.7z"/>
	<path class="st0" d="M52.6,23.1c4,0,7.2-3.2,7.2-7.3c0-3.9-3.3-7.2-7.2-7.2c-4.3,0-7.3,3.3-7.3,7.2C45.3,19.8,48.3,23.1,52.6,23.1
		L52.6,23.1z"/>
	<path class="st1" d="M67.7,66.6c-4.6,0-8.6-2.6-8.6-8.8v-0.6l0,0V42.8h0V32H44.1v10.8h4.1v16.3c0,12.5,7.7,18.3,18.3,18.3
		c3,0,6.2-0.9,8.9-2.5V62C74.2,64.8,71.4,66.6,67.7,66.6L67.7,66.6z M144.7,55.1c0,7-5.3,12.2-11.9,12.2c-6.6,0-11.9-4.9-11.9-12.2
		c0-7,5-12.3,11.9-12.3C139.4,42.8,144.7,48.1,144.7,55.1L144.7,55.1z M156,55.1c0-13.3-10.4-23.6-23.2-23.6
		c-12.8,0-23.3,9.6-23.2,24.3v2.8c0,4.8-3.5,8.1-8.5,8.1c-4.6,0-8.6-2.6-8.6-8.8v-14h10.3V32.9H91.7c3.4-3.4,5.2-7.8,6.1-14.2h-11
		c-1.4,8.7-5.4,14.2-14,14.2v10.9h8.8v15.4c0,12.5,7.7,18.3,18.3,18.3c5.5,0,11.5-3,14.6-7.7c4.2,5.5,10.8,8.9,18.2,8.9
		C145.6,78.6,156,68.2,156,55.1L156,55.1z M196.8,53.9c0,7.8-5.2,12.7-12.2,12.7c-6.5,0-12.3-5-12.3-12v-1.2
		c0-6.9,5.6-12.4,12.3-12.4C191.6,41.1,196.8,46.2,196.8,53.9L196.8,53.9z M208.1,54c0-13.9-9.6-23.7-21.4-23.7
		c-7.7,0-13.1,3.9-14.7,7v-5.7h-10.9v72c6.1-0.9,9.4-2.9,10.9-9.4v-22c0,0,4.7,5.5,13.8,5.4C197.3,77.4,208.2,68.3,208.1,54
		L208.1,54z"/>
	<path class="st1" d="M152.5,99v2.2c0,0.5,0.2,0.9,0.7,0.9h0.6v1.5h-1c-1.1,0-1.9-0.8-1.9-1.8V99h-1.2v-1.5c1.1,0,1.7-0.7,1.9-1.9
		h1.5c-0.1,0.8-0.4,1.4-0.8,1.9h1.5V99H152.5z M144.9,103.4V100c0-0.7,0.5-1.3,1.3-1.3c0.8,0,1.2,0.5,1.2,1.3v3.5h1.5v-3.7
		c0-1.6-0.9-2.4-2.3-2.4c-0.8,0-1.4,0.5-1.7,0.9v-0.7h-1.5v6H144.9z M137.6,99.8c0.2-0.6,0.8-1.1,1.5-1.1c0.8,0,1.3,0.5,1.5,1.1
		H137.6z M139.1,97.3c-1.7,0-3,1.4-3,3.2c0,1.8,1.3,3.2,3.1,3.2c1.3,0,2.5-0.9,2.9-2.1h-1.6c-0.3,0.4-0.7,0.7-1.3,0.7
		c-0.9,0-1.5-0.6-1.6-1.4h4.6C142.2,98.9,141,97.3,139.1,97.3L139.1,97.3z M127.4,103.4V100c0-0.8,0.4-1.3,1.1-1.3
		c0.7,0,1.1,0.5,1.1,1.2v3.5h1.5v-3.5c0-0.8,0.5-1.2,1.1-1.2c0.7,0,1.1,0.4,1.1,1.2v3.5h1.5v-3.7c0-1.6-1-2.5-2.4-2.5
		c-0.9,0-1.5,0.4-1.9,0.8c-0.3-0.5-0.9-0.8-1.7-0.8c-0.8,0-1.4,0.5-1.6,0.9v-0.7H126v6H127.4z M120.1,99.8c0.2-0.6,0.8-1.1,1.5-1.1
		c0.8,0,1.3,0.5,1.5,1.1H120.1z M121.6,97.3c-1.7,0-3,1.4-3,3.2c0,1.8,1.3,3.2,3.1,3.2c1.3,0,2.5-0.9,2.9-2.1h-1.6
		c-0.3,0.4-0.7,0.7-1.3,0.7c-0.9,0-1.5-0.6-1.6-1.4h4.6C124.8,98.9,123.5,97.3,121.6,97.3L121.6,97.3z M114.1,105.3
		c-0.8,0-1.5-0.7-1.6-1.5h-1.5c0,1.7,1.4,3,3.1,3c1.7,0,3-1.3,3.1-3h-1.5C115.7,104.6,115,105.3,114.1,105.3L114.1,105.3z
		 M114.2,102.1c-0.9,0-1.6-0.7-1.6-1.6c0-0.9,0.7-1.5,1.6-1.5c0.8,0,1.6,0.7,1.6,1.5C115.7,101.4,115,102.1,114.2,102.1L114.2,102.1
		z M114.1,97.5c-1.7,0-3.1,1.4-3.1,3.1c0,1.7,1.4,3.1,3.1,3.1c1.7,0,3.1-1.4,3.1-3.1c0-0.6-0.2-1.1-0.5-1.6h1.2v-1.5H114.1z
		 M106.7,102.1c-0.9,0-1.6-0.7-1.6-1.7c0-1,0.7-1.7,1.6-1.7c0.9,0,1.6,0.7,1.6,1.6v0.2C108.3,101.4,107.6,102.1,106.7,102.1
		L106.7,102.1z M108.3,97.5v0.6c-0.3-0.5-1-0.8-1.9-0.8c-1.7,0-2.9,1.4-2.9,3.2c0,1.9,1.4,3.1,2.9,3.1c1,0,1.7-0.5,1.8-0.9v0.7h1.5
		v-6H108.3z M98.4,103.4V100c0-0.7,0.5-1.3,1.3-1.3c0.8,0,1.2,0.5,1.2,1.3v3.5h1.5v-3.7c0-1.6-0.9-2.4-2.3-2.4
		c-0.8,0-1.4,0.5-1.7,0.9v-0.7H97v6H98.4z M92.2,102.1c-0.9,0-1.6-0.7-1.6-1.7c0-1,0.7-1.7,1.6-1.7c0.9,0,1.6,0.7,1.6,1.6v0.2
		C93.9,101.4,93.1,102.1,92.2,102.1L92.2,102.1z M93.9,97.5v0.6c-0.3-0.5-1-0.8-1.9-0.8c-1.7,0-2.9,1.4-2.9,3.2
		c0,1.9,1.4,3.1,2.9,3.1c1,0,1.7-0.5,1.8-0.9v0.7h1.5v-6H93.9z M80.5,103.4V100c0-0.8,0.4-1.3,1.1-1.3c0.7,0,1.1,0.5,1.1,1.2v3.5
		h1.5v-3.5c0-0.8,0.5-1.2,1.1-1.2c0.7,0,1.1,0.4,1.1,1.2v3.5H88v-3.7c0-1.6-1-2.5-2.4-2.5c-0.9,0-1.5,0.4-1.9,0.8
		c-0.3-0.5-0.9-0.8-1.7-0.8c-0.8,0-1.4,0.5-1.6,0.9v-0.7h-1.5v6H80.5z M70.5,99.8c0.2-0.6,0.8-1.1,1.5-1.1c0.8,0,1.3,0.5,1.5,1.1
		H70.5z M72,97.3c-1.7,0-3,1.4-3,3.2c0,1.8,1.3,3.2,3.1,3.2c1.3,0,2.5-0.9,2.9-2.1h-1.6c-0.3,0.4-0.7,0.7-1.3,0.7
		c-0.9,0-1.5-0.6-1.6-1.4H75C75.1,98.9,73.8,97.3,72,97.3L72,97.3z M66.4,101.2c-0.3,0.6-0.8,0.9-1.4,0.9c-0.9,0-1.6-0.7-1.6-1.6
		c0-0.9,0.7-1.6,1.6-1.6c0.7,0,1.3,0.4,1.5,1.1H68c-0.3-1.6-1.5-2.6-3.1-2.6c-1.7,0-3.1,1.4-3.1,3.2c0,1.8,1.3,3.2,3,3.2
		c1.5,0,2.7-0.9,3.1-2.4H66.4z M60.5,97.5h-2V99H59v4.5h1.5V97.5z M59.6,96.6c0.5,0,0.9-0.4,0.9-1c0-0.5-0.4-0.9-0.9-0.9
		c-0.6,0-1,0.4-1,0.9C58.6,96.2,59,96.6,59.6,96.6L59.6,96.6z M54.3,101.5l-1.7-4H51l2.5,6h1.5l2.5-6H56L54.3,101.5z M50,97.5
		c-1.1,0-1.7,0.6-2,1.1v-1.1h-1.4v6H48v-2.3c0-1.6,0.9-2.2,2.1-2.2h0.4v-1.5H50z M40.7,99.8c0.2-0.6,0.8-1.1,1.5-1.1
		c0.8,0,1.3,0.5,1.5,1.1H40.7z M42.2,97.3c-1.7,0-3,1.4-3,3.2c0,1.8,1.3,3.2,3.1,3.2c1.3,0,2.5-0.9,2.9-2.1h-1.6
		c-0.3,0.4-0.7,0.7-1.3,0.7c-0.9,0-1.5-0.6-1.6-1.4h4.6C45.4,98.9,44.1,97.3,42.2,97.3L42.2,97.3z M36,102.4c-0.5,0-0.8-0.3-1-0.7
		h-1.5c0.1,0.8,0.7,1.9,2.3,1.9c1.3,0,2.3-0.7,2.3-1.9c0-0.9-0.6-1.5-1.7-1.8C35.4,99.6,35,99.3,35,99c0-0.3,0.3-0.5,0.7-0.5
		c0.5,0,0.9,0.3,0.9,0.7h1.5c-0.2-1-0.9-1.9-2.4-1.9c-1.1,0-2.2,0.7-2.2,1.8c0,1.1,1.1,1.7,2,1.9c0.6,0.2,1.2,0.3,1.2,0.7
		C36.7,102.1,36.4,102.4,36,102.4L36,102.4z M27.9,100.8c0,0.8-0.5,1.4-1.3,1.4c-0.8,0-1.3-0.5-1.3-1.3v-3.5H24v3.6
		c0,1.6,0.9,2.5,2.4,2.5c0.8,0,1.3-0.3,1.6-0.7v0.8c0,0.8-0.8,1.5-1.6,1.5c-0.7,0-1.3-0.5-1.5-1.1h-1.5c0.2,1.5,1.5,2.5,3,2.5
		c1.7,0,3-1.3,3-3.1v-6.1h-1.5V100.8z M20.6,102.4c-0.5,0-0.8-0.3-1-0.7h-1.5c0.1,0.8,0.7,1.9,2.3,1.9c1.3,0,2.3-0.7,2.3-1.9
		c0-0.9-0.6-1.5-1.7-1.8c-1.1-0.3-1.5-0.6-1.5-0.9c0-0.3,0.3-0.5,0.7-0.5c0.5,0,0.9,0.3,0.9,0.7h1.5c-0.2-1-0.9-1.9-2.4-1.9
		c-1.1,0-2.2,0.7-2.2,1.8c0,1.1,1.1,1.7,2,1.9c0.6,0.2,1.2,0.3,1.2,0.7C21.3,102.1,21.1,102.4,20.6,102.4L20.6,102.4z M13.6,102.1
		c-0.9,0-1.6-0.7-1.6-1.7c0-1,0.7-1.7,1.6-1.7c0.9,0,1.6,0.7,1.6,1.6v0.2C15.2,101.4,14.5,102.1,13.6,102.1L13.6,102.1z M15.3,97.5
		v0.6c-0.3-0.5-1-0.8-1.9-0.8c-1.7,0-2.9,1.4-2.9,3.2c0,1.9,1.4,3.1,2.9,3.1c1,0,1.7-0.5,1.8-0.9v0.7h1.5v-6H15.3z M5.1,99.8
		c0.2-0.6,0.8-1.1,1.5-1.1c0.8,0,1.3,0.5,1.5,1.1H5.1z M6.5,97.3c-1.7,0-3,1.4-3,3.2c0,1.8,1.3,3.2,3.1,3.2c1.3,0,2.5-0.9,2.9-2.1
		H7.8c-0.3,0.4-0.7,0.7-1.3,0.7c-0.9,0-1.5-0.6-1.6-1.4h4.6C9.7,98.9,8.4,97.3,6.5,97.3L6.5,97.3z"/>
</g>
</svg>
