<?xml version="1.0" encoding="UTF-8"?><svg xmlns="http://www.w3.org/2000/svg" viewBox="0 0 452.53 224.62"><defs><style>.e{fill:#fff;}.f{fill:#f18700;}</style></defs><g id="a"/><g id="b"><g id="c"><g id="d"><path class="f" d="M434.94,147.04c9.69,0,17.59-7.9,17.59-17.59s-8.16-17.59-17.59-17.59c-9.94,0-17.59,8.16-17.59,17.59s7.65,17.59,17.59,17.59"/><path class="f" d="M20.19,34.42c9.43,0,17.08-7.65,17.08-17.34C37.27,7.9,29.37,0,20.19,0,9.99,0,2.85,7.9,2.85,17.08c0,9.69,7.14,17.34,17.34,17.34"/><path class="e" d="M55.86,137.2c-10.77,0-20.28-6.26-20.28-20.78v-1.4l.05,.04v-33.98h0v-25.42H0v25.49H9.8v38.54c0,29.54,18.28,43.31,43.31,43.31,7.1,0,14.56-2.1,21.06-5.82v-30.81c-2.99,6.65-9.69,10.84-18.3,10.84m181.86-27.04c0,16.52-12.52,28.79-28.04,28.79s-28.04-11.52-28.04-28.79,11.77-29.04,28.04-29.04,28.04,12.52,28.04,29.04m26.79,0c0-31.55-24.53-55.83-54.83-55.83s-55.08,22.78-54.83,57.33v6.51c0,11.27-8.26,19.03-20.03,19.03-10.77,0-20.28-6.26-20.28-20.78v-33.05h24.28v-25.79h-26.29c8.01-8.01,12.27-18.53,14.52-33.55h-26.04c-3.26,20.53-12.77,33.55-33.05,33.55v25.79h20.78v36.3c0,29.54,18.28,43.31,43.31,43.31,13.02,0,27.29-7.01,34.55-18.28,10.01,13.02,25.53,21.03,43.06,21.03,30.29,0,54.83-24.53,54.83-55.58m96.3-2.81c0,18.53-12.27,30.04-28.79,30.04-15.27,0-29.04-11.77-29.04-28.29v-2.75c0-16.27,13.27-29.29,29.04-29.29s28.79,12.02,28.79,30.29m26.79,.25c0-32.8-22.78-56.08-50.57-56.08-18.28,0-31.04,9.26-34.8,16.52v-13.52h-25.79V224.62c14.46-2.24,22.27-6.81,25.79-22.24v-51.97s11.01,13.02,32.55,12.77c27.29-.25,53.07-21.78,52.82-55.58"/></g></g></g></svg>