<?xml version="1.0" encoding="utf-8"?>
<!-- Generator: Adobe Illustrator 26.0.3, SVG Export Plug-In . SVG Version: 6.00 Build 0)  -->
<svg version="1.1" id="Calque_1" xmlns="http://www.w3.org/2000/svg" xmlns:xlink="http://www.w3.org/1999/xlink" x="0px" y="0px"
	 viewBox="0 0 238.1 113.4" style="enable-background:new 0 0 238.1 113.4;" xml:space="preserve">
<style type="text/css">
	.st0{fill:#F08700;}
	.st1{fill:#FFFFFF;}
</style>
<g>
	<path class="st0" d="M228.1,69.4c4.1,0,7.4-3.3,7.4-7.4c0-4-3.5-7.4-7.4-7.4c-4.2,0-7.4,3.5-7.4,7.4
		C220.7,66.1,223.9,69.4,228.1,69.4L228.1,69.4z"/>
	<path class="st0" d="M52.6,21.8c4,0,7.2-3.2,7.2-7.3c0-3.9-3.3-7.2-7.2-7.2c-4.3,0-7.3,3.3-7.3,7.2C45.3,18.5,48.3,21.8,52.6,21.8
		L52.6,21.8z"/>
	<path class="st1" d="M67.7,65.3c-4.6,0-8.6-2.6-8.6-8.8v-0.6l0,0V41.5l0,0V30.7h-15v10.8h4.1v16.3c0,12.5,7.7,18.3,18.3,18.3
		c3,0,6.2-0.9,8.9-2.5V60.7C74.2,63.5,71.4,65.3,67.7,65.3L67.7,65.3z M144.7,53.8c0,7-5.3,12.2-11.9,12.2
		c-6.6,0-11.9-4.9-11.9-12.2c0-7,5-12.3,11.9-12.3C139.4,41.5,144.7,46.8,144.7,53.8L144.7,53.8z M156,53.8
		c0-13.3-10.4-23.6-23.2-23.6s-23.3,9.6-23.2,24.3v2.8c0,4.8-3.5,8.1-8.5,8.1c-4.6,0-8.6-2.6-8.6-8.8v-14h10.3v-11H91.7
		c3.4-3.4,5.2-7.8,6.1-14.2h-11c-1.4,8.7-5.4,14.2-14,14.2v10.9h8.8v15.4c0,12.5,7.7,18.3,18.3,18.3c5.5,0,11.5-3,14.6-7.7
		c4.2,5.5,10.8,8.9,18.2,8.9C145.6,77.3,156,66.9,156,53.8L156,53.8z M196.8,52.6c0,7.8-5.2,12.7-12.2,12.7c-6.5,0-12.3-5-12.3-12
		v-1.2c0-6.9,5.6-12.4,12.3-12.4C191.6,39.8,196.8,44.9,196.8,52.6L196.8,52.6z M208.1,52.7c0-13.9-9.6-23.7-21.4-23.7
		c-7.7,0-13.1,3.9-14.7,7v-5.7h-10.9v72c6.1-0.9,9.4-2.9,10.9-9.4v-22c0,0,4.7,5.5,13.8,5.4C197.3,76.1,208.2,67,208.1,52.7
		L208.1,52.7z"/>
	<path class="st1" d="M152.5,97.7v2.2c0,0.5,0.2,0.9,0.7,0.9h0.6v1.5h-1c-1.1,0-1.9-0.8-1.9-1.8v-2.8h-1.2v-1.5
		c1.1,0,1.7-0.7,1.9-1.9h1.5c-0.1,0.8-0.4,1.4-0.8,1.9h1.5v1.5H152.5z M144.9,102.1v-3.4c0-0.7,0.5-1.3,1.3-1.3s1.2,0.5,1.2,1.3v3.5
		h1.5v-3.7c0-1.6-0.9-2.4-2.3-2.4c-0.8,0-1.4,0.5-1.7,0.9v-0.7h-1.5v6h1.5V102.1z M137.6,98.5c0.2-0.6,0.8-1.1,1.5-1.1
		c0.8,0,1.3,0.5,1.5,1.1H137.6z M139.1,96c-1.7,0-3,1.4-3,3.2c0,1.8,1.3,3.2,3.1,3.2c1.3,0,2.5-0.9,2.9-2.1h-1.6
		c-0.3,0.4-0.7,0.7-1.3,0.7c-0.9,0-1.5-0.6-1.6-1.4h4.6C142.2,97.6,141,96,139.1,96L139.1,96z M127.4,102.1v-3.4
		c0-0.8,0.4-1.3,1.1-1.3s1.1,0.5,1.1,1.2v3.5h1.5v-3.5c0-0.8,0.5-1.2,1.1-1.2c0.7,0,1.1,0.4,1.1,1.2v3.5h1.5v-3.7
		c0-1.6-1-2.5-2.4-2.5c-0.9,0-1.5,0.4-1.9,0.8c-0.3-0.5-0.9-0.8-1.7-0.8s-1.4,0.5-1.6,0.9v-0.7H126v6H127.4z M120.1,98.5
		c0.2-0.6,0.8-1.1,1.5-1.1c0.8,0,1.3,0.5,1.5,1.1H120.1z M121.6,96c-1.7,0-3,1.4-3,3.2c0,1.8,1.3,3.2,3.1,3.2c1.3,0,2.5-0.9,2.9-2.1
		H123c-0.3,0.4-0.7,0.7-1.3,0.7c-0.9,0-1.5-0.6-1.6-1.4h4.6C124.8,97.6,123.5,96,121.6,96L121.6,96z M114.1,104
		c-0.8,0-1.5-0.7-1.6-1.5H111c0,1.7,1.4,3,3.1,3s3-1.3,3.1-3h-1.5C115.7,103.3,115,104,114.1,104L114.1,104z M114.2,100.8
		c-0.9,0-1.6-0.7-1.6-1.6s0.7-1.5,1.6-1.5c0.8,0,1.6,0.7,1.6,1.5C115.7,100.1,115,100.8,114.2,100.8L114.2,100.8z M114.1,96.2
		c-1.7,0-3.1,1.4-3.1,3.1s1.4,3.1,3.1,3.1s3.1-1.4,3.1-3.1c0-0.6-0.2-1.1-0.5-1.6h1.2v-1.5H114.1z M106.7,100.8
		c-0.9,0-1.6-0.7-1.6-1.7s0.7-1.7,1.6-1.7s1.6,0.7,1.6,1.6v0.2C108.3,100.1,107.6,100.8,106.7,100.8L106.7,100.8z M108.3,96.2v0.6
		c-0.3-0.5-1-0.8-1.9-0.8c-1.7,0-2.9,1.4-2.9,3.2c0,1.9,1.4,3.1,2.9,3.1c1,0,1.7-0.5,1.8-0.9v0.7h1.5v-6h-1.4V96.2z M98.4,102.1
		v-3.4c0-0.7,0.5-1.3,1.3-1.3s1.2,0.5,1.2,1.3v3.5h1.5v-3.7c0-1.6-0.9-2.4-2.3-2.4c-0.8,0-1.4,0.5-1.7,0.9v-0.7H97v6h1.4V102.1z
		 M92.2,100.8c-0.9,0-1.6-0.7-1.6-1.7s0.7-1.7,1.6-1.7s1.6,0.7,1.6,1.6v0.2C93.9,100.1,93.1,100.8,92.2,100.8L92.2,100.8z
		 M93.9,96.2v0.6c-0.3-0.5-1-0.8-1.9-0.8c-1.7,0-2.9,1.4-2.9,3.2c0,1.9,1.4,3.1,2.9,3.1c1,0,1.7-0.5,1.8-0.9v0.7h1.5v-6h-1.4V96.2z
		 M80.5,102.1v-3.4c0-0.8,0.4-1.3,1.1-1.3s1.1,0.5,1.1,1.2v3.5h1.5v-3.5c0-0.8,0.5-1.2,1.1-1.2c0.7,0,1.1,0.4,1.1,1.2v3.5H88v-3.7
		c0-1.6-1-2.5-2.4-2.5c-0.9,0-1.5,0.4-1.9,0.8c-0.3-0.5-0.9-0.8-1.7-0.8c-0.8,0-1.4,0.5-1.6,0.9v-0.7h-1.5v6H80.5z M70.5,98.5
		c0.2-0.6,0.8-1.1,1.5-1.1c0.8,0,1.3,0.5,1.5,1.1H70.5z M72,96c-1.7,0-3,1.4-3,3.2c0,1.8,1.3,3.2,3.1,3.2c1.3,0,2.5-0.9,2.9-2.1
		h-1.6c-0.3,0.4-0.7,0.7-1.3,0.7c-0.9,0-1.5-0.6-1.6-1.4H75C75.1,97.6,73.8,96,72,96L72,96z M66.4,99.9c-0.3,0.6-0.8,0.9-1.4,0.9
		c-0.9,0-1.6-0.7-1.6-1.6s0.7-1.6,1.6-1.6c0.7,0,1.3,0.4,1.5,1.1H68c-0.3-1.6-1.5-2.6-3.1-2.6c-1.7,0-3.1,1.4-3.1,3.2
		c0,1.8,1.3,3.2,3,3.2c1.5,0,2.7-0.9,3.1-2.4h-1.5V99.9z M60.5,96.2h-2v1.5H59v4.5h1.5V96.2z M59.6,95.3c0.5,0,0.9-0.4,0.9-1
		c0-0.5-0.4-0.9-0.9-0.9c-0.6,0-1,0.4-1,0.9C58.6,94.9,59,95.3,59.6,95.3L59.6,95.3z M54.3,100.2l-1.7-4H51l2.5,6H55l2.5-6H56
		L54.3,100.2z M50,96.2c-1.1,0-1.7,0.6-2,1.1v-1.1h-1.4v6H48v-2.3c0-1.6,0.9-2.2,2.1-2.2h0.4v-1.5H50z M40.7,98.5
		c0.2-0.6,0.8-1.1,1.5-1.1c0.8,0,1.3,0.5,1.5,1.1H40.7z M42.2,96c-1.7,0-3,1.4-3,3.2c0,1.8,1.3,3.2,3.1,3.2c1.3,0,2.5-0.9,2.9-2.1
		h-1.6c-0.3,0.4-0.7,0.7-1.3,0.7c-0.9,0-1.5-0.6-1.6-1.4h4.6C45.4,97.6,44.1,96,42.2,96L42.2,96z M36,101.1c-0.5,0-0.8-0.3-1-0.7
		h-1.5c0.1,0.8,0.7,1.9,2.3,1.9c1.3,0,2.3-0.7,2.3-1.9c0-0.9-0.6-1.5-1.7-1.8c-1-0.3-1.4-0.6-1.4-0.9s0.3-0.5,0.7-0.5
		c0.5,0,0.9,0.3,0.9,0.7h1.5c-0.2-1-0.9-1.9-2.4-1.9c-1.1,0-2.2,0.7-2.2,1.8c0,1.1,1.1,1.7,2,1.9c0.6,0.2,1.2,0.3,1.2,0.7
		C36.7,100.8,36.4,101.1,36,101.1L36,101.1z M27.9,99.5c0,0.8-0.5,1.4-1.3,1.4s-1.3-0.5-1.3-1.3v-3.5H24v3.6c0,1.6,0.9,2.5,2.4,2.5
		c0.8,0,1.3-0.3,1.6-0.7v0.8c0,0.8-0.8,1.5-1.6,1.5c-0.7,0-1.3-0.5-1.5-1.1h-1.5c0.2,1.5,1.5,2.5,3,2.5c1.7,0,3-1.3,3-3.1V96h-1.5
		V99.5z M20.6,101.1c-0.5,0-0.8-0.3-1-0.7h-1.5c0.1,0.8,0.7,1.9,2.3,1.9c1.3,0,2.3-0.7,2.3-1.9c0-0.9-0.6-1.5-1.7-1.8
		s-1.5-0.6-1.5-0.9s0.3-0.5,0.7-0.5c0.5,0,0.9,0.3,0.9,0.7h1.5c-0.2-1-0.9-1.9-2.4-1.9c-1.1,0-2.2,0.7-2.2,1.8c0,1.1,1.1,1.7,2,1.9
		c0.6,0.2,1.2,0.3,1.2,0.7C21.3,100.8,21.1,101.1,20.6,101.1L20.6,101.1z M13.6,100.8c-0.9,0-1.6-0.7-1.6-1.7s0.7-1.7,1.6-1.7
		c0.9,0,1.6,0.7,1.6,1.6v0.2C15.2,100.1,14.5,100.8,13.6,100.8L13.6,100.8z M15.3,96.2v0.6c-0.3-0.5-1-0.8-1.9-0.8
		c-1.7,0-2.9,1.4-2.9,3.2c0,1.9,1.4,3.1,2.9,3.1c1,0,1.7-0.5,1.8-0.9v0.7h1.5v-6h-1.4V96.2z M5.1,98.5c0.2-0.6,0.8-1.1,1.5-1.1
		c0.8,0,1.3,0.5,1.5,1.1H5.1z M6.5,96c-1.7,0-3,1.4-3,3.2c0,1.8,1.3,3.2,3.1,3.2c1.3,0,2.5-0.9,2.9-2.1H7.8
		c-0.3,0.4-0.7,0.7-1.3,0.7c-0.9,0-1.5-0.6-1.6-1.4h4.6C9.7,97.6,8.4,96,6.5,96L6.5,96z"/>
</g>
</svg>
