<svg xmlns="http://www.w3.org/2000/svg"  viewBox="0 0 48 48" width="500px" height="500px"><linearGradient id="8gMxoOp28nkY4FOVZcQ8Fa" x1="24" x2="24" y1="4.938" y2="34.519" gradientUnits="userSpaceOnUse"><stop offset="0" stop-color="#ffd747"/><stop offset=".21" stop-color="#ffd645"/><stop offset=".44" stop-color="#fed43e"/><stop offset=".651" stop-color="#fccf33"/><stop offset=".766" stop-color="#fac922"/><stop offset=".897" stop-color="#f7c10c"/><stop offset="1" stop-color="#f5bc00"/></linearGradient><path fill="url(#8gMxoOp28nkY4FOVZcQ8Fa)" d="M39,44H9c-1.105,0-2-0.895-2-2V6c0-1.105,0.895-2,2-2h30c1.105,0,2,0.895,2,2v36	C41,43.105,40.105,44,39,44z"/><path d="M29.172,6c0.53,0,1.039,0.211,1.414,0.586l7.828,7.828C38.789,14.789,39,15.298,39,15.828V41c0,0.552-0.448,1-1,1H10 c-0.552,0-1-0.448-1-1V7c0-0.552,0.448-1,1-1H29.172 M29.172,5H10C8.897,5,8,5.897,8,7v34c0,1.103,0.897,2,2,2h28 c1.103,0,2-0.897,2-2V15.828c0-0.801-0.312-1.555-0.879-2.121l-7.828-7.828C30.726,5.312,29.973,5,29.172,5L29.172,5z" opacity=".05"/><path d="M29.172,6c0.53,0,1.039,0.211,1.414,0.586l7.828,7.828C38.789,14.789,39,15.298,39,15.828V41c0,0.552-0.448,1-1,1H10 c-0.552,0-1-0.448-1-1V7c0-0.552,0.448-1,1-1H29.172 M29.172,5.5H10C9.173,5.5,8.5,6.173,8.5,7v34c0,0.827,0.673,1.5,1.5,1.5h28 c0.827,0,1.5-0.673,1.5-1.5V15.828c0-0.668-0.26-1.296-0.732-1.768l-7.828-7.828C30.467,5.76,29.839,5.5,29.172,5.5L29.172,5.5z" opacity=".07"/><linearGradient id="8gMxoOp28nkY4FOVZcQ8Fb" x1="24" x2="24" y1="18.333" y2="61.003" gradientUnits="userSpaceOnUse"><stop offset="0" stop-color="#f9f9f9"/><stop offset=".26" stop-color="#f0f1f2"/><stop offset=".678" stop-color="#d9dcdf"/><stop offset="1" stop-color="#c2c8cc"/></linearGradient><path fill="url(#8gMxoOp28nkY4FOVZcQ8Fb)" d="M10,6C9.448,6,9,6.448,9,7v34c0,0.552,0.448,1,1,1h28c0.552,0,1-0.448,1-1V15.828 c0-0.53-0.211-1.039-0.586-1.414l-7.828-7.828C30.211,6.211,29.702,6,29.172,6H10z"/><linearGradient id="8gMxoOp28nkY4FOVZcQ8Fc" x1="15.854" x2="22.091" y1="22.854" y2="29.091" gradientUnits="userSpaceOnUse"><stop offset="0" stop-color="#d43a02"/><stop offset=".815" stop-color="#b9360c"/><stop offset=".992" stop-color="#a33611"/></linearGradient><circle cx="19.5" cy="26.5" r="6.5" fill="url(#8gMxoOp28nkY4FOVZcQ8Fc)"/><linearGradient id="8gMxoOp28nkY4FOVZcQ8Fd" x1="32.113" x2="24.988" y1="27.666" y2="32.666" gradientUnits="userSpaceOnUse"><stop offset="0" stop-color="#2aa4f4"/><stop offset=".887" stop-color="#007ad9"/><stop offset=".992" stop-color="#0067d7"/></linearGradient><path fill="url(#8gMxoOp28nkY4FOVZcQ8Fd)" d="M34.5,35h-10c-0.276,0-0.5-0.224-0.5-0.5v-10c0-0.276,0.224-0.5,0.5-0.5h10	c0.276,0,0.5,0.224,0.5,0.5v10C35,34.776,34.776,35,34.5,35z"/><linearGradient id="8gMxoOp28nkY4FOVZcQ8Fe" x1="22.5" x2="22.5" y1="27.375" y2="37.373" gradientUnits="userSpaceOnUse"><stop offset="0" stop-color="#ffd747"/><stop offset=".21" stop-color="#ffd645"/><stop offset=".44" stop-color="#fed43e"/><stop offset=".651" stop-color="#fccf33"/><stop offset=".766" stop-color="#fac922"/><stop offset=".897" stop-color="#f7c10c"/><stop offset="1" stop-color="#f5bc00"/></linearGradient><polygon fill="url(#8gMxoOp28nkY4FOVZcQ8Fe)" points="16,38 22,27 29,38"/><path fill="#4caf50" d="M22.5,28h-1c-0.276,0-0.5-0.224-0.5-0.5v-1c0-0.276,0.224-0.5,0.5-0.5h1c0.276,0,0.5,0.224,0.5,0.5 v1C23,27.776,22.776,28,22.5,28z"/><path fill="#4caf50" d="M16.5,39h-1c-0.276,0-0.5-0.224-0.5-0.5v-1c0-0.276,0.224-0.5,0.5-0.5h1c0.276,0,0.5,0.224,0.5,0.5 v1C17,38.776,16.776,39,16.5,39z"/><path fill="#4caf50" d="M29.5,39h-1c-0.276,0-0.5-0.224-0.5-0.5v-1c0-0.276,0.224-0.5,0.5-0.5h1c0.276,0,0.5,0.224,0.5,0.5 v1C30,38.776,29.776,39,29.5,39z"/></svg>