<svg xmlns="http://www.w3.org/2000/svg"  viewBox="0 0 48 48" width="500px" height="500px"><linearGradient id="J~FgtzGqlt98Fc0Riuxq9a" x1="24" x2="24" y1="6" y2="45.172" gradientUnits="userSpaceOnUse"><stop offset="0" stop-color="#4caf50"/><stop offset=".489" stop-color="#4aaf50"/><stop offset=".665" stop-color="#43ad50"/><stop offset=".79" stop-color="#38aa50"/><stop offset=".892" stop-color="#27a550"/><stop offset=".978" stop-color="#11a050"/><stop offset="1" stop-color="#0a9e50"/></linearGradient><path fill="url(#J~FgtzGqlt98Fc0Riuxq9a)" d="M39,44H9c-1.105,0-2-0.895-2-2V6c0-1.105,0.895-2,2-2h30c1.105,0,2,0.895,2,2v36	C41,43.105,40.105,44,39,44z"/><path d="M29.172,6c0.53,0,1.039,0.211,1.414,0.586l7.828,7.828C38.789,14.789,39,15.298,39,15.828V41c0,0.552-0.448,1-1,1H10 c-0.552,0-1-0.448-1-1V7c0-0.552,0.448-1,1-1H29.172 M29.172,5H10C8.897,5,8,5.897,8,7v34c0,1.103,0.897,2,2,2h28 c1.103,0,2-0.897,2-2V15.828c0-0.801-0.312-1.555-0.879-2.121l-7.828-7.828C30.726,5.312,29.973,5,29.172,5L29.172,5z" opacity=".05"/><path d="M29.172,6c0.53,0,1.039,0.211,1.414,0.586l7.828,7.828C38.789,14.789,39,15.298,39,15.828V41c0,0.552-0.448,1-1,1H10 c-0.552,0-1-0.448-1-1V7c0-0.552,0.448-1,1-1H29.172 M29.172,5.5H10C9.173,5.5,8.5,6.173,8.5,7v34c0,0.827,0.673,1.5,1.5,1.5h28 c0.827,0,1.5-0.673,1.5-1.5V15.828c0-0.668-0.26-1.296-0.732-1.768l-7.828-7.828C30.467,5.76,29.839,5.5,29.172,5.5L29.172,5.5z" opacity=".07"/><linearGradient id="J~FgtzGqlt98Fc0Riuxq9b" x1="24" x2="24" y1="18.333" y2="61.003" gradientUnits="userSpaceOnUse"><stop offset="0" stop-color="#f9f9f9"/><stop offset=".26" stop-color="#f0f1f2"/><stop offset=".678" stop-color="#d9dcdf"/><stop offset="1" stop-color="#c2c8cc"/></linearGradient><path fill="url(#J~FgtzGqlt98Fc0Riuxq9b)" d="M10,6C9.448,6,9,6.448,9,7v34c0,0.552,0.448,1,1,1h28c0.552,0,1-0.448,1-1V15.828 c0-0.53-0.211-1.039-0.586-1.414l-7.828-7.828C30.211,6.211,29.702,6,29.172,6H10z"/><path fill="#c0edc0" d="M17.5,34h-5c-0.276,0-0.5-0.224-0.5-0.5v-1c0-0.276,0.224-0.5,0.5-0.5h5c0.276,0,0.5,0.224,0.5,0.5 v1C18,33.776,17.776,34,17.5,34z"/><path fill="#c0edc0" d="M25.5,34h-5c-0.276,0-0.5-0.224-0.5-0.5v-1c0-0.276,0.224-0.5,0.5-0.5h5c0.276,0,0.5,0.224,0.5,0.5 v1C26,33.776,25.776,34,25.5,34z"/><path fill="#c0edc0" d="M33.5,34h-5c-0.276,0-0.5-0.224-0.5-0.5v-1c0-0.276,0.224-0.5,0.5-0.5h5c0.276,0,0.5,0.224,0.5,0.5 v1C34,33.776,33.776,34,33.5,34z"/><path fill="#c0edc0" d="M17.5,31h-5c-0.276,0-0.5-0.224-0.5-0.5v-1c0-0.276,0.224-0.5,0.5-0.5h5c0.276,0,0.5,0.224,0.5,0.5 v1C18,30.776,17.776,31,17.5,31z"/><path fill="#c0edc0" d="M25.5,31h-5c-0.276,0-0.5-0.224-0.5-0.5v-1c0-0.276,0.224-0.5,0.5-0.5h5c0.276,0,0.5,0.224,0.5,0.5 v1C26,30.776,25.776,31,25.5,31z"/><path fill="#c0edc0" d="M33.5,31h-5c-0.276,0-0.5-0.224-0.5-0.5v-1c0-0.276,0.224-0.5,0.5-0.5h5c0.276,0,0.5,0.224,0.5,0.5 v1C34,30.776,33.776,31,33.5,31z"/><path fill="#c0edc0" d="M17.5,28h-5c-0.276,0-0.5-0.224-0.5-0.5v-1c0-0.276,0.224-0.5,0.5-0.5h5c0.276,0,0.5,0.224,0.5,0.5 v1C18,27.776,17.776,28,17.5,28z"/><path fill="#c0edc0" d="M25.5,28h-5c-0.276,0-0.5-0.224-0.5-0.5v-1c0-0.276,0.224-0.5,0.5-0.5h5c0.276,0,0.5,0.224,0.5,0.5 v1C26,27.776,25.776,28,25.5,28z"/><path fill="#c0edc0" d="M33.5,28h-5c-0.276,0-0.5-0.224-0.5-0.5v-1c0-0.276,0.224-0.5,0.5-0.5h5c0.276,0,0.5,0.224,0.5,0.5 v1C34,27.776,33.776,28,33.5,28z"/><path fill="#9fdd9f" d="M17.5,25h-5c-0.276,0-0.5-0.224-0.5-0.5v-1c0-0.276,0.224-0.5,0.5-0.5h5c0.276,0,0.5,0.224,0.5,0.5 v1C18,24.776,17.776,25,17.5,25z"/><path fill="#9fdd9f" d="M25.5,25h-5c-0.276,0-0.5-0.224-0.5-0.5v-1c0-0.276,0.224-0.5,0.5-0.5h5c0.276,0,0.5,0.224,0.5,0.5 v1C26,24.776,25.776,25,25.5,25z"/><path fill="#9fdd9f" d="M33.5,25h-5c-0.276,0-0.5-0.224-0.5-0.5v-1c0-0.276,0.224-0.5,0.5-0.5h5c0.276,0,0.5,0.224,0.5,0.5 v1C34,24.776,33.776,25,33.5,25z"/><path fill="#c0edc0" d="M17.5,37h-5c-0.276,0-0.5-0.224-0.5-0.5v-1c0-0.276,0.224-0.5,0.5-0.5h5c0.276,0,0.5,0.224,0.5,0.5 v1C18,36.776,17.776,37,17.5,37z"/><path fill="#c0edc0" d="M25.5,37h-5c-0.276,0-0.5-0.224-0.5-0.5v-1c0-0.276,0.224-0.5,0.5-0.5h5c0.276,0,0.5,0.224,0.5,0.5 v1C26,36.776,25.776,37,25.5,37z"/><path fill="#c0edc0" d="M33.5,37h-5c-0.276,0-0.5-0.224-0.5-0.5v-1c0-0.276,0.224-0.5,0.5-0.5h5c0.276,0,0.5,0.224,0.5,0.5 v1C34,36.776,33.776,37,33.5,37z"/><g><linearGradient id="J~FgtzGqlt98Fc0Riuxq9c" x1="25.5" x2="25.5" y1="31.963" y2="40.207" gradientUnits="userSpaceOnUse"><stop offset="0" stop-color="#2aa4f4"/><stop offset="1" stop-color="#007ad9"/></linearGradient><path fill="url(#J~FgtzGqlt98Fc0Riuxq9c)" d="M27,39h-3v-6.563C24,32.196,24.224,32,24.5,32h2c0.276,0,0.5,0.196,0.5,0.438V39z"/><linearGradient id="J~FgtzGqlt98Fc0Riuxq9d" x1="28.5" x2="28.5" y1="30.958" y2="40.38" gradientUnits="userSpaceOnUse"><stop offset="0" stop-color="#d43a02"/><stop offset="1" stop-color="#b9360c"/></linearGradient><path fill="url(#J~FgtzGqlt98Fc0Riuxq9d)" d="M29.979,39h-2.958C27.009,39,27,38.991,27,38.979V30.5c0-0.276,0.224-0.5,0.5-0.5h2 c0.276,0,0.5,0.224,0.5,0.5v8.479C30,38.991,29.991,39,29.979,39z"/><linearGradient id="J~FgtzGqlt98Fc0Riuxq9e" x1="31.5" x2="31.5" y1="32.567" y2="40.104" gradientUnits="userSpaceOnUse"><stop offset="0" stop-color="#ffd747"/><stop offset=".21" stop-color="#ffd645"/><stop offset=".44" stop-color="#fed43e"/><stop offset=".651" stop-color="#fccf33"/><stop offset=".766" stop-color="#fac922"/><stop offset=".897" stop-color="#f7c10c"/><stop offset="1" stop-color="#f5bc00"/></linearGradient><path fill="url(#J~FgtzGqlt98Fc0Riuxq9e)" d="M33,39h-3v-3.6c0-0.221,0.224-0.4,0.5-0.4h2c0.276,0,0.5,0.179,0.5,0.4V39z"/><linearGradient id="J~FgtzGqlt98Fc0Riuxq9f" x1="34.5" x2="34.5" y1="30.958" y2="40.38" gradientUnits="userSpaceOnUse"><stop offset="0" stop-color="#4caf50"/><stop offset=".489" stop-color="#4aaf50"/><stop offset=".665" stop-color="#43ad50"/><stop offset=".79" stop-color="#38aa50"/><stop offset=".892" stop-color="#27a550"/><stop offset=".978" stop-color="#11a050"/><stop offset="1" stop-color="#0a9e50"/></linearGradient><path fill="url(#J~FgtzGqlt98Fc0Riuxq9f)" d="M36,39h-3v-5.5c0-0.276,0.224-0.5,0.5-0.5h2c0.276,0,0.5,0.224,0.5,0.5V39z"/></g></svg>