<svg xmlns="http://www.w3.org/2000/svg"  viewBox="0 0 48 48" width="500px" height="500px"><linearGradient id="HRVHurZmxZb2bftTgcc55a" x1="18.921" x2="25.143" y1="5.715" y2="26.715" gradientUnits="userSpaceOnUse"><stop offset="0" stop-color="#0078d3"/><stop offset="1" stop-color="#0858a1"/></linearGradient><path fill="url(#HRVHurZmxZb2bftTgcc55a)" d="M43,29.452H5V16.554c0-0.686,0.352-1.325,0.932-1.691l16.466-10.4	c0.979-0.618,2.225-0.618,3.204,0l16.466,10.4C42.648,15.23,43,15.868,43,16.554V29.452z"/><linearGradient id="HRVHurZmxZb2bftTgcc55b" x1="24" x2="24" y1="15.394" y2="28.484" gradientUnits="userSpaceOnUse"><stop offset="0" stop-color="#fff"/><stop offset=".24" stop-color="#f8f8f7"/><stop offset="1" stop-color="#e3e3e1"/></linearGradient><path fill="url(#HRVHurZmxZb2bftTgcc55b)" d="M39,33H9V16c0-0.552,0.448-1,1-1h28c0.552,0,1,0.448,1,1V33z"/><linearGradient id="HRVHurZmxZb2bftTgcc55c" x1="25.886" x2="37.997" y1="27.936" y2="45.269" gradientUnits="userSpaceOnUse"><stop offset="0" stop-color="#3ccbf4"/><stop offset="1" stop-color="#1fa0e5"/></linearGradient><path fill="url(#HRVHurZmxZb2bftTgcc55c)" d="M43,17v21.256C43,39.219,42.206,40,41.226,40H9.56l4.803-6.327L43,17z"/><linearGradient id="HRVHurZmxZb2bftTgcc55d" x1="3.074" x2="39.962" y1="27.236" y2="45.125" gradientUnits="userSpaceOnUse"><stop offset="0" stop-color="#28afea"/><stop offset="1" stop-color="#0b88da"/></linearGradient><path fill="url(#HRVHurZmxZb2bftTgcc55d)" d="M5,17v21.256C5,39.219,5.794,40,6.774,40h34.453c0.56,0,1.053-0.26,1.378-0.658L5,17z"/></svg>