<svg xmlns="http://www.w3.org/2000/svg"  viewBox="0 0 48 48" width="500px" height="500px"><linearGradient id="FhRUKypBhew0ZXZ9GCZiDa" x1="24" x2="24" y1="44.333" y2="27.939" gradientUnits="userSpaceOnUse"><stop offset="0" stop-color="#912fbd"/><stop offset="1" stop-color="#9332bf"/></linearGradient><path fill="url(#FhRUKypBhew0ZXZ9GCZiDa)" d="M39,44H9c-1.105,0-2-0.895-2-2V6c0-1.105,0.895-2,2-2h30c1.105,0,2,0.895,2,2v36	C41,43.105,40.105,44,39,44z"/><path d="M29.172,6c0.53,0,1.039,0.211,1.414,0.586l7.828,7.828C38.789,14.789,39,15.298,39,15.828V41c0,0.552-0.448,1-1,1H10 c-0.552,0-1-0.448-1-1V7c0-0.552,0.448-1,1-1H29.172 M29.172,5H10C8.897,5,8,5.897,8,7v34c0,1.103,0.897,2,2,2h28 c1.103,0,2-0.897,2-2V15.828c0-0.801-0.312-1.555-0.879-2.121l-7.828-7.828C30.726,5.312,29.973,5,29.172,5L29.172,5z" opacity=".05"/><path d="M29.172,6c0.53,0,1.039,0.211,1.414,0.586l7.828,7.828C38.789,14.789,39,15.298,39,15.828V41c0,0.552-0.448,1-1,1H10 c-0.552,0-1-0.448-1-1V7c0-0.552,0.448-1,1-1H29.172 M29.172,5.5H10C9.173,5.5,8.5,6.173,8.5,7v34c0,0.827,0.673,1.5,1.5,1.5h28 c0.827,0,1.5-0.673,1.5-1.5V15.828c0-0.668-0.26-1.296-0.732-1.768l-7.828-7.828C30.467,5.76,29.839,5.5,29.172,5.5L29.172,5.5z" opacity=".07"/><linearGradient id="FhRUKypBhew0ZXZ9GCZiDb" x1="24" x2="24" y1="18.333" y2="61.003" gradientUnits="userSpaceOnUse"><stop offset="0" stop-color="#f9f9f9"/><stop offset=".26" stop-color="#f0f1f2"/><stop offset=".678" stop-color="#d9dcdf"/><stop offset="1" stop-color="#c2c8cc"/></linearGradient><path fill="url(#FhRUKypBhew0ZXZ9GCZiDb)" d="M10,6C9.448,6,9,6.448,9,7v34c0,0.552,0.448,1,1,1h28c0.552,0,1-0.448,1-1V15.828 c0-0.53-0.211-1.039-0.586-1.414l-7.828-7.828C30.211,6.211,29.702,6,29.172,6H10z"/><path fill="#e8c4f5" d="M15.5,39h-4c-0.276,0-0.5-0.224-0.5-0.5v-1c0-0.276,0.224-0.5,0.5-0.5h4c0.276,0,0.5,0.224,0.5,0.5 v1C16,38.776,15.776,39,15.5,39z"/><path fill="#e8c4f5" d="M22.5,39h-4c-0.276,0-0.5-0.224-0.5-0.5v-1c0-0.276,0.224-0.5,0.5-0.5h4c0.276,0,0.5,0.224,0.5,0.5 v1C23,38.776,22.776,39,22.5,39z"/><path fill="#e8c4f5" d="M29.5,39h-4c-0.276,0-0.5-0.224-0.5-0.5v-1c0-0.276,0.224-0.5,0.5-0.5h4c0.276,0,0.5,0.224,0.5,0.5 v1C30,38.776,29.776,39,29.5,39z"/><path fill="#e8c4f5" d="M36.5,39h-4c-0.276,0-0.5-0.224-0.5-0.5v-1c0-0.276,0.224-0.5,0.5-0.5h4c0.276,0,0.5,0.224,0.5,0.5 v1C37,38.776,36.776,39,36.5,39z"/><path fill="#e8c4f5" d="M15.5,36h-4c-0.276,0-0.5-0.224-0.5-0.5v-1c0-0.276,0.224-0.5,0.5-0.5h4c0.276,0,0.5,0.224,0.5,0.5 v1C16,35.776,15.776,36,15.5,36z"/><path fill="#e8c4f5" d="M22.5,36h-4c-0.276,0-0.5-0.224-0.5-0.5v-1c0-0.276,0.224-0.5,0.5-0.5h4c0.276,0,0.5,0.224,0.5,0.5 v1C23,35.776,22.776,36,22.5,36z"/><path fill="#e8c4f5" d="M29.5,36h-4c-0.276,0-0.5-0.224-0.5-0.5v-1c0-0.276,0.224-0.5,0.5-0.5h4c0.276,0,0.5,0.224,0.5,0.5 v1C30,35.776,29.776,36,29.5,36z"/><path fill="#e8c4f5" d="M36.5,36h-4c-0.276,0-0.5-0.224-0.5-0.5v-1c0-0.276,0.224-0.5,0.5-0.5h4c0.276,0,0.5,0.224,0.5,0.5 v1C37,35.776,36.776,36,36.5,36z"/><path fill="#e8c4f5" d="M15.5,33h-4c-0.276,0-0.5-0.224-0.5-0.5v-1c0-0.276,0.224-0.5,0.5-0.5h4c0.276,0,0.5,0.224,0.5,0.5 v1C16,32.776,15.776,33,15.5,33z"/><path fill="#e8c4f5" d="M22.5,33h-4c-0.276,0-0.5-0.224-0.5-0.5v-1c0-0.276,0.224-0.5,0.5-0.5h4c0.276,0,0.5,0.224,0.5,0.5 v1C23,32.776,22.776,33,22.5,33z"/><path fill="#e8c4f5" d="M29.5,33h-4c-0.276,0-0.5-0.224-0.5-0.5v-1c0-0.276,0.224-0.5,0.5-0.5h4c0.276,0,0.5,0.224,0.5,0.5 v1C30,32.776,29.776,33,29.5,33z"/><path fill="#e8c4f5" d="M36.5,33h-4c-0.276,0-0.5-0.224-0.5-0.5v-1c0-0.276,0.224-0.5,0.5-0.5h4c0.276,0,0.5,0.224,0.5,0.5 v1C37,32.776,36.776,33,36.5,33z"/><path fill="#e8c4f5" d="M15.5,30h-4c-0.276,0-0.5-0.224-0.5-0.5v-1c0-0.276,0.224-0.5,0.5-0.5h4c0.276,0,0.5,0.224,0.5,0.5 v1C16,29.776,15.776,30,15.5,30z"/><path fill="#e8c4f5" d="M22.5,30h-4c-0.276,0-0.5-0.224-0.5-0.5v-1c0-0.276,0.224-0.5,0.5-0.5h4c0.276,0,0.5,0.224,0.5,0.5 v1C23,29.776,22.776,30,22.5,30z"/><path fill="#e8c4f5" d="M29.5,30h-4c-0.276,0-0.5-0.224-0.5-0.5v-1c0-0.276,0.224-0.5,0.5-0.5h4c0.276,0,0.5,0.224,0.5,0.5 v1C30,29.776,29.776,30,29.5,30z"/><path fill="#e8c4f5" d="M36.5,30h-4c-0.276,0-0.5-0.224-0.5-0.5v-1c0-0.276,0.224-0.5,0.5-0.5h4c0.276,0,0.5,0.224,0.5,0.5 v1C37,29.776,36.776,30,36.5,30z"/><g><path fill="#e8c4f5" d="M15.5,27h-4c-0.276,0-0.5-0.224-0.5-0.5v-1c0-0.276,0.224-0.5,0.5-0.5h4c0.276,0,0.5,0.224,0.5,0.5 v1C16,26.776,15.776,27,15.5,27z"/><path fill="#e8c4f5" d="M22.5,27h-4c-0.276,0-0.5-0.224-0.5-0.5v-1c0-0.276,0.224-0.5,0.5-0.5h4c0.276,0,0.5,0.224,0.5,0.5 v1C23,26.776,22.776,27,22.5,27z"/><path fill="#e8c4f5" d="M29.5,27h-4c-0.276,0-0.5-0.224-0.5-0.5v-1c0-0.276,0.224-0.5,0.5-0.5h4c0.276,0,0.5,0.224,0.5,0.5 v1C30,26.776,29.776,27,29.5,27z"/><path fill="#e8c4f5" d="M36.5,27h-4c-0.276,0-0.5-0.224-0.5-0.5v-1c0-0.276,0.224-0.5,0.5-0.5h4c0.276,0,0.5,0.224,0.5,0.5 v1C37,26.776,36.776,27,36.5,27z"/></g><g><path fill="#e8c4f5" d="M15.5,24h-4c-0.276,0-0.5-0.224-0.5-0.5v-1c0-0.276,0.224-0.5,0.5-0.5h4c0.276,0,0.5,0.224,0.5,0.5 v1C16,23.776,15.776,24,15.5,24z"/><path fill="#e8c4f5" d="M22.5,24h-4c-0.276,0-0.5-0.224-0.5-0.5v-1c0-0.276,0.224-0.5,0.5-0.5h4c0.276,0,0.5,0.224,0.5,0.5 v1C23,23.776,22.776,24,22.5,24z"/><path fill="#e8c4f5" d="M29.5,24h-4c-0.276,0-0.5-0.224-0.5-0.5v-1c0-0.276,0.224-0.5,0.5-0.5h4c0.276,0,0.5,0.224,0.5,0.5 v1C30,23.776,29.776,24,29.5,24z"/><path fill="#e8c4f5" d="M36.5,24h-4c-0.276,0-0.5-0.224-0.5-0.5v-1c0-0.276,0.224-0.5,0.5-0.5h4c0.276,0,0.5,0.224,0.5,0.5 v1C37,23.776,36.776,24,36.5,24z"/></g><g><path fill="#e8c4f5" d="M15.5,21h-4c-0.276,0-0.5-0.224-0.5-0.5v-1c0-0.276,0.224-0.5,0.5-0.5h4c0.276,0,0.5,0.224,0.5,0.5 v1C16,20.776,15.776,21,15.5,21z"/><path fill="#e8c4f5" d="M22.5,21h-4c-0.276,0-0.5-0.224-0.5-0.5v-1c0-0.276,0.224-0.5,0.5-0.5h4c0.276,0,0.5,0.224,0.5,0.5 v1C23,20.776,22.776,21,22.5,21z"/><path fill="#e8c4f5" d="M29.5,21h-4c-0.276,0-0.5-0.224-0.5-0.5v-1c0-0.276,0.224-0.5,0.5-0.5h4c0.276,0,0.5,0.224,0.5,0.5 v1C30,20.776,29.776,21,29.5,21z"/><path fill="#e8c4f5" d="M36.5,21h-4c-0.276,0-0.5-0.224-0.5-0.5v-1c0-0.276,0.224-0.5,0.5-0.5h4c0.276,0,0.5,0.224,0.5,0.5 v1C37,20.776,36.776,21,36.5,21z"/></g><g><linearGradient id="FhRUKypBhew0ZXZ9GCZiDc" x1="17" x2="31" y1="537.355" y2="537.355" gradientTransform="matrix(1 0 0 -1 0 572)" gradientUnits="userSpaceOnUse"><stop offset="0" stop-color="#7819a2"/><stop offset="1" stop-color="#771aa9"/></linearGradient><path fill="url(#FhRUKypBhew0ZXZ9GCZiDc)" d="M31,31.289H17c0,0,0,4.595,0,4.921C17,37.199,20.134,38,24,38s7-0.801,7-1.789 C31,35.884,31,31.289,31,31.289z"/><linearGradient id="FhRUKypBhew0ZXZ9GCZiDd" x1="17" x2="31" y1="542.355" y2="542.355" gradientTransform="matrix(1 0 0 -1 0 572)" gradientUnits="userSpaceOnUse"><stop offset="0" stop-color="#912fbd"/><stop offset="1" stop-color="#9332bf"/></linearGradient><path fill="url(#FhRUKypBhew0ZXZ9GCZiDd)" d="M31,26.289H17c0,0,0,4.595,0,4.921C17,32.199,20.134,33,24,33s7-0.801,7-1.789 C31,30.884,31,26.289,31,26.289z"/><linearGradient id="FhRUKypBhew0ZXZ9GCZiDe" x1="17" x2="31" y1="547" y2="547" gradientTransform="matrix(1 0 0 -1 0 572)" gradientUnits="userSpaceOnUse"><stop offset="0" stop-color="#ae4cd5"/><stop offset="1" stop-color="#ac4ad5"/></linearGradient><path fill="url(#FhRUKypBhew0ZXZ9GCZiDe)" d="M31,22H17c0,0,0,3.982,0,4.336C17,27.255,20.134,28,24,28s7-0.745,7-1.664 C31,25.982,31,22,31,22z"/><linearGradient id="FhRUKypBhew0ZXZ9GCZiDf" x1="17" x2="31" y1="550" y2="550" gradientTransform="matrix(1 0 0 -1 0 572)" gradientUnits="userSpaceOnUse"><stop offset="0" stop-color="#c965eb"/><stop offset="1" stop-color="#c767e5"/></linearGradient><ellipse cx="24" cy="22" fill="url(#FhRUKypBhew0ZXZ9GCZiDf)" rx="7" ry="2"/></g></svg>