<svg xmlns="http://www.w3.org/2000/svg"  viewBox="0 0 48 48" width="480px" height="480px"><path fill="#D1C4E9" d="M41 4H7C5.895 4 5 4.895 5 6v8c0 1.105.895 2 2 2h34c1.105 0 2-.895 2-2V6C43 4.895 42.105 4 41 4M41 18H7c-1.105 0-2 .895-2 2v8c0 1.105.895 2 2 2h34c1.105 0 2-.895 2-2v-8C43 18.895 42.105 18 41 18M41 32H7c-1.105 0-2 .895-2 2v8c0 1.105.895 2 2 2h34c1.105 0 2-.895 2-2v-8C43 32.895 42.105 32 41 32"/><path fill="#D1C4E9" d="M24 8A16 16 0 1 0 24 40A16 16 0 1 0 24 8Z"/><g><path fill="#512DA8" d="M18.004 26.389c0-.405-.104-.712-.311-.919-.208-.208-.584-.423-1.131-.646-.998-.378-1.716-.821-2.153-1.33-.438-.508-.656-1.108-.656-1.801 0-.839.297-1.512.892-2.02.595-.509 1.35-.763 2.266-.763.611 0 1.155.129 1.634.386.479.258.847.621 1.104 1.091s.386 1.003.386 1.6h-2.003c0-.465-.099-.819-.297-1.063-.198-.243-.484-.365-.858-.365-.351 0-.625.104-.82.311-.196.208-.294.487-.294.838 0 .273.109.521.328.742.219.221.606.449 1.162.687.971.351 1.676.781 2.116 1.292s.66 1.16.66 1.948c0 .866-.276 1.543-.827 2.03s-1.301.731-2.249.731c-.643 0-1.228-.132-1.757-.396s-.942-.643-1.241-1.135-.448-1.073-.448-1.743h2.017c0 .574.112.991.335 1.251s.588.39 1.094.39C17.653 27.503 18.004 27.132 18.004 26.389zM28.36 24.796c0 1.646-.444 2.842-1.333 3.589l1.374 1.23-1.265 1.162-1.832-1.675-.526.034c-1.125 0-2.006-.382-2.642-1.146-.636-.763-.956-1.819-.96-3.168v-1.559c0-1.367.317-2.435.95-3.203.633-.768 1.513-1.151 2.639-1.151 1.099 0 1.966.369 2.604 1.107s.969 1.775.991 3.11V24.796zM26.344 23.251c0-.907-.13-1.577-.39-2.01s-.656-.649-1.189-.649-.927.211-1.183.632c-.255.422-.387 1.063-.396 1.925v1.647c0 .911.131 1.584.393 2.017s.662.649 1.2.649c.524 0 .915-.215 1.173-.646.257-.43.389-1.088.393-1.972V23.251zM31.819 27.332h3.527V29H29.81v-9.953h2.01V27.332z"/></g></svg>