<svg xmlns="http://www.w3.org/2000/svg"  viewBox="0 0 48 48" width="500px" height="500px"><linearGradient id="bwc2gTApiQRdrgZvACv8Ha" x1="24" x2="24" y1="6.708" y2="14.977" gradientUnits="userSpaceOnUse"><stop offset="0" stop-color="#eba600"/><stop offset="1" stop-color="#c28200"/></linearGradient><path fill="url(#bwc2gTApiQRdrgZvACv8Ha)" d="M24.414,10.414l-2.536-2.536C21.316,7.316,20.553,7,19.757,7L5,7C3.895,7,3,7.895,3,9l0,30	c0,1.105,0.895,2,2,2l38,0c1.105,0,2-0.895,2-2V13c0-1.105-0.895-2-2-2l-17.172,0C25.298,11,24.789,10.789,24.414,10.414z"/><linearGradient id="bwc2gTApiQRdrgZvACv8Hb" x1="24" x2="24" y1="10.854" y2="40.983" gradientUnits="userSpaceOnUse"><stop offset="0" stop-color="#ffd869"/><stop offset="1" stop-color="#fec52b"/></linearGradient><path fill="url(#bwc2gTApiQRdrgZvACv8Hb)" d="M21.586,14.414l3.268-3.268C24.947,11.053,25.074,11,25.207,11H43c1.105,0,2,0.895,2,2v26	c0,1.105-0.895,2-2,2H5c-1.105,0-2-0.895-2-2V15.5C3,15.224,3.224,15,3.5,15h16.672C20.702,15,21.211,14.789,21.586,14.414z"/><path fill="#c28200" d="M36,11.5v1c0,0.276-0.224,0.5-0.5,0.5H34c-0.552,0-1-0.448-1-1c0-0.552,0.448-1,1-1h1.5	C35.776,11,36,11.224,36,11.5z M34,14c0-0.552-0.448-1-1-1h-1.5c-0.276,0-0.5,0.224-0.5,0.5v1c0,0.276,0.224,0.5,0.5,0.5H33	C33.552,15,34,14.552,34,14z M33,16c0,0.552,0.448,1,1,1h1.5c0.276,0,0.5-0.224,0.5-0.5v-1c0-0.276-0.224-0.5-0.5-0.5H34	C33.448,15,33,15.448,33,16z M34,18c0-0.552-0.448-1-1-1h-1.5c-0.276,0-0.5,0.224-0.5,0.5v1c0,0.276,0.224,0.5,0.5,0.5H33	C33.552,19,34,18.552,34,18z M33,20c0,0.552,0.448,1,1,1h1.5c0.276,0,0.5-0.224,0.5-0.5v-1c0-0.276-0.224-0.5-0.5-0.5H34	C33.448,19,33,19.448,33,20z M33,24c0,0.552,0.448,1,1,1h1.5c0.276,0,0.5-0.224,0.5-0.5v-1c0-0.276-0.224-0.5-0.5-0.5H34	C33.448,23,33,23.448,33,24z M34,22c0-0.552-0.448-1-1-1h-1.5c-0.276,0-0.5,0.224-0.5,0.5v1c0,0.276,0.224,0.5,0.5,0.5H33	C33.552,23,34,22.552,34,22z"/><linearGradient id="bwc2gTApiQRdrgZvACv8Hc" x1="33.5" x2="33.5" y1="25.944" y2="37.581" gradientUnits="userSpaceOnUse"><stop offset="0" stop-color="#4b4b4b"/><stop offset="1" stop-color="#3b3b3b"/></linearGradient><path fill="url(#bwc2gTApiQRdrgZvACv8Hc)" d="M36.128,26.848C36.055,26.358,35.635,26,35.139,26h-3.279c-0.495,0-0.915,0.358-0.988,0.848	C30.603,28.65,30,32.761,30,33.5c0,1.933,1.567,3.5,3.5,3.5s3.5-1.567,3.5-3.5C37,32.761,36.397,28.65,36.128,26.848z M33.5,35	c-0.828,0-1.5-0.672-1.5-1.5s0.672-1.5,1.5-1.5s1.5,0.672,1.5,1.5S34.328,35,33.5,35z"/></svg>