<svg xmlns="http://www.w3.org/2000/svg"  viewBox="0 0 48 48" width="500px" height="500px"><path fill="#50e6ff" d="M39,16v25c0,1.105-0.895,2-2,2H11c-1.105,0-2-0.895-2-2V7c0-1.105,0.895-2,2-2h17L39,16z"/><linearGradient id="_YTmg0F40MMcyQXhj11DSa" x1="28.529" x2="33.6" y1="15.472" y2="10.4" gradientUnits="userSpaceOnUse"><stop offset="0" stop-color="#3079d6"/><stop offset="1" stop-color="#297cd2"/></linearGradient><path fill="url(#_YTmg0F40MMcyQXhj11DSa)" d="M28,5v9c0,1.105,0.895,2,2,2h9L28,5z"/><path fill="#0078d4" d="M14.121,29.292l3.962,3.962c0.161,0.161,0.423,0.161,0.584,0l0.837-0.837	c0.161-0.161,0.161-0.423,0-0.584l-3.962-3.962c-0.161-0.161-0.423-0.161-0.584,0l-0.837,0.837	C13.96,28.869,13.96,29.131,14.121,29.292z"/><path fill="#0078d4" d="M15.542,30.129l3.962-3.962c0.161-0.161,0.161-0.423,0-0.584l-0.837-0.837	c-0.161-0.161-0.423-0.161-0.584,0l-3.962,3.962c-0.161,0.161-0.161,0.423,0,0.584l0.837,0.837	C15.119,30.29,15.381,30.29,15.542,30.129z"/><path fill="#0078d4" d="M33.879,29.292l-3.962,3.962c-0.161,0.161-0.423,0.161-0.584,0l-0.837-0.837	c-0.161-0.161-0.161-0.423,0-0.584l3.962-3.962c0.161-0.161,0.423-0.161,0.584,0l0.837,0.837	C34.04,28.869,34.04,29.131,33.879,29.292z"/><path fill="#0078d4" d="M32.458,30.129l-3.962-3.962c-0.161-0.161-0.161-0.423,0-0.584l0.837-0.837	c0.161-0.161,0.423-0.161,0.584,0l3.962,3.962c0.161,0.161,0.161,0.423,0,0.584l-0.837,0.837	C32.881,30.29,32.619,30.29,32.458,30.129z"/><path fill="#0078d4" d="M26.604,20.042H25.1c-0.197,0-0.367,0.138-0.408,0.331L21.09,37.582	c-0.041,0.194,0.108,0.377,0.306,0.377H22.9c0.197,0,0.367-0.138,0.408-0.331l3.602-17.209	C26.951,20.224,26.802,20.042,26.604,20.042z"/></svg>