<svg xmlns="http://www.w3.org/2000/svg"  viewBox="0 0 48 48" width="500px" height="500px"><linearGradient id="0MtJvRt2D3AKqsnCo1poSa" x1="24" x2="24" y1="5.417" y2="45.921" gradientUnits="userSpaceOnUse"><stop offset="0" stop-color="#2aa4f4"/><stop offset="1" stop-color="#007ad9"/></linearGradient><path fill="url(#0MtJvRt2D3AKqsnCo1poSa)" d="M39,44H9c-1.105,0-2-0.895-2-2V6c0-1.105,0.895-2,2-2h30c1.105,0,2,0.895,2,2v36	C41,43.105,40.105,44,39,44z"/><path d="M29.172,6c0.53,0,1.039,0.211,1.414,0.586l7.828,7.828C38.789,14.789,39,15.298,39,15.828V41c0,0.552-0.448,1-1,1H10 c-0.552,0-1-0.448-1-1V7c0-0.552,0.448-1,1-1H29.172 M29.172,5H10C8.897,5,8,5.897,8,7v34c0,1.103,0.897,2,2,2h28 c1.103,0,2-0.897,2-2V15.828c0-0.801-0.312-1.555-0.879-2.121l-7.828-7.828C30.726,5.312,29.973,5,29.172,5L29.172,5z" opacity=".05"/><path d="M29.172,6c0.53,0,1.039,0.211,1.414,0.586l7.828,7.828C38.789,14.789,39,15.298,39,15.828V41c0,0.552-0.448,1-1,1H10 c-0.552,0-1-0.448-1-1V7c0-0.552,0.448-1,1-1H29.172 M29.172,5.5H10C9.173,5.5,8.5,6.173,8.5,7v34c0,0.827,0.673,1.5,1.5,1.5h28 c0.827,0,1.5-0.673,1.5-1.5V15.828c0-0.668-0.26-1.296-0.732-1.768l-7.828-7.828C30.467,5.76,29.839,5.5,29.172,5.5L29.172,5.5z" opacity=".07"/><linearGradient id="0MtJvRt2D3AKqsnCo1poSb" x1="24" x2="24" y1="18.333" y2="61.003" gradientUnits="userSpaceOnUse"><stop offset="0" stop-color="#f9f9f9"/><stop offset=".26" stop-color="#f0f1f2"/><stop offset=".678" stop-color="#d9dcdf"/><stop offset="1" stop-color="#c2c8cc"/></linearGradient><path fill="url(#0MtJvRt2D3AKqsnCo1poSb)" d="M10,6C9.448,6,9,6.448,9,7v34c0,0.552,0.448,1,1,1h28c0.552,0,1-0.448,1-1V15.828 c0-0.53-0.211-1.039-0.586-1.414l-7.828-7.828C30.211,6.211,29.702,6,29.172,6H10z"/><radialGradient id="0MtJvRt2D3AKqsnCo1poSc" cx="38.149" cy="542.534" r="7.481" gradientTransform="matrix(1.0111 0 0 -1 -.233 572)" gradientUnits="userSpaceOnUse"><stop offset="0" stop-color="#bd8af5"/><stop offset=".137" stop-color="#b88bf5"/><stop offset=".309" stop-color="#a88ff3"/><stop offset=".499" stop-color="#8f96f2"/><stop offset=".702" stop-color="#6b9eef"/><stop offset=".913" stop-color="#3eaaec"/><stop offset="1" stop-color="#29afea"/></radialGradient><path fill="url(#0MtJvRt2D3AKqsnCo1poSc)" d="M34.556,21H24.444C23.646,21,23,21.639,23,22.429v6.429C23,30.041,23.97,31,25.167,31h9.062 C35.207,31,36,30.216,36,29.249v-6.82C36,21.639,35.354,21,34.556,21z"/><path fill="#436dcd" d="M36,29.206l-3.733-3.89c-0.417-0.413-1.091-0.421-1.52-0.02l-3.414,3.102V31h7.222 C35.354,31,36,30.361,36,29.571V29.206z"/><linearGradient id="0MtJvRt2D3AKqsnCo1poSd" x1="28.778" x2="28.778" y1="548.016" y2="540.878" gradientTransform="matrix(1 0 0 -1 0 572)" gradientUnits="userSpaceOnUse"><stop offset="0" stop-color="#124787"/><stop offset=".923" stop-color="#173b75"/><stop offset="1" stop-color="#173a73"/></linearGradient><path fill="url(#0MtJvRt2D3AKqsnCo1poSd)" d="M34.556,31l-6.632-6.615c-0.509-0.504-1.331-0.514-1.854-0.025L23,27.159v2.413 C23,30.361,23.646,31,24.444,31H34.556z"/><ellipse cx="33" cy="22.989" fill="#fff" rx="1" ry=".989"/><path fill="#29afea" d="M20.5,23h-8c-0.276,0-0.5-0.224-0.5-0.5v-1c0-0.276,0.224-0.5,0.5-0.5h8c0.276,0,0.5,0.224,0.5,0.5v1	C21,22.776,20.776,23,20.5,23z"/><path fill="#29afea" d="M20.5,27h-8c-0.276,0-0.5-0.224-0.5-0.5v-1c0-0.276,0.224-0.5,0.5-0.5h8c0.276,0,0.5,0.224,0.5,0.5v1	C21,26.776,20.776,27,20.5,27z"/><path fill="#29afea" d="M20.5,31h-8c-0.276,0-0.5-0.224-0.5-0.5v-1c0-0.276,0.224-0.5,0.5-0.5h8c0.276,0,0.5,0.224,0.5,0.5v1	C21,30.776,20.776,31,20.5,31z"/><path fill="#29afea" d="M35.5,35h-23c-0.276,0-0.5-0.224-0.5-0.5v-1c0-0.276,0.224-0.5,0.5-0.5h23c0.276,0,0.5,0.224,0.5,0.5	v1C36,34.776,35.776,35,35.5,35z"/><path fill="#29afea" d="M35.5,39h-23c-0.276,0-0.5-0.224-0.5-0.5v-1c0-0.276,0.224-0.5,0.5-0.5h23c0.276,0,0.5,0.224,0.5,0.5	v1C36,38.776,35.776,39,35.5,39z"/></svg>