<svg xmlns="http://www.w3.org/2000/svg"  viewBox="0 0 48 48" width="500px" height="500px"><linearGradient id="5uCc7CDJjXLLl4tLpDE_La" x1="24" x2="24" y1="10.167" y2="41.667" gradientUnits="userSpaceOnUse"><stop offset="0" stop-color="#d43a02"/><stop offset="1" stop-color="#b9360c"/></linearGradient><path fill="url(#5uCc7CDJjXLLl4tLpDE_La)" d="M39,44H9c-1.105,0-2-0.895-2-2V6c0-1.105,0.895-2,2-2h30c1.105,0,2,0.895,2,2v36	C41,43.105,40.105,44,39,44z"/><path d="M29.172,6c0.53,0,1.039,0.211,1.414,0.586l7.828,7.828C38.789,14.789,39,15.298,39,15.828V41c0,0.552-0.448,1-1,1H10 c-0.552,0-1-0.448-1-1V7c0-0.552,0.448-1,1-1H29.172 M29.172,5H10C8.897,5,8,5.897,8,7v34c0,1.103,0.897,2,2,2h28 c1.103,0,2-0.897,2-2V15.828c0-0.801-0.312-1.555-0.879-2.121l-7.828-7.828C30.726,5.312,29.973,5,29.172,5L29.172,5z" opacity=".05"/><path d="M29.172,6c0.53,0,1.039,0.211,1.414,0.586l7.828,7.828C38.789,14.789,39,15.298,39,15.828V41c0,0.552-0.448,1-1,1H10 c-0.552,0-1-0.448-1-1V7c0-0.552,0.448-1,1-1H29.172 M29.172,5.5H10C9.173,5.5,8.5,6.173,8.5,7v34c0,0.827,0.673,1.5,1.5,1.5h28 c0.827,0,1.5-0.673,1.5-1.5V15.828c0-0.668-0.26-1.296-0.732-1.768l-7.828-7.828C30.467,5.76,29.839,5.5,29.172,5.5L29.172,5.5z" opacity=".07"/><linearGradient id="5uCc7CDJjXLLl4tLpDE_Lb" x1="24" x2="24" y1="18.333" y2="61.003" gradientUnits="userSpaceOnUse"><stop offset="0" stop-color="#f9f9f9"/><stop offset=".26" stop-color="#f0f1f2"/><stop offset=".678" stop-color="#d9dcdf"/><stop offset="1" stop-color="#c2c8cc"/></linearGradient><path fill="url(#5uCc7CDJjXLLl4tLpDE_Lb)" d="M10,6C9.448,6,9,6.448,9,7v34c0,0.552,0.448,1,1,1h28c0.552,0,1-0.448,1-1V15.828 c0-0.53-0.211-1.039-0.586-1.414l-7.828-7.828C30.211,6.211,29.702,6,29.172,6H10z"/><path fill="#18518a" d="M20,39.25c-0.103,0-0.206-0.021-0.305-0.064c-0.379-0.168-0.549-0.612-0.381-0.99l2-4.5 c0.168-0.379,0.616-0.547,0.99-0.381c0.379,0.168,0.549,0.612,0.381,0.99l-2,4.5C20.562,39.084,20.287,39.25,20,39.25z"/><path fill="#18518a" d="M28,39.25c-0.287,0-0.562-0.166-0.686-0.445l-2-4.5c-0.168-0.378,0.002-0.822,0.381-0.99 c0.374-0.167,0.822,0.002,0.99,0.381l2,4.5c0.168,0.378-0.002,0.822-0.381,0.99C28.206,39.229,28.103,39.25,28,39.25z"/><path fill="#18518a" d="M24,20.5c-0.276,0-0.5-0.224-0.5-0.5v-1.5c0-0.276,0.224-0.5,0.5-0.5s0.5,0.224,0.5,0.5V20 C24.5,20.276,24.276,20.5,24,20.5z"/><radialGradient id="5uCc7CDJjXLLl4tLpDE_Lc" cx="29.5" cy="30.125" r="15.052" gradientUnits="userSpaceOnUse"><stop offset="0" stop-color="#d43a02"/><stop offset="1" stop-color="#b9360c"/></radialGradient><path fill="url(#5uCc7CDJjXLLl4tLpDE_Lc)" d="M34,35H14c-0.552,0-1-0.448-1-1V20c0-0.552,0.448-1,1-1h20c0.552,0,1,0.448,1,1v14	C35,34.552,34.552,35,34,35z"/><path fill="#fff" d="M32.5,23h-17c-0.276,0-0.5-0.224-0.5-0.5v-1c0-0.276,0.224-0.5,0.5-0.5h17 c0.276,0,0.5,0.224,0.5,0.5v1C33,22.776,32.776,23,32.5,23z"/><path fill="#fff" d="M22.5,28h-3c-0.276,0-0.5-0.224-0.5-0.5v-1c0-0.276,0.224-0.5,0.5-0.5h3c0.276,0,0.5,0.224,0.5,0.5 v1C23,27.776,22.776,28,22.5,28z"/><path fill="#fff" d="M16.5,28h-1c-0.276,0-0.5-0.224-0.5-0.5v-1c0-0.276,0.224-0.5,0.5-0.5h1c0.276,0,0.5,0.224,0.5,0.5 v1C17,27.776,16.776,28,16.5,28z"/><path fill="#fff" d="M16.5,32h-1c-0.276,0-0.5-0.224-0.5-0.5v-1c0-0.276,0.224-0.5,0.5-0.5h1c0.276,0,0.5,0.224,0.5,0.5 v1C17,31.776,16.776,32,16.5,32z"/><path fill="#fff" d="M22.5,32h-3c-0.276,0-0.5-0.224-0.5-0.5v-1c0-0.276,0.224-0.5,0.5-0.5h3c0.276,0,0.5,0.224,0.5,0.5 v1C23,31.776,22.776,32,22.5,32z"/><path fill="#fff" d="M25.999,33c-0.15,0-0.303-0.034-0.446-0.105c-0.494-0.247-0.694-0.848-0.447-1.342l2-4	c0.144-0.288,0.417-0.488,0.734-0.54c0.321-0.05,0.641,0.054,0.867,0.28l1.019,1.019l1.38-2.759	c0.248-0.494,0.849-0.694,1.342-0.447c0.494,0.247,0.694,0.848,0.447,1.342l-2,4c-0.144,0.288-0.417,0.488-0.734,0.54	c-0.319,0.05-0.641-0.053-0.867-0.28l-1.019-1.019l-1.38,2.759C26.719,32.798,26.366,33,25.999,33z"/></svg>