<svg xmlns="http://www.w3.org/2000/svg"  viewBox="0 0 48 48" width="240px" height="240px"><linearGradient id="4gxhD6rb0fy8MaMo0tgl7a" x1="11.933" x2="35.436" y1="11.933" y2="35.436" gradientUnits="userSpaceOnUse"><stop offset="0" stop-color="#f44f5a"/><stop offset=".443" stop-color="#ee3d4a"/><stop offset="1" stop-color="#e52030"/></linearGradient><path fill="url(#4gxhD6rb0fy8MaMo0tgl7a)" d="M22.583,45.413L2.587,25.417c-0.783-0.783-0.783-2.051,0-2.834L22.583,2.587	c0.783-0.783,2.051-0.783,2.834,0l19.996,19.996c0.783,0.783,0.783,2.051,0,2.834L25.417,45.413	C24.634,46.196,23.366,46.196,22.583,45.413z"/><path fill="#fff" d="M24.014,34c-0.732,0-1.336-0.222-1.812-0.666c-0.476-0.444-0.714-0.981-0.714-1.613 c0-0.659,0.24-1.199,0.721-1.62c0.48-0.421,1.082-0.631,1.805-0.631c0.732,0,1.332,0.213,1.798,0.638 c0.467,0.426,0.7,0.963,0.7,1.613c0,0.659-0.231,1.203-0.693,1.633S24.755,34,24.014,34z M26.236,14.721l-0.481,12.175 c-0.015,0.372-0.321,0.666-0.693,0.666h-2.179c-0.373,0-0.679-0.295-0.693-0.668L21.735,14.72c-0.015-0.393,0.3-0.72,0.693-0.72 h3.116C25.937,14,26.252,14.327,26.236,14.721z"/></svg>