<?xml version="1.0" encoding="UTF-8" standalone="no"?>
<!-- Created with Inkscape (http://www.inkscape.org/) -->

<svg
   xmlns:dc="http://purl.org/dc/elements/1.1/"
   xmlns:cc="http://creativecommons.org/ns#"
   xmlns:rdf="http://www.w3.org/1999/02/22-rdf-syntax-ns#"
   xmlns:svg="http://www.w3.org/2000/svg"
   xmlns="http://www.w3.org/2000/svg"
   xmlns:sodipodi="http://sodipodi.sourceforge.net/DTD/sodipodi-0.dtd"
   xmlns:inkscape="http://www.inkscape.org/namespaces/inkscape"
   width="123.7746mm"
   height="123.7746mm"
   viewBox="0 0 438.57143 438.57143"
   id="svg4389"
   version="1.1"
   inkscape:version="0.91 r13725"
   sodipodi:docname="itophub-logo.svg">
  <defs
     id="defs4391" />
  <sodipodi:namedview
     id="base"
     pagecolor="#ffffff"
     bordercolor="#666666"
     borderopacity="1.0"
     inkscape:pageopacity="0.0"
     inkscape:pageshadow="2"
     inkscape:zoom="0.7"
     inkscape:cx="-162.53939"
     inkscape:cy="222.76682"
     inkscape:document-units="px"
     inkscape:current-layer="layer1"
     showgrid="false"
     fit-margin-top="0"
     fit-margin-left="0"
     fit-margin-right="0"
     fit-margin-bottom="0"
     inkscape:window-width="1920"
     inkscape:window-height="1031"
     inkscape:window-x="0"
     inkscape:window-y="25"
     inkscape:window-maximized="1" />
  <metadata
     id="metadata4394">
    <rdf:RDF>
      <cc:Work
         rdf:about="">
        <dc:format>image/svg+xml</dc:format>
        <dc:type
           rdf:resource="http://purl.org/dc/dcmitype/StillImage" />
        <dc:title></dc:title>
      </cc:Work>
    </rdf:RDF>
  </metadata>
  <g
     inkscape:label="Layer 1"
     inkscape:groupmode="layer"
     id="layer1"
     transform="translate(-106.42857,-135.93364)">
    <rect
       style="opacity:1;fill:#ea7d1e;fill-opacity:1;stroke:none;stroke-width:25;stroke-linecap:round;stroke-linejoin:round;stroke-miterlimit:4;stroke-dasharray:none;stroke-opacity:1"
       id="rect5087"
       width="438.57144"
       height="438.57144"
       x="106.42857"
       y="135.93364" />
    <g
       id="g5079">
      <path
         id="path4481"
         d="m 225.85938,259.86523 c -8.94861,-0.0714 -0.86689,8.07541 -4.50977,12.0918 -9.41456,0.33026 -73.18656,23.33539 -73.86719,87.94531 -0.68063,64.60992 39.14817,96.46928 80.8125,96.47071 41.66433,0.001 53.1669,-22.01498 58.58789,-43.4375 5.42099,-21.42252 -8.93812,-45.39262 -25.2539,-54.04297 -16.31578,-8.65035 -39.46035,-1.16781 -50.50782,8.08203 -11.04747,9.24984 -12.07115,25.30358 -9.65234,36.81641 2.41881,11.51283 19.65862,22.42423 33.0957,22.03906 13.43707,-0.38518 26.91053,-13.13632 28.58008,-24.51172 1.66955,-11.3754 -5.47475,-23.79209 -17.17187,-25.75781 -11.69712,-1.96572 -23.46958,5.10597 -24.6875,15.44726 -1.21792,10.3413 8.15359,14.28917 11.28906,14.74024 8.40489,1.20911 15.15491,-7.48403 7.01367,-10.04297 -5.63635,-1.77161 -8.06872,-4.33354 -5.23242,-8.02344 2.25726,-2.93659 8.9149,-1.575 11.82617,0.71484 4.49339,3.53423 5.53273,10.67937 3.32617,15.95313 -2.6524,6.33932 -10.84608,11.34761 -17.67773,10.60547 -8.28798,-0.90034 -17.45371,-8.86716 -18.1836,-17.17188 -1.49385,-16.99698 11.31857,-29.37504 22.72852,-30.80859 36.45173,-2.77522 45.38636,38.64362 19.69922,59.09375 -19.51179,14.42427 -54.75176,3.05251 -61.11524,-19.19336 -6.36349,-22.24587 8.98742,-51.78249 37.88086,-59.59961 l 69.19532,0 c 7.4791,-1.81702 13.74954,-5.29754 10.60742,-21.71875 -24.07043,-67.6147 -75.46093,-65.02392 -85.86328,-65.6582 -0.32508,-0.0198 -0.63126,-0.0309 -0.91992,-0.0332 z m 52.56445,34.75586 a 13.637059,13.637059 0 0 1 13.63672,13.63672 13.637059,13.637059 0 0 1 -13.63672,13.63867 13.637059,13.637059 0 0 1 -13.63672,-13.63867 13.637059,13.637059 0 0 1 13.63672,-13.63672 z"
         style="opacity:1;fill:#ffffff;fill-opacity:1;fill-rule:evenodd;stroke:none;stroke-width:1px;stroke-linecap:butt;stroke-linejoin:miter;stroke-opacity:1"
         inkscape:connector-curvature="0" />
      <circle
         r="4.2931485"
         cy="308.51111"
         cx="283.34781"
         id="path5029"
         style="opacity:1;fill:#ffffff;fill-opacity:1;stroke:none;stroke-width:1.20000005;stroke-linecap:round;stroke-linejoin:round;stroke-miterlimit:4;stroke-dasharray:none;stroke-opacity:1" />
      <circle
         r="47.741993"
         cy="251.56378"
         cx="442.69934"
         id="path5032"
         style="opacity:1;fill:#ffffff;fill-opacity:1;stroke:none;stroke-width:1.17543197;stroke-linecap:round;stroke-linejoin:round;stroke-miterlimit:4;stroke-dasharray:none;stroke-opacity:1" />
      <circle
         r="47.741993"
         cy="457.88742"
         cx="443.96204"
         id="path5032-8"
         style="opacity:1;fill:#ffffff;fill-opacity:1;stroke:none;stroke-width:1.17543197;stroke-linecap:round;stroke-linejoin:round;stroke-miterlimit:4;stroke-dasharray:none;stroke-opacity:1" />
      <path
         id="path5049"
         d="m 299.62779,400.26702 c -0.32431,9.11127 -1.83785,15.69497 -5.22014,24.56334 l 143.67047,46.46066 7.72657,-23.77735 z"
         style="color:#000000;font-style:normal;font-variant:normal;font-weight:normal;font-stretch:normal;font-size:medium;line-height:normal;font-family:sans-serif;text-indent:0;text-align:start;text-decoration:none;text-decoration-line:none;text-decoration-style:solid;text-decoration-color:#000000;letter-spacing:normal;word-spacing:normal;text-transform:none;direction:ltr;block-progression:tb;writing-mode:lr-tb;baseline-shift:baseline;text-anchor:start;white-space:normal;clip-rule:nonzero;display:inline;overflow:visible;visibility:visible;opacity:1;isolation:auto;mix-blend-mode:normal;color-interpolation:sRGB;color-interpolation-filters:linearRGB;solid-color:#000000;solid-opacity:1;fill:#ffffff;fill-opacity:1;fill-rule:evenodd;stroke:none;stroke-width:25;stroke-linecap:butt;stroke-linejoin:miter;stroke-miterlimit:4;stroke-dasharray:none;stroke-dashoffset:0;stroke-opacity:1;color-rendering:auto;image-rendering:auto;shape-rendering:auto;text-rendering:auto;enable-background:accumulate"
         inkscape:connector-curvature="0"
         sodipodi:nodetypes="ccccc" />
      <path
         id="path5049-7"
         d="M 456.29297,234.03711 305.60156,283 c 5.07049,6.60068 9.73964,13.80327 13.89844,21.77148 l 144.51953,-46.95898 -7.72656,-23.77539 z"
         style="color:#000000;font-style:normal;font-variant:normal;font-weight:normal;font-stretch:normal;font-size:medium;line-height:normal;font-family:sans-serif;text-indent:0;text-align:start;text-decoration:none;text-decoration-line:none;text-decoration-style:solid;text-decoration-color:#000000;letter-spacing:normal;word-spacing:normal;text-transform:none;direction:ltr;block-progression:tb;writing-mode:lr-tb;baseline-shift:baseline;text-anchor:start;white-space:normal;clip-rule:nonzero;display:inline;overflow:visible;visibility:visible;opacity:1;isolation:auto;mix-blend-mode:normal;color-interpolation:sRGB;color-interpolation-filters:linearRGB;solid-color:#000000;solid-opacity:1;fill:#ffffff;fill-opacity:1;fill-rule:evenodd;stroke:none;stroke-width:25;stroke-linecap:butt;stroke-linejoin:miter;stroke-miterlimit:4;stroke-dasharray:none;stroke-dashoffset:0;stroke-opacity:1;color-rendering:auto;image-rendering:auto;shape-rendering:auto;text-rendering:auto;enable-background:accumulate"
         inkscape:connector-curvature="0" />
    </g>
  </g>
</svg>
