<?xml version="1.0" encoding="UTF-8" standalone="no"?>
<svg
   viewBox="0 0 48 48"
   width="240px"
   height="240px"
   version="1.1"
   id="svg11"
   sodipodi:docname="icons8-change-ongoing.svg"
   inkscape:version="1.1.1 (3bf5ae0d25, 2021-09-20)"
   xmlns:inkscape="http://www.inkscape.org/namespaces/inkscape"
   xmlns:sodipodi="http://sodipodi.sourceforge.net/DTD/sodipodi-0.dtd"
   xmlns="http://www.w3.org/2000/svg"
   xmlns:svg="http://www.w3.org/2000/svg">
  <defs
     id="defs15">
    <linearGradient
       id="FR_9NzDz28iTOUpGSsOFAa"
       x1="10.043"
       x2="38.306999"
       y1="10.241"
       y2="38.504002"
       gradientUnits="userSpaceOnUse"
       gradientTransform="matrix(0.52816781,0,0,0.52816781,23.516297,22.565635)">
      <stop
         offset="0"
         stop-color="#21ad64"
         id="stop2-3" />
      <stop
         offset="1"
         stop-color="#088242"
         id="stop4-6" />
    </linearGradient>
    <linearGradient
       id="HoiJCu43QtshzIrYCxOfCb"
       x1="-15.77"
       x2="26.403"
       y1="43.228001"
       y2="43.228001"
       gradientTransform="matrix(-0.26381384,0.26382304,-0.26382304,-0.26381384,52.05043,45.996497)"
       gradientUnits="userSpaceOnUse">
      <stop
         offset="0"
         stop-color="#2ac782"
         id="stop9" />
      <stop
         offset="1"
         stop-color="#21b876"
         id="stop11" />
    </linearGradient>
    <linearGradient
       id="HoiJCu43QtshzIrYCxOfCa"
       x1="21.240999"
       x2="3.5409999"
       y1="39.241001"
       y2="21.541"
       gradientUnits="userSpaceOnUse"
       gradientTransform="matrix(0.37309562,0,0,0.37309562,28.236945,26.853917)">
      <stop
         offset=".108"
         stop-color="#0d7044"
         id="stop2-35" />
      <stop
         offset=".433"
         stop-color="#11945a"
         id="stop4-62" />
    </linearGradient>
    <linearGradient
       id="UCQotmlDvyxW_ZWZeGRaDb"
       x1="8.7189999"
       x2="30.715"
       y1="27.281"
       y2="5.2849998"
       gradientTransform="matrix(-0.39322205,0,0,0.39322205,46.92241,29.921656)"
       gradientUnits="userSpaceOnUse">
      <stop
         offset="0"
         stop-color="#32bdef"
         id="stop17" />
      <stop
         offset="1"
         stop-color="#1ea2e4"
         id="stop19" />
    </linearGradient>
    <linearGradient
       id="UCQotmlDvyxW_ZWZeGRaDa"
       x1="31.454"
       x2="14.372"
       y1="43.453999"
       y2="26.372"
       gradientTransform="matrix(-0.39322205,0,0,0.39322205,46.92241,29.921656)"
       gradientUnits="userSpaceOnUse">
      <stop
         offset=".365"
         stop-color="#199ae0"
         id="stop2-1" />
      <stop
         offset=".699"
         stop-color="#1898de"
         id="stop4-2" />
      <stop
         offset=".819"
         stop-color="#1691d8"
         id="stop6" />
      <stop
         offset=".905"
         stop-color="#1186cc"
         id="stop8" />
      <stop
         offset=".974"
         stop-color="#0a75bc"
         id="stop10" />
      <stop
         offset="1"
         stop-color="#076cb3"
         id="stop12" />
    </linearGradient>
  </defs>
  <sodipodi:namedview
     id="namedview13"
     pagecolor="#ffffff"
     bordercolor="#666666"
     borderopacity="1.0"
     inkscape:pageshadow="2"
     inkscape:pageopacity="0.0"
     inkscape:pagecheckerboard="0"
     showgrid="false"
     inkscape:zoom="2.8416667"
     inkscape:cx="120"
     inkscape:cy="120"
     inkscape:window-width="2560"
     inkscape:window-height="1382"
     inkscape:window-x="1920"
     inkscape:window-y="314"
     inkscape:window-maximized="1"
     inkscape:current-layer="svg11" />
  <linearGradient
     id="fHH1575ypYIq9ckEi_Imra"
     x1="31"
     x2="31"
     y1=".192"
     y2="34.099"
     gradientUnits="userSpaceOnUse">
    <stop
       offset="0"
       stop-color="#199ae0"
       id="stop2" />
    <stop
       offset="1"
       stop-color="#0782d8"
       id="stop4" />
  </linearGradient>
  <path
     fill="url(#fHH1575ypYIq9ckEi_Imra)"
     d="M44.707,8.293l-8-8c-0.391-0.391-1.023-0.391-1.414,0l-8,8 c-0.286,0.286-0.372,0.716-0.217,1.09C27.231,9.756,27.596,10,28,10h3v14H17v10h22c1.105,0,2-0.895,2-2V10h3 c0.404,0,0.769-0.244,0.924-0.617C45.079,9.009,44.993,8.579,44.707,8.293z"
     id="path7" />
  <path
     fill="#3cf"
     d="M31,24V14H9c-1.105,0-2,0.895-2,2v22H4c-0.404,0-0.769,0.244-0.924,0.617 c-0.155,0.374-0.069,0.804,0.217,1.09l8,8c0.391,0.391,1.023,0.391,1.414,0l8-8c0.286-0.286,0.372-0.716,0.217-1.09 C20.769,38.244,20.404,38,20,38h-3V24H31z"
     id="path9" />
  <path
     fill="url(#UCQotmlDvyxW_ZWZeGRaDa)"
     d="m 44.33501,39.909889 -7.47869,7.47869 c -0.304355,0.304354 -0.797455,0.304354 -1.101809,0 L 34.174152,45.80822 c -0.304354,-0.304354 -0.304354,-0.797455 0,-1.101808 l 7.47869,-7.478691 c 0.304355,-0.304353 0.797455,-0.304353 1.101809,0 l 1.580359,1.58036 c 0.30396,0.304354 0.30396,0.797454 0,1.101808 z"
     id="path15"
     style="fill:url(#UCQotmlDvyxW_ZWZeGRaDa);stroke-width:0.393222" />
  <path
     fill="url(#UCQotmlDvyxW_ZWZeGRaDb)"
     d="m 41.652842,41.490249 -7.47869,-7.478691 c -0.304354,-0.304353 -0.304354,-0.797454 0,-1.101808 l 1.580359,-1.580359 c 0.304354,-0.304354 0.797454,-0.304354 1.101809,0 l 7.47869,7.47869 c 0.304354,0.304354 0.304354,0.797454 0,1.101808 l -1.580359,1.58036 c -0.304354,0.30396 -0.797454,0.30396 -1.101809,0 z"
     id="path22"
     style="fill:url(#UCQotmlDvyxW_ZWZeGRaDb);stroke-width:0.393222" />
</svg>
