<?xml version="1.0" encoding="utf-8"?>
<!-- Generator: Adobe Illustrator 14.0.0, SVG Export Plug-In . SVG Version: 6.00 Build 43363)  -->
<!DOCTYPE svg PUBLIC "-//W3C//DTD SVG 1.1 Basic//EN" "http://www.w3.org/Graphics/SVG/1.1/DTD/svg11-basic.dtd">
<svg version="1.1" baseProfile="basic" id="Layer_1"
	 xmlns="http://www.w3.org/2000/svg" xmlns:xlink="http://www.w3.org/1999/xlink" x="0px" y="0px" width="1000px" height="1000px"
	 viewBox="0 0 1000 1000" xml:space="preserve">
<g>
	<path fill="#231F20" d="M358.179,112.114c45.101-19.253,92.379-28.928,141.835-28.928c49.429,0,96.705,9.675,141.757,28.928
		c45.031,19.253,83.89,45.208,116.459,77.777c32.56,32.559,58.514,71.398,77.855,116.548
		c19.174,45.041,28.928,92.319,28.928,141.736s-9.754,96.705-28.928,141.737c-19.342,45.129-45.296,83.979-77.855,116.547
		c-32.569,32.559-71.418,58.514-116.459,77.776c-45.052,19.254-92.328,28.929-141.757,28.929c-49.456,0-96.735-9.675-141.835-28.929
		c-45.031-19.263-83.88-45.218-116.498-77.776c-32.559-32.559-58.465-71.408-77.767-116.547
		c-19.302-45.032-28.928-92.32-28.928-141.737s9.626-96.696,28.928-141.736c19.302-45.14,45.208-83.979,77.767-116.548
		C274.309,157.322,313.149,131.366,358.179,112.114z M223.803,595.22l79.013-79.014c-7.605-22.236-11.412-44.962-11.412-68.022
		s3.807-45.796,11.412-68.032l-79.013-79.004c-24.435,46.435-36.691,95.46-36.691,147.036S199.368,548.776,223.803,595.22z
		 M389.395,558.774c30.537,30.578,67.404,45.866,110.63,45.866c43.146,0,80.014-15.288,110.591-45.866
		c30.499-30.497,45.797-67.364,45.797-110.59c0-43.235-15.288-80.103-45.797-110.67c-30.577-30.498-67.444-45.796-110.591-45.796
		c-43.226,0-80.093,15.279-110.63,45.796c-30.538,30.567-45.836,67.435-45.836,110.67
		C343.558,491.41,358.857,528.267,389.395,558.774z M500.015,135.35c-51.616,0-100.621,12.227-147.114,36.681l79.042,79.013
		c22.247-7.595,44.972-11.402,68.063-11.402c22.981,0,45.786,3.808,67.944,11.402l79.092-79.013
		C600.519,147.577,551.592,135.35,500.015,135.35z M500.015,761.018c51.577,0,100.504-12.228,147.036-36.69l-79.092-79.004
		c-22.158,7.605-44.963,11.403-67.944,11.403c-23.1,0-45.826-3.798-68.052-11.403l-79.052,79.004
		C399.404,748.791,448.409,761.018,500.015,761.018z M697.155,516.197l79.014,79.014c24.385-46.444,36.691-95.46,36.691-147.036
		s-12.316-100.602-36.691-147.036l-79.014,79.004c7.605,22.236,11.413,44.972,11.413,68.032S704.75,493.961,697.155,516.197z"/>
</g>
</svg>
