<?xml version="1.0" encoding="utf-8"?>
<!-- Generator: Adobe Illustrator 14.0.0, SVG Export Plug-In . SVG Version: 6.00 Build 43363)  -->
<!DOCTYPE svg PUBLIC "-//W3C//DTD SVG 1.1 Basic//EN" "http://www.w3.org/Graphics/SVG/1.1/DTD/svg11-basic.dtd">
<svg version="1.1" baseProfile="basic" id="Layer_1"
	 xmlns="http://www.w3.org/2000/svg" xmlns:xlink="http://www.w3.org/1999/xlink" x="0px" y="0px" width="1000px" height="1000px"
	 viewBox="0 0 1000 1000" xml:space="preserve">
<path fill="#231F20" d="M866.498,492.629c0-172.569-172.61-312.947-366.54-312.947c-205.265,0-366.456,140.378-366.456,312.947
	c0,172.511,161.191,312.948,366.456,312.948c42.846,0,86.248-11.319,129.707-22.049l118.354,64.845L715.315,740.69
	C802.134,675.854,866.498,589.597,866.498,492.629z M658.162,524.678c0,7.801-7.768,14.133-17.22,14.133H536.297v104.612
	c0,9.542-6.373,17.252-14.182,17.252h-77.89c-7.851,0-14.183-7.71-14.183-17.252V538.811H325.448c-9.501,0-17.22-6.332-17.22-14.133
	V446.78c0-7.892,7.719-14.224,17.22-14.224h104.596V327.953c0-9.452,6.332-17.178,14.183-17.178h77.89
	c7.809,0,14.182,7.726,14.182,17.178v104.603h104.646c9.452,0,17.22,6.332,17.22,14.224V524.678L658.162,524.678z"/>
</svg>
