<?xml version="1.0" encoding="utf-8"?>
<!-- Generator: Adobe Illustrator 14.0.0, SVG Export Plug-In . SVG Version: 6.00 Build 43363)  -->
<!DOCTYPE svg PUBLIC "-//W3C//DTD SVG 1.1 Basic//EN" "http://www.w3.org/Graphics/SVG/1.1/DTD/svg11-basic.dtd">
<svg version="1.1" baseProfile="basic" id="Layer_1"
	 xmlns="http://www.w3.org/2000/svg" xmlns:xlink="http://www.w3.org/1999/xlink" x="0px" y="0px" width="1000px" height="1000px"
	 viewBox="0 0 1000 1000" xml:space="preserve">
<path fill="#231F20" d="M296.416,534.64c0-116.722,78.171-217.884,191.547-266.479c-46.256-27.633-102.769-43.899-164.408-43.899
	c-151.479,0-286.188,109.67-286.188,244.378c0,75.69,50.255,143.041,118.02,193.622l-25.533,84.137l92.469-50.59
	c33.882,8.341,67.755,17.184,101.232,17.184c13.53,0,26.777-0.847,39.761-2.355C321.305,661.336,296.416,600.473,296.416,534.64z"/>
<path fill="#231F20" d="M970.632,541.419c0-148.892-148.893-270.098-316.318-270.098c-177.153,0-316.258,121.214-316.258,270.098
	c0,148.884,139.114,270.089,316.258,270.089c37.007,0,74.445-9.779,111.903-18.993l102.212,55.895l-28.234-92.972
	C915.1,699.525,970.632,625.08,970.632,541.419z M509.305,574.939c-18.552,0-37.087-18.543-37.087-37.589
	c0-18.632,18.535-37.166,37.087-37.166c28.375,0,46.953,18.544,46.953,37.166C556.258,556.405,537.68,574.939,509.305,574.939z
	 M650.668,574.983c-18.533,0-37.077-18.631-37.077-37.677c0-18.588,18.544-37.166,37.077-37.166
	c28.366,0,47.007,18.588,47.007,37.166C697.675,556.361,679.026,574.983,650.668,574.983z M792.182,574.939
	c-18.649,0-37.175-18.543-37.175-37.589c0-18.632,18.535-37.166,37.175-37.166c27.846,0,46.865,18.544,46.865,37.166
	C839.038,556.405,820.036,574.939,792.182,574.939z"/>
</svg>
