<?xml version="1.0" encoding="utf-8"?>
<!-- Generator: Adobe Illustrator 14.0.0, SVG Export Plug-In . SVG Version: 6.00 Build 43363)  -->
<!DOCTYPE svg PUBLIC "-//W3C//DTD SVG 1.1 Basic//EN" "http://www.w3.org/Graphics/SVG/1.1/DTD/svg11-basic.dtd">
<svg version="1.1" baseProfile="basic" id="Layer_2"
	 xmlns="http://www.w3.org/2000/svg" xmlns:xlink="http://www.w3.org/1999/xlink" x="0px" y="0px" width="1000px" height="1000px"
	 viewBox="0 0 1000 1000" xml:space="preserve">
<path fill="#231F20" d="M968.382,542.585c0-147.978-147.97-268.432-314.358-268.432c-176.063,0-314.305,120.454-314.305,268.432
	C339.719,690.537,477.978,811,654.024,811c36.769,0,73.984-9.719,111.201-18.885l101.578,55.557l-28.05-92.404
	C913.185,699.703,968.382,625.726,968.382,542.585z M776.583,628.103l-47.11,47.215c-4.771,4.764-13.385,3.939-19.068-1.842
	l-63.441-63.433l-63.433,63.433c-5.78,5.693-14.306,6.605-19.017,1.842l-47.259-47.215c-4.815-4.859-3.981-13.288,1.78-19.068
	l63.398-63.433l-63.398-63.442c-5.736-5.78-6.552-14.209-1.78-18.98l47.259-47.303c4.711-4.772,13.245-3.851,19.017,1.833
	l63.433,63.433l63.441-63.433c5.684-5.771,14.297-6.605,19.068-1.833l47.11,47.303c4.771,4.771,3.946,13.209-1.824,18.893
	l-63.442,63.529l63.442,63.433C780.617,614.815,781.355,623.332,776.583,628.103z"/>
<path fill="#231F20" d="M294.81,532.718c0-115.999,77.686-216.533,190.36-264.827c-45.97-27.462-102.131-43.628-163.389-43.628
	c-150.539,0-284.413,108.99-284.413,242.864c0,75.222,49.943,142.163,117.288,192.422l-25.375,83.623l91.895-50.275
	c33.672,8.279,67.336,17.077,100.605,17.077c13.446,0,26.612-0.833,39.514-2.342C319.545,658.636,294.81,598.133,294.81,532.718z"/>
</svg>
