<?xml version="1.0" encoding="utf-8"?>
<!-- Generator: Adobe Illustrator 14.0.0, SVG Export Plug-In . SVG Version: 6.00 Build 43363)  -->
<!DOCTYPE svg PUBLIC "-//W3C//DTD SVG 1.1 Basic//EN" "http://www.w3.org/Graphics/SVG/1.1/DTD/svg11-basic.dtd">
<svg version="1.1" baseProfile="basic" id="Layer_1"
	 xmlns="http://www.w3.org/2000/svg" xmlns:xlink="http://www.w3.org/1999/xlink" x="0px" y="0px" width="1000px" height="1000px"
	 viewBox="0 0 1000 1000" xml:space="preserve">
<path d="M782.403,865.469l-154.508-84.653c-41.386,10.247-84.155,20.761-126.938,20.761c-103.692,0-200.729-34.312-273.236-96.612
	c-35.467-30.476-63.322-66.095-82.789-105.866c-20.192-41.251-30.43-85.147-30.43-130.469c0-45.334,10.238-89.239,30.43-130.493
	c19.467-39.773,47.321-75.391,82.79-105.864c72.499-62.287,169.535-96.59,273.235-96.59c49.85,0,98.952,8.694,145.943,25.842
	c45.657,16.661,87.014,40.417,122.923,70.61c36.458,30.654,65.213,66.204,85.467,105.661
	c21.372,41.634,32.208,85.653,32.208,130.834c0,49.914-15.553,99.344-46.225,146.918c-24.909,38.634-59.118,75.12-101.793,108.597
	L782.403,865.469L782.403,865.469z M633.438,738.242l82.198,45.035l-22.539-74.211l11.251-8.401
	c92.312-68.938,143.15-151.343,143.15-232.036c0-158.793-158.696-292.947-346.541-292.947
	c-191.036,0-346.455,131.416-346.455,292.947s155.419,292.947,346.455,292.947c38.218,0,77.086-9.624,118.235-19.813
	L633.438,738.242L633.438,738.242z"/>
<path d="M658.965,500.679c0,7.801-7.768,14.133-17.219,14.133H537.102v104.612c0,9.542-6.373,17.252-14.184,17.252h-77.889
	c-7.852,0-14.184-7.71-14.184-17.252V514.812H326.252c-9.501,0-17.22-6.332-17.22-14.133V422.78c0-7.892,7.719-14.224,17.22-14.224
	h104.597V303.953c0-9.451,6.331-17.178,14.183-17.178h77.889c7.811,0,14.184,7.727,14.184,17.178v104.604h104.645
	c9.453,0,17.221,6.332,17.221,14.224v77.898H658.965z"/>
</svg>
