<?xml version="1.0" encoding="UTF-8" standalone="no"?>
<svg
   xmlns:dc="http://purl.org/dc/elements/1.1/"
   xmlns:cc="http://creativecommons.org/ns#"
   xmlns:rdf="http://www.w3.org/1999/02/22-rdf-syntax-ns#"
   xmlns:svg="http://www.w3.org/2000/svg"
   xmlns="http://www.w3.org/2000/svg"
   id="svg8"
   version="1.1"
   viewBox="0 0 264.58333 264.58333"
   height="1000"
   width="1000">
  <defs
     id="defs2" />
  <metadata
     id="metadata5">
    <rdf:RDF>
      <cc:Work
         rdf:about="">
        <dc:format>image/svg+xml</dc:format>
        <dc:type
           rdf:resource="http://purl.org/dc/dcmitype/StillImage" />
        <dc:title></dc:title>
      </cc:Work>
    </rdf:RDF>
  </metadata>
  <g
     id="layer2">
    <path
       id="path4516"
       transform="scale(0.26458333)"
       d="m 363.57227,214.44727 c -28.72645,0.0164 -55.09978,15.88172 -68.57422,41.25195 l -0.53907,-0.18164 -34.7832,60.49414 c -26.17161,10.74972 -47.91781,30.06712 -61.67773,54.78906 l -0.51367,-0.125 -93.94336,159.60352 0.33984,0.0918 c -14.914544,27.26255 -22.732489,57.83851 -22.734376,88.91407 -3.76e-4,102.32848 82.952766,185.2825 185.281246,185.2832 79.57685,-0.18509 150.14836,-51.16271 175.33008,-126.65039 12.75761,17.44216 33.06009,27.76494 54.66992,27.79687 21.38684,-0.0322 41.50695,-10.14508 54.29297,-27.28906 25.33697,75.22798 95.78021,125.95807 175.16016,126.14258 102.32848,-7e-4 185.28163,-82.95472 185.28125,-185.2832 -0.002,-31.07556 -7.81983,-61.65152 -22.73438,-88.91407 l 0.33985,-0.0918 -93.94336,-159.60352 -0.51367,0.125 c -13.75992,-24.72194 -35.50612,-44.03935 -61.67774,-54.78906 l -34.7832,-60.49414 -0.53906,0.18164 c -13.47444,-25.37023 -39.84777,-41.23555 -68.57422,-41.25195 -42.90975,4.5e-4 -77.69486,34.78556 -77.69531,77.69531 -0.7247,3.23852 -0.16993,12.87304 -0.16993,12.87304 l -2.25,67.8418 H 443.6875 l -2.25,-67.8418 c 0,0 -0.20029,-9.98923 -0.16992,-12.87304 -4.5e-4,-42.90975 -34.78556,-77.69486 -77.69531,-77.69531 z m -92.14454,274.125 c 71.79702,0 130,58.20298 130,130 0,71.79702 -58.20298,130 -130,130 -71.79702,0 -130,-58.20298 -130,-130 0,-71.79702 58.20298,-130 130,-130 z m 449.45313,0 c 71.79702,0 130,58.20298 130,130 0,71.79702 -58.20298,130 -130,130 -71.79702,0 -130,-58.20298 -130,-130 0,-71.79702 58.20298,-130 130,-130 z M 496.1543,607.14258 c 19.72489,-3.1e-4 35.71515,15.98995 35.71484,35.71484 3.1e-4,19.72489 -15.98995,35.71516 -35.71484,35.71485 -19.7249,3.1e-4 -35.71516,-15.98995 -35.71485,-35.71485 -3.1e-4,-19.72489 15.98996,-35.71515 35.71485,-35.71484 z"
       style="opacity:1;fill:#000000;fill-opacity:1;stroke:none;stroke-width:3.77952766;stroke-linecap:round;stroke-linejoin:round;stroke-miterlimit:4;stroke-dasharray:none;stroke-dashoffset:0;stroke-opacity:1" />
  </g>
</svg>
