<?xml version="1.0" encoding="utf-8"?>
<!-- Generator: Adobe Illustrator 14.0.0, SVG Export Plug-In . SVG Version: 6.00 Build 43363)  -->
<!DOCTYPE svg PUBLIC "-//W3C//DTD SVG 1.1 Basic//EN" "http://www.w3.org/Graphics/SVG/1.1/DTD/svg11-basic.dtd">
<svg version="1.1" baseProfile="basic" id="Layer_1"
	 xmlns="http://www.w3.org/2000/svg" xmlns:xlink="http://www.w3.org/1999/xlink" x="0px" y="0px" width="1000px" height="1000px"
	 viewBox="0 0 1000 1000" xml:space="preserve">
<path fill="#010101" d="M626.01,912.824c-3.839,0-7.464-0.894-10.775-2.654c-7.166-3.806-18.222-13.761-11.633-37.6
	c2.681-9.688,7.889-21.117,13.407-33.22c7.747-16.992,16.526-36.251,19.114-52.397c2.104-13.062-7.717-35.54-26.272-60.147
	c-14.192-18.821-29.013-33.055-37.457-39.536c-23.266,8.18-60.974,17.937-83.818,18.217l-0.822,0.005
	c-19.333,0.001-30.751-8.556-38.305-14.218c-3.396-2.546-5.573-4.135-7.489-4.795c-3.329,0.364-13.864,3.459-28.673,11.547
	c-10.319,5.635-17.318,10.728-21.348,14.225c9.669,10.246,33.908,28.146,45.247,36.52c11.281,8.332,20.191,14.912,25.046,19.598
	c17.505,16.855,13.923,58.696,13.027,66.911c-2.021,18.544-9.063,51.887-33.495,66.841c-8.156,4.99-16.938,7.518-26.104,7.518
	c-37.301,0-67.472-43.222-72.642-59.651c-3.555-11.314-5.598-32.092-6.533-44.069c-7.101-5.721-19.086-15.689-31.088-27.095
	c-29.089-27.642-41.487-47.405-40.193-64.08c2.387-31.286,28.692-83.744,80.798-124.937c12.665-10.002,32.123-16.555,48.9-20.662
	c-7.086-5.52-16.09-10.549-26.88-12.719c-1.526-0.309-3.006-0.463-4.412-0.463c-5.852,0-10.735,2.765-15.904,5.694
	c-2.03,1.149-4.128,2.338-6.329,3.376c-28.714,13.508-52.119,33.866-70.925,50.225c-17.052,14.834-28.318,24.632-40.378,27.201
	c-1.722,0.374-3.601,0.569-5.525,0.57c-0.003,0-0.007,0-0.01,0c-8.992,0-23.197-3.622-60.349-30.442
	c-8.514-6.148-16.478-12.251-22.737-17.169l-17.281,18.383l-1.544,1.073c-2.684,1.868-16.848,11.184-32.191,11.186
	c-13.706,0.002-24.83-7.259-30.523-19.921c-10.257-22.775-8.457-83.479-7.993-95.417l0.06-1.485l0.3-1.458
	c1.125-5.441,7.759-33.159,27.945-44.569c3.507-1.979,7.543-2.978,12.009-2.978c9.292,0,25.593,3.898,76.053,32.807
	c16.842,9.649,32.412,19.195,41.832,25.067l91.185-51.828l3.857-23.849c-8.177-7.053-21.649-19.009-35.692-32.882
	c-31.73-31.35-49.341-55.531-53.84-73.927c-6.359-25.939-2.63-61.543,10.235-97.67c6.171-17.33,23.536-59.211,51.421-73.771
	c8.874-4.639,20.872-6.992,35.652-6.992c21.307,0,44.994,4.871,66.696,13.717c26.152,10.658,47.653,26.479,62.183,45.754
	c26.064,34.583,25.061,86.052,21.877,114.888l7.091,0.138l22.506-18.698l36.82-20.278l-4.926-9.063l-41.675-8.174l-3.501-9.488
	c-0.365-0.989-9-24.507-14.485-50.54c-5.625-26.7-10.367-63.969,13.306-79.276c7.723-4.994,17.518-7.524,29.114-7.524
	c33.263,0,75.393,20.77,80.087,23.14l5.021,2.533l35.934,66.072c4.951,3.875,14.762,11.859,24.305,21.408
	c21.854,21.867,30.233,39.52,26.377,55.556c-3.766,15.762-21.216,32.516-51.736,60.771c-19.577,18.125-41.766,38.667-49.108,51.768
	c-9.224,16.444,8.018,33.826,20.604,43.624c10.608-11.457,26.778-29.194,36.398-41.075c9.482-11.754,28.798-29.333,48.047-43.721
	c25.969-19.412,47.112-29.904,62.843-31.188c1.025-0.084,2.08-0.127,3.137-0.127c18.719,0,39.658,13.263,61.824,27.304
	c13.215,8.37,33.184,21.019,40.699,21.019c0.027-0.001,0.038-0.001,0.042,0l0.597-0.106l0.711-0.068
	c1.407-0.136,6.155-1.147,9.97-1.96c12.402-2.642,29.387-6.258,44.346-6.258c25.01,0,34.521,10.99,38.092,20.21
	c6.593,17.001-1.824,44.056-10.05,63.758c-5.206,12.473-19.181,42.651-36.454,53.481c-4.435,2.77-9.75,4.167-15.825,4.168
	c-0.002,0-0.004,0-0.006,0c-16.253,0-40.188-10.529-67.902-22.722c-24.064-10.586-54.012-23.76-67.958-23.76
	c-1.34,0-1.9,0.149-1.906,0.15c-1.445,0.449-6.93,3.197-15.321,19.279c-7.022,13.462-13.506,31.092-20.368,49.755
	c-5.829,15.854-11.812,32.129-18.596,47.053c34.784,37.289,53.174,105.168,43.337,165.17c-4.443,27.182-25.34,67.129-43.413,95.448
	c-10.502,16.453-21.042,30.734-30.482,41.297c-13.905,15.563-24.424,22.205-35.168,22.21
	C626.018,912.824,626.014,912.824,626.01,912.824L626.01,912.824z M301.15,716.984c0.413,1.587,4.053,12.336,31.011,37.584
	c16.329,15.291,32.524,27.744,32.686,27.867l6.522,5.001l0.497,8.21c0.748,12.439,2.903,35.26,5.503,43.535
	c0.714,2.162,5.75,11.524,14.752,20.787c8.434,8.68,17.014,13.656,23.539,13.656c2.508,0,4.83-0.708,7.31-2.224
	c5.863-3.589,11.203-13.631,14.281-26.858c5.466-23.499,2.169-45.649-0.566-50.771c-3.594-3.264-12.379-9.751-20.891-16.037
	c-46.36-34.235-66.267-51.283-62.343-70.823c0.904-4.503,3.657-18.211,38.713-38.33c7.419-4.258,32.974-18.149,50.34-18.149
	c2.255,0,4.416,0.221,6.42,0.659c9.861,2.178,16.659,7.272,22.121,11.365c6.042,4.529,9.371,7.023,16.708,7.023l0.384-0.002
	c20.516-0.251,60.798-11.345,79.517-18.871l7.094-2.854l6.981,3.126c15.828,7.087,40.592,32.653,56.874,54.245
	c17.734,23.52,37.869,57.801,33.073,87.545c-2.193,13.68-7.158,27.646-12.763,41.006c1.915-2.937,3.882-6.039,5.901-9.31
	c18.39-29.797,32.021-59.753,34.73-76.313c4.198-25.614,2.213-54.415-5.593-81.104c-7.73-26.43-20.359-47.85-35.567-60.316
	l-11.302-9.265l6.744-12.967c8.293-15.949,15.626-35.894,22.717-55.181c16.201-44.063,30.193-82.118,58.847-91.011
	c3.775-1.167,7.992-1.757,12.545-1.757c21.518,0,51.12,13.022,82.458,26.81c17.82,7.838,41.856,18.412,51.791,19.569
	c3.893-3.911,11.81-14.803,19.825-33.427c7.422-17.241,10.025-29.765,10.46-35.848c-1.111-0.125-2.566-0.218-4.431-0.218
	c-11.169,0-26.62,3.291-36.847,5.469c-5.727,1.22-9.971,2.123-13.311,2.508c-1.782,0.277-3.632,0.416-5.511,0.416
	c-17.961,0-38.365-12.925-59.967-26.607c-13.65-8.647-34.28-21.714-42.554-21.714c-0.072,0-0.143,0.001-0.211,0.007
	c-6.169,0.503-21.451,7.126-44.211,24.139c-18.746,14.012-35.118,29.476-41.599,37.511c-16.048,19.821-47.398,53.004-48.725,54.407
	l-9.697,10.255l-12.274-6.968c-0.733-0.417-18.14-10.388-32.508-26.236c-21.859-24.11-26.552-50.48-13.216-74.252
	c10.117-18.052,33.47-39.673,56.055-60.581c14.814-13.717,36.946-34.207,40.932-42.293c-0.587-2.08-3.642-9.708-18.976-24.506
	c-10.635-10.264-21.05-18.011-21.152-18.089l-3.195-2.368l-34.189-62.867c-13.597-6.252-40.612-16.921-58.942-16.921
	c-5.382,0-8.05,0.962-9.127,1.507c-1.668,2.911-3.995,15.773,2.813,45.84c2.839,12.529,6.404,24.296,8.938,32.082l38.169,7.485
	l30.114,55.409l-65.187,35.9l-30.181,25.075l-63.004-1.229l4.712-21.44c4.257-19.601,10.387-77.069-12.131-106.948
	c-22.336-29.63-67.277-45.133-100.124-45.133c-9.904,0-16.298,1.497-18.979,2.898c-22.114,11.548-53.948,87.747-43.353,130.96
	c5.065,20.708,52.987,67.619,85.4,94.317l7.977,6.571l-9.886,61.117l-125.008,71.053l-9.157-5.862
	c-0.226-0.145-22.931-14.664-48.237-29.213c-34.989-20.116-50.335-26.187-56.376-28.019c-3.153,4.022-6.154,11.394-7.477,16.741
	c-1.009,28.676,0.349,64.309,4.313,76.066c2.499-0.563,5.934-2.098,8.592-3.68l37.485-39.871l13.028,10.832
	c28.844,23.984,61.46,46.256,72.363,49.584c4.873-2.66,14.944-11.422,23.195-18.599c19.407-16.881,45.987-40.002,79.21-55.631
	c0.969-0.457,2.408-1.272,3.931-2.135c7.292-4.13,18.311-10.371,33.652-10.371c3.793,0,7.668,0.394,11.522,1.171
	c45.986,9.249,69.087,49.411,70.049,51.117l13.311,23.62l-26.934,3.106c-17.707,2.063-50.544,9.073-63.231,19.095
	C322.512,654.276,302.914,697.664,301.15,716.984L301.15,716.984z"/>
</svg>
