<?xml version="1.0" encoding="UTF-8" standalone="no"?>
<svg
   xmlns:dc="http://purl.org/dc/elements/1.1/"
   xmlns:cc="http://creativecommons.org/ns#"
   xmlns:rdf="http://www.w3.org/1999/02/22-rdf-syntax-ns#"
   xmlns:svg="http://www.w3.org/2000/svg"
   xmlns="http://www.w3.org/2000/svg"
   width="1000"
   height="1000"
   viewBox="0 0 264.58333 264.58334"
   version="1.1"
   id="svg909">
  <defs
     id="defs903" />
  <metadata
     id="metadata906">
    <rdf:RDF>
      <cc:Work
         rdf:about="">
        <dc:format>image/svg+xml</dc:format>
        <dc:type
           rdf:resource="http://purl.org/dc/dcmitype/StillImage" />
        <dc:title></dc:title>
      </cc:Work>
    </rdf:RDF>
  </metadata>
  <g
     style="fill:#000000;fill-opacity:1"
     transform="matrix(2.6189878,0,0,2.6189878,-138.11438,-66.566639)"
     id="layer1">
    <path
       style="fill:#000000;fill-opacity:1;stroke:#000000;stroke-width:0.40000001;stroke-linecap:butt;stroke-linejoin:miter;stroke-miterlimit:4;stroke-dasharray:none;stroke-opacity:1"
       d="m 77.776825,48.628779 c -3.105953,0.0165 -2.465143,1.56905 -1.672249,3.00189 0.969595,1.75214 -6.046384,0.53457 -12.856064,7.17372 -3.69523,3.60269 -7.8302,7.46233 -8.56485,18.39112 -0.73465,10.9288 6.57401,26.601051 21.834325,26.890351 14.098468,0.26727 16.523001,-7.762201 17.760671,-13.268961 1.323287,-5.88768 -2.939907,-15.10068 -12.294338,-14.96704 -9.354428,0.13364 -12.428178,6.14692 -12.428178,10.15597 0,4.00904 2.27182,9.35447 8.686288,9.35447 6.414468,0 8.552552,-3.87524 8.953457,-7.2161 0.400905,-3.34087 -1.12866,-6.23284 -5.863206,-6.68176 -3.664545,-0.34747 -5.823431,2.30622 -5.896281,4.44314 -0.100228,2.93996 2.194808,3.98392 3.307291,4.04264 1.112483,0.0587 2.766575,-0.003 2.856155,-1.33635 0.10023,-1.49182 -0.935023,-1.63676 -1.686717,-1.62005 -0.534409,0.0119 -1.147985,-0.88438 -0.985986,-1.50379 0.121989,-0.46643 0.78549,-1.62036 2.790009,-0.81855 2.004523,0.8018 2.544982,3.13823 2.021065,4.67723 -0.534538,1.57021 -1.18617,3.2909 -5.228621,3.17397 -3.536694,-0.1023 -5.411874,-4.25964 -5.328354,-6.68177 0.0939,-2.724 3.190312,-7.1826 8.402068,-6.91534 5.211754,0.26728 8.953352,5.07775 7.884274,10.42314 -1.069079,5.34539 -6.013196,8.82024 -11.759488,8.55297 -5.746294,-0.26727 -11.359094,-6.68189 -10.423654,-13.09636 0.93544,-6.41447 5.87967,-10.95789 12.828675,-11.22516 6.949005,-0.26727 11.885592,0.016 15.894636,0.016 4.009047,0 6.155487,-1.61955 5.353677,-4.96042 -0.8018,-3.34086 -3.786135,-15.85543 -16.689419,-18.91977 -3.29736,-0.78307 -5.483391,-1.09268 -6.895186,-1.0852 z m 13.978992,10.35854 a 3.685268,3.685268 0 0 1 3.685563,3.68505 3.685268,3.685268 0 0 1 -3.685563,3.68556 3.685268,3.685268 0 0 1 -3.685048,-3.68556 3.685268,3.685268 0 0 1 3.685048,-3.68505 z"
       id="path882" />
    <path
       style="opacity:1;fill:#000000;fill-opacity:1;stroke:#000000;stroke-width:0.40000001;stroke-miterlimit:4;stroke-dasharray:none;stroke-opacity:1"
       d="m 138.24445,32.953249 a 13.49711,13.49711 0 0 0 -13.49685,13.49685 13.49711,13.49711 0 0 0 0.0465,1.06195 l -25.043431,7.84087 c 1.104251,1.4075 2.257151,3.10658 3.611151,6.01255 l 23.55566,-7.5799 a 13.49711,13.49711 0 0 0 11.32696,6.1619 13.49711,13.49711 0 0 0 13.49737,-13.49737 13.49711,13.49711 0 0 0 -13.49737,-13.49685 z"
       id="rect827" />
    <path
       style="opacity:1;fill:#000000;fill-opacity:1;stroke:#000000;stroke-width:0.40000001;stroke-miterlimit:4;stroke-dasharray:none;stroke-opacity:1"
       d="m 97.624193,88.491979 c 0.07421,3.57897 -0.303877,5.04652 -0.587044,6.95772 l 27.570411,8.739001 a 13.49711,13.49711 0 0 0 -0.0134,0.37258 13.49711,13.49711 0 0 0 13.49737,13.49737 13.49711,13.49711 0 0 0 13.49685,-13.49737 13.49711,13.49711 0 0 0 -13.49685,-13.496851 13.49711,13.49711 0 0 0 -11.65201,6.71794 z"
       id="rect827-1" />
    <circle
       style="opacity:1;fill:#000000;fill-opacity:1;stroke:#000000;stroke-width:0.40000001;stroke-miterlimit:4;stroke-dasharray:none;stroke-opacity:1"
       id="path888"
       cx="93.031555"
       cy="62.530666"
       r="1.3701637" />
  </g>
</svg>
