<?xml version="1.0" encoding="UTF-8" standalone="no"?>
<svg
   xmlns:dc="http://purl.org/dc/elements/1.1/"
   xmlns:cc="http://creativecommons.org/ns#"
   xmlns:rdf="http://www.w3.org/1999/02/22-rdf-syntax-ns#"
   xmlns:svg="http://www.w3.org/2000/svg"
   xmlns="http://www.w3.org/2000/svg"
   width="1000"
   height="1000"
   viewBox="0 0 264.58333 264.58334"
   version="1.1"
   id="svg909">
  <defs
     id="defs903" />
  <metadata
     id="metadata906">
    <rdf:RDF>
      <cc:Work
         rdf:about="">
        <dc:format>image/svg+xml</dc:format>
        <dc:type
           rdf:resource="http://purl.org/dc/dcmitype/StillImage" />
        <dc:title></dc:title>
      </cc:Work>
    </rdf:RDF>
  </metadata>
  <g
     transform="translate(0,-32.41665)"
     id="layer1">
    <path
       style="fill:#1b1b1b;fill-opacity:1;stroke:#000000;stroke-width:1.71210456;stroke-linecap:butt;stroke-linejoin:miter;stroke-miterlimit:4;stroke-dasharray:none;stroke-opacity:1"
       d="m 128.74663,48.188011 c -13.29429,0.07062 -10.55146,6.715944 -7.15766,12.848874 4.15012,7.499617 -25.880108,2.288099 -55.027316,30.705397 -15.81655,15.420458 -33.515303,31.940728 -36.659797,78.718798 -3.144494,46.77813 28.138482,113.85946 93.456613,115.09774 60.34513,1.14398 70.72277,-33.22425 76.02032,-56.79463 5.66401,-25.20081 -12.58357,-64.63485 -52.62298,-64.06284 -40.0394,0.57201 -53.195848,26.31042 -53.195848,43.47021 0,17.15974 9.723978,40.03957 37.179578,40.03957 27.4556,0 36.60716,-16.58704 38.32314,-30.88679 1.71598,-14.2998 -4.83096,-26.67818 -25.09606,-28.59968 -15.68521,-1.48726 -24.9258,9.87122 -25.23762,19.0178 -0.429,12.5838 9.39435,17.05222 14.15607,17.30356 4.76172,0.25125 11.84166,-0.0128 12.22509,-5.71993 0.42901,-6.38538 -4.00214,-7.00576 -7.21959,-6.93424 -2.28741,0.0509 -4.91368,-3.78538 -4.22028,-6.43661 0.52215,-1.99644 3.3621,-6.93557 11.94197,-3.50361 8.57988,3.43191 10.89319,13.43244 8.65069,20.01977 -2.28797,6.72091 -5.07712,14.08591 -22.37987,13.58542 -15.13797,-0.43787 -23.16423,-18.23237 -22.80675,-28.59972 0.40192,-11.65944 13.65537,-30.74341 35.96305,-29.59947 22.30767,1.14403 38.32269,21.7341 33.74675,44.61377 -4.57593,22.87966 -25.73805,37.75293 -50.33368,36.60894 -24.59564,-1.14398 -48.619888,-28.60023 -44.615958,-56.05584 4.00393,-27.45561 25.166518,-46.90263 54.910078,-48.04662 29.74356,-1.14398 50.87344,0.0685 68.0332,0.0685 17.15977,0 26.34709,-6.93209 22.91514,-21.23189 -3.43192,-14.29975 -16.20565,-67.865386 -71.43508,-80.981563 -14.11356,-3.351744 -23.47035,-4.676956 -29.5132,-4.644939 z m 59.83374,44.337259 a 15.77391,15.77391 0 0 1 15.77517,15.77298 15.77391,15.77391 0 0 1 -15.77517,15.77516 15.77391,15.77391 0 0 1 -15.77297,-15.77516 15.77391,15.77391 0 0 1 15.77297,-15.77298 z"
       id="path882" />
    <circle
       style="opacity:1;fill:#101010;fill-opacity:1;stroke:#000000;stroke-width:1.71210456;stroke-miterlimit:4;stroke-dasharray:none;stroke-opacity:1"
       id="path888"
       cx="194.04086"
       cy="107.69173"
       r="5.8646588" />
  </g>
</svg>
