<?xml version="1.0" encoding="utf-8"?>
<!-- Generator: Adobe Illustrator 14.0.0, SVG Export Plug-In . SVG Version: 6.00 Build 43363)  -->
<!DOCTYPE svg PUBLIC "-//W3C//DTD SVG 1.1 Basic//EN" "http://www.w3.org/Graphics/SVG/1.1/DTD/svg11-basic.dtd">
<svg version="1.1" baseProfile="basic" id="Layer_1"
	 xmlns="http://www.w3.org/2000/svg" xmlns:xlink="http://www.w3.org/1999/xlink" x="0px" y="0px" width="1000px" height="1000px"
	 viewBox="0 0 1000 1000" xml:space="preserve">
<g>
	<rect x="50.013" y="50.022" fill="#E87D25" width="899.955" height="899.955"/>
</g>
<g>
	<path fill="#FFFFFF" d="M484.99,341.368c4.958-0.236,9.966-0.368,15.017-0.368c5.04,0,10.036,0.132,14.983,0.366v-50.652
		l80.77-80.748L499.99,114.17l-95.787,95.796l80.786,80.748V341.368L484.99,341.368z"/>
	<path fill="#FFFFFF" d="M638.014,392.131l26.871-26.871h114.258V229.796h-135.44v114.223l-25.951,25.95
		C627.125,376.584,633.957,384.055,638.014,392.131z"/>
	<polygon fill="#FFFFFF" points="357.698,523.971 357.74,493.971 281.732,493.971 200.96,413.193 105.191,508.971 200.96,604.734 
		281.731,523.971 	"/>
	<path fill="#FFFFFF" d="M335.065,365.26l26.892,26.893c4.055-8.076,10.884-15.552,20.258-22.168l-25.936-25.937V229.796H220.805
		l0.019,135.464H335.065z"/>
	<path fill="#FFFFFF" d="M361.941,625.778l-26.918,26.918H220.805l0.019,135.436h135.438l0.016-114.264l25.911-25.91
		C372.814,641.337,365.993,633.857,361.941,625.778z"/>
	<polygon fill="#FFFFFF" points="799.004,413.194 718.236,493.971 642.31,493.971 642.335,523.971 718.236,523.971 799.004,604.732 
		894.79,508.971 	"/>
	<path fill="#FFFFFF" d="M638.029,625.797c-4.057,8.08-10.877,15.557-20.252,22.174l25.926,25.926v114.234h135.44V652.696H664.926
		L638.029,625.797z"/>
	<path fill="#FFFFFF" d="M514.99,676.575c-4.947,0.233-9.943,0.366-14.983,0.366c-5.051,0-10.059-0.133-15.017-0.366v50.653
		l-80.786,80.748l95.787,95.795l95.769-95.795l-80.77-80.746V676.575L514.99,676.575z"/>
</g>
<path fill="#FFFFFF" d="M595.973,460.415c-25.874,11.007-59.951,17.067-95.956,17.067c-36.01,0-70.096-6.062-95.976-17.067
	c-5.955-2.532-11.368-5.297-16.236-8.259l-0.225,159.741c0,7.579,11.064,17.194,28.189,24.476
	c22.256,9.461,52.172,14.672,84.237,14.672c32.058,0,61.966-5.211,84.214-14.672c17.119-7.279,28.18-16.896,28.18-24.497
	l-0.127-159.764C607.39,455.092,601.956,457.87,595.973,460.415z"/>
<path fill="#FFFFFF" d="M500.007,367.609c-32.063,0-61.979,5.213-84.235,14.679c-17.126,7.284-28.191,16.901-28.191,24.504
	c0,7.612,11.065,17.237,28.191,24.521c22.252,9.463,52.167,14.676,84.235,14.676c32.061,0,61.968-5.213,84.212-14.676
	c17.12-7.281,28.182-16.907,28.182-24.521c0-7.604-11.062-17.222-28.182-24.504C561.969,372.822,532.061,367.609,500.007,367.609
	L500.007,367.609z"/>
</svg>
