<?xml version="1.0" encoding="UTF-8" standalone="no"?>
<!-- Created with Inkscape (http://www.inkscape.org/) -->

<svg
   xmlns:dc="http://purl.org/dc/elements/1.1/"
   xmlns:cc="http://creativecommons.org/ns#"
   xmlns:rdf="http://www.w3.org/1999/02/22-rdf-syntax-ns#"
   xmlns:svg="http://www.w3.org/2000/svg"
   xmlns="http://www.w3.org/2000/svg"
   xmlns:sodipodi="http://sodipodi.sourceforge.net/DTD/sodipodi-0.dtd"
   xmlns:inkscape="http://www.inkscape.org/namespaces/inkscape"
   width="1000"
   height="1000"
   viewBox="0 0 264.58333 264.58334"
   version="1.1"
   id="svg876"
   inkscape:version="0.92.2 (5c3e80d, 2017-08-06)"
   sodipodi:docname="O.svg">
  <defs
     id="defs870" />
  <sodipodi:namedview
     id="base"
     pagecolor="#ffffff"
     bordercolor="#666666"
     borderopacity="1.0"
     inkscape:pageopacity="0.0"
     inkscape:pageshadow="2"
     inkscape:zoom="0.35"
     inkscape:cx="-272.85714"
     inkscape:cy="560"
     inkscape:document-units="mm"
     inkscape:current-layer="layer1"
     showgrid="false"
     units="px"
     inkscape:window-width="1920"
     inkscape:window-height="1005"
     inkscape:window-x="1911"
     inkscape:window-y="-9"
     inkscape:window-maximized="1" />
  <metadata
     id="metadata873">
    <rdf:RDF>
      <cc:Work
         rdf:about="">
        <dc:format>image/svg+xml</dc:format>
        <dc:type
           rdf:resource="http://purl.org/dc/dcmitype/StillImage" />
        <dc:title></dc:title>
      </cc:Work>
    </rdf:RDF>
  </metadata>
  <g
     inkscape:label="Calque 1"
     inkscape:groupmode="layer"
     id="layer1"
     transform="translate(0,-32.41664)">
    <path
       style="color:#000000;font-style:normal;font-variant:normal;font-weight:normal;font-stretch:normal;font-size:medium;line-height:normal;font-family:sans-serif;font-variant-ligatures:normal;font-variant-position:normal;font-variant-caps:normal;font-variant-numeric:normal;font-variant-alternates:normal;font-feature-settings:normal;text-indent:0;text-align:start;text-decoration:none;text-decoration-line:none;text-decoration-style:solid;text-decoration-color:#000000;letter-spacing:normal;word-spacing:normal;text-transform:none;writing-mode:lr-tb;direction:ltr;text-orientation:mixed;dominant-baseline:auto;baseline-shift:baseline;text-anchor:middle;white-space:normal;shape-padding:0;clip-rule:nonzero;display:inline;overflow:visible;visibility:visible;opacity:1;isolation:auto;mix-blend-mode:normal;color-interpolation:sRGB;color-interpolation-filters:linearRGB;solid-color:#000000;solid-opacity:1;vector-effect:none;fill:#000000;fill-opacity:1;fill-rule:nonzero;stroke:none;stroke-width:8.99672318;stroke-linecap:butt;stroke-linejoin:round;stroke-miterlimit:4;stroke-dasharray:none;stroke-dashoffset:0;stroke-opacity:1;color-rendering:auto;image-rendering:auto;shape-rendering:auto;text-rendering:auto;enable-background:accumulate"
       d="m 131.53572,50.179132 c -54.174274,0 -100.702568,38.6765 -110.575582,91.938598 -9.873159,53.26282 19.698102,106.06258 70.277674,125.4761 2.319548,0.89024 4.921621,-0.26836 5.811987,-2.58786 L 122.30183,199.2106 c 0.89023,-2.31957 -0.26838,-4.92164 -2.58789,-5.812 -14.87072,-5.70891 -23.515673,-21.14784 -20.612431,-36.80689 2.903191,-15.6588 16.504681,-26.96534 32.434211,-26.96534 15.92952,0 29.53338,11.30654 32.43657,26.96534 2.90326,15.65905 -5.74171,31.09798 -20.61242,36.80689 -2.31951,0.89036 -3.47812,3.49245 -2.58788,5.812 l 25.25202,65.79537 c 0.89038,2.31821 3.49074,3.47652 5.8096,2.58786 50.57958,-19.41352 80.15083,-72.21328 70.27768,-125.4761 -9.87301,-53.262098 -56.4013,-91.938598 -110.57557,-91.938598 z"
       id="path3773"
       inkscape:connector-curvature="0"
       sodipodi:nodetypes="ssccscsssccccss" />
    <g
       style="display:inline"
       id="g3797"
       transform="matrix(1.2200654,0,0,1.2200654,455.86197,1099.5367)"
       inkscape:export-filename="/home/rafael/workspace/logo-osi/3/png/logo396x412.png"
       inkscape:export-xdpi="48.18"
       inkscape:export-ydpi="48.18">
      <path
         style="color:#000000;font-style:normal;font-variant:normal;font-weight:normal;font-stretch:normal;font-size:medium;line-height:normal;font-family:sans-serif;font-variant-ligatures:normal;font-variant-position:normal;font-variant-caps:normal;font-variant-numeric:normal;font-variant-alternates:normal;font-feature-settings:normal;text-indent:0;text-align:start;text-decoration:none;text-decoration-line:none;text-decoration-style:solid;text-decoration-color:#000000;letter-spacing:normal;word-spacing:normal;text-transform:none;writing-mode:lr-tb;direction:ltr;text-orientation:mixed;dominant-baseline:auto;baseline-shift:baseline;text-anchor:start;white-space:normal;shape-padding:0;clip-rule:nonzero;display:inline;overflow:visible;visibility:visible;opacity:1;isolation:auto;mix-blend-mode:normal;color-interpolation:sRGB;color-interpolation-filters:linearRGB;solid-color:#000000;solid-opacity:1;vector-effect:none;fill:#000000;fill-opacity:1;fill-rule:nonzero;stroke:none;stroke-width:2.25831962;stroke-linecap:butt;stroke-linejoin:miter;stroke-miterlimit:4;stroke-dasharray:none;stroke-dashoffset:0;stroke-opacity:1;color-rendering:auto;image-rendering:auto;shape-rendering:auto;text-rendering:auto;enable-background:accumulate"
         d="m -183.5617,-698.57555 c -5.02556,0 -9.12392,4.09113 -9.12392,9.10782 0,5.01668 4.09836,9.10781 9.12392,9.10781 5.02556,0 9.12392,-4.09113 9.12392,-9.10781 0,-5.01669 -4.09836,-9.10782 -9.12392,-9.10782 z m 0,2.25596 c 3.80399,0 6.8633,3.05458 6.8633,6.85186 0,3.79727 -3.05931,6.85119 -6.8633,6.85119 -3.80399,0 -6.86397,-3.05392 -6.86397,-6.85119 0,-3.79728 3.05998,-6.85186 6.86397,-6.85186 z"
         id="path3015"
         inkscape:connector-curvature="0" />
      <g
         aria-label="R"
         style="font-style:normal;font-variant:normal;font-weight:bold;font-stretch:normal;line-height:0%;font-family:OpenSymbol;-inkscape-font-specification:'OpenSymbol Bold';letter-spacing:0px;word-spacing:0px;fill:#000000;fill-opacity:1;stroke:none"
         id="text3793">
        <path
           inkscape:connector-curvature="0"
           d="m -183.7552,-690.46513 q 0.74769,0 1.06902,-0.27807 0.3275,-0.27807 0.3275,-0.91454 0,-0.63028 -0.3275,-0.90217 -0.32133,-0.27189 -1.06902,-0.27189 h -1.00105 v 2.36667 z m -1.00105,1.64369 v 3.4913 h -2.37902 v -9.22569 h 3.63342 q 1.82289,0 2.66946,0.61175 0.85274,0.61175 0.85274,1.93412 0,0.91454 -0.44491,1.50157 -0.43873,0.58703 -1.32855,0.8651 0.48817,0.11123 0.87128,0.50671 0.3893,0.38929 0.78477,1.18642 l 1.29147,2.62002 h -2.53351 l -1.12463,-2.29252 q -0.33986,-0.69208 -0.69208,-0.94543 -0.34604,-0.25335 -0.92689,-0.25335 z"
           style="font-size:12.65519524px;line-height:1.25"
           id="path863" />
      </g>
    </g>
  </g>
</svg>
