<svg xmlns="http://www.w3.org/2000/svg"  viewBox="0 0 48 48" width="96px" height="96px"><linearGradient id="mv_DwPz_GcV~datTQ_sP3a" x1="27.258" x2="38.501" y1="18.189" y2="44.314" gradientTransform="rotate(90 23.5 24)" gradientUnits="userSpaceOnUse"><stop offset="0" stop-color="#32bdef"/><stop offset="1" stop-color="#1ea2e4"/></linearGradient><path fill="url(#mv_DwPz_GcV~datTQ_sP3a)" d="M14,41.19V37h14c0.552,0,1-0.448,1-1v-4c0-0.552-0.448-1-1-1H14v-4.19 c0-0.72-0.87-1.08-1.379-0.571L5.92,32.939c-0.586,0.586-0.586,1.536,0,2.121l6.701,6.701C13.13,42.271,14,41.91,14,41.19z"/><linearGradient id="mv_DwPz_GcV~datTQ_sP3b" x1="32.674" x2="34.456" y1="9.581" y2="13.722" gradientTransform="rotate(90 23.5 24)" gradientUnits="userSpaceOnUse"><stop offset="0" stop-color="#32bdef"/><stop offset="1" stop-color="#1ea2e4"/></linearGradient><path fill="url(#mv_DwPz_GcV~datTQ_sP3b)" d="M35,36v-4c0-0.552,0.448-1,1-1l0,0c0.552,0,1,0.448,1,1v4c0,0.552-0.448,1-1,1l0,0 C35.448,37,35,36.552,35,36z"/><linearGradient id="mv_DwPz_GcV~datTQ_sP3c" x1="32.674" x2="34.456" y1="5.581" y2="9.722" gradientTransform="rotate(90 23.5 24)" gradientUnits="userSpaceOnUse"><stop offset="0" stop-color="#32bdef"/><stop offset="1" stop-color="#1ea2e4"/></linearGradient><path fill="url(#mv_DwPz_GcV~datTQ_sP3c)" d="M39,36v-4c0-0.552,0.448-1,1-1l0,0c0.552,0,1,0.448,1,1v4c0,0.552-0.448,1-1,1l0,0 C39.448,37,39,36.552,39,36z"/><linearGradient id="mv_DwPz_GcV~datTQ_sP3d" x1="32.674" x2="34.456" y1="13.581" y2="17.722" gradientTransform="rotate(90 23.5 24)" gradientUnits="userSpaceOnUse"><stop offset="0" stop-color="#32bdef"/><stop offset="1" stop-color="#1ea2e4"/></linearGradient><path fill="url(#mv_DwPz_GcV~datTQ_sP3d)" d="M31,36v-4c0-0.552,0.448-1,1-1h0c0.552,0,1,0.448,1,1v4c0,0.552-0.448,1-1,1h0 C31.448,37,31,36.552,31,36z"/><linearGradient id="mv_DwPz_GcV~datTQ_sP3e" x1="551.258" x2="562.501" y1="-252.291" y2="-226.167" gradientTransform="rotate(-90 421.24 151.26)" gradientUnits="userSpaceOnUse"><stop offset="0" stop-color="#1ea2e4"/><stop offset="1" stop-color="#32bdef"/></linearGradient><path fill="url(#mv_DwPz_GcV~datTQ_sP3e)" d="M33,7.81V12H19c-0.552,0-1,0.448-1,1v4c0,0.552,0.448,1,1,1h14v4.19 c0,0.72,0.87,1.08,1.379,0.571l6.701-6.701c0.586-0.586,0.586-1.536,0-2.121l-6.701-6.701C33.87,6.729,33,7.09,33,7.81z"/><linearGradient id="mv_DwPz_GcV~datTQ_sP3f" x1="556.674" x2="558.456" y1="-260.899" y2="-256.759" gradientTransform="rotate(-90 421.24 151.26)" gradientUnits="userSpaceOnUse"><stop offset="0" stop-color="#1ea2e4"/><stop offset="1" stop-color="#32bdef"/></linearGradient><path fill="url(#mv_DwPz_GcV~datTQ_sP3f)" d="M12,13v4c0,0.552-0.448,1-1,1h0c-0.552,0-1-0.448-1-1v-4c0-0.552,0.448-1,1-1h0 C11.552,12,12,12.448,12,13z"/><linearGradient id="mv_DwPz_GcV~datTQ_sP3g" x1="556.674" x2="558.456" y1="-264.899" y2="-260.759" gradientTransform="rotate(-90 421.24 151.26)" gradientUnits="userSpaceOnUse"><stop offset="0" stop-color="#1ea2e4"/><stop offset="1" stop-color="#32bdef"/></linearGradient><path fill="url(#mv_DwPz_GcV~datTQ_sP3g)" d="M8,13v4c0,0.552-0.448,1-1,1h0c-0.552,0-1-0.448-1-1v-4c0-0.552,0.448-1,1-1h0 C7.552,12,8,12.448,8,13z"/><linearGradient id="mv_DwPz_GcV~datTQ_sP3h" x1="556.674" x2="558.456" y1="-256.899" y2="-252.758" gradientTransform="rotate(-90 421.24 151.26)" gradientUnits="userSpaceOnUse"><stop offset="0" stop-color="#1ea2e4"/><stop offset="1" stop-color="#32bdef"/></linearGradient><path fill="url(#mv_DwPz_GcV~datTQ_sP3h)" d="M16,13v4c0,0.552-0.448,1-1,1h0c-0.552,0-1-0.448-1-1v-4c0-0.552,0.448-1,1-1h0 C15.552,12,16,12.448,16,13z"/></svg>