<?xml version="1.0" encoding="UTF-8" standalone="no"?>
<svg
   viewBox="0 0 48 48"
   width="240px"
   height="240px"
   version="1.1"
   id="svg1055"
   sodipodi:docname="icons8-high-priority-escalated.svg"
   inkscape:version="1.1.1 (3bf5ae0d25, 2021-09-20)"
   xmlns:inkscape="http://www.inkscape.org/namespaces/inkscape"
   xmlns:sodipodi="http://sodipodi.sourceforge.net/DTD/sodipodi-0.dtd"
   xmlns="http://www.w3.org/2000/svg"
   xmlns:svg="http://www.w3.org/2000/svg">
  <defs
     id="defs1059">
    <linearGradient
       id="292ZNU5MPmDF0766Lv66ba"
       x1="19.190001"
       x2="26.613001"
       y1="3.655"
       y2="44.409"
       gradientUnits="userSpaceOnUse"
       gradientTransform="matrix(0.36199052,0,0,0.36199052,30.055032,28.110085)">
      <stop
         offset="0"
         stop-color="#f44f5a"
         id="stop2-35" />
      <stop
         offset=".443"
         stop-color="#ee3d4a"
         id="stop4-62" />
      <stop
         offset="1"
         stop-color="#e52030"
         id="stop6" />
    </linearGradient>
    <linearGradient
       id="292ZNU5MPmDF0766Lv66bb"
       x1="21.114"
       x2="25.568001"
       y1="20.193001"
       y2="44.646"
       gradientUnits="userSpaceOnUse"
       gradientTransform="matrix(0.36199052,0,0,0.36199052,30.055032,28.110085)">
      <stop
         offset="0"
         stop-color="#fed100"
         id="stop11-7" />
      <stop
         offset=".156"
         stop-color="#fdcb00"
         id="stop13-5" />
      <stop
         offset=".365"
         stop-color="#f9ba00"
         id="stop15" />
      <stop
         offset=".604"
         stop-color="#f29e00"
         id="stop17" />
      <stop
         offset=".863"
         stop-color="#e97701"
         id="stop19" />
      <stop
         offset="1"
         stop-color="#e36001"
         id="stop21" />
    </linearGradient>
  </defs>
  <sodipodi:namedview
     id="namedview1057"
     pagecolor="#ffffff"
     bordercolor="#666666"
     borderopacity="1.0"
     inkscape:pageshadow="2"
     inkscape:pageopacity="0.0"
     inkscape:pagecheckerboard="0"
     showgrid="false"
     inkscape:zoom="2.8416667"
     inkscape:cx="120"
     inkscape:cy="120"
     inkscape:window-width="2560"
     inkscape:window-height="1382"
     inkscape:window-x="1920"
     inkscape:window-y="314"
     inkscape:window-maximized="1"
     inkscape:current-layer="svg1055" />
  <linearGradient
     id="4gxhD6rb0fy8MaMo0tgl7a"
     x1="11.933"
     x2="35.436"
     y1="11.933"
     y2="35.436"
     gradientUnits="userSpaceOnUse">
    <stop
       offset="0"
       stop-color="#f44f5a"
       id="stop1044" />
    <stop
       offset=".443"
       stop-color="#ee3d4a"
       id="stop1046" />
    <stop
       offset="1"
       stop-color="#e52030"
       id="stop1048" />
  </linearGradient>
  <path
     fill="url(#4gxhD6rb0fy8MaMo0tgl7a)"
     d="M22.583,45.413L2.587,25.417c-0.783-0.783-0.783-2.051,0-2.834L22.583,2.587 c0.783-0.783,2.051-0.783,2.834,0l19.996,19.996c0.783,0.783,0.783,2.051,0,2.834L25.417,45.413 C24.634,46.196,23.366,46.196,22.583,45.413z"
     id="path1051" />
  <path
     fill="#fff"
     d="M24.014,34c-0.732,0-1.336-0.222-1.812-0.666c-0.476-0.444-0.714-0.981-0.714-1.613 c0-0.659,0.24-1.199,0.721-1.62c0.48-0.421,1.082-0.631,1.805-0.631c0.732,0,1.332,0.213,1.798,0.638 c0.467,0.426,0.7,0.963,0.7,1.613c0,0.659-0.231,1.203-0.693,1.633S24.755,34,24.014,34z M26.236,14.721l-0.481,12.175 c-0.015,0.372-0.321,0.666-0.693,0.666h-2.179c-0.373,0-0.679-0.295-0.693-0.668L21.735,14.72c-0.015-0.393,0.3-0.72,0.693-0.72 h3.116C25.937,14,26.252,14.327,26.236,14.721z"
     id="path1053" />
  <path
     fill="url(#292ZNU5MPmDF0766Lv66ba)"
     d="m 44.172662,38.969799 c 0,2.99873 -2.431128,5.429858 -5.429858,5.429858 -2.998728,0 -5.429856,-2.431128 -5.429856,-5.429858 0,-3.43348 4.036918,-8.34931 5.148954,-9.638358 0.148776,-0.17267 0.412666,-0.17267 0.561446,0 1.112396,1.289048 5.149314,6.204878 5.149314,9.638358 z"
     id="path9-9"
     style="fill:url(#292ZNU5MPmDF0766Lv66ba);stroke-width:0.361992" />
  <path
     fill="url(#292ZNU5MPmDF0766Lv66bb)"
     d="m 42.00072,41.141741 c 0,1.799456 -1.458462,3.257916 -3.257916,3.257916 -1.799454,0 -3.257914,-1.45846 -3.257914,-3.257916 0,-2.060086 2.422078,-5.009584 3.08959,-5.783158 0.08941,-0.10353 0.2476,-0.10353 0.337012,0 0.667148,0.773574 3.089228,3.723072 3.089228,5.783158 z"
     id="path24"
     style="fill:url(#292ZNU5MPmDF0766Lv66bb);stroke-width:0.361992" />
</svg>
