<?xml version="1.0" encoding="UTF-8"?>
<svg xmlns="http://www.w3.org/2000/svg" xmlns:xlink="http://www.w3.org/1999/xlink" viewBox="0 0 240 240" width="240px" height="240px">
<defs>
<linearGradient id="linear0" gradientUnits="userSpaceOnUse" x1="42.759918" y1="42.759918" x2="126.978996" y2="126.978996" gradientTransform="matrix(1.395349,0,0,1.395349,0,0)">
<stop offset="0" style="stop-color:rgb(77.64706%,78.431374%,78.431374%);stop-opacity:1;"/>
<stop offset="0.443" style="stop-color:rgb(58.431375%,64.705884%,65.098041%);stop-opacity:1;"/>
<stop offset="1" style="stop-color:rgb(44.313726%,44.313726%,44.313726%);stop-opacity:1;"/>
</linearGradient>
</defs>
<g id="surface58764091">
<path style=" stroke:none;fill-rule:nonzero;fill:url(#linear0);" d="M 112.914062 227.066406 L 12.933594 127.085938 C 9.019531 123.171875 9.019531 116.828125 12.933594 112.914062 L 112.914062 12.933594 C 116.828125 9.019531 123.171875 9.019531 127.085938 12.933594 L 227.066406 112.914062 C 230.980469 116.828125 230.980469 123.171875 227.066406 127.085938 L 127.085938 227.066406 C 123.171875 230.980469 116.828125 230.980469 112.914062 227.066406 Z M 112.914062 227.066406 "/>
<path style=" stroke:none;fill-rule:nonzero;fill:rgb(100%,100%,100%);fill-opacity:1;" d="M 120.070312 170 C 116.410156 170 113.390625 168.890625 111.011719 166.671875 C 108.628906 164.449219 107.441406 161.765625 107.441406 158.605469 C 107.441406 155.308594 108.640625 152.609375 111.046875 150.503906 C 113.445312 148.398438 116.453125 147.351562 120.070312 147.351562 C 123.730469 147.351562 126.730469 148.414062 129.058594 150.539062 C 131.394531 152.671875 132.558594 155.355469 132.558594 158.605469 C 132.558594 161.898438 131.40625 164.621094 129.09375 166.769531 C 126.785156 168.921875 123.773438 170 120.070312 170 Z M 131.179688 73.605469 L 128.773438 134.480469 C 128.699219 136.339844 127.171875 137.808594 125.308594 137.808594 L 114.414062 137.808594 C 112.550781 137.808594 111.019531 136.335938 110.949219 134.46875 L 108.675781 73.601562 C 108.601562 71.636719 110.175781 70 112.140625 70 L 127.71875 70 C 129.683594 70 131.261719 71.636719 131.179688 73.605469 Z M 131.179688 73.605469 "/>
</g>
</svg>
